%TF.GenerationSoftware,KiCad,Pcbnew,10.0.6*%
%TF.CreationDate,2026-09-14T15:06:10+02:00*%
%TF.ProjectId,clotty,636c6f74-7479-42e6-9b69-6361645f7063,rev?*%
%TF.SameCoordinates,Original*%
%TF.FileFunction,Soldermask,Bot*%
%TF.FilePolarity,Negative*%
%FSLAX46Y46*%
G04 Gerber Fmt 4.6, Leading zero omitted, Abs format (unit mm)*
G04 Created by KiCad (PCBNEW 10.0.6) date 2026-09-14 15:06:10*
%MOMM*%
%LPD*%
G01*
G04 APERTURE LIST*
G04 Aperture macros list*
%AMRoundRect*
0 Rectangle with rounded corners*
0 $1 Rounding radius*
0 $2 $3 $4 $5 $6 $7 $8 $9 X,Y pos of 4 corners*
0 Add a 4 corners polygon primitive as box body*
4,1,4,$2,$3,$4,$5,$6,$7,$8,$9,$2,$3,0*
0 Add four circle primitives for the rounded corners*
1,1,$1+$1,$2,$3*
1,1,$1+$1,$4,$5*
1,1,$1+$1,$6,$7*
1,1,$1+$1,$8,$9*
0 Add four rect primitives between the rounded corners*
20,1,$1+$1,$2,$3,$4,$5,0*
20,1,$1+$1,$4,$5,$6,$7,0*
20,1,$1+$1,$6,$7,$8,$9,0*
20,1,$1+$1,$8,$9,$2,$3,0*%
%AMHorizOval*
0 Thick line with rounded ends*
0 $1 width*
0 $2 $3 position (X,Y) of the first rounded end (center of the circle)*
0 $4 $5 position (X,Y) of the second rounded end (center of the circle)*
0 Add line between two ends*
20,1,$1,$2,$3,$4,$5,0*
0 Add two circle primitives to create the rounded ends*
1,1,$1,$2,$3*
1,1,$1,$4,$5*%
%AMRotRect*
0 Rectangle, with rotation*
0 The origin of the aperture is its center*
0 $1 length*
0 $2 width*
0 $3 Rotation angle, in degrees counterclockwise*
0 Add horizontal line*
21,1,$1,$2,0,0,$3*%
G04 Aperture macros list end*
%ADD10C,0.010000*%
%ADD11R,1.700000X1.700000*%
%ADD12C,1.700000*%
%ADD13RotRect,1.070000X0.600000X215.000000*%
%ADD14RoundRect,0.162500X-0.650000X-0.162500X0.650000X-0.162500X0.650000X0.162500X-0.650000X0.162500X0*%
%ADD15R,1.200000X1.400000*%
%ADD16RoundRect,0.200000X0.275000X-0.200000X0.275000X0.200000X-0.275000X0.200000X-0.275000X-0.200000X0*%
%ADD17RoundRect,0.200000X-0.200000X-0.275000X0.200000X-0.275000X0.200000X0.275000X-0.200000X0.275000X0*%
%ADD18RotRect,1.000000X3.800000X125.000000*%
%ADD19RotRect,1.500000X3.400000X125.000000*%
%ADD20R,1.000000X0.650000*%
%ADD21RoundRect,0.225000X-0.250000X0.225000X-0.250000X-0.225000X0.250000X-0.225000X0.250000X0.225000X0*%
%ADD22R,0.500000X0.800000*%
%ADD23RoundRect,0.225000X-0.225000X-0.250000X0.225000X-0.250000X0.225000X0.250000X-0.225000X0.250000X0*%
%ADD24RoundRect,0.225000X0.075733X-0.327703X0.333843X0.040915X-0.075733X0.327703X-0.333843X-0.040915X0*%
%ADD25R,2.600000X3.600000*%
%ADD26RoundRect,0.250000X-0.475000X0.250000X-0.475000X-0.250000X0.475000X-0.250000X0.475000X0.250000X0*%
%ADD27R,0.700000X1.250000*%
%ADD28RotRect,1.500000X1.500000X230.000000*%
%ADD29R,0.280000X0.665000*%
%ADD30R,2.000000X1.200000*%
%ADD31RoundRect,0.225000X0.250000X-0.225000X0.250000X0.225000X-0.250000X0.225000X-0.250000X-0.225000X0*%
%ADD32C,0.650000*%
%ADD33RoundRect,0.150000X0.150000X0.425000X-0.150000X0.425000X-0.150000X-0.425000X0.150000X-0.425000X0*%
%ADD34RoundRect,0.075000X0.075000X0.500000X-0.075000X0.500000X-0.075000X-0.500000X0.075000X-0.500000X0*%
%ADD35O,1.000000X1.800000*%
%ADD36O,1.000000X2.100000*%
%ADD37RoundRect,0.200000X0.200000X0.275000X-0.200000X0.275000X-0.200000X-0.275000X0.200000X-0.275000X0*%
%ADD38RoundRect,0.200000X0.006097X0.339982X-0.321564X0.110552X-0.006097X-0.339982X0.321564X-0.110552X0*%
%ADD39R,2.400000X1.500000*%
%ADD40RoundRect,0.050000X-0.387500X-0.050000X0.387500X-0.050000X0.387500X0.050000X-0.387500X0.050000X0*%
%ADD41RoundRect,0.050000X-0.050000X-0.387500X0.050000X-0.387500X0.050000X0.387500X-0.050000X0.387500X0*%
%ADD42R,3.200000X3.200000*%
%ADD43R,0.864000X0.806500*%
%ADD44RoundRect,0.200000X-0.006097X-0.339982X0.321564X-0.110552X0.006097X0.339982X-0.321564X0.110552X0*%
%ADD45RoundRect,0.250000X0.475000X-0.250000X0.475000X0.250000X-0.475000X0.250000X-0.475000X-0.250000X0*%
%ADD46RoundRect,0.250000X0.496835X0.203174X0.113813X0.524568X-0.496835X-0.203174X-0.113813X-0.524568X0*%
%ADD47RoundRect,0.225000X0.225000X0.250000X-0.225000X0.250000X-0.225000X-0.250000X0.225000X-0.250000X0*%
%ADD48RoundRect,0.200000X-0.082105X0.329975X-0.339220X0.023558X0.082105X-0.329975X0.339220X-0.023558X0*%
%ADD49R,1.000000X1.000000*%
%ADD50R,1.300000X0.900000*%
%ADD51RoundRect,0.225000X0.327703X0.075733X-0.040915X0.333843X-0.327703X-0.075733X0.040915X-0.333843X0*%
%ADD52RoundRect,0.225000X0.046884X-0.333057X0.336138X0.011663X-0.046884X0.333057X-0.336138X-0.011663X0*%
%ADD53RoundRect,0.250000X-0.250000X-0.475000X0.250000X-0.475000X0.250000X0.475000X-0.250000X0.475000X0*%
%ADD54HorizOval,0.568500X0.396198X0.565829X-0.396198X-0.565829X0*%
%ADD55HorizOval,0.280000X-0.167125X-0.199172X0.167125X0.199172X0*%
%ADD56HorizOval,0.280000X-0.199172X0.167125X0.199172X-0.167125X0*%
%ADD57RoundRect,0.200000X-0.275000X0.200000X-0.275000X-0.200000X0.275000X-0.200000X0.275000X0.200000X0*%
%ADD58R,0.700000X1.500000*%
%ADD59R,1.000000X0.800000*%
%ADD60RoundRect,0.200000X0.321564X0.110552X-0.006097X0.339982X-0.321564X-0.110552X0.006097X-0.339982X0*%
%ADD61RotRect,1.000000X1.000000X235.000000*%
%ADD62RotRect,1.000000X1.100000X55.000000*%
%ADD63RotRect,2.000000X0.700000X55.000000*%
%ADD64RotRect,0.406000X1.397000X145.000000*%
%ADD65RoundRect,0.225000X0.040915X0.333843X-0.327703X0.075733X-0.040915X-0.333843X0.327703X-0.075733X0*%
%ADD66O,0.800000X0.280000*%
%ADD67O,0.280000X0.800000*%
%ADD68R,1.100000X1.000000*%
%ADD69R,0.700000X2.000000*%
%ADD70RoundRect,0.225000X-0.333057X-0.046884X0.011663X-0.336138X0.333057X0.046884X-0.011663X0.336138X0*%
%ADD71RotRect,1.500000X1.500000X235.000000*%
%ADD72RotRect,1.100000X0.800000X50.000000*%
%ADD73RotRect,1.100000X1.001000X50.000000*%
%ADD74R,0.300000X0.850000*%
G04 APERTURE END LIST*
D10*
%TO.C,G\u002A\u002A\u002A*%
X136732978Y-108897632D02*
X136777619Y-108911139D01*
X136831144Y-108941446D01*
X136867082Y-108985116D01*
X136890051Y-109051318D01*
X136904668Y-109149224D01*
X136906394Y-109166876D01*
X136918702Y-109256666D01*
X136940836Y-109322637D01*
X136979785Y-109372119D01*
X137042537Y-109412440D01*
X137136082Y-109450930D01*
X137197402Y-109472051D01*
X137296846Y-109507202D01*
X137367215Y-109538543D01*
X137420436Y-109572794D01*
X137468436Y-109616680D01*
X137484817Y-109634046D01*
X137583807Y-109766193D01*
X137642476Y-109905750D01*
X137662721Y-110055508D01*
X137654812Y-110162795D01*
X137623350Y-110243688D01*
X137561681Y-110309849D01*
X137490335Y-110357558D01*
X137398053Y-110416601D01*
X137320254Y-110479968D01*
X137247926Y-110556846D01*
X137172057Y-110656420D01*
X137114795Y-110740348D01*
X136988193Y-110911514D01*
X136857470Y-111050801D01*
X136725406Y-111156361D01*
X136594780Y-111226349D01*
X136468372Y-111258918D01*
X136348962Y-111252221D01*
X136345453Y-111251378D01*
X136238228Y-111206988D01*
X136129141Y-111129702D01*
X136027949Y-111027332D01*
X135971827Y-110952248D01*
X135898296Y-110849771D01*
X135826519Y-110772438D01*
X135744038Y-110709752D01*
X135638392Y-110651217D01*
X135583327Y-110624980D01*
X135501134Y-110584195D01*
X135428461Y-110543171D01*
X135378489Y-110509467D01*
X135371558Y-110503514D01*
X135297640Y-110413324D01*
X135239282Y-110302255D01*
X135207057Y-110190593D01*
X135206525Y-110186865D01*
X135202484Y-110138415D01*
X135206794Y-110092238D01*
X135222287Y-110037927D01*
X135251797Y-109965077D01*
X135289621Y-109881662D01*
X135332297Y-109786071D01*
X135370042Y-109695215D01*
X135397783Y-109621637D01*
X135408160Y-109588591D01*
X135467747Y-109441401D01*
X135563450Y-109312650D01*
X135692280Y-109204559D01*
X135851249Y-109119349D01*
X136037370Y-109059240D01*
X136149056Y-109037860D01*
X136252519Y-109019224D01*
X136352920Y-108995742D01*
X136434357Y-108971334D01*
X136460702Y-108961038D01*
X136573561Y-108916564D01*
X136661344Y-108895897D01*
X136732978Y-108897632D01*
G36*
X136732978Y-108897632D02*
G01*
X136777619Y-108911139D01*
X136831144Y-108941446D01*
X136867082Y-108985116D01*
X136890051Y-109051318D01*
X136904668Y-109149224D01*
X136906394Y-109166876D01*
X136918702Y-109256666D01*
X136940836Y-109322637D01*
X136979785Y-109372119D01*
X137042537Y-109412440D01*
X137136082Y-109450930D01*
X137197402Y-109472051D01*
X137296846Y-109507202D01*
X137367215Y-109538543D01*
X137420436Y-109572794D01*
X137468436Y-109616680D01*
X137484817Y-109634046D01*
X137583807Y-109766193D01*
X137642476Y-109905750D01*
X137662721Y-110055508D01*
X137654812Y-110162795D01*
X137623350Y-110243688D01*
X137561681Y-110309849D01*
X137490335Y-110357558D01*
X137398053Y-110416601D01*
X137320254Y-110479968D01*
X137247926Y-110556846D01*
X137172057Y-110656420D01*
X137114795Y-110740348D01*
X136988193Y-110911514D01*
X136857470Y-111050801D01*
X136725406Y-111156361D01*
X136594780Y-111226349D01*
X136468372Y-111258918D01*
X136348962Y-111252221D01*
X136345453Y-111251378D01*
X136238228Y-111206988D01*
X136129141Y-111129702D01*
X136027949Y-111027332D01*
X135971827Y-110952248D01*
X135898296Y-110849771D01*
X135826519Y-110772438D01*
X135744038Y-110709752D01*
X135638392Y-110651217D01*
X135583327Y-110624980D01*
X135501134Y-110584195D01*
X135428461Y-110543171D01*
X135378489Y-110509467D01*
X135371558Y-110503514D01*
X135297640Y-110413324D01*
X135239282Y-110302255D01*
X135207057Y-110190593D01*
X135206525Y-110186865D01*
X135202484Y-110138415D01*
X135206794Y-110092238D01*
X135222287Y-110037927D01*
X135251797Y-109965077D01*
X135289621Y-109881662D01*
X135332297Y-109786071D01*
X135370042Y-109695215D01*
X135397783Y-109621637D01*
X135408160Y-109588591D01*
X135467747Y-109441401D01*
X135563450Y-109312650D01*
X135692280Y-109204559D01*
X135851249Y-109119349D01*
X136037370Y-109059240D01*
X136149056Y-109037860D01*
X136252519Y-109019224D01*
X136352920Y-108995742D01*
X136434357Y-108971334D01*
X136460702Y-108961038D01*
X136573561Y-108916564D01*
X136661344Y-108895897D01*
X136732978Y-108897632D01*
G37*
%TD*%
D11*
%TO.C,J1*%
X129159999Y-58440000D03*
D12*
X131700000Y-58440000D03*
X134240001Y-58439999D03*
X136780006Y-58440004D03*
X139319999Y-58440000D03*
X141859999Y-58440000D03*
X144400005Y-58439999D03*
%TD*%
D13*
%TO.C,Q1*%
X166815793Y-49858126D03*
X165725998Y-48301738D03*
X168294200Y-47663199D03*
%TD*%
D14*
%TO.C,U2*%
X142059995Y-114289997D03*
X142059996Y-113020001D03*
X142060001Y-111749997D03*
X142060000Y-110480000D03*
X149235001Y-110479999D03*
X149235000Y-111749995D03*
X149234995Y-113019999D03*
X149234996Y-114289996D03*
%TD*%
D15*
%TO.C,Y1*%
X145873750Y-90720241D03*
X145873753Y-92920242D03*
X144173752Y-92920241D03*
X144173749Y-90720240D03*
%TD*%
D16*
%TO.C,R_TMR1*%
X152556087Y-70375018D03*
X152556089Y-68725016D03*
%TD*%
D17*
%TO.C,R_PG_PULL1*%
X154054997Y-77750001D03*
X155705003Y-77749999D03*
%TD*%
D18*
%TO.C,J_BATT1*%
X165560000Y-53930000D03*
X164412847Y-52291691D03*
D19*
X158272894Y-53722107D03*
X162115862Y-59210422D03*
%TD*%
D20*
%TO.C,D1*%
X127320003Y-115550000D03*
X127319999Y-117449996D03*
X125320000Y-116500000D03*
%TD*%
D21*
%TO.C,C_RTC_VDD1*%
X123660000Y-112760000D03*
X123660004Y-114310000D03*
%TD*%
D22*
%TO.C,U10*%
X127780000Y-113920000D03*
X126880000Y-113920000D03*
X125980000Y-113920000D03*
X125080000Y-113920000D03*
X125080000Y-112720000D03*
X125980000Y-112720000D03*
X126880000Y-112720000D03*
X127780000Y-112720000D03*
%TD*%
D23*
%TO.C,C_TPS_OUT_HF1*%
X155510006Y-58530010D03*
X157060000Y-58530000D03*
%TD*%
D24*
%TO.C,C_CAP1203_VDD1*%
X104880000Y-51180000D03*
X105769036Y-49910308D03*
%TD*%
D25*
%TO.C,BT1*%
X131770000Y-105570000D03*
X131770012Y-89448002D03*
%TD*%
D26*
%TO.C,C_BQ_OUT1*%
X151749999Y-77190007D03*
X151750001Y-79089993D03*
%TD*%
D27*
%TO.C,U9*%
X123055035Y-106780002D03*
X121155036Y-106780000D03*
X122105035Y-104780001D03*
%TD*%
D28*
%TO.C,TP_3V3*%
X187000000Y-68360000D03*
%TD*%
D29*
%TO.C,IC1*%
X154019994Y-60704995D03*
X153519997Y-60704997D03*
X153019997Y-60704998D03*
X152519997Y-60705000D03*
X152019994Y-60705000D03*
X152020000Y-58390005D03*
X152519997Y-58390003D03*
X153019997Y-58390002D03*
X153519997Y-58390000D03*
X154020000Y-58390000D03*
D30*
X153019997Y-59547500D03*
%TD*%
D16*
%TO.C,R_PULL_SCL1*%
X124489999Y-110805001D03*
X124490001Y-109154999D03*
%TD*%
D31*
%TO.C,C_IOVDD1*%
X148106008Y-93169997D03*
X148105996Y-91619997D03*
%TD*%
D32*
%TO.C,J2*%
X138570000Y-122860000D03*
X132790000Y-122860000D03*
D33*
X138880000Y-121785000D03*
X138080000Y-121785000D03*
D34*
X136930000Y-121785000D03*
X135930000Y-121785000D03*
X135430000Y-121785000D03*
X134430000Y-121785000D03*
D33*
X133280000Y-121785000D03*
X132480000Y-121785000D03*
X132480000Y-121785000D03*
X133280000Y-121785000D03*
D34*
X133930000Y-121785000D03*
X134930000Y-121785000D03*
X136430000Y-121785000D03*
X137430000Y-121785000D03*
D33*
X138080000Y-121785000D03*
X138880000Y-121785000D03*
D35*
X140000000Y-126540000D03*
D36*
X140000000Y-122360000D03*
D35*
X131360000Y-126540000D03*
D36*
X131360000Y-122360000D03*
%TD*%
D37*
%TO.C,R_USB_DP1*%
X147445001Y-108500000D03*
X145794999Y-108500000D03*
%TD*%
D38*
%TO.C,R_BAT_BOTTOM1*%
X171845801Y-52656798D03*
X170494199Y-53603202D03*
%TD*%
D39*
%TO.C,L_TPS1*%
X153959994Y-66360002D03*
X153960000Y-62660000D03*
%TD*%
D40*
%TO.C,U1*%
X143802505Y-102629977D03*
X143802496Y-102229979D03*
X143802500Y-101829994D03*
X143802505Y-101429994D03*
X143802512Y-101029996D03*
X143802499Y-100629990D03*
X143802503Y-100229993D03*
X143802504Y-99829986D03*
X143802501Y-99429992D03*
X143802499Y-99030005D03*
X143802505Y-98629989D03*
X143802502Y-98229988D03*
X143802504Y-97829978D03*
X143802499Y-97429997D03*
D41*
X144640016Y-96592496D03*
X145040014Y-96592487D03*
X145439999Y-96592491D03*
X145839999Y-96592496D03*
X146239997Y-96592503D03*
X146640003Y-96592490D03*
X147040000Y-96592494D03*
X147440007Y-96592495D03*
X147840001Y-96592492D03*
X148239988Y-96592490D03*
X148640004Y-96592496D03*
X149040005Y-96592493D03*
X149440015Y-96592495D03*
X149839996Y-96592490D03*
D40*
X150677497Y-97430007D03*
X150677506Y-97830005D03*
X150677502Y-98229990D03*
X150677497Y-98629990D03*
X150677490Y-99029988D03*
X150677503Y-99429994D03*
X150677499Y-99829991D03*
X150677498Y-100229998D03*
X150677501Y-100629992D03*
X150677503Y-101029979D03*
X150677497Y-101429995D03*
X150677500Y-101829996D03*
X150677498Y-102230006D03*
X150677503Y-102629987D03*
D41*
X149839986Y-103467488D03*
X149439988Y-103467497D03*
X149040003Y-103467493D03*
X148640003Y-103467488D03*
X148240005Y-103467481D03*
X147839999Y-103467494D03*
X147440002Y-103467490D03*
X147039995Y-103467489D03*
X146640001Y-103467492D03*
X146240014Y-103467494D03*
X145839998Y-103467488D03*
X145439997Y-103467491D03*
X145039987Y-103467489D03*
X144640006Y-103467494D03*
D42*
X147240001Y-100029992D03*
%TD*%
D43*
%TO.C,TH1*%
X155989999Y-68781516D03*
X155990001Y-70288514D03*
%TD*%
D44*
%TO.C,R_BAT_TOP1*%
X168622599Y-50849599D03*
X169974199Y-49903201D03*
%TD*%
D21*
%TO.C,C_XOUT1*%
X142359993Y-91644995D03*
X142360007Y-93194991D03*
%TD*%
D45*
%TO.C,C_BQ_IN1*%
X150580001Y-70279998D03*
X150579999Y-68380002D03*
%TD*%
D46*
%TO.C,C_ACCEL_BULK1*%
X180430001Y-54160000D03*
X178974521Y-52938716D03*
%TD*%
D47*
%TO.C,C_IOVDD4*%
X142234986Y-102247488D03*
X140684986Y-102247488D03*
%TD*%
D16*
%TO.C,R_CC1*%
X137630000Y-119120000D03*
X137630002Y-117470002D03*
%TD*%
D23*
%TO.C,C_VREGIN1*%
X150634996Y-105140005D03*
X152184998Y-105139995D03*
%TD*%
D16*
%TO.C,R_RTC_INT1*%
X122599999Y-110795001D03*
X122600001Y-109144999D03*
%TD*%
D31*
%TO.C,C_VINA1*%
X148760006Y-59945000D03*
X148759994Y-58395000D03*
%TD*%
D23*
%TO.C,C_XIN1*%
X143998997Y-88850003D03*
X145548999Y-88849993D03*
%TD*%
D48*
%TO.C,R_LIGHT1*%
X190290300Y-65308013D03*
X189229700Y-66571987D03*
%TD*%
D37*
%TO.C,R_G1*%
X132995000Y-111110000D03*
X131345000Y-111110000D03*
%TD*%
D16*
%TO.C,R_VBACKUP1*%
X129150000Y-117250000D03*
X129150002Y-115599998D03*
%TD*%
D49*
%TO.C,TP_RUN1*%
X150350000Y-83200000D03*
%TD*%
D37*
%TO.C,R_USB_DM1*%
X147430002Y-106780000D03*
X145780000Y-106780000D03*
%TD*%
D50*
%TO.C,LED1*%
X134849993Y-109320001D03*
X134849998Y-110820006D03*
X137850002Y-109319994D03*
X137850007Y-110819999D03*
%TD*%
D31*
%TO.C,C_HALL1*%
X123040006Y-102885000D03*
X123039994Y-101335000D03*
%TD*%
D51*
%TO.C,C_MCP9808*%
X104846396Y-47572611D03*
X103576704Y-46683577D03*
%TD*%
D52*
%TO.C,C_LIGHT1*%
X187943686Y-65387376D03*
X188940000Y-64200000D03*
%TD*%
D53*
%TO.C,C_TPS_OUT1*%
X155560007Y-60439999D03*
X157459993Y-60440001D03*
%TD*%
D45*
%TO.C,C_TPS_OUT2*%
X154350002Y-56869996D03*
X154350000Y-54970000D03*
%TD*%
D21*
%TO.C,C_USBVDD1*%
X143610000Y-105660000D03*
X143610004Y-107210000D03*
%TD*%
D31*
%TO.C,C_DVDD1*%
X149770006Y-93169990D03*
X149770000Y-91620000D03*
%TD*%
D49*
%TO.C,TP_REG_EN1*%
X129020000Y-52220000D03*
%TD*%
D54*
%TO.C,U8*%
X108547279Y-56120058D03*
X107506946Y-55391607D03*
X106466626Y-54663164D03*
X105426300Y-53934721D03*
X108529347Y-49503106D03*
X109569680Y-50231557D03*
X110610000Y-50960000D03*
X111650326Y-51688443D03*
%TD*%
D16*
%TO.C,R_PULL_SDA1*%
X126279999Y-110805001D03*
X126280001Y-109154999D03*
%TD*%
%TO.C,R_CC2*%
X133300000Y-119080000D03*
X133300002Y-117429998D03*
%TD*%
D55*
%TO.C,U6*%
X183551531Y-53538622D03*
X183934554Y-53860015D03*
X184317575Y-54181409D03*
X184700597Y-54502801D03*
X185083621Y-54824196D03*
D56*
X184811528Y-55770751D03*
X184490134Y-56153772D03*
X184168742Y-56536794D03*
D55*
X183283815Y-56969118D03*
X182900792Y-56647725D03*
X182517771Y-56326331D03*
X182134749Y-56004939D03*
X181751725Y-55683544D03*
D56*
X182023818Y-54736989D03*
X182345212Y-54353968D03*
X182666604Y-53970946D03*
%TD*%
D57*
%TO.C,R_XOUT1*%
X148106000Y-88399995D03*
X148106002Y-90049995D03*
%TD*%
D58*
%TO.C,SW1*%
X134279999Y-52050000D03*
X137280001Y-52050004D03*
X138779996Y-52050003D03*
D59*
X132880001Y-51150005D03*
X140180000Y-51150000D03*
X140180000Y-48950000D03*
X132879999Y-48950006D03*
%TD*%
D60*
%TO.C,R_TOUCH_INT1*%
X111120000Y-58470000D03*
X109768398Y-57523596D03*
%TD*%
D61*
%TO.C,TP_I2C_SCL1*%
X98140000Y-53670000D03*
%TD*%
D62*
%TO.C,SW_BOOTSEL1*%
X143991544Y-123948095D03*
X146630001Y-120180000D03*
X142680905Y-123030379D03*
X145319357Y-119262273D03*
D63*
X145903838Y-122479320D03*
%TD*%
D37*
%TO.C,R_EN_PD1*%
X150300000Y-56770000D03*
X148649998Y-56770000D03*
%TD*%
D21*
%TO.C,C_IOVDD6*%
X150659997Y-106785000D03*
X150660001Y-108335000D03*
%TD*%
D64*
%TO.C,U5*%
X100971550Y-52818094D03*
X100439105Y-52445273D03*
X99906654Y-52072452D03*
X99374206Y-51699620D03*
X102012656Y-47931526D03*
X102545101Y-48304347D03*
X103077552Y-48677168D03*
X103610000Y-49050000D03*
%TD*%
D16*
%TO.C,R_ISET1*%
X154282168Y-70375018D03*
X154282170Y-68725016D03*
%TD*%
%TO.C,R_CHG_PULL1*%
X155130002Y-80985001D03*
X155129998Y-79334999D03*
%TD*%
D21*
%TO.C,C_IOVDD5*%
X141980000Y-105660000D03*
X141980004Y-107210000D03*
%TD*%
D57*
%TO.C,R_SHIELD1*%
X129260000Y-121370000D03*
X129260002Y-123020000D03*
%TD*%
D65*
%TO.C,C_VBAT_ADC1*%
X170869039Y-51308673D03*
X169599361Y-52197725D03*
%TD*%
D66*
%TO.C,U3*%
X155330009Y-72849993D03*
X155330007Y-73349999D03*
X155330007Y-73849999D03*
X155330014Y-74349998D03*
D67*
X154580013Y-75100001D03*
X154080007Y-75099999D03*
X153580007Y-75099999D03*
X153080008Y-75100006D03*
D66*
X152330005Y-74350005D03*
X152330007Y-73849999D03*
X152330007Y-73349999D03*
X152330000Y-72850000D03*
D67*
X153080001Y-72099997D03*
X153580007Y-72099999D03*
X154080007Y-72099999D03*
X154580006Y-72099992D03*
D11*
X153830007Y-73599999D03*
%TD*%
D68*
%TO.C,SW_RST1*%
X151390000Y-85120000D03*
X151389998Y-89719999D03*
X152989999Y-85119999D03*
X152990001Y-89720000D03*
D69*
X150665999Y-87419999D03*
%TD*%
D26*
%TO.C,C_TPS_IN1*%
X150370000Y-61630000D03*
X150370004Y-63529996D03*
%TD*%
D70*
%TO.C,C_ACCEL_VDD1*%
X184830001Y-58150000D03*
X186017373Y-59146316D03*
%TD*%
D61*
%TO.C,TP_I2C_SDA1*%
X113300000Y-60730000D03*
%TD*%
D31*
%TO.C,C_TPS_IN_HF1*%
X150410012Y-59940000D03*
X150410000Y-58390000D03*
%TD*%
D47*
%TO.C,C_IOVDD3*%
X141875000Y-98890000D03*
X140325000Y-98890000D03*
%TD*%
%TO.C,C_FLASH1*%
X149554999Y-116829996D03*
X148005001Y-116830008D03*
%TD*%
D71*
%TO.C,TP_GND1*%
X97370000Y-50050000D03*
%TD*%
D21*
%TO.C,C_DVDD2*%
X140339999Y-105660000D03*
X140340003Y-107210000D03*
%TD*%
D37*
%TO.C,R_B1*%
X134755000Y-112860000D03*
X133105000Y-112860000D03*
%TD*%
D57*
%TO.C,R_ILIM1*%
X150830000Y-72104997D03*
X150830000Y-73755003D03*
%TD*%
D26*
%TO.C,C_BAT1*%
X157279999Y-72260007D03*
X157280001Y-74159993D03*
%TD*%
D37*
%TO.C,R_CS_PULL1*%
X146325002Y-116830000D03*
X144675002Y-116830000D03*
%TD*%
D21*
%TO.C,C_IOVDD2*%
X152479984Y-99622488D03*
X152479988Y-101172488D03*
%TD*%
D72*
%TO.C,U7*%
X186605348Y-64071347D03*
X185748907Y-63352704D03*
D73*
X188462876Y-60987973D03*
%TD*%
D21*
%TO.C,C_ADCAVDD1*%
X152289997Y-106785000D03*
X152290001Y-108335000D03*
%TD*%
D74*
%TO.C,D2*%
X135990000Y-118950000D03*
X135490007Y-118950007D03*
X134990010Y-118950010D03*
X134990014Y-117500008D03*
X135490007Y-117500001D03*
X135990004Y-117499998D03*
%TD*%
D57*
%TO.C,R_BOOT1*%
X142970000Y-116755000D03*
X142970002Y-118405000D03*
%TD*%
D21*
%TO.C,C_VREGOUT1*%
X149029998Y-106785000D03*
X149030002Y-108335000D03*
%TD*%
D70*
%TO.C,C_ACCEL_IO1*%
X185900001Y-56870000D03*
X187087373Y-57866316D03*
%TD*%
D37*
%TO.C,R_R1*%
X132995000Y-109340000D03*
X131345000Y-109340000D03*
%TD*%
M02*
