M48
METRIC
T1C0.200
T2C0.300
T3C0.400
T4C0.600
T5C1.000
T6C0.650
%
G90
G05
T1
X85.71Y-74.89
X92.96Y-48.25
X95.33Y-51.9
X100.96Y-68.89
X105.25Y-55.82
X110.12Y-56.0
X115.31Y-64.14
X115.41Y-54.01
X119.23Y-87.93
X119.82Y-81.79
X120.44Y-99.25
X122.72Y-91.13
X125.42Y-92.16
X125.5Y-91.31
X125.62Y-89.49
X125.69Y-122.63
X125.83Y-119.4
X127.08Y-106.04
X127.57Y-92.77
X127.78Y-111.13
X129.99Y-96.69
X130.14Y-90.86
X130.27Y-114.48
X130.69Y-120.05
X131.03Y-117.45
X131.07Y-115.75
X131.19Y-49.95
X131.76Y-117.82
X131.77Y-89.448
X131.97Y-99.01
X132.24Y-108.15
X132.53Y-98.06
X132.56Y-102.29
X132.67Y-97.2
X134.27Y-100.72
X134.32Y-106.02
X134.48Y-107.69
X134.68Y-97.51
X134.85Y-105.4
X134.93Y-92.96
X135.33Y-97.98
X135.88Y-125.36
X136.1Y-111.56
X136.14Y-104.85
X136.67Y-99.31
X137.535Y-105.355
X137.63Y-117.47
X137.64Y-96.15
X138.03Y-91.04
X138.86Y-98.82
X139.32Y-113.71
X139.53Y-91.948
X139.69Y-90.25
X139.69Y-103.19
X140.105Y-49.795
X140.19Y-51.09
X140.19Y-96.36
X140.34Y-107.21
X140.77Y-89.54
X141.98Y-103.71
X142.06Y-114.29
X142.06Y-113.02
X142.06Y-111.75
X142.79Y-128.55
X142.82Y-55.31
X143.33Y-103.92
X143.85Y-60.77
X144.11Y-90.72
X144.17Y-104.24
X144.49Y-112.62
X144.675Y-116.83
X145.06Y-104.97
X145.34Y-100.2
X145.4Y-101.5
X145.874Y-93.297
X145.9Y-104.89
X145.99Y-114.12
X146.43Y-112.41
X146.64Y-104.47
X146.69Y-110.46
X147.09Y-97.63
X147.7Y-114.87
X147.73Y-122.64
X147.92Y-51.69
X148.102Y-118.282
X148.5Y-97.48
X148.6Y-52.99
X149.25Y-51.16
X149.4Y-53.24
X149.66Y-89.52
X149.67Y-81.85
X150.35Y-53.32
X151.19Y-95.86
X151.29Y-86.81
X151.365Y-75.685
X151.7Y-101.98
X151.715Y-96.915
X151.73Y-68.38
X151.84Y-91.41
X152.03Y-112.65
X152.24Y-78.3
X152.34Y-80.46
X152.89Y-56.61
X152.92Y-106.01
X153.0Y-63.96
X153.17Y-81.06
X153.53Y-83.76
X153.9Y-73.67
X154.86Y-75.77
X155.59Y-81.84
X155.61Y-82.64
X155.9Y-64.51
X156.49Y-78.88
X156.68Y-80.27
X156.68Y-82.53
X156.95Y-77.2
X157.57Y-75.87
X157.64Y-77.57
X158.02Y-65.03
X158.06Y-64.33
X159.43Y-55.92
X159.83Y-63.36
X160.35Y-57.21
X160.8Y-50.09
X163.91Y-51.53
X165.21Y-56.87
X173.27Y-50.81
X173.27Y-53.64
X174.51Y-46.26
X175.94Y-53.84
X175.97Y-52.75
X176.31Y-51.69
X178.29Y-51.86
X178.34Y-49.19
X178.905Y-55.235
X184.61Y-64.54
X184.74Y-70.33
X185.23Y-82.6
X185.72Y-54.31
X185.79Y-79.19
X188.07Y-57.74
X188.13Y-74.71
X191.35Y-62.7
T2
X91.05Y-77.48
X122.09Y-95.56
X123.71Y-93.36
X124.13Y-116.25
X126.28Y-110.805
X128.34Y-118.48
X128.71Y-95.53
X131.53Y-114.96
X131.77Y-105.57
X135.17Y-102.1
X135.49Y-119.97
X135.49Y-116.23
X137.74Y-97.15
X138.63Y-106.49
X146.15Y-51.45
X146.15Y-97.64
X148.66Y-102.13
X149.04Y-106.05
X149.34Y-101.48
X149.6Y-55.87
X153.6Y-82.38
X158.19Y-63.36
X160.27Y-51.06
X163.14Y-49.44
X181.81Y-76.26
T3
X107.26Y-52.76
X112.4Y-57.19
X118.31Y-59.75
X123.06Y-99.63
X123.66Y-112.76
X125.32Y-116.5
X126.32Y-52.0
X127.104Y-100.09
X129.24Y-113.7
X134.23Y-114.67
X135.79Y-106.63
X137.25Y-115.95
X142.15Y-125.69
X142.54Y-51.3
X144.36Y-114.38
X147.11Y-58.6
X151.66Y-65.62
X152.49Y-83.16
X154.43Y-76.55
X160.2Y-62.44
X180.13Y-54.72
X184.61Y-66.06
T5
X129.16Y-58.44
X131.7Y-58.44
X134.24Y-58.44
X136.78Y-58.44
X139.32Y-58.44
X141.86Y-58.44
X144.4Y-58.44
T6
X132.79Y-122.86
X138.57Y-122.86
T4
X131.36Y-122.91G85X131.36Y-121.81
G05
X131.36Y-126.94G85X131.36Y-126.14
G05
X140.0Y-122.91G85X140.0Y-121.81
G05
X140.0Y-126.94G85X140.0Y-126.14
G05
M30
