%TF.GenerationSoftware,KiCad,Pcbnew,10.0.6*%
%TF.CreationDate,2026-09-14T15:09:54+02:00*%
%TF.ProjectId,clotty,636c6f74-7479-42e6-9b69-6361645f7063,rev?*%
%TF.SameCoordinates,Original*%
%TF.FileFunction,Drillmap*%
%TF.FilePolarity,Positive*%
%FSLAX45Y45*%
G04 Gerber Fmt 4.5, Leading zero omitted, Abs format (unit mm)*
G04 Created by KiCad (PCBNEW 10.0.6) date 2026-09-14 15:09:54*
%MOMM*%
%LPD*%
G01*
G04 APERTURE LIST*
%ADD10C,0.100000*%
%ADD11C,0.000000*%
%ADD12C,0.200000*%
G04 APERTURE END LIST*
D10*
X7994430Y-6519850D02*
X7996140Y-6585410D01*
X7995450Y-6453530D02*
X7994430Y-6519850D01*
X7996140Y-6585410D02*
X8000480Y-6650200D01*
X7998350Y-6419720D02*
X7995450Y-6453530D01*
X8000480Y-6650200D02*
X8007370Y-6714250D01*
X8003960Y-6379810D02*
X7998350Y-6419720D01*
X8007370Y-6714250D02*
X8016700Y-6777570D01*
X8016700Y-6777570D02*
X8028410Y-6840170D01*
X8020640Y-6289950D02*
X8003960Y-6379810D01*
X8028410Y-6840170D02*
X8042390Y-6902070D01*
X8040170Y-6200560D02*
X8020640Y-6289950D01*
X8042390Y-6902070D02*
X8058560Y-6963280D01*
X8057200Y-6128230D02*
X8040170Y-6200560D01*
X8058560Y-6963280D02*
X8076820Y-7023800D01*
X8076820Y-7023800D02*
X8097100Y-7083650D01*
X8077950Y-6052070D02*
X8057200Y-6128230D01*
X8097100Y-7083650D02*
X8119300Y-7142840D01*
X8099400Y-5989100D02*
X8077950Y-6052070D01*
X8119300Y-7142840D02*
X8143330Y-7201400D01*
X8121670Y-5935260D02*
X8099400Y-5989100D01*
X8143330Y-7201400D02*
X8169110Y-7259330D01*
X8144850Y-5886550D02*
X8121670Y-5935260D01*
X8169110Y-7259330D02*
X8196540Y-7316640D01*
X8194470Y-5788400D02*
X8144850Y-5886550D01*
X8196540Y-7316640D02*
X8225550Y-7373350D01*
X8221140Y-5730910D02*
X8194470Y-5788400D01*
X8225550Y-7373350D02*
X8256030Y-7429470D01*
X8249200Y-5662440D02*
X8221140Y-5730910D01*
X8256030Y-7429470D02*
X8317520Y-7537160D01*
X8264710Y-5627960D02*
X8249200Y-5662440D01*
X8285550Y-5589870D02*
X8264710Y-5627960D01*
X8310130Y-5549510D02*
X8285550Y-5589870D01*
X8317520Y-7537160D02*
X8366510Y-7616250D01*
X8336900Y-5508170D02*
X8310130Y-5549510D01*
X8366510Y-7616250D02*
X8405360Y-7673050D01*
X8390690Y-5427810D02*
X8336900Y-5508170D01*
X8405360Y-7673050D02*
X8436450Y-7713860D01*
X8434360Y-5359320D02*
X8390690Y-5427810D01*
X8436450Y-7713860D02*
X8484750Y-7772800D01*
X8451030Y-5332600D02*
X8434360Y-5359320D01*
X8470930Y-5303900D02*
X8451030Y-5332600D01*
X8484750Y-7772800D02*
X8506700Y-7803520D01*
X8506700Y-7803520D02*
X8530350Y-7843500D01*
X8518890Y-5241890D02*
X8470930Y-5303900D01*
X8530350Y-7843500D02*
X8544840Y-7873600D01*
X8544840Y-7873600D02*
X8557050Y-7904920D01*
X8557050Y-7904920D02*
X8577770Y-7969550D01*
X8575150Y-5176060D02*
X8518890Y-5241890D01*
X8577770Y-7969550D02*
X8598790Y-8033980D01*
X8598790Y-8033980D02*
X8611350Y-8065070D01*
X8611350Y-8065070D02*
X8626340Y-8094850D01*
X8626340Y-8094850D02*
X8660560Y-8153170D01*
X8636640Y-5109180D02*
X8575150Y-5176060D01*
X8660560Y-8153170D02*
X8678870Y-8181830D01*
X8678870Y-8181830D02*
X8698270Y-8209520D01*
X8698270Y-8209520D02*
X8718960Y-8235820D01*
X8700270Y-5044000D02*
X8636640Y-5109180D01*
X8718960Y-8235820D02*
X8741160Y-8260290D01*
X8741160Y-8260290D02*
X8765090Y-8282460D01*
X8762970Y-4983250D02*
X8700270Y-5044000D01*
X8765090Y-8282460D02*
X8790940Y-8301900D01*
X8790940Y-8301900D02*
X8809720Y-8311940D01*
X8809720Y-8311940D02*
X8829750Y-8318700D01*
X8821640Y-4929710D02*
X8762970Y-4983250D01*
X8829750Y-8318700D02*
X8850650Y-8323170D01*
X8850650Y-8323170D02*
X8872060Y-8326360D01*
X8872060Y-8326360D02*
X8914950Y-8332890D01*
X8873220Y-4886140D02*
X8821640Y-4929710D01*
X8914950Y-8332890D02*
X8935690Y-8338220D01*
X8935690Y-8338220D02*
X8955490Y-8346250D01*
X8938860Y-4832210D02*
X8873220Y-4886140D01*
X8955490Y-8346250D02*
X8999630Y-8385900D01*
X8999630Y-8385900D02*
X9044180Y-8422400D01*
X9012970Y-4774640D02*
X8938860Y-4832210D01*
X9044180Y-8422400D02*
X9089210Y-8455870D01*
X9074110Y-6249540D02*
X9077160Y-6201140D01*
X9074670Y-6298080D02*
X9074110Y-6249540D01*
X9077160Y-6201140D02*
X9083900Y-6153010D01*
X9078790Y-6346630D02*
X9074670Y-6298080D01*
X9083900Y-6153010D02*
X9094380Y-6105290D01*
X9086430Y-6395060D02*
X9078790Y-6346630D01*
X9089210Y-8455870D02*
X9134800Y-8486440D01*
X9093480Y-4716040D02*
X9012970Y-4774640D01*
X9094380Y-6105290D02*
X9108660Y-6058130D01*
X9097510Y-6443220D02*
X9086430Y-6395060D01*
X9108660Y-6058130D02*
X9126820Y-6011630D01*
X9111960Y-6490980D02*
X9097510Y-6443220D01*
X9126820Y-6011630D02*
X9148900Y-5965960D01*
X9129740Y-6538210D02*
X9111960Y-6490980D01*
X9134800Y-8486440D02*
X9181000Y-8514230D01*
X9148900Y-5965960D02*
X9174950Y-5921230D01*
X9150780Y-6584770D02*
X9129740Y-6538210D01*
X9174950Y-5921230D02*
X9191980Y-5906090D01*
X9175020Y-6630520D02*
X9150780Y-6584770D01*
X9178370Y-4658980D02*
X9093480Y-4716040D01*
X9181000Y-8514230D02*
X9227900Y-8539350D01*
X9191980Y-5906090D02*
X9227930Y-5879890D01*
X9202400Y-6675350D02*
X9175020Y-6630520D01*
X9223180Y-6696220D02*
X9202400Y-6675350D01*
X9227900Y-8539350D02*
X9275570Y-8561940D01*
X9227930Y-5879890D02*
X9278880Y-5845800D01*
X9245590Y-6715000D02*
X9223180Y-6696220D01*
X9265560Y-4606070D02*
X9178370Y-4658980D01*
X9269270Y-6732110D02*
X9245590Y-6715000D01*
X9275570Y-8561940D02*
X9324070Y-8582120D01*
X9278880Y-5845800D02*
X9340870Y-5807070D01*
X9293870Y-6748000D02*
X9269270Y-6732110D01*
X9309370Y-4581980D02*
X9265560Y-4606070D01*
X9324070Y-8582120D02*
X9373480Y-8600020D01*
X9340870Y-5807070D02*
X9409980Y-5766890D01*
X9344400Y-6777930D02*
X9293870Y-6748000D01*
X9353000Y-4559890D02*
X9309370Y-4581980D01*
X9373480Y-8600020D02*
X9423890Y-8615740D01*
X9394400Y-6808390D02*
X9344400Y-6777930D01*
X9396180Y-4540140D02*
X9353000Y-4559890D01*
X9409980Y-5766890D02*
X9482290Y-5728480D01*
X9423890Y-8615740D02*
X9475340Y-8629430D01*
X9427750Y-6829880D02*
X9394400Y-6808390D01*
X9438640Y-4523050D02*
X9396180Y-4540140D01*
X9461650Y-6849380D02*
X9427750Y-6829880D01*
X9475340Y-8629430D02*
X9527920Y-8641200D01*
X9480150Y-4508930D02*
X9438640Y-4523050D01*
X9482290Y-5728480D02*
X9553840Y-5695060D01*
X9496200Y-6866680D02*
X9461650Y-6849380D01*
X9520440Y-4498100D02*
X9480150Y-4508930D01*
X9527920Y-8641200D02*
X9581710Y-8651170D01*
X9531520Y-6881550D02*
X9496200Y-6866680D01*
X9553840Y-5695060D02*
X9588100Y-5681220D01*
X9567700Y-6893730D02*
X9531520Y-6881550D01*
X9581710Y-8651170D02*
X9636770Y-8659460D01*
X9582090Y-4477660D02*
X9520440Y-4498100D01*
X9588100Y-5681220D02*
X9620700Y-5669830D01*
X9604830Y-6903010D02*
X9567700Y-6893730D01*
X9620700Y-5669830D02*
X9696080Y-5647460D01*
X9636770Y-8659460D02*
X9750980Y-8671550D01*
X9643030Y-6909140D02*
X9604830Y-6903010D01*
X9656710Y-4457580D02*
X9582090Y-4477660D01*
X9682400Y-6911910D02*
X9643030Y-6909140D01*
X9696080Y-5647460D02*
X9733190Y-5639220D01*
X9723740Y-6913020D02*
X9682400Y-6911910D01*
X9733190Y-5639220D02*
X9772300Y-5633630D01*
X9740700Y-4438310D02*
X9656710Y-4457580D01*
X9750980Y-8671550D02*
X9836900Y-8676070D01*
X9765150Y-6910810D02*
X9723740Y-6913020D01*
X9772300Y-5633630D02*
X9815160Y-5631170D01*
X9806340Y-6905450D02*
X9765150Y-6910810D01*
X9815160Y-5631170D02*
X9863580Y-5632360D01*
X9830500Y-4420270D02*
X9740700Y-4438310D01*
X9836900Y-8676070D02*
X9922490Y-8674640D01*
X9846990Y-6897120D02*
X9806340Y-6905450D01*
X9863580Y-5632360D02*
X9919310Y-5637680D01*
X9907530Y-6875210D02*
X9846990Y-6897120D01*
X9919310Y-5637680D02*
X9984140Y-5647640D01*
X9922490Y-8674640D02*
X10007400Y-8666960D01*
X9922510Y-4403840D02*
X9830500Y-4420270D01*
X9967500Y-6853650D02*
X9907530Y-6875210D01*
X9984140Y-5647640D02*
X10066950Y-5669000D01*
X9997910Y-6845060D02*
X9967500Y-6853650D01*
X10007400Y-8666960D02*
X10049480Y-8660670D01*
X10013180Y-4389480D02*
X9922510Y-4403840D01*
X10028930Y-6839040D02*
X9997910Y-6845060D01*
X10049480Y-8660670D02*
X10091260Y-8652700D01*
X10060830Y-6836400D02*
X10028930Y-6839040D01*
X10066950Y-5669000D02*
X10213300Y-5712100D01*
X10091260Y-8652700D02*
X10132700Y-8643010D01*
X10093850Y-6837970D02*
X10060830Y-6836400D01*
X10098910Y-4377600D02*
X10013180Y-4389480D01*
X10116530Y-6836960D02*
X10093850Y-6837970D01*
X10132700Y-8643010D02*
X10173750Y-8631560D01*
X10138430Y-6837760D02*
X10116530Y-6836960D01*
X10159590Y-6840240D02*
X10138430Y-6837760D01*
X10173750Y-8631560D02*
X10214350Y-8618300D01*
X10176130Y-4368590D02*
X10098910Y-4377600D01*
X10180100Y-6844340D02*
X10159590Y-6840240D01*
X10213300Y-5712100D02*
X10371930Y-5763640D01*
X10214350Y-8618300D02*
X10254480Y-8603210D01*
X10219330Y-6857020D02*
X10180100Y-6844340D01*
X10254480Y-8603210D02*
X10294090Y-8586240D01*
X10256620Y-6875040D02*
X10219330Y-6857020D01*
X10262340Y-4361340D02*
X10176130Y-4368590D01*
X10292410Y-6897660D02*
X10256620Y-6875040D01*
X10294090Y-8586240D02*
X10333120Y-8567350D01*
X10327190Y-6924170D02*
X10292410Y-6897660D01*
X10333120Y-8567350D02*
X10371540Y-8546510D01*
X10339400Y-4358720D02*
X10262340Y-4361340D01*
X10361420Y-6953820D02*
X10327190Y-6924170D01*
X10371540Y-8546510D02*
X10409310Y-8523660D01*
X10371930Y-5763640D02*
X10439830Y-5788420D01*
X10392710Y-4360040D02*
X10339380Y-4358800D01*
X10395580Y-6985870D02*
X10361420Y-6953820D01*
X10409310Y-8523660D02*
X10466070Y-8482200D01*
X10439830Y-5788420D02*
X10491590Y-5810310D01*
X10443410Y-4364200D02*
X10392710Y-4360040D01*
X10446060Y-7035840D02*
X10395580Y-6985870D01*
X10466070Y-8482200D02*
X10494770Y-8458470D01*
X10491590Y-5810310D02*
X10523990Y-5827910D01*
X10491940Y-7086610D02*
X10446060Y-7035840D01*
X10492540Y-4371400D02*
X10443410Y-4364200D01*
X10494770Y-8458470D02*
X10523400Y-8432620D01*
X10523400Y-8432620D02*
X10551720Y-8404610D01*
X10523990Y-5827910D02*
X10567940Y-5854690D01*
X10533430Y-7137720D02*
X10491940Y-7086610D01*
X10541160Y-4381750D02*
X10492540Y-4371400D01*
X10551720Y-8404610D02*
X10579510Y-8374350D01*
X10567940Y-5854690D02*
X10675850Y-5925880D01*
X10570730Y-7188700D02*
X10533430Y-7137720D01*
X10579510Y-8374350D02*
X10606560Y-8341770D01*
X10590380Y-4395400D02*
X10541160Y-4381750D01*
X10604040Y-7239090D02*
X10570730Y-7188700D01*
X10606560Y-8341770D02*
X10632630Y-8306790D01*
X10632630Y-8306790D02*
X10657510Y-8269350D01*
X10633580Y-7288420D02*
X10604040Y-7239090D01*
X10641220Y-4412470D02*
X10590380Y-4395400D01*
X10657510Y-8269350D02*
X10680970Y-8229390D01*
X10659540Y-7336250D02*
X10633580Y-7288420D01*
X10675850Y-5925880D02*
X10785920Y-6003980D01*
X10680970Y-8229390D02*
X10702800Y-8186810D01*
X10682110Y-7382080D02*
X10659540Y-7336250D01*
X10694800Y-4433100D02*
X10641220Y-4412470D01*
X10701530Y-7425470D02*
X10682110Y-7382080D01*
X10702800Y-8186810D02*
X10722770Y-8141550D01*
X10717980Y-7465940D02*
X10701530Y-7425470D01*
X10722770Y-8141550D02*
X10740660Y-8093520D01*
X10740660Y-8093520D02*
X10756250Y-8042680D01*
X10742810Y-7536300D02*
X10717980Y-7465940D01*
X10752160Y-4457410D02*
X10694800Y-4433100D01*
X10756250Y-8042680D02*
X10769310Y-7988940D01*
X10758240Y-7589440D02*
X10742810Y-7536300D01*
X10765900Y-7621670D02*
X10758240Y-7589440D01*
X10769310Y-7988940D02*
X10779620Y-7932230D01*
X10779200Y-7698450D02*
X10765900Y-7621670D01*
X10779620Y-7932230D02*
X10784380Y-7893670D01*
X10783700Y-7737380D02*
X10779200Y-7698450D01*
X10784380Y-7893670D02*
X10787030Y-7854770D01*
X10785920Y-6003980D02*
X10832570Y-6039390D01*
X10786580Y-7776500D02*
X10783700Y-7737380D01*
X10787030Y-7854770D02*
X10787730Y-7815680D01*
X10787730Y-7815680D02*
X10786580Y-7776500D01*
X10793880Y-4476810D02*
X10752160Y-4457410D01*
X10832570Y-6039390D02*
X10868740Y-6069060D01*
X10837250Y-4498880D02*
X10793880Y-4476810D01*
X10868740Y-6069060D02*
X10913020Y-6109940D01*
X10913020Y-6109940D02*
X10960720Y-6157850D01*
X10927050Y-4549330D02*
X10837250Y-4498880D01*
X10960720Y-6157850D02*
X11010280Y-6210950D01*
X11010280Y-6210950D02*
X11060180Y-6267430D01*
X11017810Y-4605210D02*
X10927050Y-4549330D01*
X11060180Y-6267430D02*
X11108870Y-6325450D01*
X11105840Y-4662970D02*
X11017810Y-4605210D01*
X11108870Y-6325450D02*
X11154810Y-6383180D01*
X11154810Y-6383180D02*
X11196440Y-6438800D01*
X11187360Y-4719060D02*
X11105840Y-4662970D01*
X11196440Y-6438800D02*
X11232230Y-6490480D01*
X11232230Y-6490480D02*
X11265380Y-6544320D01*
X11258660Y-4769940D02*
X11187360Y-4719060D01*
X11265380Y-6544320D02*
X11296200Y-6599830D01*
X11296200Y-6599830D02*
X11355630Y-6712320D01*
X11355610Y-4841870D02*
X11258660Y-4769940D01*
X11355630Y-6712320D02*
X11380790Y-6753630D01*
X11362510Y-7685100D02*
X11362530Y-7769550D01*
X11362530Y-7769550D02*
X11365070Y-7847650D01*
X11364760Y-7600600D02*
X11362510Y-7685100D01*
X11365070Y-7847650D02*
X11369390Y-7926710D01*
X11369140Y-7516120D02*
X11364760Y-7600600D01*
X11369390Y-7926710D02*
X11375960Y-8007080D01*
X11375490Y-7431740D02*
X11369140Y-7516120D01*
X11375960Y-8007080D02*
X11385230Y-8089160D01*
X11380790Y-6753630D02*
X11407360Y-6794440D01*
X11383650Y-7347530D02*
X11375490Y-7431740D01*
X11385230Y-8089160D02*
X11397660Y-8173340D01*
X11391900Y-4871130D02*
X11355610Y-4841870D01*
X11393450Y-7263590D02*
X11383650Y-7347530D01*
X11397660Y-8173340D02*
X11413720Y-8260000D01*
X11407360Y-6794440D02*
X11419610Y-6815270D01*
X11413720Y-8260000D02*
X11433860Y-8349530D01*
X11417400Y-7096760D02*
X11393450Y-7263590D01*
X11419610Y-6815270D02*
X11430360Y-6836700D01*
X11427130Y-4902120D02*
X11391900Y-4871130D01*
X11427550Y-7043120D02*
X11417400Y-7096760D01*
X11430360Y-6836700D02*
X11438960Y-6858980D01*
X11433860Y-8349530D02*
X11458530Y-8442320D01*
X11438960Y-6858980D02*
X11444790Y-6882330D01*
X11439460Y-6989360D02*
X11427550Y-7043120D01*
X11444210Y-6962500D02*
X11439460Y-6989360D01*
X11444790Y-6882330D02*
X11447610Y-6908970D01*
X11447180Y-6935700D02*
X11444210Y-6962500D01*
X11447610Y-6908970D02*
X11447180Y-6935700D01*
X11458530Y-8442320D02*
X11479390Y-8510100D01*
X11479390Y-8510100D02*
X11502610Y-8577020D01*
X11496360Y-4966000D02*
X11427130Y-4902120D01*
X11502610Y-8577020D02*
X11527780Y-8643160D01*
X11527780Y-8643160D02*
X11554520Y-8708520D01*
X11531350Y-4997250D02*
X11496360Y-4966000D01*
X11554520Y-8708520D02*
X11591710Y-8788530D01*
X11567230Y-5026970D02*
X11531350Y-4997250D01*
X11591710Y-8788530D02*
X11645180Y-8893820D01*
X11604510Y-5054310D02*
X11567230Y-5026970D01*
X11643660Y-5078480D02*
X11604510Y-5054310D01*
X11645180Y-8893820D02*
X11706210Y-9008210D01*
X11686110Y-5100400D02*
X11643660Y-5078480D01*
X11706210Y-9008210D02*
X11766030Y-9115500D01*
X11730240Y-5118880D02*
X11686110Y-5100400D01*
X11752760Y-5126230D02*
X11730240Y-5118880D01*
X11766030Y-9115500D02*
X11813590Y-9191870D01*
X11775590Y-5131970D02*
X11752760Y-5126230D01*
X11798660Y-5135860D02*
X11775590Y-5131970D01*
X11813590Y-9191870D02*
X11859270Y-9269520D01*
X11821890Y-5137660D02*
X11798660Y-5135860D01*
X11843000Y-5137000D02*
X11821890Y-5137660D01*
X11859270Y-9269520D02*
X11903300Y-9348270D01*
X11863910Y-5134080D02*
X11843000Y-5137000D01*
X11903300Y-9348270D02*
X11945860Y-9427980D01*
X11905240Y-5123200D02*
X11863910Y-5134080D01*
X11942010Y-10682210D02*
X11942010Y-10715510D01*
X11942010Y-10715510D02*
X11944150Y-10750100D01*
X11943770Y-10649880D02*
X11942010Y-10682210D01*
X11944150Y-10750100D02*
X11948970Y-10787400D01*
X11945860Y-9427980D02*
X11963770Y-9464560D01*
X11948970Y-10787400D02*
X11956290Y-10824370D01*
X11951100Y-10586840D02*
X11943770Y-10649880D01*
X11956290Y-10824370D02*
X11967050Y-10864690D01*
X11961030Y-10523910D02*
X11951100Y-10586840D01*
X11963770Y-9464560D02*
X11976900Y-9497250D01*
X11967050Y-10864690D02*
X11982110Y-10917750D01*
X11970500Y-10205310D02*
X11972270Y-10262120D01*
X11970590Y-10458550D02*
X11961030Y-10523910D01*
X11971160Y-10142950D02*
X11970500Y-10205310D01*
X11972270Y-10262120D02*
X11976770Y-10310510D01*
X11973960Y-10077930D02*
X11971160Y-10142950D01*
X11976770Y-10310510D02*
X11977770Y-10350470D01*
X11976830Y-10388260D02*
X11970590Y-10458550D01*
X11976900Y-9497250D02*
X11986920Y-9530990D01*
X11977770Y-10350470D02*
X11976830Y-10388260D01*
X11978580Y-10013110D02*
X11973960Y-10077930D01*
X11982110Y-10917750D02*
X11995010Y-10951080D01*
X11984720Y-9951370D02*
X11978580Y-10013110D01*
X11986490Y-5093290D02*
X11905240Y-5123200D01*
X11986920Y-9530990D02*
X11995490Y-9570740D01*
X11992090Y-9895590D02*
X11984720Y-9951370D01*
X11995010Y-10951080D02*
X12008310Y-10984270D01*
X11995490Y-9570740D02*
X12003190Y-9614330D01*
X12000380Y-9848640D02*
X11992090Y-9895590D01*
X12003190Y-9614330D02*
X12009760Y-9661800D01*
X12005230Y-9825180D02*
X12000380Y-9848640D01*
X12008030Y-9801330D02*
X12005230Y-9825180D01*
X12008310Y-10984270D02*
X12022580Y-11023970D01*
X12009760Y-9661800D02*
X12013320Y-9709390D01*
X12011990Y-9753330D02*
X12008030Y-9801330D01*
X12013320Y-9709390D02*
X12013380Y-9732050D01*
X12013380Y-9732050D02*
X12011990Y-9753330D01*
X12022580Y-11023970D02*
X12035330Y-11064140D01*
X12024830Y-5078460D02*
X11986490Y-5093290D01*
X12035330Y-11064140D02*
X12046590Y-11107630D01*
X12046590Y-11107630D02*
X12056480Y-11151450D01*
X12056480Y-11151450D02*
X12075270Y-11239350D01*
X12062550Y-5061790D02*
X12024830Y-5078460D01*
X12075270Y-11239350D02*
X12088270Y-11303620D01*
X12088270Y-11303620D02*
X12100290Y-11368150D01*
X12100290Y-11368150D02*
X12113940Y-11432240D01*
X12113940Y-11432240D02*
X12122180Y-11463900D01*
X12122180Y-11463900D02*
X12131790Y-11495190D01*
X12131790Y-11495190D02*
X12144030Y-11525930D01*
X12137010Y-5025550D02*
X12062550Y-5061790D01*
X12144030Y-11525930D02*
X12159430Y-11559180D01*
X12159430Y-11559180D02*
X12178220Y-11596730D01*
X12178220Y-11596730D02*
X12222500Y-11699470D01*
X12211640Y-4989900D02*
X12137010Y-5025550D01*
X12222500Y-11699470D02*
X12265890Y-11802800D01*
X12249580Y-4973970D02*
X12211640Y-4989900D01*
X12265890Y-11802800D02*
X12309630Y-11906120D01*
X12288220Y-4960190D02*
X12249580Y-4973970D01*
X12309630Y-11906120D02*
X12355000Y-12008830D01*
X12355000Y-12008830D02*
X12389740Y-12076840D01*
X12358830Y-4939120D02*
X12288220Y-4960190D01*
X12389740Y-12076840D02*
X12427230Y-12143230D01*
X12390470Y-6199240D02*
X12390470Y-8720840D01*
X12390470Y-8720840D02*
X14912070Y-8720840D01*
X12427230Y-12143230D02*
X12467390Y-12207770D01*
X12430060Y-4920570D02*
X12358830Y-4939120D01*
X12467390Y-12207770D02*
X12510160Y-12270240D01*
X12501800Y-4904200D02*
X12430060Y-4920570D01*
X12510160Y-12270240D02*
X12588450Y-12366600D01*
X12573930Y-4889620D02*
X12501800Y-4904200D01*
X12588450Y-12366600D02*
X12623670Y-12429590D01*
X12623670Y-12429590D02*
X12651940Y-12491680D01*
X12651940Y-12491680D02*
X12681290Y-12541610D01*
X12681290Y-12541610D02*
X12692070Y-12563260D01*
X12692070Y-12563260D02*
X12705110Y-12589050D01*
X12705110Y-12589050D02*
X12741220Y-12651450D01*
X12718950Y-4864360D02*
X12573930Y-4889620D01*
X12741220Y-12651450D02*
X12792950Y-12725650D01*
X12792950Y-12725650D02*
X12863330Y-12810350D01*
X12863330Y-12810350D02*
X12928890Y-12883950D01*
X12864260Y-4841880D02*
X12718950Y-4864360D01*
X12928890Y-12883950D02*
X13020150Y-12921150D01*
X12969770Y-4827970D02*
X12864260Y-4841880D01*
X13020150Y-12921150D02*
X13043050Y-12927550D01*
X13043050Y-12927550D02*
X13065730Y-12931050D01*
X13065730Y-12931050D02*
X13088350Y-12932250D01*
X13088350Y-12932250D02*
X13111070Y-12931950D01*
X13095190Y-4814560D02*
X12969770Y-4827970D01*
X13111070Y-12931950D02*
X13157480Y-12929650D01*
X13157480Y-12929650D02*
X13181500Y-12929150D01*
X13181500Y-12929150D02*
X13206270Y-12929950D01*
X13206270Y-12929950D02*
X13351280Y-12931150D01*
X13351280Y-12931150D02*
X13414090Y-12931750D01*
X13363870Y-4790900D02*
X13095190Y-4814560D01*
X13414090Y-12931750D02*
X13446080Y-12930750D01*
X13446080Y-12930750D02*
X13480140Y-12929050D01*
X13480140Y-12929050D02*
X13549170Y-12927150D01*
X13549170Y-12927150D02*
X13687810Y-12928450D01*
X13586530Y-4774230D02*
X13363870Y-4790900D01*
X13679370Y-4767940D02*
X13586530Y-4774230D01*
X13687810Y-12928450D02*
X13756700Y-12929550D01*
X13756700Y-12929550D02*
X13826210Y-12929550D01*
X13772210Y-4774230D02*
X13679370Y-4767940D01*
X13826210Y-12929550D02*
X13937960Y-12933450D01*
X13937960Y-12933450D02*
X13986740Y-12932450D01*
X13986740Y-12932450D02*
X14045230Y-12937450D01*
X13994890Y-4790900D02*
X13772210Y-4774230D01*
X14045230Y-12937450D02*
X14174010Y-12937650D01*
X14174010Y-12937650D02*
X14215430Y-12931150D01*
X14215430Y-12931150D02*
X14256400Y-12920150D01*
X14256400Y-12920150D02*
X14295520Y-12904450D01*
X14263590Y-4814560D02*
X13994890Y-4790900D01*
X14295520Y-12904450D02*
X14313970Y-12894850D01*
X14313970Y-12894850D02*
X14331430Y-12883950D01*
X14331430Y-12883950D02*
X14359100Y-12862850D01*
X14359100Y-12862850D02*
X14385580Y-12840150D01*
X14385580Y-12840150D02*
X14410980Y-12816150D01*
X14389020Y-4827970D02*
X14263590Y-4814560D01*
X14410980Y-12816150D02*
X14435380Y-12790950D01*
X14435380Y-12790950D02*
X14481570Y-12738050D01*
X14481570Y-12738050D02*
X14524890Y-12682950D01*
X14494530Y-4841880D02*
X14389020Y-4827970D01*
X14524890Y-12682950D02*
X14574770Y-12605050D01*
X14574770Y-12605050D02*
X14610290Y-12560550D01*
X14610290Y-12560550D02*
X14635530Y-12512510D01*
X14635530Y-12512510D02*
X14675220Y-12467460D01*
X14639820Y-4864360D02*
X14494530Y-4841880D01*
X14675220Y-12467460D02*
X14713790Y-12420240D01*
X14713790Y-12420240D02*
X14792080Y-12323880D01*
X14784830Y-4889620D02*
X14639820Y-4864360D01*
X14792080Y-12323880D02*
X14834850Y-12261410D01*
X14834850Y-12261410D02*
X14875010Y-12196870D01*
X14856950Y-4904200D02*
X14784830Y-4889620D01*
X14875010Y-12196870D02*
X14912500Y-12130480D01*
X14912070Y-6199240D02*
X12390470Y-6199240D01*
X14912070Y-8720840D02*
X14912070Y-6199240D01*
X14912500Y-12130480D02*
X14947250Y-12062470D01*
X14928680Y-4920570D02*
X14856950Y-4904200D01*
X14947250Y-12062470D02*
X14992610Y-11959760D01*
X14992610Y-11959760D02*
X15036350Y-11856440D01*
X14999910Y-4939120D02*
X14928680Y-4920570D01*
X15036350Y-11856440D02*
X15079730Y-11753110D01*
X15070530Y-4960190D02*
X14999910Y-4939120D01*
X15079730Y-11753110D02*
X15124000Y-11650370D01*
X15109170Y-4973970D02*
X15070530Y-4960190D01*
X15124000Y-11650370D02*
X15142210Y-11612620D01*
X15142210Y-11612620D02*
X15170420Y-11548830D01*
X15147110Y-4989900D02*
X15109170Y-4973970D01*
X15170420Y-11548830D02*
X15193140Y-11487380D01*
X15193140Y-11487380D02*
X15214510Y-11424220D01*
X15214510Y-11424220D02*
X15232970Y-11362560D01*
X15221760Y-5025550D02*
X15147110Y-4989900D01*
X15232970Y-11362560D02*
X15246970Y-11305610D01*
X15246970Y-11305610D02*
X15273550Y-11191020D01*
X15273550Y-11191020D02*
X15285790Y-11138190D01*
X15285790Y-11138190D02*
X15293650Y-11097320D01*
X15293650Y-11097320D02*
X15298720Y-11049090D01*
X15296230Y-5061790D02*
X15221760Y-5025550D01*
X15298720Y-11049090D02*
X15304300Y-11013280D01*
X15304300Y-11013280D02*
X15310320Y-10986650D01*
X15310320Y-10986650D02*
X15316760Y-10965970D01*
X15316760Y-10965970D02*
X15330730Y-10929510D01*
X15324480Y-10404110D02*
X15325480Y-10364150D01*
X15325420Y-10441900D02*
X15324480Y-10404110D01*
X15325480Y-10364150D02*
X15329150Y-10325730D01*
X15329150Y-10325730D02*
X15337140Y-10269460D01*
X15330730Y-10929510D02*
X15338190Y-10907260D01*
X15331650Y-10512190D02*
X15325420Y-10441900D01*
X15333960Y-5078460D02*
X15296230Y-5061790D01*
X15337140Y-10269460D02*
X15349180Y-10199520D01*
X15338190Y-10907260D02*
X15345910Y-10878010D01*
X15341200Y-10577550D02*
X15331650Y-10512190D01*
X15345910Y-10878010D02*
X15353420Y-10839920D01*
X15349180Y-10199520D02*
X15365020Y-10120010D01*
X15351120Y-10640480D02*
X15341200Y-10577550D01*
X15353420Y-10839920D02*
X15358060Y-10803740D01*
X15358060Y-10803740D02*
X15360190Y-10769150D01*
X15358440Y-10703520D02*
X15351120Y-10640480D01*
X15360190Y-10769150D02*
X15360200Y-10735850D01*
X15360200Y-10735850D02*
X15358440Y-10703520D01*
X15365020Y-10120010D02*
X15384410Y-10035080D01*
X15372300Y-5093290D02*
X15333960Y-5078460D01*
X15384410Y-10035080D02*
X15386950Y-9972900D01*
X15386950Y-9972900D02*
X15390860Y-9920610D01*
X15390860Y-9920610D02*
X15399130Y-9831000D01*
X15391640Y-9608700D02*
X15391710Y-9563060D01*
X15391710Y-9563060D02*
X15394890Y-9517380D01*
X15394890Y-9517380D02*
X15401790Y-9472200D01*
X15398820Y-9678860D02*
X15391640Y-9608700D01*
X15399130Y-9831000D02*
X15401650Y-9786340D01*
X15401650Y-9786340D02*
X15401850Y-9736850D01*
X15401790Y-9472200D02*
X15413040Y-9428080D01*
X15401850Y-9736850D02*
X15398820Y-9678860D01*
X15413040Y-9428080D02*
X15423490Y-9403520D01*
X15423490Y-9403520D02*
X15437690Y-9377470D01*
X15437690Y-9377470D02*
X15455590Y-9348370D01*
X15453530Y-5123200D02*
X15372300Y-5093290D01*
X15455590Y-9348370D02*
X15499600Y-9269620D01*
X15494830Y-5134080D02*
X15453530Y-5123200D01*
X15499600Y-9269620D02*
X15545290Y-9191970D01*
X15515730Y-5137000D02*
X15494830Y-5134080D01*
X15536830Y-5137660D02*
X15515730Y-5137000D01*
X15545290Y-9191970D02*
X15592840Y-9115610D01*
X15560070Y-5135860D02*
X15536830Y-5137660D01*
X15583140Y-5131970D02*
X15560070Y-5135860D01*
X15592840Y-9115610D02*
X15652670Y-9008310D01*
X15605980Y-5126230D02*
X15583140Y-5131970D01*
X15628560Y-5118900D02*
X15605980Y-5126230D01*
X15652670Y-9008310D02*
X15713710Y-8893930D01*
X15672700Y-5100420D02*
X15628560Y-5118900D01*
X15713710Y-8893930D02*
X15767200Y-8788630D01*
X15715150Y-5078500D02*
X15672700Y-5100420D01*
X15754300Y-5054330D02*
X15715150Y-5078500D01*
X15767200Y-8788630D02*
X15804390Y-8708630D01*
X15791560Y-5026990D02*
X15754300Y-5054330D01*
X15804390Y-8708630D02*
X15831140Y-8643260D01*
X15827440Y-4997270D02*
X15791560Y-5026990D01*
X15831140Y-8643260D02*
X15856320Y-8577130D01*
X15856320Y-8577130D02*
X15879530Y-8510200D01*
X15862420Y-4966020D02*
X15827440Y-4997270D01*
X15879530Y-8510200D02*
X15900400Y-8442420D01*
X15900400Y-8442420D02*
X15925070Y-8349640D01*
X15911250Y-6909070D02*
X15914080Y-6882430D01*
X15911690Y-6935800D02*
X15911250Y-6909070D01*
X15914080Y-6882430D02*
X15919910Y-6859080D01*
X15914670Y-6962610D02*
X15911690Y-6935800D01*
X15919440Y-6989460D02*
X15914670Y-6962610D01*
X15919910Y-6859080D02*
X15928520Y-6836800D01*
X15925070Y-8349640D02*
X15945210Y-8260100D01*
X15928520Y-6836800D02*
X15939250Y-6815370D01*
X15931360Y-7043220D02*
X15919440Y-6989460D01*
X15931640Y-4902140D02*
X15862420Y-4966020D01*
X15939250Y-6815370D02*
X15951510Y-6794540D01*
X15941530Y-7096870D02*
X15931360Y-7043220D01*
X15945210Y-8260100D02*
X15961260Y-8173440D01*
X15951510Y-6794540D02*
X15978070Y-6753730D01*
X15961260Y-8173440D02*
X15973690Y-8089270D01*
X15965480Y-7263690D02*
X15941530Y-7096870D01*
X15966860Y-4871150D02*
X15931640Y-4902140D01*
X15973690Y-8089270D02*
X15982970Y-8007180D01*
X15975280Y-7347630D02*
X15965480Y-7263690D01*
X15978070Y-6753730D02*
X16003240Y-6712420D01*
X15982970Y-8007180D02*
X15989540Y-7926810D01*
X15983430Y-7431840D02*
X15975280Y-7347630D01*
X15989540Y-7926810D02*
X15993860Y-7847760D01*
X15989780Y-7516220D02*
X15983430Y-7431840D01*
X15993860Y-7847760D02*
X15996390Y-7769650D01*
X15994150Y-7600700D02*
X15989780Y-7516220D01*
X15996390Y-7769650D02*
X15996410Y-7685200D01*
X15996410Y-7685200D02*
X15994150Y-7600700D01*
X16003140Y-4841890D02*
X15966860Y-4871150D01*
X16003240Y-6712420D02*
X16062700Y-6599930D01*
X16062700Y-6599930D02*
X16093530Y-6544430D01*
X16093530Y-6544430D02*
X16126700Y-6490590D01*
X16100110Y-4769960D02*
X16003140Y-4841890D01*
X16126700Y-6490590D02*
X16162480Y-6438910D01*
X16162480Y-6438910D02*
X16204110Y-6383280D01*
X16171400Y-4719080D02*
X16100110Y-4769960D01*
X16204110Y-6383280D02*
X16250030Y-6325550D01*
X16250030Y-6325550D02*
X16298710Y-6267530D01*
X16252920Y-4662990D02*
X16171400Y-4719080D01*
X16298710Y-6267530D02*
X16348600Y-6211060D01*
X16340940Y-4605230D02*
X16252920Y-4662990D01*
X16348600Y-6211060D02*
X16398170Y-6157960D01*
X16398170Y-6157960D02*
X16445850Y-6110050D01*
X16431720Y-4549350D02*
X16340940Y-4605230D01*
X16445850Y-6110050D02*
X16490120Y-6069160D01*
X16490120Y-6069160D02*
X16526300Y-6039490D01*
X16521520Y-4498900D02*
X16431720Y-4549350D01*
X16526300Y-6039490D02*
X16572960Y-6004080D01*
X16564880Y-4476830D02*
X16521520Y-4498900D01*
X16571180Y-7815780D02*
X16571870Y-7854870D01*
X16571870Y-7854870D02*
X16574540Y-7893780D01*
X16572340Y-7776600D02*
X16571180Y-7815780D01*
X16572960Y-6004080D02*
X16683020Y-5925980D01*
X16574540Y-7893780D02*
X16579280Y-7932330D01*
X16575220Y-7737480D02*
X16572340Y-7776600D01*
X16579280Y-7932330D02*
X16589590Y-7989040D01*
X16579710Y-7698550D02*
X16575220Y-7737480D01*
X16589590Y-7989040D02*
X16602660Y-8042780D01*
X16593010Y-7621770D02*
X16579710Y-7698550D01*
X16600670Y-7589540D02*
X16593010Y-7621770D01*
X16602660Y-8042780D02*
X16618240Y-8093620D01*
X16606600Y-4457430D02*
X16564880Y-4476830D01*
X16616090Y-7536400D02*
X16600670Y-7589540D01*
X16618240Y-8093620D02*
X16636130Y-8141650D01*
X16636130Y-8141650D02*
X16656100Y-8186910D01*
X16640910Y-7466040D02*
X16616090Y-7536400D01*
X16656100Y-8186910D02*
X16677930Y-8229490D01*
X16657350Y-7425570D02*
X16640910Y-7466040D01*
X16676760Y-7382180D02*
X16657350Y-7425570D01*
X16677930Y-8229490D02*
X16701400Y-8269460D01*
X16682190Y-4425840D02*
X16606600Y-4457430D01*
X16683020Y-5925980D02*
X16790920Y-5854800D01*
X16699350Y-7336350D02*
X16676760Y-7382180D01*
X16701400Y-8269460D02*
X16726280Y-8306900D01*
X16725300Y-7288530D02*
X16699350Y-7336350D01*
X16726280Y-8306900D02*
X16752360Y-8341870D01*
X16751680Y-4400720D02*
X16682190Y-4425840D01*
X16752360Y-8341870D02*
X16779390Y-8374450D01*
X16754830Y-7239190D02*
X16725300Y-7288530D01*
X16779390Y-8374450D02*
X16807180Y-8404710D01*
X16788140Y-7188800D02*
X16754830Y-7239190D01*
X16790920Y-5854800D02*
X16834890Y-5828010D01*
X16807180Y-8404710D02*
X16835510Y-8432730D01*
X16817590Y-4381770D02*
X16751680Y-4400720D01*
X16825440Y-7137820D02*
X16788140Y-7188800D01*
X16834890Y-5828010D02*
X16867280Y-5810420D01*
X16835510Y-8432730D02*
X16864130Y-8458570D01*
X16864130Y-8458570D02*
X16892840Y-8482300D01*
X16866920Y-7086710D02*
X16825440Y-7137820D01*
X16867280Y-5810420D02*
X16919040Y-5788530D01*
X16882490Y-4368670D02*
X16817590Y-4381770D01*
X16892840Y-8482300D02*
X16949580Y-8523770D01*
X16912800Y-7035940D02*
X16866920Y-7086710D01*
X16919040Y-5788530D02*
X16986900Y-5763740D01*
X16948890Y-4361110D02*
X16882490Y-4368670D01*
X16949580Y-8523770D02*
X16987300Y-8546610D01*
X16963300Y-6985970D02*
X16912800Y-7035940D01*
X16986900Y-5763740D02*
X17145500Y-5712210D01*
X16987300Y-8546610D02*
X17025700Y-8567450D01*
X16997400Y-6953920D02*
X16963300Y-6985970D01*
X17019400Y-4358810D02*
X16948890Y-4361110D01*
X17025700Y-8567450D02*
X17064900Y-8586350D01*
X17031600Y-6924270D02*
X16997400Y-6953920D01*
X17064900Y-8586350D02*
X17104500Y-8603320D01*
X17066400Y-6897770D02*
X17031600Y-6924270D01*
X17096400Y-4361440D02*
X17019400Y-4358810D01*
X17102200Y-6875140D02*
X17066400Y-6897770D01*
X17104500Y-8603320D02*
X17144600Y-8618410D01*
X17139600Y-6857120D02*
X17102200Y-6875140D01*
X17144600Y-8618410D02*
X17185100Y-8631670D01*
X17145500Y-5712210D02*
X17291900Y-5669100D01*
X17178800Y-6844440D02*
X17139600Y-6857120D01*
X17182600Y-4368690D02*
X17096400Y-4361440D01*
X17185100Y-8631670D02*
X17226200Y-8643110D01*
X17199300Y-6840340D02*
X17178800Y-6844440D01*
X17220400Y-6837860D02*
X17199300Y-6840340D01*
X17226200Y-8643110D02*
X17267700Y-8652810D01*
X17242300Y-6837060D02*
X17220400Y-6837860D01*
X17259800Y-4377700D02*
X17182600Y-4368690D01*
X17265000Y-6838070D02*
X17242300Y-6837060D01*
X17267700Y-8652810D02*
X17309400Y-8660770D01*
X17291900Y-5669100D02*
X17374700Y-5647740D01*
X17298100Y-6836500D02*
X17265000Y-6838070D01*
X17309400Y-8660770D02*
X17351500Y-8667070D01*
X17329900Y-6839140D02*
X17298100Y-6836500D01*
X17345600Y-4389580D02*
X17259800Y-4377700D01*
X17351500Y-8667070D02*
X17436400Y-8674750D01*
X17361000Y-6845170D02*
X17329900Y-6839140D01*
X17374700Y-5647740D02*
X17439500Y-5637780D01*
X17391400Y-6853750D02*
X17361000Y-6845170D01*
X17436300Y-4403950D02*
X17345600Y-4389580D01*
X17436400Y-8674750D02*
X17522000Y-8676180D01*
X17439500Y-5637780D02*
X17495300Y-5632460D01*
X17451400Y-6875310D02*
X17391400Y-6853750D01*
X17495300Y-5632460D02*
X17543700Y-5631270D01*
X17511900Y-6897220D02*
X17451400Y-6875310D01*
X17522000Y-8676180D02*
X17608000Y-8671650D01*
X17528300Y-4420370D02*
X17436300Y-4403950D01*
X17543700Y-5631270D02*
X17586600Y-5633730D01*
X17552600Y-6905550D02*
X17511900Y-6897220D01*
X17586600Y-5633730D02*
X17625700Y-5639320D01*
X17593700Y-6910920D02*
X17552600Y-6905550D01*
X17608000Y-8671650D02*
X17722200Y-8659570D01*
X17618100Y-4438410D02*
X17528300Y-4420370D01*
X17625700Y-5639320D02*
X17662900Y-5647560D01*
X17635100Y-6913130D02*
X17593700Y-6910920D01*
X17662900Y-5647560D02*
X17738200Y-5669930D01*
X17676500Y-6912010D02*
X17635100Y-6913130D01*
X17702100Y-4457690D02*
X17618100Y-4438410D01*
X17715800Y-6909250D02*
X17676500Y-6912010D01*
X17722200Y-8659570D02*
X17777200Y-8651270D01*
X17738200Y-5669930D02*
X17770800Y-5681320D01*
X17754000Y-6903110D02*
X17715800Y-6909250D01*
X17770800Y-5681320D02*
X17805100Y-5695160D01*
X17776700Y-4477760D02*
X17702100Y-4457690D01*
X17777200Y-8651270D02*
X17831000Y-8641300D01*
X17791200Y-6893830D02*
X17754000Y-6903110D01*
X17805100Y-5695160D02*
X17876700Y-5728590D01*
X17827400Y-6881650D02*
X17791200Y-6893830D01*
X17831000Y-8641300D02*
X17883500Y-8629530D01*
X17838300Y-4498210D02*
X17776700Y-4477760D01*
X17862600Y-6866780D02*
X17827400Y-6881650D01*
X17876700Y-5728590D02*
X17948900Y-5767000D01*
X17878600Y-4509030D02*
X17838300Y-4498210D01*
X17883500Y-8629530D02*
X17935000Y-8615850D01*
X17897200Y-6849490D02*
X17862600Y-6866780D01*
X17920100Y-4523150D02*
X17878600Y-4509030D01*
X17931200Y-6829970D02*
X17897200Y-6849490D01*
X17935000Y-8615850D02*
X17985400Y-8600120D01*
X17948900Y-5767000D02*
X18018000Y-5807170D01*
X17962600Y-4540240D02*
X17920100Y-4523150D01*
X17964500Y-6808500D02*
X17931200Y-6829970D01*
X17985400Y-8600120D02*
X18034800Y-8582220D01*
X18005800Y-4560000D02*
X17962600Y-4540240D01*
X18014500Y-6778030D02*
X17964500Y-6808500D01*
X18018000Y-5807170D02*
X18080000Y-5845910D01*
X18034800Y-8582220D02*
X18083300Y-8562040D01*
X18049400Y-4582080D02*
X18005800Y-4560000D01*
X18065100Y-6748110D02*
X18014500Y-6778030D01*
X18080000Y-5845910D02*
X18131000Y-5879990D01*
X18083300Y-8562040D02*
X18131000Y-8539450D01*
X18089700Y-6732210D02*
X18065100Y-6748110D01*
X18093200Y-4606180D02*
X18049400Y-4582080D01*
X18113300Y-6715110D02*
X18089700Y-6732210D01*
X18131000Y-5879990D02*
X18166900Y-5906200D01*
X18131000Y-8539450D02*
X18177900Y-8514330D01*
X18135800Y-6696330D02*
X18113300Y-6715110D01*
X18156500Y-6675450D02*
X18135800Y-6696330D01*
X18166900Y-5906200D02*
X18183900Y-5921330D01*
X18177900Y-8514330D02*
X18224100Y-8486540D01*
X18180400Y-4659090D02*
X18093200Y-4606180D01*
X18183900Y-5921330D02*
X18210000Y-5966060D01*
X18183900Y-6630630D02*
X18156500Y-6675450D01*
X18208100Y-6584870D02*
X18183900Y-6630630D01*
X18210000Y-5966060D02*
X18232000Y-6011740D01*
X18224100Y-8486540D02*
X18269700Y-8455980D01*
X18229200Y-6538310D02*
X18208100Y-6584870D01*
X18232000Y-6011740D02*
X18250200Y-6058230D01*
X18246900Y-6491080D02*
X18229200Y-6538310D01*
X18250200Y-6058230D02*
X18264500Y-6105390D01*
X18261400Y-6443320D02*
X18246900Y-6491080D01*
X18264500Y-6105390D02*
X18275000Y-6153120D01*
X18265300Y-4716140D02*
X18180400Y-4659090D01*
X18269700Y-8455980D02*
X18314700Y-8422510D01*
X18272400Y-6395160D02*
X18261400Y-6443320D01*
X18275000Y-6153120D02*
X18281700Y-6201240D01*
X18280100Y-6346740D02*
X18272400Y-6395160D01*
X18281700Y-6201240D02*
X18284800Y-6249650D01*
X18284200Y-6298190D02*
X18280100Y-6346740D01*
X18284800Y-6249650D02*
X18284200Y-6298190D01*
X18314700Y-8422510D02*
X18359300Y-8386010D01*
X18345800Y-4774740D02*
X18265300Y-4716140D01*
X18359300Y-8386010D02*
X18403400Y-8346360D01*
X18403400Y-8346360D02*
X18423200Y-8338320D01*
X18420000Y-4832310D02*
X18345800Y-4774740D01*
X18423200Y-8338320D02*
X18443900Y-8332990D01*
X18443900Y-8332990D02*
X18486800Y-8326460D01*
X18485500Y-4886240D02*
X18420000Y-4832310D01*
X18486800Y-8326460D02*
X18508300Y-8323280D01*
X18508300Y-8323280D02*
X18529200Y-8318800D01*
X18529200Y-8318800D02*
X18549200Y-8312040D01*
X18537100Y-4929820D02*
X18485500Y-4886240D01*
X18549200Y-8312040D02*
X18568000Y-8302000D01*
X18568000Y-8302000D02*
X18593900Y-8282560D01*
X18593900Y-8282560D02*
X18617800Y-8260400D01*
X18595800Y-4983350D02*
X18537100Y-4929820D01*
X18617800Y-8260400D02*
X18639900Y-8235920D01*
X18639900Y-8235920D02*
X18660600Y-8209620D01*
X18658500Y-5044100D02*
X18595800Y-4983350D01*
X18660600Y-8209620D02*
X18680000Y-8181930D01*
X18680000Y-8181930D02*
X18698400Y-8153280D01*
X18698400Y-8153280D02*
X18732600Y-8094960D01*
X18722200Y-5109280D02*
X18658500Y-5044100D01*
X18732600Y-8094960D02*
X18747600Y-8065180D01*
X18747600Y-8065180D02*
X18760100Y-8034090D01*
X18760100Y-8034090D02*
X18781100Y-7969650D01*
X18781100Y-7969650D02*
X18801900Y-7905030D01*
X18783700Y-5176170D02*
X18722200Y-5109280D01*
X18801900Y-7905030D02*
X18814000Y-7873700D01*
X18814000Y-7873700D02*
X18828500Y-7843600D01*
X18828500Y-7843600D02*
X18852200Y-7803620D01*
X18839900Y-5241990D02*
X18783700Y-5176170D01*
X18852200Y-7803620D02*
X18874100Y-7772900D01*
X18874100Y-7772900D02*
X18922500Y-7713970D01*
X18887900Y-5304000D02*
X18839900Y-5241990D01*
X18907800Y-5332710D02*
X18887900Y-5304000D01*
X18922500Y-7713970D02*
X18953500Y-7673150D01*
X18924400Y-5359420D02*
X18907800Y-5332710D01*
X18953500Y-7673150D02*
X18992400Y-7616350D01*
X18968200Y-5427920D02*
X18924400Y-5359420D01*
X18992400Y-7616350D02*
X19041400Y-7537260D01*
X19022000Y-5508270D02*
X18968200Y-5427920D01*
X19041400Y-7537260D02*
X19102800Y-7429580D01*
X19048700Y-5549610D02*
X19022000Y-5508270D01*
X19073200Y-5589980D02*
X19048700Y-5549610D01*
X19094100Y-5628070D02*
X19073200Y-5589980D01*
X19102800Y-7429580D02*
X19133300Y-7373460D01*
X19109600Y-5662540D02*
X19094100Y-5628070D01*
X19133300Y-7373460D02*
X19162300Y-7316750D01*
X19137600Y-5731010D02*
X19109600Y-5662540D01*
X19162300Y-7316750D02*
X19189700Y-7259430D01*
X19164300Y-5788510D02*
X19137600Y-5731010D01*
X19189700Y-7259430D02*
X19215500Y-7201500D01*
X19214000Y-5886660D02*
X19164300Y-5788510D01*
X19215500Y-7201500D02*
X19239600Y-7142950D01*
X19237200Y-5935360D02*
X19214000Y-5886660D01*
X19239600Y-7142950D02*
X19261800Y-7083760D01*
X19259400Y-5989190D02*
X19237200Y-5935360D01*
X19261800Y-7083760D02*
X19282000Y-7023900D01*
X19280900Y-6052170D02*
X19259400Y-5989190D01*
X19282000Y-7023900D02*
X19300300Y-6963380D01*
X19300300Y-6963380D02*
X19316500Y-6902180D01*
X19301700Y-6128330D02*
X19280900Y-6052170D01*
X19316500Y-6902180D02*
X19330500Y-6840280D01*
X19318600Y-6200650D02*
X19301700Y-6128330D01*
X19330500Y-6840280D02*
X19342100Y-6777680D01*
X19338100Y-6290050D02*
X19318600Y-6200650D01*
X19342100Y-6777680D02*
X19351400Y-6714360D01*
X19351400Y-6714360D02*
X19358400Y-6650300D01*
X19354800Y-6379920D02*
X19338100Y-6290050D01*
X19358400Y-6650300D02*
X19362700Y-6585510D01*
X19360500Y-6419830D02*
X19354800Y-6379920D01*
X19362700Y-6585510D02*
X19364400Y-6519960D01*
X19363300Y-6453630D02*
X19360500Y-6419830D01*
X19364400Y-6519960D02*
X19363300Y-6453630D01*
D11*
G36*
X13183527Y-9317428D02*
G01*
X13196134Y-9320806D01*
X13207439Y-9327332D01*
X13216668Y-9336562D01*
X13223194Y-9347866D01*
X13226572Y-9360474D01*
X13226572Y-9373526D01*
X13223194Y-9386134D01*
X13216668Y-9397438D01*
X13207439Y-9406668D01*
X13196135Y-9413195D01*
X13183527Y-9416572D01*
X13170474Y-9416572D01*
X13157866Y-9413193D01*
X13146562Y-9406668D01*
X13137333Y-9397439D01*
X13130807Y-9386134D01*
X13127429Y-9373526D01*
X13127429Y-9360474D01*
X13130807Y-9347866D01*
X13137333Y-9336562D01*
X13146562Y-9327332D01*
X13157866Y-9320806D01*
X13170474Y-9317428D01*
X13183527Y-9317428D01*
G37*
G36*
X13195869Y-10054799D02*
G01*
X13207641Y-10059675D01*
X13218236Y-10066755D01*
X13227247Y-10075765D01*
X13234326Y-10086360D01*
X13239201Y-10098131D01*
X13241687Y-10110629D01*
X13241687Y-10123372D01*
X13239201Y-10135868D01*
X13234326Y-10147641D01*
X13227246Y-10158235D01*
X13218236Y-10167245D01*
X13207642Y-10174325D01*
X13195868Y-10179201D01*
X13183372Y-10181687D01*
X13170629Y-10181687D01*
X13158133Y-10179202D01*
X13146360Y-10174325D01*
X13135765Y-10167246D01*
X13126755Y-10158236D01*
X13119676Y-10147641D01*
X13114799Y-10135869D01*
X13112314Y-10123371D01*
X13112314Y-10110629D01*
X13114800Y-10098131D01*
X13119676Y-10086360D01*
X13126755Y-10075765D01*
X13135765Y-10066754D01*
X13146359Y-10059675D01*
X13158132Y-10054799D01*
X13170629Y-10052313D01*
X13183372Y-10052313D01*
X13195869Y-10054799D01*
G37*
G36*
X13520221Y-4963426D02*
G01*
X13530394Y-4969300D01*
X13538701Y-4977606D01*
X13544574Y-4987779D01*
X13547615Y-4999126D01*
X13547615Y-5010874D01*
X13544575Y-5022221D01*
X13538701Y-5032395D01*
X13530394Y-5040701D01*
X13520221Y-5046575D01*
X13508874Y-5049615D01*
X13497126Y-5049616D01*
X13485779Y-5046575D01*
X13475606Y-5040701D01*
X13467299Y-5032395D01*
X13461425Y-5022221D01*
X13458385Y-5010874D01*
X13458385Y-4999127D01*
X13461425Y-4987780D01*
X13467299Y-4977606D01*
X13475606Y-4969299D01*
X13485779Y-4963426D01*
X13497126Y-4960386D01*
X13508874Y-4960386D01*
X13520221Y-4963426D01*
G37*
G36*
X13820221Y-4963426D02*
G01*
X13830394Y-4969300D01*
X13838701Y-4977606D01*
X13844575Y-4987779D01*
X13847615Y-4999127D01*
X13847615Y-5010874D01*
X13844575Y-5022221D01*
X13838701Y-5032394D01*
X13830395Y-5040701D01*
X13820221Y-5046575D01*
X13808874Y-5049615D01*
X13797126Y-5049615D01*
X13785779Y-5046575D01*
X13775606Y-5040701D01*
X13767299Y-5032394D01*
X13761425Y-5022221D01*
X13758385Y-5010874D01*
X13758385Y-4999127D01*
X13761426Y-4987779D01*
X13767299Y-4977606D01*
X13775606Y-4969300D01*
X13785779Y-4963426D01*
X13797126Y-4960386D01*
X13808874Y-4960385D01*
X13820221Y-4963426D01*
G37*
D12*
D10*
X8561000Y-7479000D02*
X8581000Y-7499000D01*
X8581000Y-7479000D02*
X8561000Y-7499000D01*
X9286000Y-4815000D02*
X9306000Y-4835000D01*
X9306000Y-4815000D02*
X9286000Y-4835000D01*
X9523000Y-5180000D02*
X9543000Y-5200000D01*
X9543000Y-5180000D02*
X9523000Y-5200000D01*
X10086000Y-6879000D02*
X10106000Y-6899000D01*
X10106000Y-6879000D02*
X10086000Y-6899000D01*
X10515000Y-5572000D02*
X10535000Y-5592000D01*
X10535000Y-5572000D02*
X10515000Y-5592000D01*
X11002000Y-5590000D02*
X11022000Y-5610000D01*
X11022000Y-5590000D02*
X11002000Y-5610000D01*
X11521000Y-6404000D02*
X11541000Y-6424000D01*
X11541000Y-6404000D02*
X11521000Y-6424000D01*
X11531000Y-5391000D02*
X11551000Y-5411000D01*
X11551000Y-5391000D02*
X11531000Y-5411000D01*
X11913000Y-8783000D02*
X11933000Y-8803000D01*
X11933000Y-8783000D02*
X11913000Y-8803000D01*
X11972000Y-8169000D02*
X11992000Y-8189000D01*
X11992000Y-8169000D02*
X11972000Y-8189000D01*
X12034000Y-9915000D02*
X12054000Y-9935000D01*
X12054000Y-9915000D02*
X12034000Y-9935000D01*
X12262000Y-9103000D02*
X12282000Y-9123000D01*
X12282000Y-9103000D02*
X12262000Y-9123000D01*
X12532000Y-9206000D02*
X12552000Y-9226000D01*
X12552000Y-9206000D02*
X12532000Y-9226000D01*
X12540000Y-9121000D02*
X12560000Y-9141000D01*
X12560000Y-9121000D02*
X12540000Y-9141000D01*
X12552000Y-8939000D02*
X12572000Y-8959000D01*
X12572000Y-8939000D02*
X12552000Y-8959000D01*
X12559000Y-12253000D02*
X12579000Y-12273000D01*
X12579000Y-12253000D02*
X12559000Y-12273000D01*
X12573000Y-11930000D02*
X12593000Y-11950000D01*
X12593000Y-11930000D02*
X12573000Y-11950000D01*
X12698000Y-10594000D02*
X12718000Y-10614000D01*
X12718000Y-10594000D02*
X12698000Y-10614000D01*
X12747000Y-9267000D02*
X12767000Y-9287000D01*
X12767000Y-9267000D02*
X12747000Y-9287000D01*
X12768000Y-11103000D02*
X12788000Y-11123000D01*
X12788000Y-11103000D02*
X12768000Y-11123000D01*
X12989000Y-9659000D02*
X13009000Y-9679000D01*
X13009000Y-9659000D02*
X12989000Y-9679000D01*
X13004000Y-9076000D02*
X13024000Y-9096000D01*
X13024000Y-9076000D02*
X13004000Y-9096000D01*
X13017000Y-11438000D02*
X13037000Y-11458000D01*
X13037000Y-11438000D02*
X13017000Y-11458000D01*
X13059000Y-11995000D02*
X13079000Y-12015000D01*
X13079000Y-11995000D02*
X13059000Y-12015000D01*
X13093000Y-11735000D02*
X13113000Y-11755000D01*
X13113000Y-11735000D02*
X13093000Y-11755000D01*
X13097000Y-11565000D02*
X13117000Y-11585000D01*
X13117000Y-11565000D02*
X13097000Y-11585000D01*
X13109000Y-4985000D02*
X13129000Y-5005000D01*
X13129000Y-4985000D02*
X13109000Y-5005000D01*
X13166000Y-11772000D02*
X13186000Y-11792000D01*
X13186000Y-11772000D02*
X13166000Y-11792000D01*
X13167001Y-8934800D02*
X13187001Y-8954800D01*
X13187001Y-8934800D02*
X13167001Y-8954800D01*
X13187000Y-9891000D02*
X13207000Y-9911000D01*
X13207000Y-9891000D02*
X13187000Y-9911000D01*
X13214000Y-10805000D02*
X13234000Y-10825000D01*
X13234000Y-10805000D02*
X13214000Y-10825000D01*
X13243000Y-9796000D02*
X13263000Y-9816000D01*
X13263000Y-9796000D02*
X13243000Y-9816000D01*
X13246000Y-10219000D02*
X13266000Y-10239000D01*
X13266000Y-10219000D02*
X13246000Y-10239000D01*
X13257000Y-9710000D02*
X13277000Y-9730000D01*
X13277000Y-9710000D02*
X13257000Y-9730000D01*
X13417000Y-10062000D02*
X13437000Y-10082000D01*
X13437000Y-10062000D02*
X13417000Y-10082000D01*
X13422000Y-10592000D02*
X13442000Y-10612000D01*
X13442000Y-10592000D02*
X13422000Y-10612000D01*
X13438000Y-10759000D02*
X13458000Y-10779000D01*
X13458000Y-10759000D02*
X13438000Y-10779000D01*
X13458000Y-9741000D02*
X13478000Y-9761000D01*
X13478000Y-9741000D02*
X13458000Y-9761000D01*
X13475000Y-10530000D02*
X13495000Y-10550000D01*
X13495000Y-10530000D02*
X13475000Y-10550000D01*
X13483000Y-9286000D02*
X13503000Y-9306000D01*
X13503000Y-9286000D02*
X13483000Y-9306000D01*
X13523000Y-9788000D02*
X13543000Y-9808000D01*
X13543000Y-9788000D02*
X13523000Y-9808000D01*
X13578000Y-12526000D02*
X13598000Y-12546000D01*
X13598000Y-12526000D02*
X13578000Y-12546000D01*
X13600000Y-11146000D02*
X13620000Y-11166000D01*
X13620000Y-11146000D02*
X13600000Y-11166000D01*
X13604000Y-10475000D02*
X13624000Y-10495000D01*
X13624000Y-10475000D02*
X13604000Y-10495000D01*
X13657000Y-9921000D02*
X13677000Y-9941000D01*
X13677000Y-9921000D02*
X13657000Y-9941000D01*
X13743500Y-10525500D02*
X13763500Y-10545500D01*
X13763500Y-10525500D02*
X13743500Y-10545500D01*
X13753000Y-11737000D02*
X13773000Y-11757000D01*
X13773000Y-11737000D02*
X13753000Y-11757000D01*
X13754000Y-9605000D02*
X13774000Y-9625000D01*
X13774000Y-9605000D02*
X13754000Y-9625000D01*
X13793000Y-9094000D02*
X13813000Y-9114000D01*
X13813000Y-9094000D02*
X13793000Y-9114000D01*
X13876000Y-9872000D02*
X13896000Y-9892000D01*
X13896000Y-9872000D02*
X13876000Y-9892000D01*
X13922000Y-11361000D02*
X13942000Y-11381000D01*
X13942000Y-11361000D02*
X13922000Y-11381000D01*
X13943000Y-9184800D02*
X13963000Y-9204800D01*
X13963000Y-9184800D02*
X13943000Y-9204800D01*
X13959000Y-9015000D02*
X13979000Y-9035000D01*
X13979000Y-9015000D02*
X13959000Y-9035000D01*
X13959000Y-10309000D02*
X13979000Y-10329000D01*
X13979000Y-10309000D02*
X13959000Y-10329000D01*
X14000500Y-4969500D02*
X14020500Y-4989500D01*
X14020500Y-4969500D02*
X14000500Y-4989500D01*
X14009000Y-5099000D02*
X14029000Y-5119000D01*
X14029000Y-5099000D02*
X14009000Y-5119000D01*
X14009000Y-9626000D02*
X14029000Y-9646000D01*
X14029000Y-9626000D02*
X14009000Y-9646000D01*
X14024000Y-10711000D02*
X14044000Y-10731000D01*
X14044000Y-10711000D02*
X14024000Y-10731000D01*
X14067000Y-8944000D02*
X14087000Y-8964000D01*
X14087000Y-8944000D02*
X14067000Y-8964000D01*
X14188000Y-10361000D02*
X14208000Y-10381000D01*
X14208000Y-10361000D02*
X14188000Y-10381000D01*
X14195999Y-11419000D02*
X14215999Y-11439000D01*
X14215999Y-11419000D02*
X14195999Y-11439000D01*
X14196000Y-11292000D02*
X14216000Y-11312000D01*
X14216000Y-11292000D02*
X14196000Y-11312000D01*
X14196000Y-11165000D02*
X14216000Y-11185000D01*
X14216000Y-11165000D02*
X14196000Y-11185000D01*
X14269000Y-12845000D02*
X14289000Y-12865000D01*
X14289000Y-12845000D02*
X14269000Y-12865000D01*
X14272000Y-5521000D02*
X14292000Y-5541000D01*
X14292000Y-5521000D02*
X14272000Y-5541000D01*
X14323000Y-10382000D02*
X14343000Y-10402000D01*
X14343000Y-10382000D02*
X14323000Y-10402000D01*
X14375000Y-6067000D02*
X14395000Y-6087000D01*
X14395000Y-6067000D02*
X14375000Y-6087000D01*
X14401000Y-9062024D02*
X14421000Y-9082024D01*
X14421000Y-9062024D02*
X14401000Y-9082024D01*
X14407000Y-10414000D02*
X14427000Y-10434000D01*
X14427000Y-10414000D02*
X14407000Y-10434000D01*
X14439000Y-11252000D02*
X14459000Y-11272000D01*
X14459000Y-11252000D02*
X14439000Y-11272000D01*
X14457500Y-11673000D02*
X14477500Y-11693000D01*
X14477500Y-11673000D02*
X14457500Y-11693000D01*
X14496000Y-10487000D02*
X14516000Y-10507000D01*
X14516000Y-10487000D02*
X14496000Y-10507000D01*
X14524000Y-10010000D02*
X14544000Y-10030000D01*
X14544000Y-10010000D02*
X14524000Y-10030000D01*
X14530000Y-10140000D02*
X14550000Y-10160000D01*
X14550000Y-10140000D02*
X14530000Y-10160000D01*
X14577375Y-9319728D02*
X14597375Y-9339728D01*
X14597375Y-9319728D02*
X14577375Y-9339728D01*
X14580000Y-10479000D02*
X14600000Y-10499000D01*
X14600000Y-10479000D02*
X14580000Y-10499000D01*
X14589000Y-11402000D02*
X14609000Y-11422000D01*
X14609000Y-11402000D02*
X14589000Y-11422000D01*
X14633000Y-11231000D02*
X14653000Y-11251000D01*
X14653000Y-11231000D02*
X14633000Y-11251000D01*
X14654000Y-10437000D02*
X14674000Y-10457000D01*
X14674000Y-10437000D02*
X14654000Y-10457000D01*
X14659000Y-11036000D02*
X14679000Y-11056000D01*
X14679000Y-11036000D02*
X14659000Y-11056000D01*
X14699000Y-9753000D02*
X14719000Y-9773000D01*
X14719000Y-9753000D02*
X14699000Y-9773000D01*
X14760000Y-11477000D02*
X14780000Y-11497000D01*
X14780000Y-11477000D02*
X14760000Y-11497000D01*
X14763000Y-12254000D02*
X14783000Y-12274000D01*
X14783000Y-12254000D02*
X14763000Y-12274000D01*
X14782000Y-5159000D02*
X14802000Y-5179000D01*
X14802000Y-5159000D02*
X14782000Y-5179000D01*
X14800250Y-11818250D02*
X14820250Y-11838250D01*
X14820250Y-11818250D02*
X14800250Y-11838250D01*
X14840000Y-9738000D02*
X14860000Y-9758000D01*
X14860000Y-9738000D02*
X14840000Y-9758000D01*
X14850000Y-5289000D02*
X14870000Y-5309000D01*
X14870000Y-5289000D02*
X14850000Y-5309000D01*
X14915000Y-5106000D02*
X14935000Y-5126000D01*
X14935000Y-5106000D02*
X14915000Y-5126000D01*
X14930000Y-5314000D02*
X14950000Y-5334000D01*
X14950000Y-5314000D02*
X14930000Y-5334000D01*
X14956000Y-8942000D02*
X14976000Y-8962000D01*
X14976000Y-8942000D02*
X14956000Y-8962000D01*
X14957000Y-8175000D02*
X14977000Y-8195000D01*
X14977000Y-8175000D02*
X14957000Y-8195000D01*
X15025000Y-5322000D02*
X15045000Y-5342000D01*
X15045000Y-5322000D02*
X15025000Y-5342000D01*
X15109000Y-9576000D02*
X15129000Y-9596000D01*
X15129000Y-9576000D02*
X15109000Y-9596000D01*
X15119000Y-8671000D02*
X15139000Y-8691000D01*
X15139000Y-8671000D02*
X15119000Y-8691000D01*
X15126500Y-7558500D02*
X15146500Y-7578500D01*
X15146500Y-7558500D02*
X15126500Y-7578500D01*
X15160000Y-10188000D02*
X15180000Y-10208000D01*
X15180000Y-10188000D02*
X15160000Y-10208000D01*
X15161500Y-9681500D02*
X15181500Y-9701500D01*
X15181500Y-9681500D02*
X15161500Y-9701500D01*
X15163000Y-6828000D02*
X15183000Y-6848000D01*
X15183000Y-6828000D02*
X15163000Y-6848000D01*
X15174000Y-9131000D02*
X15194000Y-9151000D01*
X15194000Y-9131000D02*
X15174000Y-9151000D01*
X15193000Y-11255000D02*
X15213000Y-11275000D01*
X15213000Y-11255000D02*
X15193000Y-11275000D01*
X15214000Y-7820000D02*
X15234000Y-7840000D01*
X15234000Y-7820000D02*
X15214000Y-7840000D01*
X15224000Y-8036000D02*
X15244000Y-8056000D01*
X15244000Y-8036000D02*
X15224000Y-8056000D01*
X15279000Y-5651000D02*
X15299000Y-5671000D01*
X15299000Y-5651000D02*
X15279000Y-5671000D01*
X15282000Y-10591000D02*
X15302000Y-10611000D01*
X15302000Y-10591000D02*
X15282000Y-10611000D01*
X15290000Y-6386000D02*
X15310000Y-6406000D01*
X15310000Y-6386000D02*
X15290000Y-6406000D01*
X15307000Y-8096000D02*
X15327000Y-8116000D01*
X15327000Y-8096000D02*
X15307000Y-8116000D01*
X15343000Y-8366000D02*
X15363000Y-8386000D01*
X15363000Y-8366000D02*
X15343000Y-8386000D01*
X15380000Y-7357000D02*
X15400000Y-7377000D01*
X15400000Y-7357000D02*
X15380000Y-7377000D01*
X15476000Y-7567000D02*
X15496000Y-7587000D01*
X15496000Y-7567000D02*
X15476000Y-7587000D01*
X15549000Y-8174000D02*
X15569000Y-8194000D01*
X15569000Y-8174000D02*
X15549000Y-8194000D01*
X15551000Y-8254000D02*
X15571000Y-8274000D01*
X15571000Y-8254000D02*
X15551000Y-8274000D01*
X15580000Y-6441000D02*
X15600000Y-6461000D01*
X15600000Y-6441000D02*
X15580000Y-6461000D01*
X15639000Y-7878000D02*
X15659000Y-7898000D01*
X15659000Y-7878000D02*
X15639000Y-7898000D01*
X15658000Y-8017000D02*
X15678000Y-8037000D01*
X15678000Y-8017000D02*
X15658000Y-8037000D01*
X15658000Y-8243000D02*
X15678000Y-8263000D01*
X15678000Y-8243000D02*
X15658000Y-8263000D01*
X15685000Y-7710000D02*
X15705000Y-7730000D01*
X15705000Y-7710000D02*
X15685000Y-7730000D01*
X15747000Y-7577000D02*
X15767000Y-7597000D01*
X15767000Y-7577000D02*
X15747000Y-7597000D01*
X15754000Y-7747000D02*
X15774000Y-7767000D01*
X15774000Y-7747000D02*
X15754000Y-7767000D01*
X15792000Y-6493000D02*
X15812000Y-6513000D01*
X15812000Y-6493000D02*
X15792000Y-6513000D01*
X15796000Y-6423000D02*
X15816000Y-6443000D01*
X15816000Y-6423000D02*
X15796000Y-6443000D01*
X15933000Y-5582000D02*
X15953000Y-5602000D01*
X15953000Y-5582000D02*
X15933000Y-5602000D01*
X15973000Y-6326000D02*
X15993000Y-6346000D01*
X15993000Y-6326000D02*
X15973000Y-6346000D01*
X16025000Y-5711000D02*
X16045000Y-5731000D01*
X16045000Y-5711000D02*
X16025000Y-5731000D01*
X16070000Y-4999000D02*
X16090000Y-5019000D01*
X16090000Y-4999000D02*
X16070000Y-5019000D01*
X16381000Y-5143000D02*
X16401000Y-5163000D01*
X16401000Y-5143000D02*
X16381000Y-5163000D01*
X16511000Y-5677000D02*
X16531000Y-5697000D01*
X16531000Y-5677000D02*
X16511000Y-5697000D01*
X17317000Y-5071000D02*
X17337000Y-5091000D01*
X17337000Y-5071000D02*
X17317000Y-5091000D01*
X17317000Y-5354000D02*
X17337000Y-5374000D01*
X17337000Y-5354000D02*
X17317000Y-5374000D01*
X17441000Y-4616000D02*
X17461000Y-4636000D01*
X17461000Y-4616000D02*
X17441000Y-4636000D01*
X17584000Y-5374000D02*
X17604000Y-5394000D01*
X17604000Y-5374000D02*
X17584000Y-5394000D01*
X17587000Y-5265000D02*
X17607000Y-5285000D01*
X17607000Y-5265000D02*
X17587000Y-5285000D01*
X17621000Y-5159000D02*
X17641000Y-5179000D01*
X17641000Y-5159000D02*
X17621000Y-5179000D01*
X17819000Y-5176000D02*
X17839000Y-5196000D01*
X17839000Y-5176000D02*
X17819000Y-5196000D01*
X17824000Y-4909000D02*
X17844000Y-4929000D01*
X17844000Y-4909000D02*
X17824000Y-4929000D01*
X17880500Y-5513500D02*
X17900500Y-5533500D01*
X17900500Y-5513500D02*
X17880500Y-5533500D01*
X18451000Y-6444000D02*
X18471000Y-6464000D01*
X18471000Y-6444000D02*
X18451000Y-6464000D01*
X18464000Y-7023000D02*
X18484000Y-7043000D01*
X18484000Y-7023000D02*
X18464000Y-7043000D01*
X18513000Y-8250000D02*
X18533000Y-8270000D01*
X18533000Y-8250000D02*
X18513000Y-8270000D01*
X18562000Y-5421000D02*
X18582000Y-5441000D01*
X18582000Y-5421000D02*
X18562000Y-5441000D01*
X18569000Y-7909000D02*
X18589000Y-7929000D01*
X18589000Y-7909000D02*
X18569000Y-7929000D01*
X18797000Y-5764000D02*
X18817000Y-5784000D01*
X18817000Y-5764000D02*
X18797000Y-5784000D01*
X18803000Y-7461000D02*
X18823000Y-7481000D01*
X18823000Y-7461000D02*
X18803000Y-7481000D01*
X19125000Y-6260000D02*
X19145000Y-6280000D01*
X19145000Y-6260000D02*
X19125000Y-6280000D01*
X9120000Y-7748000D02*
G75*
G02*
X9090000Y-7748000I-15000J0D01*
G01*
X9090000Y-7748000D02*
G75*
G02*
X9120000Y-7748000I15000J0D01*
G01*
X12224000Y-9556000D02*
G75*
G02*
X12194000Y-9556000I-15000J0D01*
G01*
X12194000Y-9556000D02*
G75*
G02*
X12224000Y-9556000I15000J0D01*
G01*
X12386000Y-9336000D02*
G75*
G02*
X12356000Y-9336000I-15000J0D01*
G01*
X12356000Y-9336000D02*
G75*
G02*
X12386000Y-9336000I15000J0D01*
G01*
X12428000Y-11625000D02*
G75*
G02*
X12398000Y-11625000I-15000J0D01*
G01*
X12398000Y-11625000D02*
G75*
G02*
X12428000Y-11625000I15000J0D01*
G01*
X12643000Y-11080500D02*
G75*
G02*
X12613000Y-11080500I-15000J0D01*
G01*
X12613000Y-11080500D02*
G75*
G02*
X12643000Y-11080500I15000J0D01*
G01*
X12849000Y-11848000D02*
G75*
G02*
X12819000Y-11848000I-15000J0D01*
G01*
X12819000Y-11848000D02*
G75*
G02*
X12849000Y-11848000I15000J0D01*
G01*
X12886000Y-9553000D02*
G75*
G02*
X12856000Y-9553000I-15000J0D01*
G01*
X12856000Y-9553000D02*
G75*
G02*
X12886000Y-9553000I15000J0D01*
G01*
X13168000Y-11496000D02*
G75*
G02*
X13138000Y-11496000I-15000J0D01*
G01*
X13138000Y-11496000D02*
G75*
G02*
X13168000Y-11496000I15000J0D01*
G01*
X13192000Y-10557000D02*
G75*
G02*
X13162000Y-10557000I-15000J0D01*
G01*
X13162000Y-10557000D02*
G75*
G02*
X13192000Y-10557000I15000J0D01*
G01*
X13532000Y-10210000D02*
G75*
G02*
X13502000Y-10210000I-15000J0D01*
G01*
X13502000Y-10210000D02*
G75*
G02*
X13532000Y-10210000I15000J0D01*
G01*
X13564000Y-11997000D02*
G75*
G02*
X13534000Y-11997000I-15000J0D01*
G01*
X13534000Y-11997000D02*
G75*
G02*
X13564000Y-11997000I15000J0D01*
G01*
X13564001Y-11623001D02*
G75*
G02*
X13534001Y-11623001I-15000J0D01*
G01*
X13534001Y-11623001D02*
G75*
G02*
X13564001Y-11623001I15000J0D01*
G01*
X13789000Y-9715000D02*
G75*
G02*
X13759000Y-9715000I-15000J0D01*
G01*
X13759000Y-9715000D02*
G75*
G02*
X13789000Y-9715000I15000J0D01*
G01*
X13878000Y-10649000D02*
G75*
G02*
X13848000Y-10649000I-15000J0D01*
G01*
X13848000Y-10649000D02*
G75*
G02*
X13878000Y-10649000I15000J0D01*
G01*
X14630000Y-5145000D02*
G75*
G02*
X14600000Y-5145000I-15000J0D01*
G01*
X14600000Y-5145000D02*
G75*
G02*
X14630000Y-5145000I15000J0D01*
G01*
X14630000Y-9764000D02*
G75*
G02*
X14600000Y-9764000I-15000J0D01*
G01*
X14600000Y-9764000D02*
G75*
G02*
X14630000Y-9764000I15000J0D01*
G01*
X14881000Y-10213000D02*
G75*
G02*
X14851000Y-10213000I-15000J0D01*
G01*
X14851000Y-10213000D02*
G75*
G02*
X14881000Y-10213000I15000J0D01*
G01*
X14919000Y-10605000D02*
G75*
G02*
X14889000Y-10605000I-15000J0D01*
G01*
X14889000Y-10605000D02*
G75*
G02*
X14919000Y-10605000I15000J0D01*
G01*
X14949000Y-10148000D02*
G75*
G02*
X14919000Y-10148000I-15000J0D01*
G01*
X14919000Y-10148000D02*
G75*
G02*
X14949000Y-10148000I15000J0D01*
G01*
X14975000Y-5587000D02*
G75*
G02*
X14945000Y-5587000I-15000J0D01*
G01*
X14945000Y-5587000D02*
G75*
G02*
X14975000Y-5587000I15000J0D01*
G01*
X15375000Y-8238000D02*
G75*
G02*
X15345000Y-8238000I-15000J0D01*
G01*
X15345000Y-8238000D02*
G75*
G02*
X15375000Y-8238000I15000J0D01*
G01*
X15834000Y-6336000D02*
G75*
G02*
X15804000Y-6336000I-15000J0D01*
G01*
X15804000Y-6336000D02*
G75*
G02*
X15834000Y-6336000I15000J0D01*
G01*
X16042000Y-5106000D02*
G75*
G02*
X16012000Y-5106000I-15000J0D01*
G01*
X16012000Y-5106000D02*
G75*
G02*
X16042000Y-5106000I15000J0D01*
G01*
X16329000Y-4944000D02*
G75*
G02*
X16299000Y-4944000I-15000J0D01*
G01*
X16299000Y-4944000D02*
G75*
G02*
X16329000Y-4944000I15000J0D01*
G01*
X18196000Y-7626000D02*
G75*
G02*
X18166000Y-7626000I-15000J0D01*
G01*
X18166000Y-7626000D02*
G75*
G02*
X18196000Y-7626000I15000J0D01*
G01*
X10726000Y-5256000D02*
X10726000Y-5296000D01*
X10706000Y-5276000D02*
X10746000Y-5276000D01*
X11240000Y-5699000D02*
X11240000Y-5739000D01*
X11220000Y-5719000D02*
X11260000Y-5719000D01*
X11831000Y-5955000D02*
X11831000Y-5995000D01*
X11811000Y-5975000D02*
X11851000Y-5975000D01*
X12306000Y-9943000D02*
X12306000Y-9983000D01*
X12286000Y-9963000D02*
X12326000Y-9963000D01*
X12366000Y-11256000D02*
X12366000Y-11296000D01*
X12346000Y-11276000D02*
X12386000Y-11276000D01*
X12532000Y-11630000D02*
X12532000Y-11670000D01*
X12512000Y-11650000D02*
X12552000Y-11650000D01*
X12632000Y-5180000D02*
X12632000Y-5220000D01*
X12612000Y-5200000D02*
X12652000Y-5200000D01*
X12710400Y-9989000D02*
X12710400Y-10029000D01*
X12690400Y-10009000D02*
X12730400Y-10009000D01*
X12924000Y-11350000D02*
X12924000Y-11390000D01*
X12904000Y-11370000D02*
X12944000Y-11370000D01*
X13423000Y-11447000D02*
X13423000Y-11487000D01*
X13403000Y-11467000D02*
X13443000Y-11467000D01*
X13579000Y-10643000D02*
X13579000Y-10683000D01*
X13559000Y-10663000D02*
X13599000Y-10663000D01*
X13725000Y-11575000D02*
X13725000Y-11615000D01*
X13705000Y-11595000D02*
X13745000Y-11595000D01*
X14215000Y-12549000D02*
X14215000Y-12589000D01*
X14195000Y-12569000D02*
X14235000Y-12569000D01*
X14254000Y-5110000D02*
X14254000Y-5150000D01*
X14234000Y-5130000D02*
X14274000Y-5130000D01*
X14436000Y-11418000D02*
X14436000Y-11458000D01*
X14416000Y-11438000D02*
X14456000Y-11438000D01*
X14711000Y-5840000D02*
X14711000Y-5880000D01*
X14691000Y-5860000D02*
X14731000Y-5860000D01*
X15166000Y-6542000D02*
X15166000Y-6582000D01*
X15146000Y-6562000D02*
X15186000Y-6562000D01*
X15249000Y-8296000D02*
X15249000Y-8336000D01*
X15229000Y-8316000D02*
X15269000Y-8316000D01*
X15443000Y-7635000D02*
X15443000Y-7675000D01*
X15423000Y-7655000D02*
X15463000Y-7655000D01*
X16020000Y-6224000D02*
X16020000Y-6264000D01*
X16000000Y-6244000D02*
X16040000Y-6244000D01*
X18013000Y-5452000D02*
X18013000Y-5492000D01*
X17993000Y-5472000D02*
X18033000Y-5472000D01*
X18461000Y-6586000D02*
X18461000Y-6626000D01*
X18441000Y-6606000D02*
X18481000Y-6606000D01*
X13157213Y-12257213D02*
X13157213Y-12214787D01*
X13114787Y-12214787D01*
X13114787Y-12257213D01*
X13157213Y-12257213D01*
X13166000Y-12291000D02*
X13166000Y-12181000D01*
X13106000Y-12181000D02*
G75*
G02*
X13166000Y-12181000I30000J0D01*
G01*
X13106000Y-12181000D02*
X13106000Y-12291000D01*
X13106000Y-12291000D02*
G75*
G03*
X13166000Y-12291000I30000J0D01*
G01*
X13157213Y-12675213D02*
X13157213Y-12632787D01*
X13114787Y-12632787D01*
X13114787Y-12675213D01*
X13157213Y-12675213D01*
X13166000Y-12694000D02*
X13166000Y-12614000D01*
X13106000Y-12614000D02*
G75*
G02*
X13166000Y-12614000I30000J0D01*
G01*
X13106000Y-12614000D02*
X13106000Y-12694000D01*
X13106000Y-12694000D02*
G75*
G03*
X13166000Y-12694000I30000J0D01*
G01*
X14021213Y-12257213D02*
X14021213Y-12214787D01*
X13978787Y-12214787D01*
X13978787Y-12257213D01*
X14021213Y-12257213D01*
X14030000Y-12291000D02*
X14030000Y-12181000D01*
X13970000Y-12181000D02*
G75*
G02*
X14030000Y-12181000I30000J0D01*
G01*
X13970000Y-12181000D02*
X13970000Y-12291000D01*
X13970000Y-12291000D02*
G75*
G03*
X14030000Y-12291000I30000J0D01*
G01*
X14021213Y-12675213D02*
X14021213Y-12632787D01*
X13978787Y-12632787D01*
X13978787Y-12675213D01*
X14021213Y-12675213D01*
X14030000Y-12694000D02*
X14030000Y-12614000D01*
X13970000Y-12614000D02*
G75*
G02*
X14030000Y-12614000I30000J0D01*
G01*
X13970000Y-12614000D02*
X13970000Y-12694000D01*
X13970000Y-12694000D02*
G75*
G03*
X14030000Y-12694000I30000J0D01*
G01*
X12916000Y-5894000D02*
X12966000Y-5844000D01*
X12916000Y-5794000D01*
X12866000Y-5844000D01*
X12916000Y-5894000D01*
X13170000Y-5894000D02*
X13220000Y-5844000D01*
X13170000Y-5794000D01*
X13120000Y-5844000D01*
X13170000Y-5894000D01*
X13424000Y-5894000D02*
X13474000Y-5844000D01*
X13424000Y-5794000D01*
X13374000Y-5844000D01*
X13424000Y-5894000D01*
X13678001Y-5894000D02*
X13728001Y-5844000D01*
X13678001Y-5794000D01*
X13628001Y-5844000D01*
X13678001Y-5894000D01*
X13932000Y-5894000D02*
X13982000Y-5844000D01*
X13932000Y-5794000D01*
X13882000Y-5844000D01*
X13932000Y-5894000D01*
X14186000Y-5894000D02*
X14236000Y-5844000D01*
X14186000Y-5794000D01*
X14136000Y-5844000D01*
X14186000Y-5894000D01*
X14440000Y-5894000D02*
X14490000Y-5844000D01*
X14440000Y-5794000D01*
X14390000Y-5844000D01*
X14440000Y-5894000D01*
X13246500Y-12253500D02*
X13311500Y-12318500D01*
X13311500Y-12253500D02*
X13246500Y-12318500D01*
X13311500Y-12286000D02*
G75*
G02*
X13246500Y-12286000I-32500J0D01*
G01*
X13246500Y-12286000D02*
G75*
G02*
X13311500Y-12286000I32500J0D01*
G01*
X13824500Y-12253500D02*
X13889500Y-12318500D01*
X13889500Y-12253500D02*
X13824500Y-12318500D01*
X13889500Y-12286000D02*
G75*
G02*
X13824500Y-12286000I-32500J0D01*
G01*
X13824500Y-12286000D02*
G75*
G02*
X13889500Y-12286000I32500J0D01*
G01*
D12*
X8250207Y-13254134D02*
X8250207Y-13054134D01*
X8250207Y-13054134D02*
X8297826Y-13054134D01*
X8297826Y-13054134D02*
X8326397Y-13063658D01*
X8326397Y-13063658D02*
X8345445Y-13082705D01*
X8345445Y-13082705D02*
X8354969Y-13101753D01*
X8354969Y-13101753D02*
X8364492Y-13139848D01*
X8364492Y-13139848D02*
X8364492Y-13168419D01*
X8364492Y-13168419D02*
X8354969Y-13206515D01*
X8354969Y-13206515D02*
X8345445Y-13225562D01*
X8345445Y-13225562D02*
X8326397Y-13244610D01*
X8326397Y-13244610D02*
X8297826Y-13254134D01*
X8297826Y-13254134D02*
X8250207Y-13254134D01*
X8450207Y-13254134D02*
X8450207Y-13120800D01*
X8450207Y-13158896D02*
X8459731Y-13139848D01*
X8459731Y-13139848D02*
X8469254Y-13130324D01*
X8469254Y-13130324D02*
X8488302Y-13120800D01*
X8488302Y-13120800D02*
X8507350Y-13120800D01*
X8574016Y-13254134D02*
X8574016Y-13120800D01*
X8574016Y-13054134D02*
X8564493Y-13063658D01*
X8564493Y-13063658D02*
X8574016Y-13073181D01*
X8574016Y-13073181D02*
X8583540Y-13063658D01*
X8583540Y-13063658D02*
X8574016Y-13054134D01*
X8574016Y-13054134D02*
X8574016Y-13073181D01*
X8697826Y-13254134D02*
X8678778Y-13244610D01*
X8678778Y-13244610D02*
X8669254Y-13225562D01*
X8669254Y-13225562D02*
X8669254Y-13054134D01*
X8802588Y-13254134D02*
X8783540Y-13244610D01*
X8783540Y-13244610D02*
X8774016Y-13225562D01*
X8774016Y-13225562D02*
X8774016Y-13054134D01*
X9031159Y-13254134D02*
X9031159Y-13054134D01*
X9031159Y-13054134D02*
X9097826Y-13196991D01*
X9097826Y-13196991D02*
X9164493Y-13054134D01*
X9164493Y-13054134D02*
X9164493Y-13254134D01*
X9345445Y-13254134D02*
X9345445Y-13149372D01*
X9345445Y-13149372D02*
X9335921Y-13130324D01*
X9335921Y-13130324D02*
X9316874Y-13120800D01*
X9316874Y-13120800D02*
X9278778Y-13120800D01*
X9278778Y-13120800D02*
X9259731Y-13130324D01*
X9345445Y-13244610D02*
X9326397Y-13254134D01*
X9326397Y-13254134D02*
X9278778Y-13254134D01*
X9278778Y-13254134D02*
X9259731Y-13244610D01*
X9259731Y-13244610D02*
X9250207Y-13225562D01*
X9250207Y-13225562D02*
X9250207Y-13206515D01*
X9250207Y-13206515D02*
X9259731Y-13187467D01*
X9259731Y-13187467D02*
X9278778Y-13177943D01*
X9278778Y-13177943D02*
X9326397Y-13177943D01*
X9326397Y-13177943D02*
X9345445Y-13168419D01*
X9440683Y-13120800D02*
X9440683Y-13320800D01*
X9440683Y-13130324D02*
X9459731Y-13120800D01*
X9459731Y-13120800D02*
X9497826Y-13120800D01*
X9497826Y-13120800D02*
X9516874Y-13130324D01*
X9516874Y-13130324D02*
X9526397Y-13139848D01*
X9526397Y-13139848D02*
X9535921Y-13158896D01*
X9535921Y-13158896D02*
X9535921Y-13216038D01*
X9535921Y-13216038D02*
X9526397Y-13235086D01*
X9526397Y-13235086D02*
X9516874Y-13244610D01*
X9516874Y-13244610D02*
X9497826Y-13254134D01*
X9497826Y-13254134D02*
X9459731Y-13254134D01*
X9459731Y-13254134D02*
X9440683Y-13244610D01*
X9621635Y-13235086D02*
X9631159Y-13244610D01*
X9631159Y-13244610D02*
X9621635Y-13254134D01*
X9621635Y-13254134D02*
X9612112Y-13244610D01*
X9612112Y-13244610D02*
X9621635Y-13235086D01*
X9621635Y-13235086D02*
X9621635Y-13254134D01*
X9621635Y-13130324D02*
X9631159Y-13139848D01*
X9631159Y-13139848D02*
X9621635Y-13149372D01*
X9621635Y-13149372D02*
X9612112Y-13139848D01*
X9612112Y-13139848D02*
X9621635Y-13130324D01*
X9621635Y-13130324D02*
X9621635Y-13149372D01*
D10*
X7969430Y-13572650D02*
X7989430Y-13592650D01*
X7989430Y-13572650D02*
X7969430Y-13592650D01*
D12*
X8288302Y-13474134D02*
X8307350Y-13474134D01*
X8307350Y-13474134D02*
X8326397Y-13483658D01*
X8326397Y-13483658D02*
X8335921Y-13493181D01*
X8335921Y-13493181D02*
X8345445Y-13512229D01*
X8345445Y-13512229D02*
X8354969Y-13550324D01*
X8354969Y-13550324D02*
X8354969Y-13597943D01*
X8354969Y-13597943D02*
X8345445Y-13636038D01*
X8345445Y-13636038D02*
X8335921Y-13655086D01*
X8335921Y-13655086D02*
X8326397Y-13664610D01*
X8326397Y-13664610D02*
X8307350Y-13674134D01*
X8307350Y-13674134D02*
X8288302Y-13674134D01*
X8288302Y-13674134D02*
X8269254Y-13664610D01*
X8269254Y-13664610D02*
X8259731Y-13655086D01*
X8259731Y-13655086D02*
X8250207Y-13636038D01*
X8250207Y-13636038D02*
X8240683Y-13597943D01*
X8240683Y-13597943D02*
X8240683Y-13550324D01*
X8240683Y-13550324D02*
X8250207Y-13512229D01*
X8250207Y-13512229D02*
X8259731Y-13493181D01*
X8259731Y-13493181D02*
X8269254Y-13483658D01*
X8269254Y-13483658D02*
X8288302Y-13474134D01*
X8440683Y-13655086D02*
X8450207Y-13664610D01*
X8450207Y-13664610D02*
X8440683Y-13674134D01*
X8440683Y-13674134D02*
X8431159Y-13664610D01*
X8431159Y-13664610D02*
X8440683Y-13655086D01*
X8440683Y-13655086D02*
X8440683Y-13674134D01*
X8526397Y-13493181D02*
X8535921Y-13483658D01*
X8535921Y-13483658D02*
X8554969Y-13474134D01*
X8554969Y-13474134D02*
X8602588Y-13474134D01*
X8602588Y-13474134D02*
X8621635Y-13483658D01*
X8621635Y-13483658D02*
X8631159Y-13493181D01*
X8631159Y-13493181D02*
X8640683Y-13512229D01*
X8640683Y-13512229D02*
X8640683Y-13531277D01*
X8640683Y-13531277D02*
X8631159Y-13559848D01*
X8631159Y-13559848D02*
X8516874Y-13674134D01*
X8516874Y-13674134D02*
X8640683Y-13674134D01*
X8764493Y-13474134D02*
X8783540Y-13474134D01*
X8783540Y-13474134D02*
X8802588Y-13483658D01*
X8802588Y-13483658D02*
X8812112Y-13493181D01*
X8812112Y-13493181D02*
X8821635Y-13512229D01*
X8821635Y-13512229D02*
X8831159Y-13550324D01*
X8831159Y-13550324D02*
X8831159Y-13597943D01*
X8831159Y-13597943D02*
X8821635Y-13636038D01*
X8821635Y-13636038D02*
X8812112Y-13655086D01*
X8812112Y-13655086D02*
X8802588Y-13664610D01*
X8802588Y-13664610D02*
X8783540Y-13674134D01*
X8783540Y-13674134D02*
X8764493Y-13674134D01*
X8764493Y-13674134D02*
X8745445Y-13664610D01*
X8745445Y-13664610D02*
X8735921Y-13655086D01*
X8735921Y-13655086D02*
X8726397Y-13636038D01*
X8726397Y-13636038D02*
X8716874Y-13597943D01*
X8716874Y-13597943D02*
X8716874Y-13550324D01*
X8716874Y-13550324D02*
X8726397Y-13512229D01*
X8726397Y-13512229D02*
X8735921Y-13493181D01*
X8735921Y-13493181D02*
X8745445Y-13483658D01*
X8745445Y-13483658D02*
X8764493Y-13474134D01*
X8954969Y-13474134D02*
X8974016Y-13474134D01*
X8974016Y-13474134D02*
X8993064Y-13483658D01*
X8993064Y-13483658D02*
X9002588Y-13493181D01*
X9002588Y-13493181D02*
X9012112Y-13512229D01*
X9012112Y-13512229D02*
X9021635Y-13550324D01*
X9021635Y-13550324D02*
X9021635Y-13597943D01*
X9021635Y-13597943D02*
X9012112Y-13636038D01*
X9012112Y-13636038D02*
X9002588Y-13655086D01*
X9002588Y-13655086D02*
X8993064Y-13664610D01*
X8993064Y-13664610D02*
X8974016Y-13674134D01*
X8974016Y-13674134D02*
X8954969Y-13674134D01*
X8954969Y-13674134D02*
X8935921Y-13664610D01*
X8935921Y-13664610D02*
X8926397Y-13655086D01*
X8926397Y-13655086D02*
X8916874Y-13636038D01*
X8916874Y-13636038D02*
X8907350Y-13597943D01*
X8907350Y-13597943D02*
X8907350Y-13550324D01*
X8907350Y-13550324D02*
X8916874Y-13512229D01*
X8916874Y-13512229D02*
X8926397Y-13493181D01*
X8926397Y-13493181D02*
X8935921Y-13483658D01*
X8935921Y-13483658D02*
X8954969Y-13474134D01*
X9107350Y-13674134D02*
X9107350Y-13540800D01*
X9107350Y-13559848D02*
X9116874Y-13550324D01*
X9116874Y-13550324D02*
X9135921Y-13540800D01*
X9135921Y-13540800D02*
X9164493Y-13540800D01*
X9164493Y-13540800D02*
X9183540Y-13550324D01*
X9183540Y-13550324D02*
X9193064Y-13569372D01*
X9193064Y-13569372D02*
X9193064Y-13674134D01*
X9193064Y-13569372D02*
X9202588Y-13550324D01*
X9202588Y-13550324D02*
X9221635Y-13540800D01*
X9221635Y-13540800D02*
X9250207Y-13540800D01*
X9250207Y-13540800D02*
X9269255Y-13550324D01*
X9269255Y-13550324D02*
X9278778Y-13569372D01*
X9278778Y-13569372D02*
X9278778Y-13674134D01*
X9374016Y-13674134D02*
X9374016Y-13540800D01*
X9374016Y-13559848D02*
X9383540Y-13550324D01*
X9383540Y-13550324D02*
X9402588Y-13540800D01*
X9402588Y-13540800D02*
X9431159Y-13540800D01*
X9431159Y-13540800D02*
X9450207Y-13550324D01*
X9450207Y-13550324D02*
X9459731Y-13569372D01*
X9459731Y-13569372D02*
X9459731Y-13674134D01*
X9459731Y-13569372D02*
X9469255Y-13550324D01*
X9469255Y-13550324D02*
X9488302Y-13540800D01*
X9488302Y-13540800D02*
X9516874Y-13540800D01*
X9516874Y-13540800D02*
X9535921Y-13550324D01*
X9535921Y-13550324D02*
X9545445Y-13569372D01*
X9545445Y-13569372D02*
X9545445Y-13674134D01*
X9935921Y-13464610D02*
X9764493Y-13721753D01*
X10193064Y-13474134D02*
X10212112Y-13474134D01*
X10212112Y-13474134D02*
X10231159Y-13483658D01*
X10231159Y-13483658D02*
X10240683Y-13493181D01*
X10240683Y-13493181D02*
X10250207Y-13512229D01*
X10250207Y-13512229D02*
X10259731Y-13550324D01*
X10259731Y-13550324D02*
X10259731Y-13597943D01*
X10259731Y-13597943D02*
X10250207Y-13636038D01*
X10250207Y-13636038D02*
X10240683Y-13655086D01*
X10240683Y-13655086D02*
X10231159Y-13664610D01*
X10231159Y-13664610D02*
X10212112Y-13674134D01*
X10212112Y-13674134D02*
X10193064Y-13674134D01*
X10193064Y-13674134D02*
X10174017Y-13664610D01*
X10174017Y-13664610D02*
X10164493Y-13655086D01*
X10164493Y-13655086D02*
X10154969Y-13636038D01*
X10154969Y-13636038D02*
X10145445Y-13597943D01*
X10145445Y-13597943D02*
X10145445Y-13550324D01*
X10145445Y-13550324D02*
X10154969Y-13512229D01*
X10154969Y-13512229D02*
X10164493Y-13493181D01*
X10164493Y-13493181D02*
X10174017Y-13483658D01*
X10174017Y-13483658D02*
X10193064Y-13474134D01*
X10345445Y-13655086D02*
X10354969Y-13664610D01*
X10354969Y-13664610D02*
X10345445Y-13674134D01*
X10345445Y-13674134D02*
X10335921Y-13664610D01*
X10335921Y-13664610D02*
X10345445Y-13655086D01*
X10345445Y-13655086D02*
X10345445Y-13674134D01*
X10478778Y-13474134D02*
X10497826Y-13474134D01*
X10497826Y-13474134D02*
X10516874Y-13483658D01*
X10516874Y-13483658D02*
X10526398Y-13493181D01*
X10526398Y-13493181D02*
X10535921Y-13512229D01*
X10535921Y-13512229D02*
X10545445Y-13550324D01*
X10545445Y-13550324D02*
X10545445Y-13597943D01*
X10545445Y-13597943D02*
X10535921Y-13636038D01*
X10535921Y-13636038D02*
X10526398Y-13655086D01*
X10526398Y-13655086D02*
X10516874Y-13664610D01*
X10516874Y-13664610D02*
X10497826Y-13674134D01*
X10497826Y-13674134D02*
X10478778Y-13674134D01*
X10478778Y-13674134D02*
X10459731Y-13664610D01*
X10459731Y-13664610D02*
X10450207Y-13655086D01*
X10450207Y-13655086D02*
X10440683Y-13636038D01*
X10440683Y-13636038D02*
X10431159Y-13597943D01*
X10431159Y-13597943D02*
X10431159Y-13550324D01*
X10431159Y-13550324D02*
X10440683Y-13512229D01*
X10440683Y-13512229D02*
X10450207Y-13493181D01*
X10450207Y-13493181D02*
X10459731Y-13483658D01*
X10459731Y-13483658D02*
X10478778Y-13474134D01*
X10669255Y-13474134D02*
X10688302Y-13474134D01*
X10688302Y-13474134D02*
X10707350Y-13483658D01*
X10707350Y-13483658D02*
X10716874Y-13493181D01*
X10716874Y-13493181D02*
X10726398Y-13512229D01*
X10726398Y-13512229D02*
X10735921Y-13550324D01*
X10735921Y-13550324D02*
X10735921Y-13597943D01*
X10735921Y-13597943D02*
X10726398Y-13636038D01*
X10726398Y-13636038D02*
X10716874Y-13655086D01*
X10716874Y-13655086D02*
X10707350Y-13664610D01*
X10707350Y-13664610D02*
X10688302Y-13674134D01*
X10688302Y-13674134D02*
X10669255Y-13674134D01*
X10669255Y-13674134D02*
X10650207Y-13664610D01*
X10650207Y-13664610D02*
X10640683Y-13655086D01*
X10640683Y-13655086D02*
X10631159Y-13636038D01*
X10631159Y-13636038D02*
X10621636Y-13597943D01*
X10621636Y-13597943D02*
X10621636Y-13550324D01*
X10621636Y-13550324D02*
X10631159Y-13512229D01*
X10631159Y-13512229D02*
X10640683Y-13493181D01*
X10640683Y-13493181D02*
X10650207Y-13483658D01*
X10650207Y-13483658D02*
X10669255Y-13474134D01*
X10802588Y-13474134D02*
X10935921Y-13474134D01*
X10935921Y-13474134D02*
X10850207Y-13674134D01*
X11021636Y-13674134D02*
X11059731Y-13674134D01*
X11059731Y-13674134D02*
X11078779Y-13664610D01*
X11078779Y-13664610D02*
X11088302Y-13655086D01*
X11088302Y-13655086D02*
X11107350Y-13626515D01*
X11107350Y-13626515D02*
X11116874Y-13588419D01*
X11116874Y-13588419D02*
X11116874Y-13512229D01*
X11116874Y-13512229D02*
X11107350Y-13493181D01*
X11107350Y-13493181D02*
X11097826Y-13483658D01*
X11097826Y-13483658D02*
X11078779Y-13474134D01*
X11078779Y-13474134D02*
X11040683Y-13474134D01*
X11040683Y-13474134D02*
X11021636Y-13483658D01*
X11021636Y-13483658D02*
X11012112Y-13493181D01*
X11012112Y-13493181D02*
X11002588Y-13512229D01*
X11002588Y-13512229D02*
X11002588Y-13559848D01*
X11002588Y-13559848D02*
X11012112Y-13578896D01*
X11012112Y-13578896D02*
X11021636Y-13588419D01*
X11021636Y-13588419D02*
X11040683Y-13597943D01*
X11040683Y-13597943D02*
X11078779Y-13597943D01*
X11078779Y-13597943D02*
X11097826Y-13588419D01*
X11097826Y-13588419D02*
X11107350Y-13578896D01*
X11107350Y-13578896D02*
X11116874Y-13559848D01*
X11193064Y-13474134D02*
X11193064Y-13512229D01*
X11269255Y-13474134D02*
X11269255Y-13512229D01*
X11564493Y-13750324D02*
X11554969Y-13740800D01*
X11554969Y-13740800D02*
X11535921Y-13712229D01*
X11535921Y-13712229D02*
X11526398Y-13693181D01*
X11526398Y-13693181D02*
X11516874Y-13664610D01*
X11516874Y-13664610D02*
X11507350Y-13616991D01*
X11507350Y-13616991D02*
X11507350Y-13578896D01*
X11507350Y-13578896D02*
X11516874Y-13531277D01*
X11516874Y-13531277D02*
X11526398Y-13502705D01*
X11526398Y-13502705D02*
X11535921Y-13483658D01*
X11535921Y-13483658D02*
X11554969Y-13455086D01*
X11554969Y-13455086D02*
X11564493Y-13445562D01*
X11745445Y-13674134D02*
X11631159Y-13674134D01*
X11688302Y-13674134D02*
X11688302Y-13474134D01*
X11688302Y-13474134D02*
X11669255Y-13502705D01*
X11669255Y-13502705D02*
X11650207Y-13521753D01*
X11650207Y-13521753D02*
X11631159Y-13531277D01*
X11916874Y-13540800D02*
X11916874Y-13674134D01*
X11869255Y-13464610D02*
X11821636Y-13607467D01*
X11821636Y-13607467D02*
X11945445Y-13607467D01*
X12002588Y-13474134D02*
X12126398Y-13474134D01*
X12126398Y-13474134D02*
X12059731Y-13550324D01*
X12059731Y-13550324D02*
X12088302Y-13550324D01*
X12088302Y-13550324D02*
X12107350Y-13559848D01*
X12107350Y-13559848D02*
X12116874Y-13569372D01*
X12116874Y-13569372D02*
X12126398Y-13588419D01*
X12126398Y-13588419D02*
X12126398Y-13636038D01*
X12126398Y-13636038D02*
X12116874Y-13655086D01*
X12116874Y-13655086D02*
X12107350Y-13664610D01*
X12107350Y-13664610D02*
X12088302Y-13674134D01*
X12088302Y-13674134D02*
X12031159Y-13674134D01*
X12031159Y-13674134D02*
X12012112Y-13664610D01*
X12012112Y-13664610D02*
X12002588Y-13655086D01*
X12364493Y-13674134D02*
X12364493Y-13474134D01*
X12450207Y-13674134D02*
X12450207Y-13569372D01*
X12450207Y-13569372D02*
X12440683Y-13550324D01*
X12440683Y-13550324D02*
X12421636Y-13540800D01*
X12421636Y-13540800D02*
X12393064Y-13540800D01*
X12393064Y-13540800D02*
X12374017Y-13550324D01*
X12374017Y-13550324D02*
X12364493Y-13559848D01*
X12574017Y-13674134D02*
X12554969Y-13664610D01*
X12554969Y-13664610D02*
X12545445Y-13655086D01*
X12545445Y-13655086D02*
X12535921Y-13636038D01*
X12535921Y-13636038D02*
X12535921Y-13578896D01*
X12535921Y-13578896D02*
X12545445Y-13559848D01*
X12545445Y-13559848D02*
X12554969Y-13550324D01*
X12554969Y-13550324D02*
X12574017Y-13540800D01*
X12574017Y-13540800D02*
X12602588Y-13540800D01*
X12602588Y-13540800D02*
X12621636Y-13550324D01*
X12621636Y-13550324D02*
X12631160Y-13559848D01*
X12631160Y-13559848D02*
X12640683Y-13578896D01*
X12640683Y-13578896D02*
X12640683Y-13636038D01*
X12640683Y-13636038D02*
X12631160Y-13655086D01*
X12631160Y-13655086D02*
X12621636Y-13664610D01*
X12621636Y-13664610D02*
X12602588Y-13674134D01*
X12602588Y-13674134D02*
X12574017Y-13674134D01*
X12754969Y-13674134D02*
X12735921Y-13664610D01*
X12735921Y-13664610D02*
X12726398Y-13645562D01*
X12726398Y-13645562D02*
X12726398Y-13474134D01*
X12907350Y-13664610D02*
X12888302Y-13674134D01*
X12888302Y-13674134D02*
X12850207Y-13674134D01*
X12850207Y-13674134D02*
X12831160Y-13664610D01*
X12831160Y-13664610D02*
X12821636Y-13645562D01*
X12821636Y-13645562D02*
X12821636Y-13569372D01*
X12821636Y-13569372D02*
X12831160Y-13550324D01*
X12831160Y-13550324D02*
X12850207Y-13540800D01*
X12850207Y-13540800D02*
X12888302Y-13540800D01*
X12888302Y-13540800D02*
X12907350Y-13550324D01*
X12907350Y-13550324D02*
X12916874Y-13569372D01*
X12916874Y-13569372D02*
X12916874Y-13588419D01*
X12916874Y-13588419D02*
X12821636Y-13607467D01*
X12993064Y-13664610D02*
X13012112Y-13674134D01*
X13012112Y-13674134D02*
X13050207Y-13674134D01*
X13050207Y-13674134D02*
X13069255Y-13664610D01*
X13069255Y-13664610D02*
X13078779Y-13645562D01*
X13078779Y-13645562D02*
X13078779Y-13636038D01*
X13078779Y-13636038D02*
X13069255Y-13616991D01*
X13069255Y-13616991D02*
X13050207Y-13607467D01*
X13050207Y-13607467D02*
X13021636Y-13607467D01*
X13021636Y-13607467D02*
X13002588Y-13597943D01*
X13002588Y-13597943D02*
X12993064Y-13578896D01*
X12993064Y-13578896D02*
X12993064Y-13569372D01*
X12993064Y-13569372D02*
X13002588Y-13550324D01*
X13002588Y-13550324D02*
X13021636Y-13540800D01*
X13021636Y-13540800D02*
X13050207Y-13540800D01*
X13050207Y-13540800D02*
X13069255Y-13550324D01*
X13145445Y-13750324D02*
X13154969Y-13740800D01*
X13154969Y-13740800D02*
X13174017Y-13712229D01*
X13174017Y-13712229D02*
X13183541Y-13693181D01*
X13183541Y-13693181D02*
X13193064Y-13664610D01*
X13193064Y-13664610D02*
X13202588Y-13616991D01*
X13202588Y-13616991D02*
X13202588Y-13578896D01*
X13202588Y-13578896D02*
X13193064Y-13531277D01*
X13193064Y-13531277D02*
X13183541Y-13502705D01*
X13183541Y-13502705D02*
X13174017Y-13483658D01*
X13174017Y-13483658D02*
X13154969Y-13455086D01*
X13154969Y-13455086D02*
X13145445Y-13445562D01*
D10*
X7989430Y-13846650D02*
G75*
G02*
X7959430Y-13846650I-15000J0D01*
G01*
X7959430Y-13846650D02*
G75*
G02*
X7989430Y-13846650I15000J0D01*
G01*
D12*
X8288302Y-13738134D02*
X8307350Y-13738134D01*
X8307350Y-13738134D02*
X8326397Y-13747658D01*
X8326397Y-13747658D02*
X8335921Y-13757181D01*
X8335921Y-13757181D02*
X8345445Y-13776229D01*
X8345445Y-13776229D02*
X8354969Y-13814324D01*
X8354969Y-13814324D02*
X8354969Y-13861943D01*
X8354969Y-13861943D02*
X8345445Y-13900038D01*
X8345445Y-13900038D02*
X8335921Y-13919086D01*
X8335921Y-13919086D02*
X8326397Y-13928610D01*
X8326397Y-13928610D02*
X8307350Y-13938134D01*
X8307350Y-13938134D02*
X8288302Y-13938134D01*
X8288302Y-13938134D02*
X8269254Y-13928610D01*
X8269254Y-13928610D02*
X8259731Y-13919086D01*
X8259731Y-13919086D02*
X8250207Y-13900038D01*
X8250207Y-13900038D02*
X8240683Y-13861943D01*
X8240683Y-13861943D02*
X8240683Y-13814324D01*
X8240683Y-13814324D02*
X8250207Y-13776229D01*
X8250207Y-13776229D02*
X8259731Y-13757181D01*
X8259731Y-13757181D02*
X8269254Y-13747658D01*
X8269254Y-13747658D02*
X8288302Y-13738134D01*
X8440683Y-13919086D02*
X8450207Y-13928610D01*
X8450207Y-13928610D02*
X8440683Y-13938134D01*
X8440683Y-13938134D02*
X8431159Y-13928610D01*
X8431159Y-13928610D02*
X8440683Y-13919086D01*
X8440683Y-13919086D02*
X8440683Y-13938134D01*
X8516874Y-13738134D02*
X8640683Y-13738134D01*
X8640683Y-13738134D02*
X8574016Y-13814324D01*
X8574016Y-13814324D02*
X8602588Y-13814324D01*
X8602588Y-13814324D02*
X8621635Y-13823848D01*
X8621635Y-13823848D02*
X8631159Y-13833372D01*
X8631159Y-13833372D02*
X8640683Y-13852419D01*
X8640683Y-13852419D02*
X8640683Y-13900038D01*
X8640683Y-13900038D02*
X8631159Y-13919086D01*
X8631159Y-13919086D02*
X8621635Y-13928610D01*
X8621635Y-13928610D02*
X8602588Y-13938134D01*
X8602588Y-13938134D02*
X8545445Y-13938134D01*
X8545445Y-13938134D02*
X8526397Y-13928610D01*
X8526397Y-13928610D02*
X8516874Y-13919086D01*
X8764493Y-13738134D02*
X8783540Y-13738134D01*
X8783540Y-13738134D02*
X8802588Y-13747658D01*
X8802588Y-13747658D02*
X8812112Y-13757181D01*
X8812112Y-13757181D02*
X8821635Y-13776229D01*
X8821635Y-13776229D02*
X8831159Y-13814324D01*
X8831159Y-13814324D02*
X8831159Y-13861943D01*
X8831159Y-13861943D02*
X8821635Y-13900038D01*
X8821635Y-13900038D02*
X8812112Y-13919086D01*
X8812112Y-13919086D02*
X8802588Y-13928610D01*
X8802588Y-13928610D02*
X8783540Y-13938134D01*
X8783540Y-13938134D02*
X8764493Y-13938134D01*
X8764493Y-13938134D02*
X8745445Y-13928610D01*
X8745445Y-13928610D02*
X8735921Y-13919086D01*
X8735921Y-13919086D02*
X8726397Y-13900038D01*
X8726397Y-13900038D02*
X8716874Y-13861943D01*
X8716874Y-13861943D02*
X8716874Y-13814324D01*
X8716874Y-13814324D02*
X8726397Y-13776229D01*
X8726397Y-13776229D02*
X8735921Y-13757181D01*
X8735921Y-13757181D02*
X8745445Y-13747658D01*
X8745445Y-13747658D02*
X8764493Y-13738134D01*
X8954969Y-13738134D02*
X8974016Y-13738134D01*
X8974016Y-13738134D02*
X8993064Y-13747658D01*
X8993064Y-13747658D02*
X9002588Y-13757181D01*
X9002588Y-13757181D02*
X9012112Y-13776229D01*
X9012112Y-13776229D02*
X9021635Y-13814324D01*
X9021635Y-13814324D02*
X9021635Y-13861943D01*
X9021635Y-13861943D02*
X9012112Y-13900038D01*
X9012112Y-13900038D02*
X9002588Y-13919086D01*
X9002588Y-13919086D02*
X8993064Y-13928610D01*
X8993064Y-13928610D02*
X8974016Y-13938134D01*
X8974016Y-13938134D02*
X8954969Y-13938134D01*
X8954969Y-13938134D02*
X8935921Y-13928610D01*
X8935921Y-13928610D02*
X8926397Y-13919086D01*
X8926397Y-13919086D02*
X8916874Y-13900038D01*
X8916874Y-13900038D02*
X8907350Y-13861943D01*
X8907350Y-13861943D02*
X8907350Y-13814324D01*
X8907350Y-13814324D02*
X8916874Y-13776229D01*
X8916874Y-13776229D02*
X8926397Y-13757181D01*
X8926397Y-13757181D02*
X8935921Y-13747658D01*
X8935921Y-13747658D02*
X8954969Y-13738134D01*
X9107350Y-13938134D02*
X9107350Y-13804800D01*
X9107350Y-13823848D02*
X9116874Y-13814324D01*
X9116874Y-13814324D02*
X9135921Y-13804800D01*
X9135921Y-13804800D02*
X9164493Y-13804800D01*
X9164493Y-13804800D02*
X9183540Y-13814324D01*
X9183540Y-13814324D02*
X9193064Y-13833372D01*
X9193064Y-13833372D02*
X9193064Y-13938134D01*
X9193064Y-13833372D02*
X9202588Y-13814324D01*
X9202588Y-13814324D02*
X9221635Y-13804800D01*
X9221635Y-13804800D02*
X9250207Y-13804800D01*
X9250207Y-13804800D02*
X9269255Y-13814324D01*
X9269255Y-13814324D02*
X9278778Y-13833372D01*
X9278778Y-13833372D02*
X9278778Y-13938134D01*
X9374016Y-13938134D02*
X9374016Y-13804800D01*
X9374016Y-13823848D02*
X9383540Y-13814324D01*
X9383540Y-13814324D02*
X9402588Y-13804800D01*
X9402588Y-13804800D02*
X9431159Y-13804800D01*
X9431159Y-13804800D02*
X9450207Y-13814324D01*
X9450207Y-13814324D02*
X9459731Y-13833372D01*
X9459731Y-13833372D02*
X9459731Y-13938134D01*
X9459731Y-13833372D02*
X9469255Y-13814324D01*
X9469255Y-13814324D02*
X9488302Y-13804800D01*
X9488302Y-13804800D02*
X9516874Y-13804800D01*
X9516874Y-13804800D02*
X9535921Y-13814324D01*
X9535921Y-13814324D02*
X9545445Y-13833372D01*
X9545445Y-13833372D02*
X9545445Y-13938134D01*
X9935921Y-13728610D02*
X9764493Y-13985753D01*
X10193064Y-13738134D02*
X10212112Y-13738134D01*
X10212112Y-13738134D02*
X10231159Y-13747658D01*
X10231159Y-13747658D02*
X10240683Y-13757181D01*
X10240683Y-13757181D02*
X10250207Y-13776229D01*
X10250207Y-13776229D02*
X10259731Y-13814324D01*
X10259731Y-13814324D02*
X10259731Y-13861943D01*
X10259731Y-13861943D02*
X10250207Y-13900038D01*
X10250207Y-13900038D02*
X10240683Y-13919086D01*
X10240683Y-13919086D02*
X10231159Y-13928610D01*
X10231159Y-13928610D02*
X10212112Y-13938134D01*
X10212112Y-13938134D02*
X10193064Y-13938134D01*
X10193064Y-13938134D02*
X10174017Y-13928610D01*
X10174017Y-13928610D02*
X10164493Y-13919086D01*
X10164493Y-13919086D02*
X10154969Y-13900038D01*
X10154969Y-13900038D02*
X10145445Y-13861943D01*
X10145445Y-13861943D02*
X10145445Y-13814324D01*
X10145445Y-13814324D02*
X10154969Y-13776229D01*
X10154969Y-13776229D02*
X10164493Y-13757181D01*
X10164493Y-13757181D02*
X10174017Y-13747658D01*
X10174017Y-13747658D02*
X10193064Y-13738134D01*
X10345445Y-13919086D02*
X10354969Y-13928610D01*
X10354969Y-13928610D02*
X10345445Y-13938134D01*
X10345445Y-13938134D02*
X10335921Y-13928610D01*
X10335921Y-13928610D02*
X10345445Y-13919086D01*
X10345445Y-13919086D02*
X10345445Y-13938134D01*
X10478778Y-13738134D02*
X10497826Y-13738134D01*
X10497826Y-13738134D02*
X10516874Y-13747658D01*
X10516874Y-13747658D02*
X10526398Y-13757181D01*
X10526398Y-13757181D02*
X10535921Y-13776229D01*
X10535921Y-13776229D02*
X10545445Y-13814324D01*
X10545445Y-13814324D02*
X10545445Y-13861943D01*
X10545445Y-13861943D02*
X10535921Y-13900038D01*
X10535921Y-13900038D02*
X10526398Y-13919086D01*
X10526398Y-13919086D02*
X10516874Y-13928610D01*
X10516874Y-13928610D02*
X10497826Y-13938134D01*
X10497826Y-13938134D02*
X10478778Y-13938134D01*
X10478778Y-13938134D02*
X10459731Y-13928610D01*
X10459731Y-13928610D02*
X10450207Y-13919086D01*
X10450207Y-13919086D02*
X10440683Y-13900038D01*
X10440683Y-13900038D02*
X10431159Y-13861943D01*
X10431159Y-13861943D02*
X10431159Y-13814324D01*
X10431159Y-13814324D02*
X10440683Y-13776229D01*
X10440683Y-13776229D02*
X10450207Y-13757181D01*
X10450207Y-13757181D02*
X10459731Y-13747658D01*
X10459731Y-13747658D02*
X10478778Y-13738134D01*
X10735921Y-13938134D02*
X10621636Y-13938134D01*
X10678778Y-13938134D02*
X10678778Y-13738134D01*
X10678778Y-13738134D02*
X10659731Y-13766705D01*
X10659731Y-13766705D02*
X10640683Y-13785753D01*
X10640683Y-13785753D02*
X10621636Y-13795277D01*
X10926398Y-13938134D02*
X10812112Y-13938134D01*
X10869255Y-13938134D02*
X10869255Y-13738134D01*
X10869255Y-13738134D02*
X10850207Y-13766705D01*
X10850207Y-13766705D02*
X10831159Y-13785753D01*
X10831159Y-13785753D02*
X10812112Y-13795277D01*
X11040683Y-13823848D02*
X11021636Y-13814324D01*
X11021636Y-13814324D02*
X11012112Y-13804800D01*
X11012112Y-13804800D02*
X11002588Y-13785753D01*
X11002588Y-13785753D02*
X11002588Y-13776229D01*
X11002588Y-13776229D02*
X11012112Y-13757181D01*
X11012112Y-13757181D02*
X11021636Y-13747658D01*
X11021636Y-13747658D02*
X11040683Y-13738134D01*
X11040683Y-13738134D02*
X11078779Y-13738134D01*
X11078779Y-13738134D02*
X11097826Y-13747658D01*
X11097826Y-13747658D02*
X11107350Y-13757181D01*
X11107350Y-13757181D02*
X11116874Y-13776229D01*
X11116874Y-13776229D02*
X11116874Y-13785753D01*
X11116874Y-13785753D02*
X11107350Y-13804800D01*
X11107350Y-13804800D02*
X11097826Y-13814324D01*
X11097826Y-13814324D02*
X11078779Y-13823848D01*
X11078779Y-13823848D02*
X11040683Y-13823848D01*
X11040683Y-13823848D02*
X11021636Y-13833372D01*
X11021636Y-13833372D02*
X11012112Y-13842896D01*
X11012112Y-13842896D02*
X11002588Y-13861943D01*
X11002588Y-13861943D02*
X11002588Y-13900038D01*
X11002588Y-13900038D02*
X11012112Y-13919086D01*
X11012112Y-13919086D02*
X11021636Y-13928610D01*
X11021636Y-13928610D02*
X11040683Y-13938134D01*
X11040683Y-13938134D02*
X11078779Y-13938134D01*
X11078779Y-13938134D02*
X11097826Y-13928610D01*
X11097826Y-13928610D02*
X11107350Y-13919086D01*
X11107350Y-13919086D02*
X11116874Y-13900038D01*
X11116874Y-13900038D02*
X11116874Y-13861943D01*
X11116874Y-13861943D02*
X11107350Y-13842896D01*
X11107350Y-13842896D02*
X11097826Y-13833372D01*
X11097826Y-13833372D02*
X11078779Y-13823848D01*
X11193064Y-13738134D02*
X11193064Y-13776229D01*
X11269255Y-13738134D02*
X11269255Y-13776229D01*
X11564493Y-14014324D02*
X11554969Y-14004800D01*
X11554969Y-14004800D02*
X11535921Y-13976229D01*
X11535921Y-13976229D02*
X11526398Y-13957181D01*
X11526398Y-13957181D02*
X11516874Y-13928610D01*
X11516874Y-13928610D02*
X11507350Y-13880991D01*
X11507350Y-13880991D02*
X11507350Y-13842896D01*
X11507350Y-13842896D02*
X11516874Y-13795277D01*
X11516874Y-13795277D02*
X11526398Y-13766705D01*
X11526398Y-13766705D02*
X11535921Y-13747658D01*
X11535921Y-13747658D02*
X11554969Y-13719086D01*
X11554969Y-13719086D02*
X11564493Y-13709562D01*
X11631159Y-13757181D02*
X11640683Y-13747658D01*
X11640683Y-13747658D02*
X11659731Y-13738134D01*
X11659731Y-13738134D02*
X11707350Y-13738134D01*
X11707350Y-13738134D02*
X11726398Y-13747658D01*
X11726398Y-13747658D02*
X11735921Y-13757181D01*
X11735921Y-13757181D02*
X11745445Y-13776229D01*
X11745445Y-13776229D02*
X11745445Y-13795277D01*
X11745445Y-13795277D02*
X11735921Y-13823848D01*
X11735921Y-13823848D02*
X11621636Y-13938134D01*
X11621636Y-13938134D02*
X11745445Y-13938134D01*
X11926398Y-13738134D02*
X11831159Y-13738134D01*
X11831159Y-13738134D02*
X11821636Y-13833372D01*
X11821636Y-13833372D02*
X11831159Y-13823848D01*
X11831159Y-13823848D02*
X11850207Y-13814324D01*
X11850207Y-13814324D02*
X11897826Y-13814324D01*
X11897826Y-13814324D02*
X11916874Y-13823848D01*
X11916874Y-13823848D02*
X11926398Y-13833372D01*
X11926398Y-13833372D02*
X11935921Y-13852419D01*
X11935921Y-13852419D02*
X11935921Y-13900038D01*
X11935921Y-13900038D02*
X11926398Y-13919086D01*
X11926398Y-13919086D02*
X11916874Y-13928610D01*
X11916874Y-13928610D02*
X11897826Y-13938134D01*
X11897826Y-13938134D02*
X11850207Y-13938134D01*
X11850207Y-13938134D02*
X11831159Y-13928610D01*
X11831159Y-13928610D02*
X11821636Y-13919086D01*
X12174017Y-13938134D02*
X12174017Y-13738134D01*
X12259731Y-13938134D02*
X12259731Y-13833372D01*
X12259731Y-13833372D02*
X12250207Y-13814324D01*
X12250207Y-13814324D02*
X12231160Y-13804800D01*
X12231160Y-13804800D02*
X12202588Y-13804800D01*
X12202588Y-13804800D02*
X12183540Y-13814324D01*
X12183540Y-13814324D02*
X12174017Y-13823848D01*
X12383540Y-13938134D02*
X12364493Y-13928610D01*
X12364493Y-13928610D02*
X12354969Y-13919086D01*
X12354969Y-13919086D02*
X12345445Y-13900038D01*
X12345445Y-13900038D02*
X12345445Y-13842896D01*
X12345445Y-13842896D02*
X12354969Y-13823848D01*
X12354969Y-13823848D02*
X12364493Y-13814324D01*
X12364493Y-13814324D02*
X12383540Y-13804800D01*
X12383540Y-13804800D02*
X12412112Y-13804800D01*
X12412112Y-13804800D02*
X12431160Y-13814324D01*
X12431160Y-13814324D02*
X12440683Y-13823848D01*
X12440683Y-13823848D02*
X12450207Y-13842896D01*
X12450207Y-13842896D02*
X12450207Y-13900038D01*
X12450207Y-13900038D02*
X12440683Y-13919086D01*
X12440683Y-13919086D02*
X12431160Y-13928610D01*
X12431160Y-13928610D02*
X12412112Y-13938134D01*
X12412112Y-13938134D02*
X12383540Y-13938134D01*
X12564493Y-13938134D02*
X12545445Y-13928610D01*
X12545445Y-13928610D02*
X12535921Y-13909562D01*
X12535921Y-13909562D02*
X12535921Y-13738134D01*
X12716874Y-13928610D02*
X12697826Y-13938134D01*
X12697826Y-13938134D02*
X12659731Y-13938134D01*
X12659731Y-13938134D02*
X12640683Y-13928610D01*
X12640683Y-13928610D02*
X12631160Y-13909562D01*
X12631160Y-13909562D02*
X12631160Y-13833372D01*
X12631160Y-13833372D02*
X12640683Y-13814324D01*
X12640683Y-13814324D02*
X12659731Y-13804800D01*
X12659731Y-13804800D02*
X12697826Y-13804800D01*
X12697826Y-13804800D02*
X12716874Y-13814324D01*
X12716874Y-13814324D02*
X12726398Y-13833372D01*
X12726398Y-13833372D02*
X12726398Y-13852419D01*
X12726398Y-13852419D02*
X12631160Y-13871467D01*
X12802588Y-13928610D02*
X12821636Y-13938134D01*
X12821636Y-13938134D02*
X12859731Y-13938134D01*
X12859731Y-13938134D02*
X12878779Y-13928610D01*
X12878779Y-13928610D02*
X12888302Y-13909562D01*
X12888302Y-13909562D02*
X12888302Y-13900038D01*
X12888302Y-13900038D02*
X12878779Y-13880991D01*
X12878779Y-13880991D02*
X12859731Y-13871467D01*
X12859731Y-13871467D02*
X12831160Y-13871467D01*
X12831160Y-13871467D02*
X12812112Y-13861943D01*
X12812112Y-13861943D02*
X12802588Y-13842896D01*
X12802588Y-13842896D02*
X12802588Y-13833372D01*
X12802588Y-13833372D02*
X12812112Y-13814324D01*
X12812112Y-13814324D02*
X12831160Y-13804800D01*
X12831160Y-13804800D02*
X12859731Y-13804800D01*
X12859731Y-13804800D02*
X12878779Y-13814324D01*
X12954969Y-14014324D02*
X12964493Y-14004800D01*
X12964493Y-14004800D02*
X12983541Y-13976229D01*
X12983541Y-13976229D02*
X12993064Y-13957181D01*
X12993064Y-13957181D02*
X13002588Y-13928610D01*
X13002588Y-13928610D02*
X13012112Y-13880991D01*
X13012112Y-13880991D02*
X13012112Y-13842896D01*
X13012112Y-13842896D02*
X13002588Y-13795277D01*
X13002588Y-13795277D02*
X12993064Y-13766705D01*
X12993064Y-13766705D02*
X12983541Y-13747658D01*
X12983541Y-13747658D02*
X12964493Y-13719086D01*
X12964493Y-13719086D02*
X12954969Y-13709562D01*
D10*
X7969430Y-14090650D02*
X7969430Y-14130650D01*
X7949430Y-14110650D02*
X7989430Y-14110650D01*
D12*
X8288302Y-14002134D02*
X8307350Y-14002134D01*
X8307350Y-14002134D02*
X8326397Y-14011658D01*
X8326397Y-14011658D02*
X8335921Y-14021181D01*
X8335921Y-14021181D02*
X8345445Y-14040229D01*
X8345445Y-14040229D02*
X8354969Y-14078324D01*
X8354969Y-14078324D02*
X8354969Y-14125943D01*
X8354969Y-14125943D02*
X8345445Y-14164038D01*
X8345445Y-14164038D02*
X8335921Y-14183086D01*
X8335921Y-14183086D02*
X8326397Y-14192610D01*
X8326397Y-14192610D02*
X8307350Y-14202134D01*
X8307350Y-14202134D02*
X8288302Y-14202134D01*
X8288302Y-14202134D02*
X8269254Y-14192610D01*
X8269254Y-14192610D02*
X8259731Y-14183086D01*
X8259731Y-14183086D02*
X8250207Y-14164038D01*
X8250207Y-14164038D02*
X8240683Y-14125943D01*
X8240683Y-14125943D02*
X8240683Y-14078324D01*
X8240683Y-14078324D02*
X8250207Y-14040229D01*
X8250207Y-14040229D02*
X8259731Y-14021181D01*
X8259731Y-14021181D02*
X8269254Y-14011658D01*
X8269254Y-14011658D02*
X8288302Y-14002134D01*
X8440683Y-14183086D02*
X8450207Y-14192610D01*
X8450207Y-14192610D02*
X8440683Y-14202134D01*
X8440683Y-14202134D02*
X8431159Y-14192610D01*
X8431159Y-14192610D02*
X8440683Y-14183086D01*
X8440683Y-14183086D02*
X8440683Y-14202134D01*
X8621635Y-14068800D02*
X8621635Y-14202134D01*
X8574016Y-13992610D02*
X8526397Y-14135467D01*
X8526397Y-14135467D02*
X8650207Y-14135467D01*
X8764493Y-14002134D02*
X8783540Y-14002134D01*
X8783540Y-14002134D02*
X8802588Y-14011658D01*
X8802588Y-14011658D02*
X8812112Y-14021181D01*
X8812112Y-14021181D02*
X8821635Y-14040229D01*
X8821635Y-14040229D02*
X8831159Y-14078324D01*
X8831159Y-14078324D02*
X8831159Y-14125943D01*
X8831159Y-14125943D02*
X8821635Y-14164038D01*
X8821635Y-14164038D02*
X8812112Y-14183086D01*
X8812112Y-14183086D02*
X8802588Y-14192610D01*
X8802588Y-14192610D02*
X8783540Y-14202134D01*
X8783540Y-14202134D02*
X8764493Y-14202134D01*
X8764493Y-14202134D02*
X8745445Y-14192610D01*
X8745445Y-14192610D02*
X8735921Y-14183086D01*
X8735921Y-14183086D02*
X8726397Y-14164038D01*
X8726397Y-14164038D02*
X8716874Y-14125943D01*
X8716874Y-14125943D02*
X8716874Y-14078324D01*
X8716874Y-14078324D02*
X8726397Y-14040229D01*
X8726397Y-14040229D02*
X8735921Y-14021181D01*
X8735921Y-14021181D02*
X8745445Y-14011658D01*
X8745445Y-14011658D02*
X8764493Y-14002134D01*
X8954969Y-14002134D02*
X8974016Y-14002134D01*
X8974016Y-14002134D02*
X8993064Y-14011658D01*
X8993064Y-14011658D02*
X9002588Y-14021181D01*
X9002588Y-14021181D02*
X9012112Y-14040229D01*
X9012112Y-14040229D02*
X9021635Y-14078324D01*
X9021635Y-14078324D02*
X9021635Y-14125943D01*
X9021635Y-14125943D02*
X9012112Y-14164038D01*
X9012112Y-14164038D02*
X9002588Y-14183086D01*
X9002588Y-14183086D02*
X8993064Y-14192610D01*
X8993064Y-14192610D02*
X8974016Y-14202134D01*
X8974016Y-14202134D02*
X8954969Y-14202134D01*
X8954969Y-14202134D02*
X8935921Y-14192610D01*
X8935921Y-14192610D02*
X8926397Y-14183086D01*
X8926397Y-14183086D02*
X8916874Y-14164038D01*
X8916874Y-14164038D02*
X8907350Y-14125943D01*
X8907350Y-14125943D02*
X8907350Y-14078324D01*
X8907350Y-14078324D02*
X8916874Y-14040229D01*
X8916874Y-14040229D02*
X8926397Y-14021181D01*
X8926397Y-14021181D02*
X8935921Y-14011658D01*
X8935921Y-14011658D02*
X8954969Y-14002134D01*
X9107350Y-14202134D02*
X9107350Y-14068800D01*
X9107350Y-14087848D02*
X9116874Y-14078324D01*
X9116874Y-14078324D02*
X9135921Y-14068800D01*
X9135921Y-14068800D02*
X9164493Y-14068800D01*
X9164493Y-14068800D02*
X9183540Y-14078324D01*
X9183540Y-14078324D02*
X9193064Y-14097372D01*
X9193064Y-14097372D02*
X9193064Y-14202134D01*
X9193064Y-14097372D02*
X9202588Y-14078324D01*
X9202588Y-14078324D02*
X9221635Y-14068800D01*
X9221635Y-14068800D02*
X9250207Y-14068800D01*
X9250207Y-14068800D02*
X9269255Y-14078324D01*
X9269255Y-14078324D02*
X9278778Y-14097372D01*
X9278778Y-14097372D02*
X9278778Y-14202134D01*
X9374016Y-14202134D02*
X9374016Y-14068800D01*
X9374016Y-14087848D02*
X9383540Y-14078324D01*
X9383540Y-14078324D02*
X9402588Y-14068800D01*
X9402588Y-14068800D02*
X9431159Y-14068800D01*
X9431159Y-14068800D02*
X9450207Y-14078324D01*
X9450207Y-14078324D02*
X9459731Y-14097372D01*
X9459731Y-14097372D02*
X9459731Y-14202134D01*
X9459731Y-14097372D02*
X9469255Y-14078324D01*
X9469255Y-14078324D02*
X9488302Y-14068800D01*
X9488302Y-14068800D02*
X9516874Y-14068800D01*
X9516874Y-14068800D02*
X9535921Y-14078324D01*
X9535921Y-14078324D02*
X9545445Y-14097372D01*
X9545445Y-14097372D02*
X9545445Y-14202134D01*
X9935921Y-13992610D02*
X9764493Y-14249753D01*
X10193064Y-14002134D02*
X10212112Y-14002134D01*
X10212112Y-14002134D02*
X10231159Y-14011658D01*
X10231159Y-14011658D02*
X10240683Y-14021181D01*
X10240683Y-14021181D02*
X10250207Y-14040229D01*
X10250207Y-14040229D02*
X10259731Y-14078324D01*
X10259731Y-14078324D02*
X10259731Y-14125943D01*
X10259731Y-14125943D02*
X10250207Y-14164038D01*
X10250207Y-14164038D02*
X10240683Y-14183086D01*
X10240683Y-14183086D02*
X10231159Y-14192610D01*
X10231159Y-14192610D02*
X10212112Y-14202134D01*
X10212112Y-14202134D02*
X10193064Y-14202134D01*
X10193064Y-14202134D02*
X10174017Y-14192610D01*
X10174017Y-14192610D02*
X10164493Y-14183086D01*
X10164493Y-14183086D02*
X10154969Y-14164038D01*
X10154969Y-14164038D02*
X10145445Y-14125943D01*
X10145445Y-14125943D02*
X10145445Y-14078324D01*
X10145445Y-14078324D02*
X10154969Y-14040229D01*
X10154969Y-14040229D02*
X10164493Y-14021181D01*
X10164493Y-14021181D02*
X10174017Y-14011658D01*
X10174017Y-14011658D02*
X10193064Y-14002134D01*
X10345445Y-14183086D02*
X10354969Y-14192610D01*
X10354969Y-14192610D02*
X10345445Y-14202134D01*
X10345445Y-14202134D02*
X10335921Y-14192610D01*
X10335921Y-14192610D02*
X10345445Y-14183086D01*
X10345445Y-14183086D02*
X10345445Y-14202134D01*
X10478778Y-14002134D02*
X10497826Y-14002134D01*
X10497826Y-14002134D02*
X10516874Y-14011658D01*
X10516874Y-14011658D02*
X10526398Y-14021181D01*
X10526398Y-14021181D02*
X10535921Y-14040229D01*
X10535921Y-14040229D02*
X10545445Y-14078324D01*
X10545445Y-14078324D02*
X10545445Y-14125943D01*
X10545445Y-14125943D02*
X10535921Y-14164038D01*
X10535921Y-14164038D02*
X10526398Y-14183086D01*
X10526398Y-14183086D02*
X10516874Y-14192610D01*
X10516874Y-14192610D02*
X10497826Y-14202134D01*
X10497826Y-14202134D02*
X10478778Y-14202134D01*
X10478778Y-14202134D02*
X10459731Y-14192610D01*
X10459731Y-14192610D02*
X10450207Y-14183086D01*
X10450207Y-14183086D02*
X10440683Y-14164038D01*
X10440683Y-14164038D02*
X10431159Y-14125943D01*
X10431159Y-14125943D02*
X10431159Y-14078324D01*
X10431159Y-14078324D02*
X10440683Y-14040229D01*
X10440683Y-14040229D02*
X10450207Y-14021181D01*
X10450207Y-14021181D02*
X10459731Y-14011658D01*
X10459731Y-14011658D02*
X10478778Y-14002134D01*
X10735921Y-14202134D02*
X10621636Y-14202134D01*
X10678778Y-14202134D02*
X10678778Y-14002134D01*
X10678778Y-14002134D02*
X10659731Y-14030705D01*
X10659731Y-14030705D02*
X10640683Y-14049753D01*
X10640683Y-14049753D02*
X10621636Y-14059277D01*
X10916874Y-14002134D02*
X10821636Y-14002134D01*
X10821636Y-14002134D02*
X10812112Y-14097372D01*
X10812112Y-14097372D02*
X10821636Y-14087848D01*
X10821636Y-14087848D02*
X10840683Y-14078324D01*
X10840683Y-14078324D02*
X10888302Y-14078324D01*
X10888302Y-14078324D02*
X10907350Y-14087848D01*
X10907350Y-14087848D02*
X10916874Y-14097372D01*
X10916874Y-14097372D02*
X10926398Y-14116419D01*
X10926398Y-14116419D02*
X10926398Y-14164038D01*
X10926398Y-14164038D02*
X10916874Y-14183086D01*
X10916874Y-14183086D02*
X10907350Y-14192610D01*
X10907350Y-14192610D02*
X10888302Y-14202134D01*
X10888302Y-14202134D02*
X10840683Y-14202134D01*
X10840683Y-14202134D02*
X10821636Y-14192610D01*
X10821636Y-14192610D02*
X10812112Y-14183086D01*
X10993064Y-14002134D02*
X11126398Y-14002134D01*
X11126398Y-14002134D02*
X11040683Y-14202134D01*
X11193064Y-14002134D02*
X11193064Y-14040229D01*
X11269255Y-14002134D02*
X11269255Y-14040229D01*
X11564493Y-14278324D02*
X11554969Y-14268800D01*
X11554969Y-14268800D02*
X11535921Y-14240229D01*
X11535921Y-14240229D02*
X11526398Y-14221181D01*
X11526398Y-14221181D02*
X11516874Y-14192610D01*
X11516874Y-14192610D02*
X11507350Y-14144991D01*
X11507350Y-14144991D02*
X11507350Y-14106896D01*
X11507350Y-14106896D02*
X11516874Y-14059277D01*
X11516874Y-14059277D02*
X11526398Y-14030705D01*
X11526398Y-14030705D02*
X11535921Y-14011658D01*
X11535921Y-14011658D02*
X11554969Y-13983086D01*
X11554969Y-13983086D02*
X11564493Y-13973562D01*
X11631159Y-14021181D02*
X11640683Y-14011658D01*
X11640683Y-14011658D02*
X11659731Y-14002134D01*
X11659731Y-14002134D02*
X11707350Y-14002134D01*
X11707350Y-14002134D02*
X11726398Y-14011658D01*
X11726398Y-14011658D02*
X11735921Y-14021181D01*
X11735921Y-14021181D02*
X11745445Y-14040229D01*
X11745445Y-14040229D02*
X11745445Y-14059277D01*
X11745445Y-14059277D02*
X11735921Y-14087848D01*
X11735921Y-14087848D02*
X11621636Y-14202134D01*
X11621636Y-14202134D02*
X11745445Y-14202134D01*
X11821636Y-14021181D02*
X11831159Y-14011658D01*
X11831159Y-14011658D02*
X11850207Y-14002134D01*
X11850207Y-14002134D02*
X11897826Y-14002134D01*
X11897826Y-14002134D02*
X11916874Y-14011658D01*
X11916874Y-14011658D02*
X11926398Y-14021181D01*
X11926398Y-14021181D02*
X11935921Y-14040229D01*
X11935921Y-14040229D02*
X11935921Y-14059277D01*
X11935921Y-14059277D02*
X11926398Y-14087848D01*
X11926398Y-14087848D02*
X11812112Y-14202134D01*
X11812112Y-14202134D02*
X11935921Y-14202134D01*
X12174017Y-14202134D02*
X12174017Y-14002134D01*
X12259731Y-14202134D02*
X12259731Y-14097372D01*
X12259731Y-14097372D02*
X12250207Y-14078324D01*
X12250207Y-14078324D02*
X12231160Y-14068800D01*
X12231160Y-14068800D02*
X12202588Y-14068800D01*
X12202588Y-14068800D02*
X12183540Y-14078324D01*
X12183540Y-14078324D02*
X12174017Y-14087848D01*
X12383540Y-14202134D02*
X12364493Y-14192610D01*
X12364493Y-14192610D02*
X12354969Y-14183086D01*
X12354969Y-14183086D02*
X12345445Y-14164038D01*
X12345445Y-14164038D02*
X12345445Y-14106896D01*
X12345445Y-14106896D02*
X12354969Y-14087848D01*
X12354969Y-14087848D02*
X12364493Y-14078324D01*
X12364493Y-14078324D02*
X12383540Y-14068800D01*
X12383540Y-14068800D02*
X12412112Y-14068800D01*
X12412112Y-14068800D02*
X12431160Y-14078324D01*
X12431160Y-14078324D02*
X12440683Y-14087848D01*
X12440683Y-14087848D02*
X12450207Y-14106896D01*
X12450207Y-14106896D02*
X12450207Y-14164038D01*
X12450207Y-14164038D02*
X12440683Y-14183086D01*
X12440683Y-14183086D02*
X12431160Y-14192610D01*
X12431160Y-14192610D02*
X12412112Y-14202134D01*
X12412112Y-14202134D02*
X12383540Y-14202134D01*
X12564493Y-14202134D02*
X12545445Y-14192610D01*
X12545445Y-14192610D02*
X12535921Y-14173562D01*
X12535921Y-14173562D02*
X12535921Y-14002134D01*
X12716874Y-14192610D02*
X12697826Y-14202134D01*
X12697826Y-14202134D02*
X12659731Y-14202134D01*
X12659731Y-14202134D02*
X12640683Y-14192610D01*
X12640683Y-14192610D02*
X12631160Y-14173562D01*
X12631160Y-14173562D02*
X12631160Y-14097372D01*
X12631160Y-14097372D02*
X12640683Y-14078324D01*
X12640683Y-14078324D02*
X12659731Y-14068800D01*
X12659731Y-14068800D02*
X12697826Y-14068800D01*
X12697826Y-14068800D02*
X12716874Y-14078324D01*
X12716874Y-14078324D02*
X12726398Y-14097372D01*
X12726398Y-14097372D02*
X12726398Y-14116419D01*
X12726398Y-14116419D02*
X12631160Y-14135467D01*
X12802588Y-14192610D02*
X12821636Y-14202134D01*
X12821636Y-14202134D02*
X12859731Y-14202134D01*
X12859731Y-14202134D02*
X12878779Y-14192610D01*
X12878779Y-14192610D02*
X12888302Y-14173562D01*
X12888302Y-14173562D02*
X12888302Y-14164038D01*
X12888302Y-14164038D02*
X12878779Y-14144991D01*
X12878779Y-14144991D02*
X12859731Y-14135467D01*
X12859731Y-14135467D02*
X12831160Y-14135467D01*
X12831160Y-14135467D02*
X12812112Y-14125943D01*
X12812112Y-14125943D02*
X12802588Y-14106896D01*
X12802588Y-14106896D02*
X12802588Y-14097372D01*
X12802588Y-14097372D02*
X12812112Y-14078324D01*
X12812112Y-14078324D02*
X12831160Y-14068800D01*
X12831160Y-14068800D02*
X12859731Y-14068800D01*
X12859731Y-14068800D02*
X12878779Y-14078324D01*
X12954969Y-14278324D02*
X12964493Y-14268800D01*
X12964493Y-14268800D02*
X12983541Y-14240229D01*
X12983541Y-14240229D02*
X12993064Y-14221181D01*
X12993064Y-14221181D02*
X13002588Y-14192610D01*
X13002588Y-14192610D02*
X13012112Y-14144991D01*
X13012112Y-14144991D02*
X13012112Y-14106896D01*
X13012112Y-14106896D02*
X13002588Y-14059277D01*
X13002588Y-14059277D02*
X12993064Y-14030705D01*
X12993064Y-14030705D02*
X12983541Y-14011658D01*
X12983541Y-14011658D02*
X12964493Y-13983086D01*
X12964493Y-13983086D02*
X12954969Y-13973562D01*
D10*
X7980643Y-14395863D02*
X7980643Y-14353437D01*
X7938217Y-14353437D01*
X7938217Y-14395863D01*
X7980643Y-14395863D01*
D12*
X8288302Y-14266134D02*
X8307350Y-14266134D01*
X8307350Y-14266134D02*
X8326397Y-14275658D01*
X8326397Y-14275658D02*
X8335921Y-14285181D01*
X8335921Y-14285181D02*
X8345445Y-14304229D01*
X8345445Y-14304229D02*
X8354969Y-14342324D01*
X8354969Y-14342324D02*
X8354969Y-14389943D01*
X8354969Y-14389943D02*
X8345445Y-14428038D01*
X8345445Y-14428038D02*
X8335921Y-14447086D01*
X8335921Y-14447086D02*
X8326397Y-14456610D01*
X8326397Y-14456610D02*
X8307350Y-14466134D01*
X8307350Y-14466134D02*
X8288302Y-14466134D01*
X8288302Y-14466134D02*
X8269254Y-14456610D01*
X8269254Y-14456610D02*
X8259731Y-14447086D01*
X8259731Y-14447086D02*
X8250207Y-14428038D01*
X8250207Y-14428038D02*
X8240683Y-14389943D01*
X8240683Y-14389943D02*
X8240683Y-14342324D01*
X8240683Y-14342324D02*
X8250207Y-14304229D01*
X8250207Y-14304229D02*
X8259731Y-14285181D01*
X8259731Y-14285181D02*
X8269254Y-14275658D01*
X8269254Y-14275658D02*
X8288302Y-14266134D01*
X8440683Y-14447086D02*
X8450207Y-14456610D01*
X8450207Y-14456610D02*
X8440683Y-14466134D01*
X8440683Y-14466134D02*
X8431159Y-14456610D01*
X8431159Y-14456610D02*
X8440683Y-14447086D01*
X8440683Y-14447086D02*
X8440683Y-14466134D01*
X8621635Y-14266134D02*
X8583540Y-14266134D01*
X8583540Y-14266134D02*
X8564493Y-14275658D01*
X8564493Y-14275658D02*
X8554969Y-14285181D01*
X8554969Y-14285181D02*
X8535921Y-14313753D01*
X8535921Y-14313753D02*
X8526397Y-14351848D01*
X8526397Y-14351848D02*
X8526397Y-14428038D01*
X8526397Y-14428038D02*
X8535921Y-14447086D01*
X8535921Y-14447086D02*
X8545445Y-14456610D01*
X8545445Y-14456610D02*
X8564493Y-14466134D01*
X8564493Y-14466134D02*
X8602588Y-14466134D01*
X8602588Y-14466134D02*
X8621635Y-14456610D01*
X8621635Y-14456610D02*
X8631159Y-14447086D01*
X8631159Y-14447086D02*
X8640683Y-14428038D01*
X8640683Y-14428038D02*
X8640683Y-14380419D01*
X8640683Y-14380419D02*
X8631159Y-14361372D01*
X8631159Y-14361372D02*
X8621635Y-14351848D01*
X8621635Y-14351848D02*
X8602588Y-14342324D01*
X8602588Y-14342324D02*
X8564493Y-14342324D01*
X8564493Y-14342324D02*
X8545445Y-14351848D01*
X8545445Y-14351848D02*
X8535921Y-14361372D01*
X8535921Y-14361372D02*
X8526397Y-14380419D01*
X8764493Y-14266134D02*
X8783540Y-14266134D01*
X8783540Y-14266134D02*
X8802588Y-14275658D01*
X8802588Y-14275658D02*
X8812112Y-14285181D01*
X8812112Y-14285181D02*
X8821635Y-14304229D01*
X8821635Y-14304229D02*
X8831159Y-14342324D01*
X8831159Y-14342324D02*
X8831159Y-14389943D01*
X8831159Y-14389943D02*
X8821635Y-14428038D01*
X8821635Y-14428038D02*
X8812112Y-14447086D01*
X8812112Y-14447086D02*
X8802588Y-14456610D01*
X8802588Y-14456610D02*
X8783540Y-14466134D01*
X8783540Y-14466134D02*
X8764493Y-14466134D01*
X8764493Y-14466134D02*
X8745445Y-14456610D01*
X8745445Y-14456610D02*
X8735921Y-14447086D01*
X8735921Y-14447086D02*
X8726397Y-14428038D01*
X8726397Y-14428038D02*
X8716874Y-14389943D01*
X8716874Y-14389943D02*
X8716874Y-14342324D01*
X8716874Y-14342324D02*
X8726397Y-14304229D01*
X8726397Y-14304229D02*
X8735921Y-14285181D01*
X8735921Y-14285181D02*
X8745445Y-14275658D01*
X8745445Y-14275658D02*
X8764493Y-14266134D01*
X8954969Y-14266134D02*
X8974016Y-14266134D01*
X8974016Y-14266134D02*
X8993064Y-14275658D01*
X8993064Y-14275658D02*
X9002588Y-14285181D01*
X9002588Y-14285181D02*
X9012112Y-14304229D01*
X9012112Y-14304229D02*
X9021635Y-14342324D01*
X9021635Y-14342324D02*
X9021635Y-14389943D01*
X9021635Y-14389943D02*
X9012112Y-14428038D01*
X9012112Y-14428038D02*
X9002588Y-14447086D01*
X9002588Y-14447086D02*
X8993064Y-14456610D01*
X8993064Y-14456610D02*
X8974016Y-14466134D01*
X8974016Y-14466134D02*
X8954969Y-14466134D01*
X8954969Y-14466134D02*
X8935921Y-14456610D01*
X8935921Y-14456610D02*
X8926397Y-14447086D01*
X8926397Y-14447086D02*
X8916874Y-14428038D01*
X8916874Y-14428038D02*
X8907350Y-14389943D01*
X8907350Y-14389943D02*
X8907350Y-14342324D01*
X8907350Y-14342324D02*
X8916874Y-14304229D01*
X8916874Y-14304229D02*
X8926397Y-14285181D01*
X8926397Y-14285181D02*
X8935921Y-14275658D01*
X8935921Y-14275658D02*
X8954969Y-14266134D01*
X9107350Y-14466134D02*
X9107350Y-14332800D01*
X9107350Y-14351848D02*
X9116874Y-14342324D01*
X9116874Y-14342324D02*
X9135921Y-14332800D01*
X9135921Y-14332800D02*
X9164493Y-14332800D01*
X9164493Y-14332800D02*
X9183540Y-14342324D01*
X9183540Y-14342324D02*
X9193064Y-14361372D01*
X9193064Y-14361372D02*
X9193064Y-14466134D01*
X9193064Y-14361372D02*
X9202588Y-14342324D01*
X9202588Y-14342324D02*
X9221635Y-14332800D01*
X9221635Y-14332800D02*
X9250207Y-14332800D01*
X9250207Y-14332800D02*
X9269255Y-14342324D01*
X9269255Y-14342324D02*
X9278778Y-14361372D01*
X9278778Y-14361372D02*
X9278778Y-14466134D01*
X9374016Y-14466134D02*
X9374016Y-14332800D01*
X9374016Y-14351848D02*
X9383540Y-14342324D01*
X9383540Y-14342324D02*
X9402588Y-14332800D01*
X9402588Y-14332800D02*
X9431159Y-14332800D01*
X9431159Y-14332800D02*
X9450207Y-14342324D01*
X9450207Y-14342324D02*
X9459731Y-14361372D01*
X9459731Y-14361372D02*
X9459731Y-14466134D01*
X9459731Y-14361372D02*
X9469255Y-14342324D01*
X9469255Y-14342324D02*
X9488302Y-14332800D01*
X9488302Y-14332800D02*
X9516874Y-14332800D01*
X9516874Y-14332800D02*
X9535921Y-14342324D01*
X9535921Y-14342324D02*
X9545445Y-14361372D01*
X9545445Y-14361372D02*
X9545445Y-14466134D01*
X9935921Y-14256610D02*
X9764493Y-14513753D01*
X10193064Y-14266134D02*
X10212112Y-14266134D01*
X10212112Y-14266134D02*
X10231159Y-14275658D01*
X10231159Y-14275658D02*
X10240683Y-14285181D01*
X10240683Y-14285181D02*
X10250207Y-14304229D01*
X10250207Y-14304229D02*
X10259731Y-14342324D01*
X10259731Y-14342324D02*
X10259731Y-14389943D01*
X10259731Y-14389943D02*
X10250207Y-14428038D01*
X10250207Y-14428038D02*
X10240683Y-14447086D01*
X10240683Y-14447086D02*
X10231159Y-14456610D01*
X10231159Y-14456610D02*
X10212112Y-14466134D01*
X10212112Y-14466134D02*
X10193064Y-14466134D01*
X10193064Y-14466134D02*
X10174017Y-14456610D01*
X10174017Y-14456610D02*
X10164493Y-14447086D01*
X10164493Y-14447086D02*
X10154969Y-14428038D01*
X10154969Y-14428038D02*
X10145445Y-14389943D01*
X10145445Y-14389943D02*
X10145445Y-14342324D01*
X10145445Y-14342324D02*
X10154969Y-14304229D01*
X10154969Y-14304229D02*
X10164493Y-14285181D01*
X10164493Y-14285181D02*
X10174017Y-14275658D01*
X10174017Y-14275658D02*
X10193064Y-14266134D01*
X10345445Y-14447086D02*
X10354969Y-14456610D01*
X10354969Y-14456610D02*
X10345445Y-14466134D01*
X10345445Y-14466134D02*
X10335921Y-14456610D01*
X10335921Y-14456610D02*
X10345445Y-14447086D01*
X10345445Y-14447086D02*
X10345445Y-14466134D01*
X10478778Y-14266134D02*
X10497826Y-14266134D01*
X10497826Y-14266134D02*
X10516874Y-14275658D01*
X10516874Y-14275658D02*
X10526398Y-14285181D01*
X10526398Y-14285181D02*
X10535921Y-14304229D01*
X10535921Y-14304229D02*
X10545445Y-14342324D01*
X10545445Y-14342324D02*
X10545445Y-14389943D01*
X10545445Y-14389943D02*
X10535921Y-14428038D01*
X10535921Y-14428038D02*
X10526398Y-14447086D01*
X10526398Y-14447086D02*
X10516874Y-14456610D01*
X10516874Y-14456610D02*
X10497826Y-14466134D01*
X10497826Y-14466134D02*
X10478778Y-14466134D01*
X10478778Y-14466134D02*
X10459731Y-14456610D01*
X10459731Y-14456610D02*
X10450207Y-14447086D01*
X10450207Y-14447086D02*
X10440683Y-14428038D01*
X10440683Y-14428038D02*
X10431159Y-14389943D01*
X10431159Y-14389943D02*
X10431159Y-14342324D01*
X10431159Y-14342324D02*
X10440683Y-14304229D01*
X10440683Y-14304229D02*
X10450207Y-14285181D01*
X10450207Y-14285181D02*
X10459731Y-14275658D01*
X10459731Y-14275658D02*
X10478778Y-14266134D01*
X10621636Y-14285181D02*
X10631159Y-14275658D01*
X10631159Y-14275658D02*
X10650207Y-14266134D01*
X10650207Y-14266134D02*
X10697826Y-14266134D01*
X10697826Y-14266134D02*
X10716874Y-14275658D01*
X10716874Y-14275658D02*
X10726398Y-14285181D01*
X10726398Y-14285181D02*
X10735921Y-14304229D01*
X10735921Y-14304229D02*
X10735921Y-14323277D01*
X10735921Y-14323277D02*
X10726398Y-14351848D01*
X10726398Y-14351848D02*
X10612112Y-14466134D01*
X10612112Y-14466134D02*
X10735921Y-14466134D01*
X10802588Y-14266134D02*
X10926398Y-14266134D01*
X10926398Y-14266134D02*
X10859731Y-14342324D01*
X10859731Y-14342324D02*
X10888302Y-14342324D01*
X10888302Y-14342324D02*
X10907350Y-14351848D01*
X10907350Y-14351848D02*
X10916874Y-14361372D01*
X10916874Y-14361372D02*
X10926398Y-14380419D01*
X10926398Y-14380419D02*
X10926398Y-14428038D01*
X10926398Y-14428038D02*
X10916874Y-14447086D01*
X10916874Y-14447086D02*
X10907350Y-14456610D01*
X10907350Y-14456610D02*
X10888302Y-14466134D01*
X10888302Y-14466134D02*
X10831159Y-14466134D01*
X10831159Y-14466134D02*
X10812112Y-14456610D01*
X10812112Y-14456610D02*
X10802588Y-14447086D01*
X11097826Y-14266134D02*
X11059731Y-14266134D01*
X11059731Y-14266134D02*
X11040683Y-14275658D01*
X11040683Y-14275658D02*
X11031159Y-14285181D01*
X11031159Y-14285181D02*
X11012112Y-14313753D01*
X11012112Y-14313753D02*
X11002588Y-14351848D01*
X11002588Y-14351848D02*
X11002588Y-14428038D01*
X11002588Y-14428038D02*
X11012112Y-14447086D01*
X11012112Y-14447086D02*
X11021636Y-14456610D01*
X11021636Y-14456610D02*
X11040683Y-14466134D01*
X11040683Y-14466134D02*
X11078779Y-14466134D01*
X11078779Y-14466134D02*
X11097826Y-14456610D01*
X11097826Y-14456610D02*
X11107350Y-14447086D01*
X11107350Y-14447086D02*
X11116874Y-14428038D01*
X11116874Y-14428038D02*
X11116874Y-14380419D01*
X11116874Y-14380419D02*
X11107350Y-14361372D01*
X11107350Y-14361372D02*
X11097826Y-14351848D01*
X11097826Y-14351848D02*
X11078779Y-14342324D01*
X11078779Y-14342324D02*
X11040683Y-14342324D01*
X11040683Y-14342324D02*
X11021636Y-14351848D01*
X11021636Y-14351848D02*
X11012112Y-14361372D01*
X11012112Y-14361372D02*
X11002588Y-14380419D01*
X11193064Y-14266134D02*
X11193064Y-14304229D01*
X11269255Y-14266134D02*
X11269255Y-14304229D01*
X11564493Y-14542324D02*
X11554969Y-14532800D01*
X11554969Y-14532800D02*
X11535921Y-14504229D01*
X11535921Y-14504229D02*
X11526398Y-14485181D01*
X11526398Y-14485181D02*
X11516874Y-14456610D01*
X11516874Y-14456610D02*
X11507350Y-14408991D01*
X11507350Y-14408991D02*
X11507350Y-14370896D01*
X11507350Y-14370896D02*
X11516874Y-14323277D01*
X11516874Y-14323277D02*
X11526398Y-14294705D01*
X11526398Y-14294705D02*
X11535921Y-14275658D01*
X11535921Y-14275658D02*
X11554969Y-14247086D01*
X11554969Y-14247086D02*
X11564493Y-14237562D01*
X11678778Y-14266134D02*
X11697826Y-14266134D01*
X11697826Y-14266134D02*
X11716874Y-14275658D01*
X11716874Y-14275658D02*
X11726398Y-14285181D01*
X11726398Y-14285181D02*
X11735921Y-14304229D01*
X11735921Y-14304229D02*
X11745445Y-14342324D01*
X11745445Y-14342324D02*
X11745445Y-14389943D01*
X11745445Y-14389943D02*
X11735921Y-14428038D01*
X11735921Y-14428038D02*
X11726398Y-14447086D01*
X11726398Y-14447086D02*
X11716874Y-14456610D01*
X11716874Y-14456610D02*
X11697826Y-14466134D01*
X11697826Y-14466134D02*
X11678778Y-14466134D01*
X11678778Y-14466134D02*
X11659731Y-14456610D01*
X11659731Y-14456610D02*
X11650207Y-14447086D01*
X11650207Y-14447086D02*
X11640683Y-14428038D01*
X11640683Y-14428038D02*
X11631159Y-14389943D01*
X11631159Y-14389943D02*
X11631159Y-14342324D01*
X11631159Y-14342324D02*
X11640683Y-14304229D01*
X11640683Y-14304229D02*
X11650207Y-14285181D01*
X11650207Y-14285181D02*
X11659731Y-14275658D01*
X11659731Y-14275658D02*
X11678778Y-14266134D01*
X11983540Y-14466134D02*
X11983540Y-14266134D01*
X12069255Y-14466134D02*
X12069255Y-14361372D01*
X12069255Y-14361372D02*
X12059731Y-14342324D01*
X12059731Y-14342324D02*
X12040683Y-14332800D01*
X12040683Y-14332800D02*
X12012112Y-14332800D01*
X12012112Y-14332800D02*
X11993064Y-14342324D01*
X11993064Y-14342324D02*
X11983540Y-14351848D01*
X12193064Y-14466134D02*
X12174017Y-14456610D01*
X12174017Y-14456610D02*
X12164493Y-14447086D01*
X12164493Y-14447086D02*
X12154969Y-14428038D01*
X12154969Y-14428038D02*
X12154969Y-14370896D01*
X12154969Y-14370896D02*
X12164493Y-14351848D01*
X12164493Y-14351848D02*
X12174017Y-14342324D01*
X12174017Y-14342324D02*
X12193064Y-14332800D01*
X12193064Y-14332800D02*
X12221636Y-14332800D01*
X12221636Y-14332800D02*
X12240683Y-14342324D01*
X12240683Y-14342324D02*
X12250207Y-14351848D01*
X12250207Y-14351848D02*
X12259731Y-14370896D01*
X12259731Y-14370896D02*
X12259731Y-14428038D01*
X12259731Y-14428038D02*
X12250207Y-14447086D01*
X12250207Y-14447086D02*
X12240683Y-14456610D01*
X12240683Y-14456610D02*
X12221636Y-14466134D01*
X12221636Y-14466134D02*
X12193064Y-14466134D01*
X12374017Y-14466134D02*
X12354969Y-14456610D01*
X12354969Y-14456610D02*
X12345445Y-14437562D01*
X12345445Y-14437562D02*
X12345445Y-14266134D01*
X12526398Y-14456610D02*
X12507350Y-14466134D01*
X12507350Y-14466134D02*
X12469255Y-14466134D01*
X12469255Y-14466134D02*
X12450207Y-14456610D01*
X12450207Y-14456610D02*
X12440683Y-14437562D01*
X12440683Y-14437562D02*
X12440683Y-14361372D01*
X12440683Y-14361372D02*
X12450207Y-14342324D01*
X12450207Y-14342324D02*
X12469255Y-14332800D01*
X12469255Y-14332800D02*
X12507350Y-14332800D01*
X12507350Y-14332800D02*
X12526398Y-14342324D01*
X12526398Y-14342324D02*
X12535921Y-14361372D01*
X12535921Y-14361372D02*
X12535921Y-14380419D01*
X12535921Y-14380419D02*
X12440683Y-14399467D01*
X12612112Y-14456610D02*
X12631160Y-14466134D01*
X12631160Y-14466134D02*
X12669255Y-14466134D01*
X12669255Y-14466134D02*
X12688302Y-14456610D01*
X12688302Y-14456610D02*
X12697826Y-14437562D01*
X12697826Y-14437562D02*
X12697826Y-14428038D01*
X12697826Y-14428038D02*
X12688302Y-14408991D01*
X12688302Y-14408991D02*
X12669255Y-14399467D01*
X12669255Y-14399467D02*
X12640683Y-14399467D01*
X12640683Y-14399467D02*
X12621636Y-14389943D01*
X12621636Y-14389943D02*
X12612112Y-14370896D01*
X12612112Y-14370896D02*
X12612112Y-14361372D01*
X12612112Y-14361372D02*
X12621636Y-14342324D01*
X12621636Y-14342324D02*
X12640683Y-14332800D01*
X12640683Y-14332800D02*
X12669255Y-14332800D01*
X12669255Y-14332800D02*
X12688302Y-14342324D01*
X12935922Y-14389943D02*
X13088303Y-14389943D01*
X13012112Y-14466134D02*
X13012112Y-14313753D01*
X13421636Y-14332800D02*
X13421636Y-14466134D01*
X13374017Y-14256610D02*
X13326398Y-14399467D01*
X13326398Y-14399467D02*
X13450207Y-14399467D01*
X13669255Y-14456610D02*
X13688303Y-14466134D01*
X13688303Y-14466134D02*
X13726398Y-14466134D01*
X13726398Y-14466134D02*
X13745445Y-14456610D01*
X13745445Y-14456610D02*
X13754969Y-14437562D01*
X13754969Y-14437562D02*
X13754969Y-14428038D01*
X13754969Y-14428038D02*
X13745445Y-14408991D01*
X13745445Y-14408991D02*
X13726398Y-14399467D01*
X13726398Y-14399467D02*
X13697826Y-14399467D01*
X13697826Y-14399467D02*
X13678779Y-14389943D01*
X13678779Y-14389943D02*
X13669255Y-14370896D01*
X13669255Y-14370896D02*
X13669255Y-14361372D01*
X13669255Y-14361372D02*
X13678779Y-14342324D01*
X13678779Y-14342324D02*
X13697826Y-14332800D01*
X13697826Y-14332800D02*
X13726398Y-14332800D01*
X13726398Y-14332800D02*
X13745445Y-14342324D01*
X13869255Y-14466134D02*
X13850207Y-14456610D01*
X13850207Y-14456610D02*
X13840684Y-14437562D01*
X13840684Y-14437562D02*
X13840684Y-14266134D01*
X13974017Y-14466134D02*
X13954969Y-14456610D01*
X13954969Y-14456610D02*
X13945445Y-14447086D01*
X13945445Y-14447086D02*
X13935922Y-14428038D01*
X13935922Y-14428038D02*
X13935922Y-14370896D01*
X13935922Y-14370896D02*
X13945445Y-14351848D01*
X13945445Y-14351848D02*
X13954969Y-14342324D01*
X13954969Y-14342324D02*
X13974017Y-14332800D01*
X13974017Y-14332800D02*
X14002588Y-14332800D01*
X14002588Y-14332800D02*
X14021636Y-14342324D01*
X14021636Y-14342324D02*
X14031160Y-14351848D01*
X14031160Y-14351848D02*
X14040684Y-14370896D01*
X14040684Y-14370896D02*
X14040684Y-14428038D01*
X14040684Y-14428038D02*
X14031160Y-14447086D01*
X14031160Y-14447086D02*
X14021636Y-14456610D01*
X14021636Y-14456610D02*
X14002588Y-14466134D01*
X14002588Y-14466134D02*
X13974017Y-14466134D01*
X14097826Y-14332800D02*
X14174017Y-14332800D01*
X14126398Y-14266134D02*
X14126398Y-14437562D01*
X14126398Y-14437562D02*
X14135922Y-14456610D01*
X14135922Y-14456610D02*
X14154969Y-14466134D01*
X14154969Y-14466134D02*
X14174017Y-14466134D01*
X14231160Y-14456610D02*
X14250207Y-14466134D01*
X14250207Y-14466134D02*
X14288303Y-14466134D01*
X14288303Y-14466134D02*
X14307350Y-14456610D01*
X14307350Y-14456610D02*
X14316874Y-14437562D01*
X14316874Y-14437562D02*
X14316874Y-14428038D01*
X14316874Y-14428038D02*
X14307350Y-14408991D01*
X14307350Y-14408991D02*
X14288303Y-14399467D01*
X14288303Y-14399467D02*
X14259731Y-14399467D01*
X14259731Y-14399467D02*
X14240684Y-14389943D01*
X14240684Y-14389943D02*
X14231160Y-14370896D01*
X14231160Y-14370896D02*
X14231160Y-14361372D01*
X14231160Y-14361372D02*
X14240684Y-14342324D01*
X14240684Y-14342324D02*
X14259731Y-14332800D01*
X14259731Y-14332800D02*
X14288303Y-14332800D01*
X14288303Y-14332800D02*
X14307350Y-14342324D01*
X14383541Y-14542324D02*
X14393065Y-14532800D01*
X14393065Y-14532800D02*
X14412112Y-14504229D01*
X14412112Y-14504229D02*
X14421636Y-14485181D01*
X14421636Y-14485181D02*
X14431160Y-14456610D01*
X14431160Y-14456610D02*
X14440684Y-14408991D01*
X14440684Y-14408991D02*
X14440684Y-14370896D01*
X14440684Y-14370896D02*
X14431160Y-14323277D01*
X14431160Y-14323277D02*
X14421636Y-14294705D01*
X14421636Y-14294705D02*
X14412112Y-14275658D01*
X14412112Y-14275658D02*
X14393065Y-14247086D01*
X14393065Y-14247086D02*
X14383541Y-14237562D01*
D10*
X7939430Y-14688650D02*
X7989430Y-14638650D01*
X7939430Y-14588650D01*
X7889430Y-14638650D01*
X7939430Y-14688650D01*
D12*
X8354969Y-14730134D02*
X8240683Y-14730134D01*
X8297826Y-14730134D02*
X8297826Y-14530134D01*
X8297826Y-14530134D02*
X8278778Y-14558705D01*
X8278778Y-14558705D02*
X8259731Y-14577753D01*
X8259731Y-14577753D02*
X8240683Y-14587277D01*
X8440683Y-14711086D02*
X8450207Y-14720610D01*
X8450207Y-14720610D02*
X8440683Y-14730134D01*
X8440683Y-14730134D02*
X8431159Y-14720610D01*
X8431159Y-14720610D02*
X8440683Y-14711086D01*
X8440683Y-14711086D02*
X8440683Y-14730134D01*
X8574016Y-14530134D02*
X8593064Y-14530134D01*
X8593064Y-14530134D02*
X8612112Y-14539658D01*
X8612112Y-14539658D02*
X8621635Y-14549181D01*
X8621635Y-14549181D02*
X8631159Y-14568229D01*
X8631159Y-14568229D02*
X8640683Y-14606324D01*
X8640683Y-14606324D02*
X8640683Y-14653943D01*
X8640683Y-14653943D02*
X8631159Y-14692038D01*
X8631159Y-14692038D02*
X8621635Y-14711086D01*
X8621635Y-14711086D02*
X8612112Y-14720610D01*
X8612112Y-14720610D02*
X8593064Y-14730134D01*
X8593064Y-14730134D02*
X8574016Y-14730134D01*
X8574016Y-14730134D02*
X8554969Y-14720610D01*
X8554969Y-14720610D02*
X8545445Y-14711086D01*
X8545445Y-14711086D02*
X8535921Y-14692038D01*
X8535921Y-14692038D02*
X8526397Y-14653943D01*
X8526397Y-14653943D02*
X8526397Y-14606324D01*
X8526397Y-14606324D02*
X8535921Y-14568229D01*
X8535921Y-14568229D02*
X8545445Y-14549181D01*
X8545445Y-14549181D02*
X8554969Y-14539658D01*
X8554969Y-14539658D02*
X8574016Y-14530134D01*
X8764493Y-14530134D02*
X8783540Y-14530134D01*
X8783540Y-14530134D02*
X8802588Y-14539658D01*
X8802588Y-14539658D02*
X8812112Y-14549181D01*
X8812112Y-14549181D02*
X8821635Y-14568229D01*
X8821635Y-14568229D02*
X8831159Y-14606324D01*
X8831159Y-14606324D02*
X8831159Y-14653943D01*
X8831159Y-14653943D02*
X8821635Y-14692038D01*
X8821635Y-14692038D02*
X8812112Y-14711086D01*
X8812112Y-14711086D02*
X8802588Y-14720610D01*
X8802588Y-14720610D02*
X8783540Y-14730134D01*
X8783540Y-14730134D02*
X8764493Y-14730134D01*
X8764493Y-14730134D02*
X8745445Y-14720610D01*
X8745445Y-14720610D02*
X8735921Y-14711086D01*
X8735921Y-14711086D02*
X8726397Y-14692038D01*
X8726397Y-14692038D02*
X8716874Y-14653943D01*
X8716874Y-14653943D02*
X8716874Y-14606324D01*
X8716874Y-14606324D02*
X8726397Y-14568229D01*
X8726397Y-14568229D02*
X8735921Y-14549181D01*
X8735921Y-14549181D02*
X8745445Y-14539658D01*
X8745445Y-14539658D02*
X8764493Y-14530134D01*
X8954969Y-14530134D02*
X8974016Y-14530134D01*
X8974016Y-14530134D02*
X8993064Y-14539658D01*
X8993064Y-14539658D02*
X9002588Y-14549181D01*
X9002588Y-14549181D02*
X9012112Y-14568229D01*
X9012112Y-14568229D02*
X9021635Y-14606324D01*
X9021635Y-14606324D02*
X9021635Y-14653943D01*
X9021635Y-14653943D02*
X9012112Y-14692038D01*
X9012112Y-14692038D02*
X9002588Y-14711086D01*
X9002588Y-14711086D02*
X8993064Y-14720610D01*
X8993064Y-14720610D02*
X8974016Y-14730134D01*
X8974016Y-14730134D02*
X8954969Y-14730134D01*
X8954969Y-14730134D02*
X8935921Y-14720610D01*
X8935921Y-14720610D02*
X8926397Y-14711086D01*
X8926397Y-14711086D02*
X8916874Y-14692038D01*
X8916874Y-14692038D02*
X8907350Y-14653943D01*
X8907350Y-14653943D02*
X8907350Y-14606324D01*
X8907350Y-14606324D02*
X8916874Y-14568229D01*
X8916874Y-14568229D02*
X8926397Y-14549181D01*
X8926397Y-14549181D02*
X8935921Y-14539658D01*
X8935921Y-14539658D02*
X8954969Y-14530134D01*
X9107350Y-14730134D02*
X9107350Y-14596800D01*
X9107350Y-14615848D02*
X9116874Y-14606324D01*
X9116874Y-14606324D02*
X9135921Y-14596800D01*
X9135921Y-14596800D02*
X9164493Y-14596800D01*
X9164493Y-14596800D02*
X9183540Y-14606324D01*
X9183540Y-14606324D02*
X9193064Y-14625372D01*
X9193064Y-14625372D02*
X9193064Y-14730134D01*
X9193064Y-14625372D02*
X9202588Y-14606324D01*
X9202588Y-14606324D02*
X9221635Y-14596800D01*
X9221635Y-14596800D02*
X9250207Y-14596800D01*
X9250207Y-14596800D02*
X9269255Y-14606324D01*
X9269255Y-14606324D02*
X9278778Y-14625372D01*
X9278778Y-14625372D02*
X9278778Y-14730134D01*
X9374016Y-14730134D02*
X9374016Y-14596800D01*
X9374016Y-14615848D02*
X9383540Y-14606324D01*
X9383540Y-14606324D02*
X9402588Y-14596800D01*
X9402588Y-14596800D02*
X9431159Y-14596800D01*
X9431159Y-14596800D02*
X9450207Y-14606324D01*
X9450207Y-14606324D02*
X9459731Y-14625372D01*
X9459731Y-14625372D02*
X9459731Y-14730134D01*
X9459731Y-14625372D02*
X9469255Y-14606324D01*
X9469255Y-14606324D02*
X9488302Y-14596800D01*
X9488302Y-14596800D02*
X9516874Y-14596800D01*
X9516874Y-14596800D02*
X9535921Y-14606324D01*
X9535921Y-14606324D02*
X9545445Y-14625372D01*
X9545445Y-14625372D02*
X9545445Y-14730134D01*
X9935921Y-14520610D02*
X9764493Y-14777753D01*
X10193064Y-14530134D02*
X10212112Y-14530134D01*
X10212112Y-14530134D02*
X10231159Y-14539658D01*
X10231159Y-14539658D02*
X10240683Y-14549181D01*
X10240683Y-14549181D02*
X10250207Y-14568229D01*
X10250207Y-14568229D02*
X10259731Y-14606324D01*
X10259731Y-14606324D02*
X10259731Y-14653943D01*
X10259731Y-14653943D02*
X10250207Y-14692038D01*
X10250207Y-14692038D02*
X10240683Y-14711086D01*
X10240683Y-14711086D02*
X10231159Y-14720610D01*
X10231159Y-14720610D02*
X10212112Y-14730134D01*
X10212112Y-14730134D02*
X10193064Y-14730134D01*
X10193064Y-14730134D02*
X10174017Y-14720610D01*
X10174017Y-14720610D02*
X10164493Y-14711086D01*
X10164493Y-14711086D02*
X10154969Y-14692038D01*
X10154969Y-14692038D02*
X10145445Y-14653943D01*
X10145445Y-14653943D02*
X10145445Y-14606324D01*
X10145445Y-14606324D02*
X10154969Y-14568229D01*
X10154969Y-14568229D02*
X10164493Y-14549181D01*
X10164493Y-14549181D02*
X10174017Y-14539658D01*
X10174017Y-14539658D02*
X10193064Y-14530134D01*
X10345445Y-14711086D02*
X10354969Y-14720610D01*
X10354969Y-14720610D02*
X10345445Y-14730134D01*
X10345445Y-14730134D02*
X10335921Y-14720610D01*
X10335921Y-14720610D02*
X10345445Y-14711086D01*
X10345445Y-14711086D02*
X10345445Y-14730134D01*
X10478778Y-14530134D02*
X10497826Y-14530134D01*
X10497826Y-14530134D02*
X10516874Y-14539658D01*
X10516874Y-14539658D02*
X10526398Y-14549181D01*
X10526398Y-14549181D02*
X10535921Y-14568229D01*
X10535921Y-14568229D02*
X10545445Y-14606324D01*
X10545445Y-14606324D02*
X10545445Y-14653943D01*
X10545445Y-14653943D02*
X10535921Y-14692038D01*
X10535921Y-14692038D02*
X10526398Y-14711086D01*
X10526398Y-14711086D02*
X10516874Y-14720610D01*
X10516874Y-14720610D02*
X10497826Y-14730134D01*
X10497826Y-14730134D02*
X10478778Y-14730134D01*
X10478778Y-14730134D02*
X10459731Y-14720610D01*
X10459731Y-14720610D02*
X10450207Y-14711086D01*
X10450207Y-14711086D02*
X10440683Y-14692038D01*
X10440683Y-14692038D02*
X10431159Y-14653943D01*
X10431159Y-14653943D02*
X10431159Y-14606324D01*
X10431159Y-14606324D02*
X10440683Y-14568229D01*
X10440683Y-14568229D02*
X10450207Y-14549181D01*
X10450207Y-14549181D02*
X10459731Y-14539658D01*
X10459731Y-14539658D02*
X10478778Y-14530134D01*
X10612112Y-14530134D02*
X10735921Y-14530134D01*
X10735921Y-14530134D02*
X10669255Y-14606324D01*
X10669255Y-14606324D02*
X10697826Y-14606324D01*
X10697826Y-14606324D02*
X10716874Y-14615848D01*
X10716874Y-14615848D02*
X10726398Y-14625372D01*
X10726398Y-14625372D02*
X10735921Y-14644419D01*
X10735921Y-14644419D02*
X10735921Y-14692038D01*
X10735921Y-14692038D02*
X10726398Y-14711086D01*
X10726398Y-14711086D02*
X10716874Y-14720610D01*
X10716874Y-14720610D02*
X10697826Y-14730134D01*
X10697826Y-14730134D02*
X10640683Y-14730134D01*
X10640683Y-14730134D02*
X10621636Y-14720610D01*
X10621636Y-14720610D02*
X10612112Y-14711086D01*
X10831159Y-14730134D02*
X10869255Y-14730134D01*
X10869255Y-14730134D02*
X10888302Y-14720610D01*
X10888302Y-14720610D02*
X10897826Y-14711086D01*
X10897826Y-14711086D02*
X10916874Y-14682515D01*
X10916874Y-14682515D02*
X10926398Y-14644419D01*
X10926398Y-14644419D02*
X10926398Y-14568229D01*
X10926398Y-14568229D02*
X10916874Y-14549181D01*
X10916874Y-14549181D02*
X10907350Y-14539658D01*
X10907350Y-14539658D02*
X10888302Y-14530134D01*
X10888302Y-14530134D02*
X10850207Y-14530134D01*
X10850207Y-14530134D02*
X10831159Y-14539658D01*
X10831159Y-14539658D02*
X10821636Y-14549181D01*
X10821636Y-14549181D02*
X10812112Y-14568229D01*
X10812112Y-14568229D02*
X10812112Y-14615848D01*
X10812112Y-14615848D02*
X10821636Y-14634896D01*
X10821636Y-14634896D02*
X10831159Y-14644419D01*
X10831159Y-14644419D02*
X10850207Y-14653943D01*
X10850207Y-14653943D02*
X10888302Y-14653943D01*
X10888302Y-14653943D02*
X10907350Y-14644419D01*
X10907350Y-14644419D02*
X10916874Y-14634896D01*
X10916874Y-14634896D02*
X10926398Y-14615848D01*
X11097826Y-14596800D02*
X11097826Y-14730134D01*
X11050207Y-14520610D02*
X11002588Y-14663467D01*
X11002588Y-14663467D02*
X11126398Y-14663467D01*
X11193064Y-14530134D02*
X11193064Y-14568229D01*
X11269255Y-14530134D02*
X11269255Y-14568229D01*
X11564493Y-14806324D02*
X11554969Y-14796800D01*
X11554969Y-14796800D02*
X11535921Y-14768229D01*
X11535921Y-14768229D02*
X11526398Y-14749181D01*
X11526398Y-14749181D02*
X11516874Y-14720610D01*
X11516874Y-14720610D02*
X11507350Y-14672991D01*
X11507350Y-14672991D02*
X11507350Y-14634896D01*
X11507350Y-14634896D02*
X11516874Y-14587277D01*
X11516874Y-14587277D02*
X11526398Y-14558705D01*
X11526398Y-14558705D02*
X11535921Y-14539658D01*
X11535921Y-14539658D02*
X11554969Y-14511086D01*
X11554969Y-14511086D02*
X11564493Y-14501562D01*
X11621636Y-14530134D02*
X11754969Y-14530134D01*
X11754969Y-14530134D02*
X11669255Y-14730134D01*
X11983540Y-14730134D02*
X11983540Y-14530134D01*
X12069255Y-14730134D02*
X12069255Y-14625372D01*
X12069255Y-14625372D02*
X12059731Y-14606324D01*
X12059731Y-14606324D02*
X12040683Y-14596800D01*
X12040683Y-14596800D02*
X12012112Y-14596800D01*
X12012112Y-14596800D02*
X11993064Y-14606324D01*
X11993064Y-14606324D02*
X11983540Y-14615848D01*
X12193064Y-14730134D02*
X12174017Y-14720610D01*
X12174017Y-14720610D02*
X12164493Y-14711086D01*
X12164493Y-14711086D02*
X12154969Y-14692038D01*
X12154969Y-14692038D02*
X12154969Y-14634896D01*
X12154969Y-14634896D02*
X12164493Y-14615848D01*
X12164493Y-14615848D02*
X12174017Y-14606324D01*
X12174017Y-14606324D02*
X12193064Y-14596800D01*
X12193064Y-14596800D02*
X12221636Y-14596800D01*
X12221636Y-14596800D02*
X12240683Y-14606324D01*
X12240683Y-14606324D02*
X12250207Y-14615848D01*
X12250207Y-14615848D02*
X12259731Y-14634896D01*
X12259731Y-14634896D02*
X12259731Y-14692038D01*
X12259731Y-14692038D02*
X12250207Y-14711086D01*
X12250207Y-14711086D02*
X12240683Y-14720610D01*
X12240683Y-14720610D02*
X12221636Y-14730134D01*
X12221636Y-14730134D02*
X12193064Y-14730134D01*
X12374017Y-14730134D02*
X12354969Y-14720610D01*
X12354969Y-14720610D02*
X12345445Y-14701562D01*
X12345445Y-14701562D02*
X12345445Y-14530134D01*
X12526398Y-14720610D02*
X12507350Y-14730134D01*
X12507350Y-14730134D02*
X12469255Y-14730134D01*
X12469255Y-14730134D02*
X12450207Y-14720610D01*
X12450207Y-14720610D02*
X12440683Y-14701562D01*
X12440683Y-14701562D02*
X12440683Y-14625372D01*
X12440683Y-14625372D02*
X12450207Y-14606324D01*
X12450207Y-14606324D02*
X12469255Y-14596800D01*
X12469255Y-14596800D02*
X12507350Y-14596800D01*
X12507350Y-14596800D02*
X12526398Y-14606324D01*
X12526398Y-14606324D02*
X12535921Y-14625372D01*
X12535921Y-14625372D02*
X12535921Y-14644419D01*
X12535921Y-14644419D02*
X12440683Y-14663467D01*
X12612112Y-14720610D02*
X12631160Y-14730134D01*
X12631160Y-14730134D02*
X12669255Y-14730134D01*
X12669255Y-14730134D02*
X12688302Y-14720610D01*
X12688302Y-14720610D02*
X12697826Y-14701562D01*
X12697826Y-14701562D02*
X12697826Y-14692038D01*
X12697826Y-14692038D02*
X12688302Y-14672991D01*
X12688302Y-14672991D02*
X12669255Y-14663467D01*
X12669255Y-14663467D02*
X12640683Y-14663467D01*
X12640683Y-14663467D02*
X12621636Y-14653943D01*
X12621636Y-14653943D02*
X12612112Y-14634896D01*
X12612112Y-14634896D02*
X12612112Y-14625372D01*
X12612112Y-14625372D02*
X12621636Y-14606324D01*
X12621636Y-14606324D02*
X12640683Y-14596800D01*
X12640683Y-14596800D02*
X12669255Y-14596800D01*
X12669255Y-14596800D02*
X12688302Y-14606324D01*
X12764493Y-14806324D02*
X12774017Y-14796800D01*
X12774017Y-14796800D02*
X12793064Y-14768229D01*
X12793064Y-14768229D02*
X12802588Y-14749181D01*
X12802588Y-14749181D02*
X12812112Y-14720610D01*
X12812112Y-14720610D02*
X12821636Y-14672991D01*
X12821636Y-14672991D02*
X12821636Y-14634896D01*
X12821636Y-14634896D02*
X12812112Y-14587277D01*
X12812112Y-14587277D02*
X12802588Y-14558705D01*
X12802588Y-14558705D02*
X12793064Y-14539658D01*
X12793064Y-14539658D02*
X12774017Y-14511086D01*
X12774017Y-14511086D02*
X12764493Y-14501562D01*
D10*
X7924430Y-14870150D02*
X7989430Y-14935150D01*
X7989430Y-14870150D02*
X7924430Y-14935150D01*
X7989430Y-14902650D02*
G75*
G02*
X7924430Y-14902650I-32500J0D01*
G01*
X7924430Y-14902650D02*
G75*
G02*
X7989430Y-14902650I32500J0D01*
G01*
D12*
X8288302Y-14794134D02*
X8307350Y-14794134D01*
X8307350Y-14794134D02*
X8326397Y-14803658D01*
X8326397Y-14803658D02*
X8335921Y-14813181D01*
X8335921Y-14813181D02*
X8345445Y-14832229D01*
X8345445Y-14832229D02*
X8354969Y-14870324D01*
X8354969Y-14870324D02*
X8354969Y-14917943D01*
X8354969Y-14917943D02*
X8345445Y-14956038D01*
X8345445Y-14956038D02*
X8335921Y-14975086D01*
X8335921Y-14975086D02*
X8326397Y-14984610D01*
X8326397Y-14984610D02*
X8307350Y-14994134D01*
X8307350Y-14994134D02*
X8288302Y-14994134D01*
X8288302Y-14994134D02*
X8269254Y-14984610D01*
X8269254Y-14984610D02*
X8259731Y-14975086D01*
X8259731Y-14975086D02*
X8250207Y-14956038D01*
X8250207Y-14956038D02*
X8240683Y-14917943D01*
X8240683Y-14917943D02*
X8240683Y-14870324D01*
X8240683Y-14870324D02*
X8250207Y-14832229D01*
X8250207Y-14832229D02*
X8259731Y-14813181D01*
X8259731Y-14813181D02*
X8269254Y-14803658D01*
X8269254Y-14803658D02*
X8288302Y-14794134D01*
X8440683Y-14975086D02*
X8450207Y-14984610D01*
X8450207Y-14984610D02*
X8440683Y-14994134D01*
X8440683Y-14994134D02*
X8431159Y-14984610D01*
X8431159Y-14984610D02*
X8440683Y-14975086D01*
X8440683Y-14975086D02*
X8440683Y-14994134D01*
X8621635Y-14794134D02*
X8583540Y-14794134D01*
X8583540Y-14794134D02*
X8564493Y-14803658D01*
X8564493Y-14803658D02*
X8554969Y-14813181D01*
X8554969Y-14813181D02*
X8535921Y-14841753D01*
X8535921Y-14841753D02*
X8526397Y-14879848D01*
X8526397Y-14879848D02*
X8526397Y-14956038D01*
X8526397Y-14956038D02*
X8535921Y-14975086D01*
X8535921Y-14975086D02*
X8545445Y-14984610D01*
X8545445Y-14984610D02*
X8564493Y-14994134D01*
X8564493Y-14994134D02*
X8602588Y-14994134D01*
X8602588Y-14994134D02*
X8621635Y-14984610D01*
X8621635Y-14984610D02*
X8631159Y-14975086D01*
X8631159Y-14975086D02*
X8640683Y-14956038D01*
X8640683Y-14956038D02*
X8640683Y-14908419D01*
X8640683Y-14908419D02*
X8631159Y-14889372D01*
X8631159Y-14889372D02*
X8621635Y-14879848D01*
X8621635Y-14879848D02*
X8602588Y-14870324D01*
X8602588Y-14870324D02*
X8564493Y-14870324D01*
X8564493Y-14870324D02*
X8545445Y-14879848D01*
X8545445Y-14879848D02*
X8535921Y-14889372D01*
X8535921Y-14889372D02*
X8526397Y-14908419D01*
X8821635Y-14794134D02*
X8726397Y-14794134D01*
X8726397Y-14794134D02*
X8716874Y-14889372D01*
X8716874Y-14889372D02*
X8726397Y-14879848D01*
X8726397Y-14879848D02*
X8745445Y-14870324D01*
X8745445Y-14870324D02*
X8793064Y-14870324D01*
X8793064Y-14870324D02*
X8812112Y-14879848D01*
X8812112Y-14879848D02*
X8821635Y-14889372D01*
X8821635Y-14889372D02*
X8831159Y-14908419D01*
X8831159Y-14908419D02*
X8831159Y-14956038D01*
X8831159Y-14956038D02*
X8821635Y-14975086D01*
X8821635Y-14975086D02*
X8812112Y-14984610D01*
X8812112Y-14984610D02*
X8793064Y-14994134D01*
X8793064Y-14994134D02*
X8745445Y-14994134D01*
X8745445Y-14994134D02*
X8726397Y-14984610D01*
X8726397Y-14984610D02*
X8716874Y-14975086D01*
X8954969Y-14794134D02*
X8974016Y-14794134D01*
X8974016Y-14794134D02*
X8993064Y-14803658D01*
X8993064Y-14803658D02*
X9002588Y-14813181D01*
X9002588Y-14813181D02*
X9012112Y-14832229D01*
X9012112Y-14832229D02*
X9021635Y-14870324D01*
X9021635Y-14870324D02*
X9021635Y-14917943D01*
X9021635Y-14917943D02*
X9012112Y-14956038D01*
X9012112Y-14956038D02*
X9002588Y-14975086D01*
X9002588Y-14975086D02*
X8993064Y-14984610D01*
X8993064Y-14984610D02*
X8974016Y-14994134D01*
X8974016Y-14994134D02*
X8954969Y-14994134D01*
X8954969Y-14994134D02*
X8935921Y-14984610D01*
X8935921Y-14984610D02*
X8926397Y-14975086D01*
X8926397Y-14975086D02*
X8916874Y-14956038D01*
X8916874Y-14956038D02*
X8907350Y-14917943D01*
X8907350Y-14917943D02*
X8907350Y-14870324D01*
X8907350Y-14870324D02*
X8916874Y-14832229D01*
X8916874Y-14832229D02*
X8926397Y-14813181D01*
X8926397Y-14813181D02*
X8935921Y-14803658D01*
X8935921Y-14803658D02*
X8954969Y-14794134D01*
X9107350Y-14994134D02*
X9107350Y-14860800D01*
X9107350Y-14879848D02*
X9116874Y-14870324D01*
X9116874Y-14870324D02*
X9135921Y-14860800D01*
X9135921Y-14860800D02*
X9164493Y-14860800D01*
X9164493Y-14860800D02*
X9183540Y-14870324D01*
X9183540Y-14870324D02*
X9193064Y-14889372D01*
X9193064Y-14889372D02*
X9193064Y-14994134D01*
X9193064Y-14889372D02*
X9202588Y-14870324D01*
X9202588Y-14870324D02*
X9221635Y-14860800D01*
X9221635Y-14860800D02*
X9250207Y-14860800D01*
X9250207Y-14860800D02*
X9269255Y-14870324D01*
X9269255Y-14870324D02*
X9278778Y-14889372D01*
X9278778Y-14889372D02*
X9278778Y-14994134D01*
X9374016Y-14994134D02*
X9374016Y-14860800D01*
X9374016Y-14879848D02*
X9383540Y-14870324D01*
X9383540Y-14870324D02*
X9402588Y-14860800D01*
X9402588Y-14860800D02*
X9431159Y-14860800D01*
X9431159Y-14860800D02*
X9450207Y-14870324D01*
X9450207Y-14870324D02*
X9459731Y-14889372D01*
X9459731Y-14889372D02*
X9459731Y-14994134D01*
X9459731Y-14889372D02*
X9469255Y-14870324D01*
X9469255Y-14870324D02*
X9488302Y-14860800D01*
X9488302Y-14860800D02*
X9516874Y-14860800D01*
X9516874Y-14860800D02*
X9535921Y-14870324D01*
X9535921Y-14870324D02*
X9545445Y-14889372D01*
X9545445Y-14889372D02*
X9545445Y-14994134D01*
X9935921Y-14784610D02*
X9764493Y-15041753D01*
X10193064Y-14794134D02*
X10212112Y-14794134D01*
X10212112Y-14794134D02*
X10231159Y-14803658D01*
X10231159Y-14803658D02*
X10240683Y-14813181D01*
X10240683Y-14813181D02*
X10250207Y-14832229D01*
X10250207Y-14832229D02*
X10259731Y-14870324D01*
X10259731Y-14870324D02*
X10259731Y-14917943D01*
X10259731Y-14917943D02*
X10250207Y-14956038D01*
X10250207Y-14956038D02*
X10240683Y-14975086D01*
X10240683Y-14975086D02*
X10231159Y-14984610D01*
X10231159Y-14984610D02*
X10212112Y-14994134D01*
X10212112Y-14994134D02*
X10193064Y-14994134D01*
X10193064Y-14994134D02*
X10174017Y-14984610D01*
X10174017Y-14984610D02*
X10164493Y-14975086D01*
X10164493Y-14975086D02*
X10154969Y-14956038D01*
X10154969Y-14956038D02*
X10145445Y-14917943D01*
X10145445Y-14917943D02*
X10145445Y-14870324D01*
X10145445Y-14870324D02*
X10154969Y-14832229D01*
X10154969Y-14832229D02*
X10164493Y-14813181D01*
X10164493Y-14813181D02*
X10174017Y-14803658D01*
X10174017Y-14803658D02*
X10193064Y-14794134D01*
X10345445Y-14975086D02*
X10354969Y-14984610D01*
X10354969Y-14984610D02*
X10345445Y-14994134D01*
X10345445Y-14994134D02*
X10335921Y-14984610D01*
X10335921Y-14984610D02*
X10345445Y-14975086D01*
X10345445Y-14975086D02*
X10345445Y-14994134D01*
X10478778Y-14794134D02*
X10497826Y-14794134D01*
X10497826Y-14794134D02*
X10516874Y-14803658D01*
X10516874Y-14803658D02*
X10526398Y-14813181D01*
X10526398Y-14813181D02*
X10535921Y-14832229D01*
X10535921Y-14832229D02*
X10545445Y-14870324D01*
X10545445Y-14870324D02*
X10545445Y-14917943D01*
X10545445Y-14917943D02*
X10535921Y-14956038D01*
X10535921Y-14956038D02*
X10526398Y-14975086D01*
X10526398Y-14975086D02*
X10516874Y-14984610D01*
X10516874Y-14984610D02*
X10497826Y-14994134D01*
X10497826Y-14994134D02*
X10478778Y-14994134D01*
X10478778Y-14994134D02*
X10459731Y-14984610D01*
X10459731Y-14984610D02*
X10450207Y-14975086D01*
X10450207Y-14975086D02*
X10440683Y-14956038D01*
X10440683Y-14956038D02*
X10431159Y-14917943D01*
X10431159Y-14917943D02*
X10431159Y-14870324D01*
X10431159Y-14870324D02*
X10440683Y-14832229D01*
X10440683Y-14832229D02*
X10450207Y-14813181D01*
X10450207Y-14813181D02*
X10459731Y-14803658D01*
X10459731Y-14803658D02*
X10478778Y-14794134D01*
X10621636Y-14813181D02*
X10631159Y-14803658D01*
X10631159Y-14803658D02*
X10650207Y-14794134D01*
X10650207Y-14794134D02*
X10697826Y-14794134D01*
X10697826Y-14794134D02*
X10716874Y-14803658D01*
X10716874Y-14803658D02*
X10726398Y-14813181D01*
X10726398Y-14813181D02*
X10735921Y-14832229D01*
X10735921Y-14832229D02*
X10735921Y-14851277D01*
X10735921Y-14851277D02*
X10726398Y-14879848D01*
X10726398Y-14879848D02*
X10612112Y-14994134D01*
X10612112Y-14994134D02*
X10735921Y-14994134D01*
X10916874Y-14794134D02*
X10821636Y-14794134D01*
X10821636Y-14794134D02*
X10812112Y-14889372D01*
X10812112Y-14889372D02*
X10821636Y-14879848D01*
X10821636Y-14879848D02*
X10840683Y-14870324D01*
X10840683Y-14870324D02*
X10888302Y-14870324D01*
X10888302Y-14870324D02*
X10907350Y-14879848D01*
X10907350Y-14879848D02*
X10916874Y-14889372D01*
X10916874Y-14889372D02*
X10926398Y-14908419D01*
X10926398Y-14908419D02*
X10926398Y-14956038D01*
X10926398Y-14956038D02*
X10916874Y-14975086D01*
X10916874Y-14975086D02*
X10907350Y-14984610D01*
X10907350Y-14984610D02*
X10888302Y-14994134D01*
X10888302Y-14994134D02*
X10840683Y-14994134D01*
X10840683Y-14994134D02*
X10821636Y-14984610D01*
X10821636Y-14984610D02*
X10812112Y-14975086D01*
X11097826Y-14794134D02*
X11059731Y-14794134D01*
X11059731Y-14794134D02*
X11040683Y-14803658D01*
X11040683Y-14803658D02*
X11031159Y-14813181D01*
X11031159Y-14813181D02*
X11012112Y-14841753D01*
X11012112Y-14841753D02*
X11002588Y-14879848D01*
X11002588Y-14879848D02*
X11002588Y-14956038D01*
X11002588Y-14956038D02*
X11012112Y-14975086D01*
X11012112Y-14975086D02*
X11021636Y-14984610D01*
X11021636Y-14984610D02*
X11040683Y-14994134D01*
X11040683Y-14994134D02*
X11078779Y-14994134D01*
X11078779Y-14994134D02*
X11097826Y-14984610D01*
X11097826Y-14984610D02*
X11107350Y-14975086D01*
X11107350Y-14975086D02*
X11116874Y-14956038D01*
X11116874Y-14956038D02*
X11116874Y-14908419D01*
X11116874Y-14908419D02*
X11107350Y-14889372D01*
X11107350Y-14889372D02*
X11097826Y-14879848D01*
X11097826Y-14879848D02*
X11078779Y-14870324D01*
X11078779Y-14870324D02*
X11040683Y-14870324D01*
X11040683Y-14870324D02*
X11021636Y-14879848D01*
X11021636Y-14879848D02*
X11012112Y-14889372D01*
X11012112Y-14889372D02*
X11002588Y-14908419D01*
X11193064Y-14794134D02*
X11193064Y-14832229D01*
X11269255Y-14794134D02*
X11269255Y-14832229D01*
X11564493Y-15070324D02*
X11554969Y-15060800D01*
X11554969Y-15060800D02*
X11535921Y-15032229D01*
X11535921Y-15032229D02*
X11526398Y-15013181D01*
X11526398Y-15013181D02*
X11516874Y-14984610D01*
X11516874Y-14984610D02*
X11507350Y-14936991D01*
X11507350Y-14936991D02*
X11507350Y-14898896D01*
X11507350Y-14898896D02*
X11516874Y-14851277D01*
X11516874Y-14851277D02*
X11526398Y-14822705D01*
X11526398Y-14822705D02*
X11535921Y-14803658D01*
X11535921Y-14803658D02*
X11554969Y-14775086D01*
X11554969Y-14775086D02*
X11564493Y-14765562D01*
X11631159Y-14813181D02*
X11640683Y-14803658D01*
X11640683Y-14803658D02*
X11659731Y-14794134D01*
X11659731Y-14794134D02*
X11707350Y-14794134D01*
X11707350Y-14794134D02*
X11726398Y-14803658D01*
X11726398Y-14803658D02*
X11735921Y-14813181D01*
X11735921Y-14813181D02*
X11745445Y-14832229D01*
X11745445Y-14832229D02*
X11745445Y-14851277D01*
X11745445Y-14851277D02*
X11735921Y-14879848D01*
X11735921Y-14879848D02*
X11621636Y-14994134D01*
X11621636Y-14994134D02*
X11745445Y-14994134D01*
X11983540Y-14994134D02*
X11983540Y-14794134D01*
X12069255Y-14994134D02*
X12069255Y-14889372D01*
X12069255Y-14889372D02*
X12059731Y-14870324D01*
X12059731Y-14870324D02*
X12040683Y-14860800D01*
X12040683Y-14860800D02*
X12012112Y-14860800D01*
X12012112Y-14860800D02*
X11993064Y-14870324D01*
X11993064Y-14870324D02*
X11983540Y-14879848D01*
X12193064Y-14994134D02*
X12174017Y-14984610D01*
X12174017Y-14984610D02*
X12164493Y-14975086D01*
X12164493Y-14975086D02*
X12154969Y-14956038D01*
X12154969Y-14956038D02*
X12154969Y-14898896D01*
X12154969Y-14898896D02*
X12164493Y-14879848D01*
X12164493Y-14879848D02*
X12174017Y-14870324D01*
X12174017Y-14870324D02*
X12193064Y-14860800D01*
X12193064Y-14860800D02*
X12221636Y-14860800D01*
X12221636Y-14860800D02*
X12240683Y-14870324D01*
X12240683Y-14870324D02*
X12250207Y-14879848D01*
X12250207Y-14879848D02*
X12259731Y-14898896D01*
X12259731Y-14898896D02*
X12259731Y-14956038D01*
X12259731Y-14956038D02*
X12250207Y-14975086D01*
X12250207Y-14975086D02*
X12240683Y-14984610D01*
X12240683Y-14984610D02*
X12221636Y-14994134D01*
X12221636Y-14994134D02*
X12193064Y-14994134D01*
X12374017Y-14994134D02*
X12354969Y-14984610D01*
X12354969Y-14984610D02*
X12345445Y-14965562D01*
X12345445Y-14965562D02*
X12345445Y-14794134D01*
X12526398Y-14984610D02*
X12507350Y-14994134D01*
X12507350Y-14994134D02*
X12469255Y-14994134D01*
X12469255Y-14994134D02*
X12450207Y-14984610D01*
X12450207Y-14984610D02*
X12440683Y-14965562D01*
X12440683Y-14965562D02*
X12440683Y-14889372D01*
X12440683Y-14889372D02*
X12450207Y-14870324D01*
X12450207Y-14870324D02*
X12469255Y-14860800D01*
X12469255Y-14860800D02*
X12507350Y-14860800D01*
X12507350Y-14860800D02*
X12526398Y-14870324D01*
X12526398Y-14870324D02*
X12535921Y-14889372D01*
X12535921Y-14889372D02*
X12535921Y-14908419D01*
X12535921Y-14908419D02*
X12440683Y-14927467D01*
X12612112Y-14984610D02*
X12631160Y-14994134D01*
X12631160Y-14994134D02*
X12669255Y-14994134D01*
X12669255Y-14994134D02*
X12688302Y-14984610D01*
X12688302Y-14984610D02*
X12697826Y-14965562D01*
X12697826Y-14965562D02*
X12697826Y-14956038D01*
X12697826Y-14956038D02*
X12688302Y-14936991D01*
X12688302Y-14936991D02*
X12669255Y-14927467D01*
X12669255Y-14927467D02*
X12640683Y-14927467D01*
X12640683Y-14927467D02*
X12621636Y-14917943D01*
X12621636Y-14917943D02*
X12612112Y-14898896D01*
X12612112Y-14898896D02*
X12612112Y-14889372D01*
X12612112Y-14889372D02*
X12621636Y-14870324D01*
X12621636Y-14870324D02*
X12640683Y-14860800D01*
X12640683Y-14860800D02*
X12669255Y-14860800D01*
X12669255Y-14860800D02*
X12688302Y-14870324D01*
X12764493Y-15070324D02*
X12774017Y-15060800D01*
X12774017Y-15060800D02*
X12793064Y-15032229D01*
X12793064Y-15032229D02*
X12802588Y-15013181D01*
X12802588Y-15013181D02*
X12812112Y-14984610D01*
X12812112Y-14984610D02*
X12821636Y-14936991D01*
X12821636Y-14936991D02*
X12821636Y-14898896D01*
X12821636Y-14898896D02*
X12812112Y-14851277D01*
X12812112Y-14851277D02*
X12802588Y-14822705D01*
X12802588Y-14822705D02*
X12793064Y-14803658D01*
X12793064Y-14803658D02*
X12774017Y-14775086D01*
X12774017Y-14775086D02*
X12764493Y-14765562D01*
X13126398Y-15070324D02*
X13116874Y-15060800D01*
X13116874Y-15060800D02*
X13097826Y-15032229D01*
X13097826Y-15032229D02*
X13088302Y-15013181D01*
X13088302Y-15013181D02*
X13078779Y-14984610D01*
X13078779Y-14984610D02*
X13069255Y-14936991D01*
X13069255Y-14936991D02*
X13069255Y-14898896D01*
X13069255Y-14898896D02*
X13078779Y-14851277D01*
X13078779Y-14851277D02*
X13088302Y-14822705D01*
X13088302Y-14822705D02*
X13097826Y-14803658D01*
X13097826Y-14803658D02*
X13116874Y-14775086D01*
X13116874Y-14775086D02*
X13126398Y-14765562D01*
X13202588Y-14860800D02*
X13202588Y-14994134D01*
X13202588Y-14879848D02*
X13212112Y-14870324D01*
X13212112Y-14870324D02*
X13231160Y-14860800D01*
X13231160Y-14860800D02*
X13259731Y-14860800D01*
X13259731Y-14860800D02*
X13278779Y-14870324D01*
X13278779Y-14870324D02*
X13288302Y-14889372D01*
X13288302Y-14889372D02*
X13288302Y-14994134D01*
X13412112Y-14994134D02*
X13393064Y-14984610D01*
X13393064Y-14984610D02*
X13383541Y-14975086D01*
X13383541Y-14975086D02*
X13374017Y-14956038D01*
X13374017Y-14956038D02*
X13374017Y-14898896D01*
X13374017Y-14898896D02*
X13383541Y-14879848D01*
X13383541Y-14879848D02*
X13393064Y-14870324D01*
X13393064Y-14870324D02*
X13412112Y-14860800D01*
X13412112Y-14860800D02*
X13440683Y-14860800D01*
X13440683Y-14860800D02*
X13459731Y-14870324D01*
X13459731Y-14870324D02*
X13469255Y-14879848D01*
X13469255Y-14879848D02*
X13478779Y-14898896D01*
X13478779Y-14898896D02*
X13478779Y-14956038D01*
X13478779Y-14956038D02*
X13469255Y-14975086D01*
X13469255Y-14975086D02*
X13459731Y-14984610D01*
X13459731Y-14984610D02*
X13440683Y-14994134D01*
X13440683Y-14994134D02*
X13412112Y-14994134D01*
X13535922Y-14860800D02*
X13612112Y-14860800D01*
X13564493Y-14794134D02*
X13564493Y-14965562D01*
X13564493Y-14965562D02*
X13574017Y-14984610D01*
X13574017Y-14984610D02*
X13593064Y-14994134D01*
X13593064Y-14994134D02*
X13612112Y-14994134D01*
X13831160Y-14860800D02*
X13831160Y-15060800D01*
X13831160Y-14870324D02*
X13850207Y-14860800D01*
X13850207Y-14860800D02*
X13888303Y-14860800D01*
X13888303Y-14860800D02*
X13907350Y-14870324D01*
X13907350Y-14870324D02*
X13916874Y-14879848D01*
X13916874Y-14879848D02*
X13926398Y-14898896D01*
X13926398Y-14898896D02*
X13926398Y-14956038D01*
X13926398Y-14956038D02*
X13916874Y-14975086D01*
X13916874Y-14975086D02*
X13907350Y-14984610D01*
X13907350Y-14984610D02*
X13888303Y-14994134D01*
X13888303Y-14994134D02*
X13850207Y-14994134D01*
X13850207Y-14994134D02*
X13831160Y-14984610D01*
X14040683Y-14994134D02*
X14021636Y-14984610D01*
X14021636Y-14984610D02*
X14012112Y-14965562D01*
X14012112Y-14965562D02*
X14012112Y-14794134D01*
X14202588Y-14994134D02*
X14202588Y-14889372D01*
X14202588Y-14889372D02*
X14193064Y-14870324D01*
X14193064Y-14870324D02*
X14174017Y-14860800D01*
X14174017Y-14860800D02*
X14135922Y-14860800D01*
X14135922Y-14860800D02*
X14116874Y-14870324D01*
X14202588Y-14984610D02*
X14183541Y-14994134D01*
X14183541Y-14994134D02*
X14135922Y-14994134D01*
X14135922Y-14994134D02*
X14116874Y-14984610D01*
X14116874Y-14984610D02*
X14107350Y-14965562D01*
X14107350Y-14965562D02*
X14107350Y-14946515D01*
X14107350Y-14946515D02*
X14116874Y-14927467D01*
X14116874Y-14927467D02*
X14135922Y-14917943D01*
X14135922Y-14917943D02*
X14183541Y-14917943D01*
X14183541Y-14917943D02*
X14202588Y-14908419D01*
X14269255Y-14860800D02*
X14345445Y-14860800D01*
X14297826Y-14794134D02*
X14297826Y-14965562D01*
X14297826Y-14965562D02*
X14307350Y-14984610D01*
X14307350Y-14984610D02*
X14326398Y-14994134D01*
X14326398Y-14994134D02*
X14345445Y-14994134D01*
X14488303Y-14984610D02*
X14469255Y-14994134D01*
X14469255Y-14994134D02*
X14431160Y-14994134D01*
X14431160Y-14994134D02*
X14412112Y-14984610D01*
X14412112Y-14984610D02*
X14402588Y-14965562D01*
X14402588Y-14965562D02*
X14402588Y-14889372D01*
X14402588Y-14889372D02*
X14412112Y-14870324D01*
X14412112Y-14870324D02*
X14431160Y-14860800D01*
X14431160Y-14860800D02*
X14469255Y-14860800D01*
X14469255Y-14860800D02*
X14488303Y-14870324D01*
X14488303Y-14870324D02*
X14497826Y-14889372D01*
X14497826Y-14889372D02*
X14497826Y-14908419D01*
X14497826Y-14908419D02*
X14402588Y-14927467D01*
X14669255Y-14994134D02*
X14669255Y-14794134D01*
X14669255Y-14984610D02*
X14650207Y-14994134D01*
X14650207Y-14994134D02*
X14612112Y-14994134D01*
X14612112Y-14994134D02*
X14593064Y-14984610D01*
X14593064Y-14984610D02*
X14583541Y-14975086D01*
X14583541Y-14975086D02*
X14574017Y-14956038D01*
X14574017Y-14956038D02*
X14574017Y-14898896D01*
X14574017Y-14898896D02*
X14583541Y-14879848D01*
X14583541Y-14879848D02*
X14593064Y-14870324D01*
X14593064Y-14870324D02*
X14612112Y-14860800D01*
X14612112Y-14860800D02*
X14650207Y-14860800D01*
X14650207Y-14860800D02*
X14669255Y-14870324D01*
X14745445Y-15070324D02*
X14754969Y-15060800D01*
X14754969Y-15060800D02*
X14774017Y-15032229D01*
X14774017Y-15032229D02*
X14783541Y-15013181D01*
X14783541Y-15013181D02*
X14793064Y-14984610D01*
X14793064Y-14984610D02*
X14802588Y-14936991D01*
X14802588Y-14936991D02*
X14802588Y-14898896D01*
X14802588Y-14898896D02*
X14793064Y-14851277D01*
X14793064Y-14851277D02*
X14783541Y-14822705D01*
X14783541Y-14822705D02*
X14774017Y-14803658D01*
X14774017Y-14803658D02*
X14754969Y-14775086D01*
X14754969Y-14775086D02*
X14745445Y-14765562D01*
M02*
