%TF.GenerationSoftware,KiCad,Pcbnew,10.0.6*%
%TF.CreationDate,2026-09-14T15:06:10+02:00*%
%TF.ProjectId,clotty,636c6f74-7479-42e6-9b69-6361645f7063,rev?*%
%TF.SameCoordinates,Original*%
%TF.FileFunction,Legend,Bot*%
%TF.FilePolarity,Positive*%
%FSLAX46Y46*%
G04 Gerber Fmt 4.6, Leading zero omitted, Abs format (unit mm)*
G04 Created by KiCad (PCBNEW 10.0.6) date 2026-09-14 15:06:10*
%MOMM*%
%LPD*%
G01*
G04 APERTURE LIST*
G04 Aperture macros list*
%AMRoundRect*
0 Rectangle with rounded corners*
0 $1 Rounding radius*
0 $2 $3 $4 $5 $6 $7 $8 $9 X,Y pos of 4 corners*
0 Add a 4 corners polygon primitive as box body*
4,1,4,$2,$3,$4,$5,$6,$7,$8,$9,$2,$3,0*
0 Add four circle primitives for the rounded corners*
1,1,$1+$1,$2,$3*
1,1,$1+$1,$4,$5*
1,1,$1+$1,$6,$7*
1,1,$1+$1,$8,$9*
0 Add four rect primitives between the rounded corners*
20,1,$1+$1,$2,$3,$4,$5,0*
20,1,$1+$1,$4,$5,$6,$7,0*
20,1,$1+$1,$6,$7,$8,$9,0*
20,1,$1+$1,$8,$9,$2,$3,0*%
%AMHorizOval*
0 Thick line with rounded ends*
0 $1 width*
0 $2 $3 position (X,Y) of the first rounded end (center of the circle)*
0 $4 $5 position (X,Y) of the second rounded end (center of the circle)*
0 Add line between two ends*
20,1,$1,$2,$3,$4,$5,0*
0 Add two circle primitives to create the rounded ends*
1,1,$1,$2,$3*
1,1,$1,$4,$5*%
%AMRotRect*
0 Rectangle, with rotation*
0 The origin of the aperture is its center*
0 $1 length*
0 $2 width*
0 $3 Rotation angle, in degrees counterclockwise*
0 Add horizontal line*
21,1,$1,$2,0,0,$3*%
G04 Aperture macros list end*
%ADD10C,0.200000*%
%ADD11C,0.150000*%
%ADD12C,0.152500*%
%ADD13C,0.120000*%
%ADD14C,0.254000*%
%ADD15C,0.100000*%
%ADD16C,0.405000*%
%ADD17C,0.152000*%
%ADD18C,0.000000*%
%ADD19C,0.300000*%
%ADD20C,0.250000*%
%ADD21C,0.240000*%
%ADD22C,0.101500*%
%ADD23C,0.203000*%
%ADD24C,0.010000*%
%ADD25R,1.700000X1.700000*%
%ADD26C,1.700000*%
%ADD27RotRect,1.070000X0.600000X215.000000*%
%ADD28RoundRect,0.162500X-0.650000X-0.162500X0.650000X-0.162500X0.650000X0.162500X-0.650000X0.162500X0*%
%ADD29R,1.200000X1.400000*%
%ADD30RoundRect,0.200000X0.275000X-0.200000X0.275000X0.200000X-0.275000X0.200000X-0.275000X-0.200000X0*%
%ADD31RoundRect,0.200000X-0.200000X-0.275000X0.200000X-0.275000X0.200000X0.275000X-0.200000X0.275000X0*%
%ADD32RotRect,1.000000X3.800000X125.000000*%
%ADD33RotRect,1.500000X3.400000X125.000000*%
%ADD34R,1.000000X0.650000*%
%ADD35RoundRect,0.225000X-0.250000X0.225000X-0.250000X-0.225000X0.250000X-0.225000X0.250000X0.225000X0*%
%ADD36R,0.500000X0.800000*%
%ADD37RoundRect,0.225000X-0.225000X-0.250000X0.225000X-0.250000X0.225000X0.250000X-0.225000X0.250000X0*%
%ADD38RoundRect,0.225000X0.075733X-0.327703X0.333843X0.040915X-0.075733X0.327703X-0.333843X-0.040915X0*%
%ADD39R,2.600000X3.600000*%
%ADD40RoundRect,0.250000X-0.475000X0.250000X-0.475000X-0.250000X0.475000X-0.250000X0.475000X0.250000X0*%
%ADD41R,0.700000X1.250000*%
%ADD42RotRect,1.500000X1.500000X230.000000*%
%ADD43R,0.280000X0.665000*%
%ADD44R,2.000000X1.200000*%
%ADD45RoundRect,0.225000X0.250000X-0.225000X0.250000X0.225000X-0.250000X0.225000X-0.250000X-0.225000X0*%
%ADD46C,0.650000*%
%ADD47RoundRect,0.150000X0.150000X0.425000X-0.150000X0.425000X-0.150000X-0.425000X0.150000X-0.425000X0*%
%ADD48RoundRect,0.075000X0.075000X0.500000X-0.075000X0.500000X-0.075000X-0.500000X0.075000X-0.500000X0*%
%ADD49O,1.000000X1.800000*%
%ADD50O,1.000000X2.100000*%
%ADD51RoundRect,0.200000X0.200000X0.275000X-0.200000X0.275000X-0.200000X-0.275000X0.200000X-0.275000X0*%
%ADD52RoundRect,0.200000X0.006097X0.339982X-0.321564X0.110552X-0.006097X-0.339982X0.321564X-0.110552X0*%
%ADD53R,2.400000X1.500000*%
%ADD54RoundRect,0.050000X-0.387500X-0.050000X0.387500X-0.050000X0.387500X0.050000X-0.387500X0.050000X0*%
%ADD55RoundRect,0.050000X-0.050000X-0.387500X0.050000X-0.387500X0.050000X0.387500X-0.050000X0.387500X0*%
%ADD56R,3.200000X3.200000*%
%ADD57R,0.864000X0.806500*%
%ADD58RoundRect,0.200000X-0.006097X-0.339982X0.321564X-0.110552X0.006097X0.339982X-0.321564X0.110552X0*%
%ADD59RoundRect,0.250000X0.475000X-0.250000X0.475000X0.250000X-0.475000X0.250000X-0.475000X-0.250000X0*%
%ADD60RoundRect,0.250000X0.496835X0.203174X0.113813X0.524568X-0.496835X-0.203174X-0.113813X-0.524568X0*%
%ADD61RoundRect,0.225000X0.225000X0.250000X-0.225000X0.250000X-0.225000X-0.250000X0.225000X-0.250000X0*%
%ADD62RoundRect,0.200000X-0.082105X0.329975X-0.339220X0.023558X0.082105X-0.329975X0.339220X-0.023558X0*%
%ADD63R,1.000000X1.000000*%
%ADD64R,1.300000X0.900000*%
%ADD65RoundRect,0.225000X0.327703X0.075733X-0.040915X0.333843X-0.327703X-0.075733X0.040915X-0.333843X0*%
%ADD66RoundRect,0.225000X0.046884X-0.333057X0.336138X0.011663X-0.046884X0.333057X-0.336138X-0.011663X0*%
%ADD67RoundRect,0.250000X-0.250000X-0.475000X0.250000X-0.475000X0.250000X0.475000X-0.250000X0.475000X0*%
%ADD68HorizOval,0.568500X0.396198X0.565829X-0.396198X-0.565829X0*%
%ADD69HorizOval,0.280000X-0.167125X-0.199172X0.167125X0.199172X0*%
%ADD70HorizOval,0.280000X-0.199172X0.167125X0.199172X-0.167125X0*%
%ADD71RoundRect,0.200000X-0.275000X0.200000X-0.275000X-0.200000X0.275000X-0.200000X0.275000X0.200000X0*%
%ADD72R,0.700000X1.500000*%
%ADD73R,1.000000X0.800000*%
%ADD74RoundRect,0.200000X0.321564X0.110552X-0.006097X0.339982X-0.321564X-0.110552X0.006097X-0.339982X0*%
%ADD75RotRect,1.000000X1.000000X235.000000*%
%ADD76RotRect,1.000000X1.100000X55.000000*%
%ADD77RotRect,2.000000X0.700000X55.000000*%
%ADD78RotRect,0.406000X1.397000X145.000000*%
%ADD79RoundRect,0.225000X0.040915X0.333843X-0.327703X0.075733X-0.040915X-0.333843X0.327703X-0.075733X0*%
%ADD80O,0.800000X0.280000*%
%ADD81O,0.280000X0.800000*%
%ADD82R,1.100000X1.000000*%
%ADD83R,0.700000X2.000000*%
%ADD84RoundRect,0.225000X-0.333057X-0.046884X0.011663X-0.336138X0.333057X0.046884X-0.011663X0.336138X0*%
%ADD85RotRect,1.500000X1.500000X235.000000*%
%ADD86RotRect,1.100000X0.800000X50.000000*%
%ADD87RotRect,1.100000X1.001000X50.000000*%
%ADD88R,0.300000X0.850000*%
G04 APERTURE END LIST*
D10*
G36*
X143733156Y-60120455D02*
G01*
X143853895Y-60151087D01*
X143979640Y-60204281D01*
X144095776Y-60275221D01*
X144196532Y-60362064D01*
X144283234Y-60465865D01*
X144350245Y-60582189D01*
X144389171Y-60699890D01*
X144402058Y-60821238D01*
X144389891Y-60942604D01*
X144354457Y-61050782D01*
X144295690Y-61148646D01*
X144206012Y-61242621D01*
X144102343Y-61315691D01*
X143982715Y-61369102D01*
X143844182Y-61402589D01*
X143683007Y-61414382D01*
X143553505Y-61402917D01*
X143435382Y-61369354D01*
X143326290Y-61313754D01*
X143232866Y-61237239D01*
X143167029Y-61145796D01*
X143126133Y-61036660D01*
X143123325Y-61000268D01*
X143129535Y-60972161D01*
X143148604Y-60948489D01*
X143177255Y-60933173D01*
X143218579Y-60927484D01*
X143260752Y-60943128D01*
X143319207Y-61005886D01*
X143387450Y-61076712D01*
X143495551Y-61144494D01*
X143619366Y-61189560D01*
X143750174Y-61204577D01*
X143894139Y-61191650D01*
X144006577Y-61156199D01*
X144094312Y-61101018D01*
X144164138Y-61025406D01*
X144204061Y-60943869D01*
X144217411Y-60853356D01*
X144209706Y-60759070D01*
X144186920Y-60670434D01*
X144148900Y-60586154D01*
X144096698Y-60510044D01*
X144030085Y-60443573D01*
X143947400Y-60386120D01*
X143856053Y-60343938D01*
X143755084Y-60318101D01*
X143642463Y-60309183D01*
X143530330Y-60319252D01*
X143441975Y-60346970D01*
X143372330Y-60390272D01*
X143339839Y-60423827D01*
X143320401Y-60464577D01*
X143313590Y-60514836D01*
X143325584Y-60591705D01*
X143362561Y-60665900D01*
X143419035Y-60730097D01*
X143492742Y-60782037D01*
X143480560Y-60670174D01*
X143660537Y-60670174D01*
X143664956Y-60746647D01*
X143680198Y-60849204D01*
X143783757Y-60852013D01*
X143863983Y-60845410D01*
X143909665Y-60829665D01*
X143900783Y-60764347D01*
X143876081Y-60714870D01*
X143832836Y-60666710D01*
X143778970Y-60638177D01*
X143710973Y-60628164D01*
X143672401Y-60639306D01*
X143660537Y-60670174D01*
X143480560Y-60670174D01*
X143461967Y-60499448D01*
X143469333Y-60474710D01*
X143492278Y-60458617D01*
X143540247Y-60451821D01*
X143601796Y-60463056D01*
X143623914Y-60476870D01*
X143629762Y-60491022D01*
X143682285Y-60478680D01*
X143744556Y-60474291D01*
X143809843Y-60485779D01*
X143894277Y-60526071D01*
X143972107Y-60585709D01*
X144035572Y-60661748D01*
X144078895Y-60745664D01*
X144091503Y-60814277D01*
X144080970Y-60879029D01*
X144049494Y-60935910D01*
X143997853Y-60976935D01*
X143913167Y-61005689D01*
X143780949Y-61017121D01*
X143694120Y-61014312D01*
X143694120Y-61022616D01*
X143685784Y-61064218D01*
X143663650Y-61087009D01*
X143624267Y-61095401D01*
X143579448Y-61089783D01*
X143550990Y-61074044D01*
X143529237Y-61041356D01*
X143515090Y-60983538D01*
X143409003Y-60943820D01*
X143319207Y-60888405D01*
X143231237Y-60808156D01*
X143171171Y-60721132D01*
X143135489Y-60625693D01*
X143123325Y-60518988D01*
X143134821Y-60410465D01*
X143166951Y-60323502D01*
X143218467Y-60253332D01*
X143291242Y-60197198D01*
X143391255Y-60149285D01*
X143498819Y-60120356D01*
X143615840Y-60110491D01*
X143733156Y-60120455D01*
G37*
G36*
X142694434Y-61422808D02*
G01*
X142736272Y-61413865D01*
X142764329Y-61388355D01*
X142781263Y-61341598D01*
X142789359Y-60963996D01*
X142812353Y-60629530D01*
X142848429Y-60334340D01*
X142838489Y-60281706D01*
X142807885Y-60233712D01*
X142763494Y-60199645D01*
X142715439Y-60188893D01*
X142671477Y-60202709D01*
X142638503Y-60247634D01*
X142581637Y-60187024D01*
X142517647Y-60144860D01*
X142445077Y-60119330D01*
X142361531Y-60110491D01*
X142257515Y-60123724D01*
X142168039Y-60162188D01*
X142089472Y-60227017D01*
X142020202Y-60323105D01*
X141942340Y-60232965D01*
X141856022Y-60171253D01*
X141759467Y-60134385D01*
X141649441Y-60121727D01*
X141538317Y-60133947D01*
X141446149Y-60168655D01*
X141368766Y-60225277D01*
X141303838Y-60306374D01*
X141260645Y-60385888D01*
X141224756Y-60485369D01*
X141197470Y-60608625D01*
X141175574Y-60815728D01*
X141166695Y-61140219D01*
X141174734Y-61266719D01*
X141194783Y-61348681D01*
X141219990Y-61389581D01*
X141257682Y-61413932D01*
X141312264Y-61422808D01*
X141351923Y-61413034D01*
X141375641Y-61384935D01*
X141385048Y-61330484D01*
X141376622Y-60980729D01*
X141386919Y-60777237D01*
X141414075Y-60626899D01*
X141453478Y-60518485D01*
X141502119Y-60442521D01*
X141558969Y-60391716D01*
X141625204Y-60361613D01*
X141704030Y-60351193D01*
X141768857Y-60360077D01*
X141815786Y-60384383D01*
X141849476Y-60423855D01*
X141887333Y-60513154D01*
X141905408Y-60605816D01*
X141916643Y-60910753D01*
X141916643Y-61316441D01*
X141927269Y-61356757D01*
X141961461Y-61392034D01*
X142007648Y-61415365D01*
X142053785Y-61422808D01*
X142088577Y-61414498D01*
X142114222Y-61389527D01*
X142132065Y-61341598D01*
X142123639Y-60762498D01*
X142132871Y-60599367D01*
X142156196Y-60490318D01*
X142188506Y-60420748D01*
X142227198Y-60379159D01*
X142285486Y-60353111D01*
X142379727Y-60342766D01*
X142443692Y-60351715D01*
X142492819Y-60376801D01*
X142530792Y-60418360D01*
X142555588Y-60471426D01*
X142573005Y-60549752D01*
X142579762Y-60661748D01*
X142562909Y-61182107D01*
X142574488Y-61303750D01*
X142602570Y-61373877D01*
X142641826Y-61410580D01*
X142694434Y-61422808D01*
G37*
G36*
X140766137Y-59651681D02*
G01*
X140718864Y-59662783D01*
X140671127Y-59699309D01*
X140636846Y-59749383D01*
X140626308Y-59798593D01*
X140637490Y-59848324D01*
X140675279Y-59903496D01*
X140727288Y-59944388D01*
X140777372Y-59956618D01*
X140827054Y-59945902D01*
X140873848Y-59911922D01*
X140906038Y-59861667D01*
X140917201Y-59797128D01*
X140907716Y-59736553D01*
X140881788Y-59694560D01*
X140838615Y-59666219D01*
X140771755Y-59651681D01*
X140766137Y-59651681D01*
G37*
G36*
X140648656Y-61117871D02*
G01*
X140645847Y-61313632D01*
X140656279Y-61362148D01*
X140687857Y-61401803D01*
X140731954Y-61428298D01*
X140777372Y-61436730D01*
X140817379Y-61428560D01*
X140840386Y-61406474D01*
X140850157Y-61366877D01*
X140886427Y-60379159D01*
X140878122Y-60146884D01*
X140868597Y-60119107D01*
X140848475Y-60102777D01*
X140813764Y-60096570D01*
X140743045Y-60105335D01*
X140695072Y-60128500D01*
X140663433Y-60164647D01*
X140645847Y-60216859D01*
X140637421Y-60314801D01*
X140648656Y-60491022D01*
X140648656Y-61117871D01*
G37*
G36*
X140276064Y-60468674D02*
G01*
X140262466Y-60364103D01*
X140223530Y-60277890D01*
X140158583Y-60205624D01*
X140075823Y-60151123D01*
X139985709Y-60118714D01*
X139885764Y-60107683D01*
X139733357Y-60121742D01*
X139587787Y-60163736D01*
X139501574Y-60210197D01*
X139458365Y-60258954D01*
X139445027Y-60311992D01*
X139454205Y-60354807D01*
X139481420Y-60387585D01*
X139517651Y-60409541D01*
X139544434Y-60415551D01*
X139586322Y-60414207D01*
X139698307Y-60362428D01*
X139794317Y-60323666D01*
X139875994Y-60311992D01*
X139952408Y-60322497D01*
X140014480Y-60352536D01*
X140046017Y-60383382D01*
X140065022Y-60422173D01*
X140071755Y-60471482D01*
X140064363Y-60520230D01*
X140042901Y-60560539D01*
X140006053Y-60594581D01*
X139926510Y-60632449D01*
X139775244Y-60671639D01*
X139621672Y-60713225D01*
X139521964Y-60762498D01*
X139475576Y-60808887D01*
X139445309Y-60878605D01*
X139433792Y-60980729D01*
X139442906Y-61097663D01*
X139467641Y-61187916D01*
X139505401Y-61257124D01*
X139555547Y-61309480D01*
X139641127Y-61362453D01*
X139738526Y-61394741D01*
X139850837Y-61405956D01*
X140016729Y-61393192D01*
X140146004Y-61358450D01*
X140217564Y-61318212D01*
X140255341Y-61271382D01*
X140267637Y-61215690D01*
X140260181Y-61166116D01*
X140240374Y-61133900D01*
X140208157Y-61114092D01*
X140158583Y-61106636D01*
X140123176Y-61113547D01*
X140035362Y-61145837D01*
X139939515Y-61175368D01*
X139846563Y-61184916D01*
X139786861Y-61177679D01*
X139740320Y-61157510D01*
X139703803Y-61124832D01*
X139667101Y-61060183D01*
X139654832Y-60986346D01*
X139662328Y-60937895D01*
X139683471Y-60901092D01*
X139719190Y-60873018D01*
X139792730Y-60843424D01*
X139915073Y-60815621D01*
X140037441Y-60790480D01*
X140108147Y-60768115D01*
X140179765Y-60725785D01*
X140231004Y-60665014D01*
X140263888Y-60581795D01*
X140276064Y-60468674D01*
G37*
G36*
X139199441Y-60468674D02*
G01*
X139185843Y-60364103D01*
X139146907Y-60277890D01*
X139081960Y-60205624D01*
X138999200Y-60151123D01*
X138909087Y-60118714D01*
X138809141Y-60107683D01*
X138656735Y-60121742D01*
X138511165Y-60163736D01*
X138424951Y-60210197D01*
X138381742Y-60258954D01*
X138368405Y-60311992D01*
X138377583Y-60354807D01*
X138404797Y-60387585D01*
X138441029Y-60409541D01*
X138467812Y-60415551D01*
X138509699Y-60414207D01*
X138621685Y-60362428D01*
X138717695Y-60323666D01*
X138799371Y-60311992D01*
X138875785Y-60322497D01*
X138937857Y-60352536D01*
X138969395Y-60383382D01*
X138988400Y-60422173D01*
X138995132Y-60471482D01*
X138987741Y-60520230D01*
X138966278Y-60560539D01*
X138929431Y-60594581D01*
X138849888Y-60632449D01*
X138698621Y-60671639D01*
X138545050Y-60713225D01*
X138445341Y-60762498D01*
X138398954Y-60808887D01*
X138368687Y-60878605D01*
X138357170Y-60980729D01*
X138366284Y-61097663D01*
X138391019Y-61187916D01*
X138428778Y-61257124D01*
X138478925Y-61309480D01*
X138564504Y-61362453D01*
X138661904Y-61394741D01*
X138774214Y-61405956D01*
X138940106Y-61393192D01*
X139069382Y-61358450D01*
X139140941Y-61318212D01*
X139178719Y-61271382D01*
X139191015Y-61215690D01*
X139183559Y-61166116D01*
X139163751Y-61133900D01*
X139131535Y-61114092D01*
X139081960Y-61106636D01*
X139046553Y-61113547D01*
X138958740Y-61145837D01*
X138862893Y-61175368D01*
X138769940Y-61184916D01*
X138710239Y-61177679D01*
X138663698Y-61157510D01*
X138627180Y-61124832D01*
X138590479Y-61060183D01*
X138578210Y-60986346D01*
X138585706Y-60937895D01*
X138606849Y-60901092D01*
X138642568Y-60873018D01*
X138716108Y-60843424D01*
X138838450Y-60815621D01*
X138960818Y-60790480D01*
X139031524Y-60768115D01*
X139103143Y-60725785D01*
X139154381Y-60665014D01*
X139187265Y-60581795D01*
X139199441Y-60468674D01*
G37*
G36*
X137975907Y-61084288D02*
G01*
X137919917Y-61095348D01*
X137871004Y-61129106D01*
X137836037Y-61180481D01*
X137817759Y-61252083D01*
X137828661Y-61310417D01*
X137862578Y-61365411D01*
X137912134Y-61404681D01*
X137967602Y-61417191D01*
X138024873Y-61409071D01*
X138075314Y-61385073D01*
X138110433Y-61345153D01*
X138122819Y-61285666D01*
X138112448Y-61219992D01*
X138079466Y-61151454D01*
X138046684Y-61112338D01*
X138012647Y-61091140D01*
X137975907Y-61084288D01*
G37*
G36*
X137412927Y-61422808D02*
G01*
X137454764Y-61413865D01*
X137482822Y-61388355D01*
X137499755Y-61341598D01*
X137507851Y-60963996D01*
X137530846Y-60629530D01*
X137566922Y-60334340D01*
X137556982Y-60281706D01*
X137526378Y-60233712D01*
X137481987Y-60199645D01*
X137433932Y-60188893D01*
X137389970Y-60202709D01*
X137356995Y-60247634D01*
X137300130Y-60187024D01*
X137236140Y-60144860D01*
X137163569Y-60119330D01*
X137080024Y-60110491D01*
X136976008Y-60123724D01*
X136886532Y-60162188D01*
X136807965Y-60227017D01*
X136738695Y-60323105D01*
X136660833Y-60232965D01*
X136574515Y-60171253D01*
X136477959Y-60134385D01*
X136367934Y-60121727D01*
X136256810Y-60133947D01*
X136164641Y-60168655D01*
X136087259Y-60225277D01*
X136022330Y-60306374D01*
X135979137Y-60385888D01*
X135943248Y-60485369D01*
X135915963Y-60608625D01*
X135894067Y-60815728D01*
X135885188Y-61140219D01*
X135893227Y-61266719D01*
X135913276Y-61348681D01*
X135938483Y-61389581D01*
X135976175Y-61413932D01*
X136030757Y-61422808D01*
X136070416Y-61413034D01*
X136094134Y-61384935D01*
X136103541Y-61330484D01*
X136095115Y-60980729D01*
X136105412Y-60777237D01*
X136132568Y-60626899D01*
X136171971Y-60518485D01*
X136220612Y-60442521D01*
X136277462Y-60391716D01*
X136343697Y-60361613D01*
X136422522Y-60351193D01*
X136487350Y-60360077D01*
X136534279Y-60384383D01*
X136567969Y-60423855D01*
X136605825Y-60513154D01*
X136623900Y-60605816D01*
X136635136Y-60910753D01*
X136635136Y-61316441D01*
X136645762Y-61356757D01*
X136679954Y-61392034D01*
X136726141Y-61415365D01*
X136772278Y-61422808D01*
X136807070Y-61414498D01*
X136832714Y-61389527D01*
X136850558Y-61341598D01*
X136842131Y-60762498D01*
X136851364Y-60599367D01*
X136874688Y-60490318D01*
X136906998Y-60420748D01*
X136945690Y-60379159D01*
X137003979Y-60353111D01*
X137098220Y-60342766D01*
X137162185Y-60351715D01*
X137211311Y-60376801D01*
X137249284Y-60418360D01*
X137274081Y-60471426D01*
X137291497Y-60549752D01*
X137298255Y-60661748D01*
X137281402Y-61182107D01*
X137292980Y-61303750D01*
X137321062Y-61373877D01*
X137360318Y-61410580D01*
X137412927Y-61422808D01*
G37*
G36*
X135298840Y-60129030D02*
G01*
X135402574Y-60165651D01*
X135489736Y-60225012D01*
X135563032Y-60309183D01*
X135614187Y-60401670D01*
X135652671Y-60511488D01*
X135677328Y-60641744D01*
X135686130Y-60796081D01*
X135671076Y-60950427D01*
X135626568Y-61093564D01*
X135551796Y-61228391D01*
X135476981Y-61315608D01*
X135394400Y-61375161D01*
X135302387Y-61410648D01*
X135197889Y-61422808D01*
X135093074Y-61410822D01*
X135001199Y-61375940D01*
X134919185Y-61317620D01*
X134845324Y-61232543D01*
X134788275Y-61134806D01*
X134746861Y-61026723D01*
X134721226Y-60906573D01*
X134714460Y-60804385D01*
X134936182Y-60804385D01*
X134942360Y-60916904D01*
X134958653Y-61000268D01*
X134994101Y-61072949D01*
X135044414Y-61122970D01*
X135111819Y-61154060D01*
X135202041Y-61165376D01*
X135267774Y-61153936D01*
X135330379Y-61118467D01*
X135392306Y-61053513D01*
X135436286Y-60974348D01*
X135465380Y-60868663D01*
X135476203Y-60728914D01*
X135467914Y-60639554D01*
X135443036Y-60553257D01*
X135400732Y-60468674D01*
X135342820Y-60397703D01*
X135279426Y-60358512D01*
X135207658Y-60345575D01*
X135129957Y-60356619D01*
X135067404Y-60388188D01*
X135016161Y-60441491D01*
X134975316Y-60522129D01*
X134947045Y-60639192D01*
X134936182Y-60804385D01*
X134714460Y-60804385D01*
X134712334Y-60772267D01*
X134721022Y-60637896D01*
X134746103Y-60517184D01*
X134786655Y-60408160D01*
X134842515Y-60309183D01*
X134915313Y-60221513D01*
X134993682Y-60162509D01*
X135079027Y-60127853D01*
X135174075Y-60116109D01*
X135298840Y-60129030D01*
G37*
G36*
X134548935Y-59608328D02*
G01*
X134534853Y-59513350D01*
X134515352Y-59471186D01*
X134482633Y-59447759D01*
X134429989Y-59438946D01*
X134359399Y-59451444D01*
X134322617Y-59483213D01*
X134309699Y-59536887D01*
X134322278Y-59931461D01*
X134334856Y-60502257D01*
X134329328Y-60741766D01*
X134315195Y-60907944D01*
X134280841Y-61090606D01*
X134248485Y-61160692D01*
X134220184Y-61176612D01*
X134184648Y-61168127D01*
X134154263Y-61141525D01*
X134127739Y-61089783D01*
X134109908Y-61058382D01*
X134083042Y-61029699D01*
X134048843Y-61010004D01*
X134004640Y-61003077D01*
X133964727Y-61011832D01*
X133935531Y-61037624D01*
X133915053Y-61085826D01*
X133906699Y-61168185D01*
X133916170Y-61224111D01*
X133946508Y-61282562D01*
X134003297Y-61345872D01*
X134071351Y-61397199D01*
X134134527Y-61425204D01*
X134194905Y-61434043D01*
X134284262Y-61425220D01*
X134347435Y-61401926D01*
X134398601Y-61362295D01*
X134439759Y-61305327D01*
X134495690Y-61180764D01*
X134512937Y-61116957D01*
X134525122Y-61033852D01*
X134538286Y-60872649D01*
X134548935Y-60584811D01*
X134555896Y-59994476D01*
X134548935Y-59608328D01*
G37*
G36*
X133509106Y-60136071D02*
G01*
X133601865Y-60168364D01*
X133677462Y-60220012D01*
X133738782Y-60292452D01*
X133798303Y-60408728D01*
X133835031Y-60540908D01*
X133847836Y-60692522D01*
X133839412Y-60846032D01*
X133814895Y-60987305D01*
X133775052Y-61117871D01*
X133718144Y-61240954D01*
X133654237Y-61327705D01*
X133583849Y-61385668D01*
X133505703Y-61419662D01*
X133416870Y-61431235D01*
X133320788Y-61420999D01*
X133211217Y-61387882D01*
X133106882Y-61338111D01*
X133022418Y-61280048D01*
X132908854Y-61179968D01*
X132858757Y-61113903D01*
X132846074Y-61070244D01*
X132855752Y-61035236D01*
X132890893Y-60991964D01*
X132934465Y-60957812D01*
X132958060Y-60949954D01*
X132989636Y-60957795D01*
X133042024Y-60989277D01*
X133125976Y-61060474D01*
X133209871Y-61121526D01*
X133305656Y-61158276D01*
X133416870Y-61170994D01*
X133460252Y-61163024D01*
X133492463Y-61140219D01*
X133539755Y-61082205D01*
X133581084Y-60983471D01*
X133612752Y-60826856D01*
X133377791Y-60815621D01*
X133261816Y-60787428D01*
X133166025Y-60739367D01*
X133086775Y-60671517D01*
X133023897Y-60587532D01*
X132988875Y-60506252D01*
X132978960Y-60435090D01*
X133223796Y-60435090D01*
X133235947Y-60497109D01*
X133272039Y-60546821D01*
X133337925Y-60587264D01*
X133446473Y-60616472D01*
X133615561Y-60628164D01*
X133586012Y-60493812D01*
X133562438Y-60437899D01*
X133505018Y-60367769D01*
X133445223Y-60329856D01*
X133380478Y-60317609D01*
X133305358Y-60326722D01*
X133259357Y-60349816D01*
X133233145Y-60384705D01*
X133223796Y-60435090D01*
X132978960Y-60435090D01*
X132977599Y-60425321D01*
X132991599Y-60347319D01*
X133034303Y-60276978D01*
X133111933Y-60211242D01*
X133204472Y-60162476D01*
X133298143Y-60133987D01*
X133394521Y-60124535D01*
X133509106Y-60136071D01*
G37*
G36*
X132322784Y-61011503D02*
G01*
X132319975Y-61299710D01*
X132330870Y-61346636D01*
X132366137Y-61392034D01*
X132413926Y-61424443D01*
X132456995Y-61434043D01*
X132492223Y-61424430D01*
X132519125Y-61394251D01*
X132538206Y-61333293D01*
X132560676Y-60923332D01*
X132591923Y-60556944D01*
X132636147Y-60314801D01*
X132661304Y-60188893D01*
X132649220Y-60138177D01*
X132614947Y-60108287D01*
X132549441Y-60096570D01*
X132506543Y-60105757D01*
X132473848Y-60132962D01*
X132450756Y-60170436D01*
X132438921Y-60207090D01*
X132426343Y-60309183D01*
X132417916Y-60390272D01*
X132371126Y-60303179D01*
X132312598Y-60234033D01*
X132241695Y-60180467D01*
X132160901Y-60141625D01*
X132075514Y-60118365D01*
X131984141Y-60110491D01*
X131867079Y-60121086D01*
X131800371Y-60146578D01*
X131766057Y-60181677D01*
X131754797Y-60227972D01*
X131765189Y-60281437D01*
X131795341Y-60321762D01*
X131839074Y-60347973D01*
X131889009Y-60356688D01*
X132006545Y-60367563D01*
X132098258Y-60397419D01*
X132169780Y-60444022D01*
X132224842Y-60507875D01*
X132262860Y-60583238D01*
X132293695Y-60687070D01*
X132314830Y-60826927D01*
X132322784Y-61011503D01*
G37*
G36*
X130884027Y-60126025D02*
G01*
X130927180Y-60163736D01*
X131039844Y-60134201D01*
X131151029Y-60124535D01*
X131266570Y-60136130D01*
X131363625Y-60169082D01*
X131446020Y-60222514D01*
X131516172Y-60298070D01*
X131567833Y-60386267D01*
X131607673Y-60497532D01*
X131633862Y-60636832D01*
X131643422Y-60810003D01*
X131632082Y-60999325D01*
X131601851Y-61141774D01*
X131557164Y-61247117D01*
X131500488Y-61323356D01*
X131432005Y-61376222D01*
X131349554Y-61408573D01*
X131248970Y-61420000D01*
X131144554Y-61410827D01*
X131054504Y-61384604D01*
X130976132Y-61342170D01*
X130907519Y-61282857D01*
X130897313Y-61326808D01*
X130900558Y-61364068D01*
X130904679Y-61398822D01*
X130897749Y-61425617D01*
X130880700Y-61444249D01*
X130853053Y-61450774D01*
X130812386Y-61450774D01*
X130722407Y-61439999D01*
X130681867Y-61415646D01*
X130669748Y-61380799D01*
X130711758Y-60748454D01*
X130711154Y-60709375D01*
X130927180Y-60709375D01*
X130940828Y-60883677D01*
X130980303Y-61039469D01*
X131017872Y-61101611D01*
X131079710Y-61159881D01*
X131151431Y-61201136D01*
X131209769Y-61213004D01*
X131283366Y-61199479D01*
X131341346Y-61159939D01*
X131387597Y-61089286D01*
X131420532Y-60974931D01*
X131433618Y-60798890D01*
X131422465Y-60634879D01*
X131394428Y-60527416D01*
X131355338Y-60460247D01*
X131296958Y-60410675D01*
X131219674Y-60379361D01*
X131117445Y-60367923D01*
X131053257Y-60377555D01*
X131005694Y-60404387D01*
X130970533Y-60449134D01*
X130948746Y-60505446D01*
X130933229Y-60589218D01*
X130927180Y-60709375D01*
X130711154Y-60709375D01*
X130708949Y-60566615D01*
X130703332Y-60370732D01*
X130703332Y-60323105D01*
X130713877Y-60218265D01*
X130739688Y-60157031D01*
X130776388Y-60124363D01*
X130826430Y-60113300D01*
X130884027Y-60126025D01*
G37*
G36*
X130441015Y-60113300D02*
G01*
X130301064Y-60116109D01*
X130247941Y-60113300D01*
X130247941Y-59539696D01*
X130235161Y-59496535D01*
X130200436Y-59458607D01*
X130155065Y-59432655D01*
X130116416Y-59425024D01*
X130080555Y-59431517D01*
X130053401Y-59450181D01*
X130036873Y-59480117D01*
X130032397Y-59528583D01*
X130035205Y-60110491D01*
X129707920Y-60099378D01*
X129661442Y-60110132D01*
X129634394Y-60140276D01*
X129623900Y-60197198D01*
X129635504Y-60262689D01*
X129667376Y-60306374D01*
X129712970Y-60334723D01*
X129759699Y-60345575D01*
X129856175Y-60348384D01*
X130026901Y-60345575D01*
X130003087Y-60798890D01*
X129965352Y-61236817D01*
X129956632Y-61327836D01*
X129959734Y-61365533D01*
X129971977Y-61390809D01*
X129990509Y-61405956D01*
X130030437Y-61418104D01*
X130088450Y-61422808D01*
X130123894Y-61415338D01*
X130147317Y-61394183D01*
X130161113Y-61355642D01*
X130205439Y-60954336D01*
X130236706Y-60348384D01*
X130429780Y-60351193D01*
X130513768Y-60342784D01*
X130562769Y-60322216D01*
X130588870Y-60293013D01*
X130597697Y-60253251D01*
X130587529Y-60191031D01*
X130559964Y-60149597D01*
X130513785Y-60123366D01*
X130441015Y-60113300D01*
G37*
D11*
X166264776Y-46751996D02*
X166315477Y-46658362D01*
X166315477Y-46658362D02*
X166338865Y-46525721D01*
X166338865Y-46525721D02*
X166373947Y-46326760D01*
X166373947Y-46326760D02*
X166424649Y-46233126D01*
X166424649Y-46233126D02*
X166502663Y-46178500D01*
X166600222Y-46400849D02*
X166650923Y-46307216D01*
X166650923Y-46307216D02*
X166674311Y-46174575D01*
X166674311Y-46174575D02*
X166604066Y-45991233D01*
X166604066Y-45991233D02*
X166412874Y-45718182D01*
X166412874Y-45718182D02*
X166264614Y-45589467D01*
X166264614Y-45589467D02*
X166131973Y-45566078D01*
X166131973Y-45566078D02*
X166026645Y-45581697D01*
X166026645Y-45581697D02*
X165870616Y-45690950D01*
X165870616Y-45690950D02*
X165819915Y-45784584D01*
X165819915Y-45784584D02*
X165796527Y-45917224D01*
X165796527Y-45917224D02*
X165866772Y-46100567D01*
X165866772Y-46100567D02*
X166057965Y-46373617D01*
X166057965Y-46373617D02*
X166206224Y-46502333D01*
X166206224Y-46502333D02*
X166338865Y-46525721D01*
X166338865Y-46525721D02*
X166444193Y-46510102D01*
X166444193Y-46510102D02*
X166600222Y-46400849D01*
X165469012Y-47192931D02*
X165937099Y-46865173D01*
X165703055Y-47029052D02*
X165129479Y-46209900D01*
X165129479Y-46209900D02*
X165289433Y-46272296D01*
X165289433Y-46272296D02*
X165422074Y-46295684D01*
X165422074Y-46295684D02*
X165527401Y-46280065D01*
%TO.C,Q1*%
D12*
X165683957Y-47615800D02*
X167119521Y-46610608D01*
X166303707Y-48500894D02*
X166826235Y-49247142D01*
X167119521Y-46610608D02*
X167716901Y-47463756D01*
X167445984Y-50132235D02*
X168881548Y-49127043D01*
X168881548Y-49127043D02*
X168284169Y-48273895D01*
%TO.C,U2*%
D13*
X142887498Y-109624998D02*
X142887496Y-109895005D01*
X142887498Y-115144998D02*
X148407498Y-115144998D01*
X142887499Y-114875003D02*
X142887498Y-115144998D01*
X148407497Y-109894993D02*
X148407498Y-109624998D01*
X148407498Y-109624998D02*
X142887498Y-109624998D01*
X148407498Y-115144998D02*
X148407500Y-114874991D01*
X142057495Y-114884997D02*
X141717499Y-115354998D01*
X142397494Y-115354996D01*
X142057495Y-114884997D01*
G36*
X142397494Y-115354996D02*
G01*
X141717499Y-115354998D01*
X142057495Y-114884997D01*
X142397494Y-115354996D01*
G37*
%TO.C,Y1*%
D12*
X143345249Y-89791739D02*
X143345253Y-93848742D01*
X143345253Y-93848742D02*
X146702253Y-93848743D01*
X145273751Y-89563243D02*
X146930752Y-89563243D01*
X146702249Y-89791740D02*
X143345249Y-89791739D01*
X146702253Y-93848743D02*
X146702249Y-89791740D01*
X146930752Y-89563243D02*
X146930751Y-91420239D01*
%TO.C,R_TMR1*%
D13*
X152033583Y-69787279D02*
X152033589Y-69312766D01*
X153078587Y-69787268D02*
X153078593Y-69312755D01*
%TO.C,R_PG_PULL1*%
X154642737Y-77227495D02*
X155117255Y-77227493D01*
X154642745Y-78272507D02*
X155117263Y-78272505D01*
%TO.C,J_BATT1*%
D14*
X157630023Y-55331988D02*
X160383198Y-59263917D01*
X162221275Y-51384698D02*
X162949138Y-52424200D01*
X162966542Y-49703118D02*
X159510538Y-52123045D01*
X162966542Y-49703118D02*
X163511442Y-50481322D01*
X163511442Y-50481322D02*
X162221275Y-51384698D01*
X163787707Y-53621810D02*
X164096293Y-54062513D01*
X164934902Y-55261909D02*
X165661626Y-56299778D01*
X165661626Y-56299778D02*
X166951785Y-55396389D01*
X166951785Y-55396389D02*
X167496693Y-56174589D01*
X167497790Y-56174427D02*
X164041793Y-58594346D01*
%TO.C,D1*%
D12*
X125593998Y-114974001D02*
X125594000Y-116005501D01*
X125593998Y-118026001D02*
X125593996Y-116994505D01*
X127045997Y-116955500D02*
X127046000Y-116044502D01*
X127045998Y-114974001D02*
X125593998Y-114974001D01*
X127045998Y-118026001D02*
X125593998Y-118026001D01*
%TO.C,C_RTC_VDD1*%
D13*
X123150002Y-113394420D02*
X123150001Y-113675579D01*
X124170003Y-113394421D02*
X124170002Y-113675580D01*
%TO.C,U10*%
D15*
X124620000Y-112570000D02*
X124620000Y-114070000D01*
X128240000Y-112570000D02*
X128240000Y-114070000D01*
D14*
X127987000Y-114650000D02*
G75*
G02*
X127733000Y-114650000I-127000J0D01*
G01*
X127733000Y-114650000D02*
G75*
G02*
X127987000Y-114650000I127000J0D01*
G01*
%TO.C,C_TPS_OUT_HF1*%
D13*
X156144423Y-59040005D02*
X156425582Y-59040006D01*
X156144424Y-58020004D02*
X156425583Y-58020005D01*
%TO.C,C_CAP1203_VDD1*%
X104826117Y-50367785D02*
X104987383Y-50137473D01*
X105661653Y-50952835D02*
X105822919Y-50722523D01*
%TO.C,BT1*%
D14*
X124568006Y-104103001D02*
X124568005Y-102324502D01*
X125012501Y-102388001D02*
X125012506Y-103072501D01*
X125012501Y-102388001D02*
X127188009Y-102387997D01*
X125012506Y-103072501D02*
X125549005Y-103072498D01*
X125012508Y-102847991D02*
X138534004Y-102847998D01*
X125076008Y-101816508D02*
X125378006Y-101816501D01*
X125076013Y-104610997D02*
X127717003Y-104611002D01*
X125549001Y-103580502D02*
X127732004Y-103580496D01*
X125549005Y-103072498D02*
X125549001Y-103580502D01*
X127188009Y-102387997D02*
X136358505Y-102388001D01*
D16*
X128980004Y-105360001D02*
X128980003Y-107394505D01*
X129998515Y-106380999D02*
X127961509Y-106380994D01*
D14*
X130119998Y-103580499D02*
X127732004Y-103580496D01*
X135814501Y-103580498D02*
X133419997Y-103580506D01*
X137997503Y-103580500D02*
X135814501Y-103580498D01*
X137997512Y-103072503D02*
X137997503Y-103580500D01*
X138470511Y-101816495D02*
X138168501Y-101816496D01*
X138470511Y-104610997D02*
X135829507Y-104610992D01*
X138534006Y-102388001D02*
X136358505Y-102388001D01*
X138534006Y-102388001D02*
X138534007Y-103072501D01*
X138534007Y-103072501D02*
X137997512Y-103072503D01*
X138978503Y-104103000D02*
X138978501Y-102324505D01*
X124568005Y-102324502D02*
G75*
G02*
X125076008Y-101816500I508001J1D01*
G01*
X125076013Y-104610997D02*
G75*
G02*
X124568010Y-104103001I-7J507996D01*
G01*
X125584505Y-101425000D02*
G75*
G02*
X125378006Y-101816525I-206699J-141201D01*
G01*
X125584505Y-101425000D02*
G75*
G02*
X130120013Y-89859503I6188978J4245007D01*
G01*
X127358004Y-101954501D02*
G75*
G02*
X127188009Y-102388039I-170098J-183400D01*
G01*
X127358004Y-101954501D02*
G75*
G02*
X130120000Y-90890503I4415531J4774464D01*
G01*
X127717003Y-104611002D02*
G75*
G02*
X128040995Y-104652007I303J-1298099D01*
G01*
X127732004Y-103580496D02*
G75*
G02*
X128072004Y-103626006I-2798J-1313705D01*
G01*
X130119999Y-105063498D02*
G75*
G02*
X128040997Y-104651999I2584894J18517153D01*
G01*
X130120006Y-104053501D02*
G75*
G02*
X128072004Y-103626006I2594561J17549209D01*
G01*
X133420006Y-89858007D02*
G75*
G02*
X137962499Y-101425000I-1646405J-7322004D01*
G01*
X133420007Y-90888497D02*
G75*
G02*
X136189006Y-101954498I-1646624J-6291466D01*
G01*
X135474508Y-103625996D02*
G75*
G02*
X133420006Y-104054501I-4639406J17104518D01*
G01*
X135474508Y-103625996D02*
G75*
G02*
X135814501Y-103580488I339098J-1240605D01*
G01*
X135505504Y-104652010D02*
G75*
G02*
X133420012Y-105064496I-4674288J18154506D01*
G01*
X135505504Y-104652010D02*
G75*
G02*
X135829507Y-104610988I324302J-1261391D01*
G01*
X136358505Y-102388001D02*
G75*
G02*
X136189005Y-101954497I181J249960D01*
G01*
X138168501Y-101816496D02*
G75*
G02*
X137962507Y-101425006I105J249995D01*
G01*
X138470511Y-101816495D02*
G75*
G02*
X138978512Y-102324505I-5J-508006D01*
G01*
X138978503Y-104103000D02*
G75*
G02*
X138470511Y-104610998I-507997J-1D01*
G01*
%TO.C,C_BQ_OUT1*%
D13*
X151014992Y-77878748D02*
X151015005Y-78401249D01*
X152484995Y-77878751D02*
X152485008Y-78401252D01*
%TO.C,U9*%
D12*
X120579034Y-105054000D02*
X121610532Y-105053998D01*
X120579034Y-106506000D02*
X120579034Y-105054000D01*
X121649534Y-106505999D02*
X122560533Y-106506001D01*
X123631034Y-105054000D02*
X122599534Y-105054001D01*
X123631034Y-106506000D02*
X123631034Y-105054000D01*
%TO.C,TP_3V3*%
D13*
X185661610Y-68477094D02*
X187117094Y-69698390D01*
X186882906Y-67021610D02*
X185661610Y-68477094D01*
X187117094Y-69698390D02*
X188338390Y-68242906D01*
X188338390Y-68242906D02*
X186882906Y-67021610D01*
%TO.C,IC1*%
D12*
X151693997Y-58221500D02*
X151693997Y-60873500D01*
X154345997Y-60873500D02*
X154345997Y-58221500D01*
D10*
X154120004Y-61337502D02*
G75*
G02*
X153919996Y-61337502I-100004J0D01*
G01*
X153919996Y-61337502D02*
G75*
G02*
X154120004Y-61337502I100004J0D01*
G01*
%TO.C,R_PULL_SCL1*%
D13*
X123967495Y-110217262D02*
X123967501Y-109742749D01*
X125012499Y-110217251D02*
X125012505Y-109742738D01*
%TO.C,C_IOVDD1*%
X147596001Y-92535576D02*
X147596002Y-92254417D01*
X148616002Y-92535577D02*
X148616003Y-92254418D01*
%TO.C,J2*%
X131010000Y-125365000D02*
X131010000Y-123665000D01*
X140350000Y-125365000D02*
X140350000Y-123665000D01*
%TO.C,R_USB_DP1*%
X146857250Y-107977500D02*
X146382738Y-107977493D01*
X146857262Y-109022507D02*
X146382750Y-109022500D01*
%TO.C,R_BAT_BOTTOM1*%
X171064650Y-52565912D02*
X170675949Y-52838076D01*
X171664051Y-53421924D02*
X171275350Y-53694088D01*
%TO.C,L_TPS1*%
D14*
X151909992Y-66810003D02*
X152528996Y-66810001D01*
X151910001Y-62209999D02*
X151909992Y-66810003D01*
X151910001Y-62209999D02*
X152528992Y-62209999D01*
X155390998Y-62210001D02*
X156010002Y-62209999D01*
X155391002Y-66810003D02*
X156009993Y-66810003D01*
X156009993Y-66810003D02*
X156010002Y-62209999D01*
%TO.C,U1*%
D13*
X143629990Y-103639994D02*
X144280001Y-103639992D01*
X143629999Y-96419981D02*
X143630001Y-97069992D01*
X143630013Y-102990001D02*
X143629990Y-103639994D01*
X144279992Y-96420004D02*
X143629999Y-96419981D01*
X150200010Y-103639980D02*
X150850003Y-103640003D01*
X150849989Y-97069983D02*
X150850012Y-96419990D01*
X150850003Y-103640003D02*
X150850001Y-102989992D01*
X150850012Y-96419990D02*
X150200001Y-96419992D01*
X143100001Y-102629994D02*
X142770007Y-102389995D01*
X142770003Y-102869976D01*
X143100001Y-102629994D01*
G36*
X143100001Y-102629994D02*
G01*
X142770003Y-102869976D01*
X142770007Y-102389995D01*
X143100001Y-102629994D01*
G37*
%TO.C,TH1*%
D12*
X155329499Y-70920014D02*
X155329501Y-69961013D01*
X155329501Y-68150015D02*
X155329499Y-69109013D01*
X156650499Y-69109017D02*
X156650501Y-68150016D01*
X156650499Y-70920015D02*
X155329499Y-70920014D01*
X156650501Y-68150016D02*
X155329501Y-68150015D01*
X156650501Y-69961017D02*
X156650499Y-70920015D01*
%TO.C,R_BAT_TOP1*%
D13*
X168804349Y-50084477D02*
X169193051Y-49812311D01*
X169403747Y-50940489D02*
X169792449Y-50668323D01*
%TO.C,C_XOUT1*%
X141850000Y-92279413D02*
X141849999Y-92560572D01*
X142870001Y-92279414D02*
X142870000Y-92560573D01*
%TO.C,C_BQ_IN1*%
X149845001Y-69591251D02*
X149844998Y-69068743D01*
X151315002Y-69591257D02*
X151314999Y-69068749D01*
%TO.C,C_ACCEL_BULK1*%
X179429945Y-54280327D02*
X179029679Y-53944478D01*
X180374843Y-53154238D02*
X179974577Y-52818389D01*
%TO.C,C_IOVDD4*%
X141600566Y-101737488D02*
X141319406Y-101737488D01*
X141600566Y-102757488D02*
X141319406Y-102757488D01*
%TO.C,R_CC1*%
X137107496Y-118532264D02*
X137107496Y-118057750D01*
X138152506Y-118532252D02*
X138152506Y-118057738D01*
%TO.C,C_VREGIN1*%
X151269417Y-105650000D02*
X151550576Y-105650001D01*
X151269418Y-104629999D02*
X151550577Y-104630000D01*
%TO.C,R_RTC_INT1*%
X122077495Y-110207262D02*
X122077501Y-109732749D01*
X123122499Y-110207251D02*
X123122505Y-109732738D01*
%TO.C,C_VINA1*%
X148249999Y-59310579D02*
X148250000Y-59029420D01*
X149270000Y-59310580D02*
X149270001Y-59029421D01*
%TO.C,C_XIN1*%
X144633418Y-89359998D02*
X144914577Y-89359999D01*
X144633419Y-88339997D02*
X144914578Y-88339998D01*
%TO.C,R_LIGHT1*%
X189512248Y-65422394D02*
X189207232Y-65785894D01*
X190312768Y-66094106D02*
X190007752Y-66457606D01*
%TO.C,R_G1*%
X132407258Y-110587500D02*
X131932742Y-110587500D01*
X132407258Y-111632500D02*
X131932742Y-111632500D01*
%TO.C,R_VBACKUP1*%
X128627496Y-116662261D02*
X128627502Y-116187748D01*
X129672500Y-116662250D02*
X129672506Y-116187737D01*
%TO.C,TP_RUN1*%
X149650000Y-82500000D02*
X149650000Y-83900000D01*
X149650000Y-83900000D02*
X151050000Y-83900000D01*
X151050000Y-82500000D02*
X149650000Y-82500000D01*
X151050000Y-83900000D02*
X151050000Y-82500000D01*
%TO.C,R_USB_DM1*%
X146842251Y-106257500D02*
X146367739Y-106257493D01*
X146842263Y-107302507D02*
X146367751Y-107302500D01*
%TO.C,LED1*%
D14*
X133721000Y-109628996D02*
X133721010Y-109029001D01*
X134021005Y-109328996D02*
X133421000Y-109329000D01*
D17*
X134749997Y-108669998D02*
X134750000Y-108740000D01*
X134750000Y-111400000D02*
X134750000Y-111469999D01*
X134750000Y-111469999D02*
X137950003Y-111470002D01*
X134750007Y-109899997D02*
X134750002Y-110239996D01*
X137949993Y-110240003D02*
X137949998Y-109900004D01*
X137950000Y-108670001D02*
X134749997Y-108669998D01*
X137950000Y-108740000D02*
X137950000Y-108670001D01*
X137950003Y-111470002D02*
X137950000Y-111400000D01*
D14*
X137058995Y-110070000D02*
G75*
G02*
X135681005Y-110070000I-688995J0D01*
G01*
X135681005Y-110070000D02*
G75*
G02*
X137058995Y-110070000I688995J0D01*
G01*
D18*
G36*
X138380003Y-108787996D02*
G01*
X137980006Y-108388001D01*
X138379500Y-108388000D01*
X138380003Y-108787996D01*
G37*
%TO.C,C_HALL1*%
D13*
X122529999Y-102250579D02*
X122530000Y-101969420D01*
X123550000Y-102250580D02*
X123550001Y-101969421D01*
%TO.C,C_MCP9808*%
X104034181Y-47626495D02*
X103803869Y-47465229D01*
X104619231Y-46790959D02*
X104388919Y-46629693D01*
%TO.C,C_LIGHT1*%
X187960797Y-64573555D02*
X188141523Y-64358175D01*
X188742163Y-65229201D02*
X188922889Y-65013821D01*
%TO.C,C_TPS_OUT1*%
X156248746Y-61175009D02*
X156771249Y-61174998D01*
X156248751Y-59705002D02*
X156771254Y-59704991D01*
%TO.C,C_TPS_OUT2*%
X153615002Y-56181249D02*
X153614999Y-55658741D01*
X155085003Y-56181255D02*
X155085000Y-55658747D01*
%TO.C,C_USBVDD1*%
X143100002Y-106294420D02*
X143100001Y-106575579D01*
X144120003Y-106294421D02*
X144120002Y-106575580D01*
%TO.C,C_DVDD1*%
X149260002Y-92535574D02*
X149260003Y-92254415D01*
X150280003Y-92535575D02*
X150280004Y-92254416D01*
%TO.C,TP_REG_EN1*%
X128320000Y-51520000D02*
X128320000Y-52920000D01*
X128320000Y-52920000D02*
X129720000Y-52920000D01*
X129720000Y-51520000D02*
X128320000Y-51520000D01*
X129720000Y-52920000D02*
X129720000Y-51520000D01*
%TO.C,U8*%
D14*
X107350795Y-50148905D02*
X105630065Y-52606369D01*
X109725831Y-55474259D02*
X105630065Y-52606369D01*
X109725831Y-55474259D02*
X110169494Y-54840635D01*
X111446561Y-53016795D02*
X107350795Y-50148905D01*
X111446561Y-53016795D02*
X111002902Y-53650413D01*
X110169494Y-54840635D02*
G75*
G02*
X110998796Y-53647549I449419J572376D01*
G01*
D19*
X109562002Y-54663657D02*
G75*
G02*
X109262014Y-54663657I-149994J0D01*
G01*
X109262014Y-54663657D02*
G75*
G02*
X109562002Y-54663657I149994J0D01*
G01*
%TO.C,R_PULL_SDA1*%
D13*
X125757495Y-110217262D02*
X125757501Y-109742749D01*
X126802499Y-110217251D02*
X126802505Y-109742738D01*
%TO.C,R_CC2*%
X132777496Y-118492261D02*
X132777502Y-118017748D01*
X133822500Y-118492250D02*
X133822506Y-118017737D01*
%TO.C,U6*%
D10*
X180987437Y-55466489D02*
X181198102Y-55643255D01*
X181437389Y-54930256D02*
X180987437Y-55466489D01*
X183205054Y-52823634D02*
X182755104Y-53359866D01*
X183415717Y-53000401D02*
X183205054Y-52823634D01*
X183630292Y-57684106D02*
X183419629Y-57507339D01*
X184080242Y-57147874D02*
X183630292Y-57684106D01*
X185637244Y-54864485D02*
X185847909Y-55041251D01*
X185847909Y-55041251D02*
X185397957Y-55577484D01*
D20*
X183528546Y-52671472D02*
G75*
G02*
X183530459Y-52673079I81344J94920D01*
G01*
%TO.C,R_XOUT1*%
D13*
X147583502Y-88987740D02*
X147583499Y-89462256D01*
X148628503Y-88987734D02*
X148628500Y-89462250D01*
%TO.C,SW1*%
D14*
X133129998Y-49550002D02*
X133130004Y-50519003D01*
X133561000Y-51350005D02*
X133704500Y-51350003D01*
X134855502Y-51350007D02*
X136704500Y-51350003D01*
X136030000Y-47350001D02*
X136029999Y-48650000D01*
X136229995Y-47150004D02*
X136030000Y-47350001D01*
X136229995Y-47150004D02*
X137129997Y-47150000D01*
X137129997Y-47150000D02*
X137330000Y-47350001D01*
X137330000Y-47350001D02*
X137329998Y-48650004D01*
X137855497Y-51350002D02*
X138204498Y-51350004D01*
X139355501Y-51350000D02*
X139529995Y-51350002D01*
X139499004Y-48750005D02*
X133529997Y-48750002D01*
X139930002Y-50519006D02*
X139929998Y-49581005D01*
%TO.C,R_TOUCH_INT1*%
D13*
X110338856Y-58560898D02*
X109950161Y-58288724D01*
X110938237Y-57704872D02*
X110549542Y-57432698D01*
%TO.C,TP_I2C_SCL1*%
X97165093Y-53841904D02*
X98311904Y-54644907D01*
X97968096Y-52695093D02*
X97165093Y-53841904D01*
X98311904Y-54644907D02*
X99114907Y-53498096D01*
X99114907Y-53498096D02*
X97968096Y-52695093D01*
%TO.C,SW_BOOTSEL1*%
D14*
X143435371Y-123314511D02*
X143466497Y-123336306D01*
X143656568Y-122146070D02*
X144822074Y-120481550D01*
X144411728Y-119512430D02*
X142605542Y-122091942D01*
X144488822Y-122728827D02*
X143656568Y-122146070D01*
X144822074Y-120481550D02*
X145654335Y-121064311D01*
X145096194Y-123416576D02*
X144899168Y-123697952D01*
X145654335Y-121064311D02*
X144488822Y-122728827D01*
X145875525Y-119895867D02*
X145844397Y-119874072D01*
X146705356Y-121118438D02*
X146508335Y-121399817D01*
%TO.C,R_EN_PD1*%
D13*
X149712249Y-56247500D02*
X149237737Y-56247493D01*
X149712261Y-57292507D02*
X149237749Y-57292500D01*
%TO.C,C_IOVDD6*%
X150149999Y-107419420D02*
X150149998Y-107700579D01*
X151170000Y-107419421D02*
X151169999Y-107700580D01*
%TO.C,U5*%
D11*
X99517726Y-50579349D02*
X101009019Y-48449551D01*
X101009019Y-48449551D02*
X103448872Y-50157946D01*
X101957574Y-52287740D02*
X99517726Y-50579349D01*
X102331834Y-51753241D02*
X101957574Y-52287740D01*
X103448872Y-50157946D02*
X103074610Y-50692447D01*
X102331834Y-51753241D02*
G75*
G02*
X103074610Y-50692446I371380J530403D01*
G01*
D21*
X101701838Y-53123346D02*
G75*
G02*
X101461834Y-53123346I-120002J0D01*
G01*
X101461834Y-53123346D02*
G75*
G02*
X101701838Y-53123346I120002J0D01*
G01*
%TO.C,R_ISET1*%
D13*
X153759664Y-69787279D02*
X153759670Y-69312766D01*
X154804668Y-69787268D02*
X154804674Y-69312755D01*
%TO.C,R_CHG_PULL1*%
X154607495Y-80397263D02*
X154607492Y-79922743D01*
X155652508Y-80397257D02*
X155652505Y-79922737D01*
%TO.C,C_IOVDD5*%
X141470002Y-106294420D02*
X141470001Y-106575579D01*
X142490003Y-106294421D02*
X142490002Y-106575580D01*
%TO.C,R_SHIELD1*%
X128737502Y-121957745D02*
X128737499Y-122432261D01*
X129782503Y-121957739D02*
X129782500Y-122432255D01*
%TO.C,C_VBAT_ADC1*%
X170056832Y-51254798D02*
X169826519Y-51416063D01*
X170641881Y-52090335D02*
X170411568Y-52251600D01*
%TO.C,U3*%
D22*
X152330008Y-74644004D02*
X152330002Y-75099997D01*
X152330009Y-72099994D02*
X152330008Y-72555493D01*
X152330009Y-72099994D02*
X152785507Y-72100005D01*
X152785501Y-75099998D02*
X152330002Y-75099997D01*
X154874008Y-72099995D02*
X155330012Y-72100001D01*
X155330005Y-75100004D02*
X154874012Y-75099998D01*
X155330011Y-74644000D02*
X155330005Y-75100004D01*
X155330012Y-72100001D02*
X155330001Y-72555499D01*
D20*
X155570011Y-72348499D02*
G75*
G02*
X155570010Y-72351000I9988J-1254D01*
G01*
%TO.C,SW_RST1*%
D14*
X150789996Y-86188999D02*
X150789998Y-85845499D01*
X150790000Y-88994499D02*
X150790000Y-88651000D01*
X151681998Y-88435997D02*
X151681999Y-86403997D01*
X151681999Y-86403997D02*
X152697999Y-86403999D01*
X152170998Y-89519997D02*
X152209000Y-89519997D01*
X152209000Y-85319999D02*
X152171001Y-85319998D01*
X152697999Y-86403999D02*
X152698000Y-88435999D01*
X152698000Y-88435999D02*
X151681998Y-88435997D01*
X153590000Y-88994497D02*
X153589998Y-85845497D01*
%TO.C,C_TPS_IN1*%
D13*
X149635001Y-62318748D02*
X149635003Y-62841250D01*
X151105001Y-62318746D02*
X151105003Y-62841248D01*
%TO.C,C_ACCEL_VDD1*%
X184988174Y-58948478D02*
X185203554Y-59129204D01*
X185643820Y-58167112D02*
X185859200Y-58347838D01*
%TO.C,TP_I2C_SDA1*%
X112325093Y-60901904D02*
X113471904Y-61704907D01*
X113128096Y-59755093D02*
X112325093Y-60901904D01*
X113471904Y-61704907D02*
X114274907Y-60558096D01*
X114274907Y-60558096D02*
X113128096Y-59755093D01*
%TO.C,C_TPS_IN_HF1*%
X149900005Y-59305579D02*
X149900006Y-59024420D01*
X150920006Y-59305580D02*
X150920007Y-59024421D01*
%TO.C,C_IOVDD3*%
X141240580Y-98380000D02*
X140959420Y-98380000D01*
X141240580Y-99400000D02*
X140959420Y-99400000D01*
%TO.C,C_FLASH1*%
X148920579Y-117340003D02*
X148639420Y-117340002D01*
X148920580Y-116320002D02*
X148639421Y-116320001D01*
%TO.C,TP_GND1*%
X96046907Y-50283297D02*
X97603297Y-51373093D01*
X97136703Y-48726907D02*
X96046907Y-50283297D01*
X97603297Y-51373093D02*
X98693093Y-49816703D01*
X98693093Y-49816703D02*
X97136703Y-48726907D01*
%TO.C,C_DVDD2*%
X139830001Y-106294420D02*
X139830000Y-106575579D01*
X140850002Y-106294421D02*
X140850001Y-106575580D01*
%TO.C,R_B1*%
X134167258Y-112337500D02*
X133692742Y-112337500D01*
X134167258Y-113382500D02*
X133692742Y-113382500D01*
%TO.C,R_ILIM1*%
X150307493Y-72692746D02*
X150307495Y-73167263D01*
X151352505Y-72692737D02*
X151352507Y-73167254D01*
%TO.C,C_BAT1*%
X156544992Y-72948748D02*
X156545005Y-73471249D01*
X158014995Y-72948751D02*
X158015008Y-73471252D01*
%TO.C,R_CS_PULL1*%
X145737260Y-116307500D02*
X145262744Y-116307500D01*
X145737260Y-117352500D02*
X145262744Y-117352500D01*
%TO.C,C_IOVDD2*%
X151969986Y-100256908D02*
X151969985Y-100538067D01*
X152989987Y-100256909D02*
X152989986Y-100538068D01*
%TO.C,U7*%
D15*
X186030978Y-63879199D02*
X186037874Y-63884983D01*
X186216094Y-62887728D02*
X186370681Y-62703492D01*
X186370681Y-62703492D02*
X186647224Y-62935538D01*
X186434512Y-62418958D02*
X187239926Y-61459099D01*
X186434760Y-62421774D02*
X186434512Y-62418958D01*
X186647224Y-62935538D02*
X186637525Y-62926098D01*
X187019563Y-63556694D02*
X187165899Y-63387738D01*
X187165899Y-63387738D02*
X186877871Y-63146038D01*
X187239926Y-61459099D02*
X188207825Y-62271256D01*
X187392157Y-63819733D02*
X189371620Y-61460698D01*
X187394231Y-63226864D02*
X186434760Y-62421774D01*
X187411090Y-63220777D02*
X187392074Y-63222435D01*
X187742571Y-61845621D02*
X187988439Y-61552604D01*
X187839531Y-60175123D02*
X185860065Y-62534157D01*
X188104198Y-60397206D02*
X187839531Y-60175123D01*
X188207825Y-62271256D02*
X187411090Y-63220777D01*
X189371620Y-61460698D02*
X189106951Y-61238615D01*
%TO.C,C_ADCAVDD1*%
D13*
X151779999Y-107419420D02*
X151779998Y-107700579D01*
X152800000Y-107419421D02*
X152799999Y-107700580D01*
%TO.C,D2*%
D11*
X134590007Y-118875011D02*
X134590007Y-117575009D01*
X136390007Y-118874999D02*
X136390007Y-117574997D01*
D23*
X136574011Y-119290004D02*
G75*
G02*
X136396003Y-119290004I-89004J0D01*
G01*
X136396003Y-119290004D02*
G75*
G02*
X136574011Y-119290004I89004J0D01*
G01*
%TO.C,R_BOOT1*%
D13*
X142447502Y-117342745D02*
X142447499Y-117817261D01*
X143492503Y-117342739D02*
X143492500Y-117817255D01*
%TO.C,C_VREGOUT1*%
X148520000Y-107419420D02*
X148519999Y-107700579D01*
X149540001Y-107419421D02*
X149540000Y-107700580D01*
%TO.C,C_ACCEL_IO1*%
X186058174Y-57668478D02*
X186273554Y-57849204D01*
X186713820Y-56887112D02*
X186929200Y-57067838D01*
%TO.C,R_R1*%
X132407258Y-108817500D02*
X131932742Y-108817500D01*
X132407258Y-109862500D02*
X131932742Y-109862500D01*
%TD*%
%LPC*%
D24*
%TO.C,G\u002A\u002A\u002A*%
X136732978Y-108897632D02*
X136777619Y-108911139D01*
X136831144Y-108941446D01*
X136867082Y-108985116D01*
X136890051Y-109051318D01*
X136904668Y-109149224D01*
X136906394Y-109166876D01*
X136918702Y-109256666D01*
X136940836Y-109322637D01*
X136979785Y-109372119D01*
X137042537Y-109412440D01*
X137136082Y-109450930D01*
X137197402Y-109472051D01*
X137296846Y-109507202D01*
X137367215Y-109538543D01*
X137420436Y-109572794D01*
X137468436Y-109616680D01*
X137484817Y-109634046D01*
X137583807Y-109766193D01*
X137642476Y-109905750D01*
X137662721Y-110055508D01*
X137654812Y-110162795D01*
X137623350Y-110243688D01*
X137561681Y-110309849D01*
X137490335Y-110357558D01*
X137398053Y-110416601D01*
X137320254Y-110479968D01*
X137247926Y-110556846D01*
X137172057Y-110656420D01*
X137114795Y-110740348D01*
X136988193Y-110911514D01*
X136857470Y-111050801D01*
X136725406Y-111156361D01*
X136594780Y-111226349D01*
X136468372Y-111258918D01*
X136348962Y-111252221D01*
X136345453Y-111251378D01*
X136238228Y-111206988D01*
X136129141Y-111129702D01*
X136027949Y-111027332D01*
X135971827Y-110952248D01*
X135898296Y-110849771D01*
X135826519Y-110772438D01*
X135744038Y-110709752D01*
X135638392Y-110651217D01*
X135583327Y-110624980D01*
X135501134Y-110584195D01*
X135428461Y-110543171D01*
X135378489Y-110509467D01*
X135371558Y-110503514D01*
X135297640Y-110413324D01*
X135239282Y-110302255D01*
X135207057Y-110190593D01*
X135206525Y-110186865D01*
X135202484Y-110138415D01*
X135206794Y-110092238D01*
X135222287Y-110037927D01*
X135251797Y-109965077D01*
X135289621Y-109881662D01*
X135332297Y-109786071D01*
X135370042Y-109695215D01*
X135397783Y-109621637D01*
X135408160Y-109588591D01*
X135467747Y-109441401D01*
X135563450Y-109312650D01*
X135692280Y-109204559D01*
X135851249Y-109119349D01*
X136037370Y-109059240D01*
X136149056Y-109037860D01*
X136252519Y-109019224D01*
X136352920Y-108995742D01*
X136434357Y-108971334D01*
X136460702Y-108961038D01*
X136573561Y-108916564D01*
X136661344Y-108895897D01*
X136732978Y-108897632D01*
G36*
X136732978Y-108897632D02*
G01*
X136777619Y-108911139D01*
X136831144Y-108941446D01*
X136867082Y-108985116D01*
X136890051Y-109051318D01*
X136904668Y-109149224D01*
X136906394Y-109166876D01*
X136918702Y-109256666D01*
X136940836Y-109322637D01*
X136979785Y-109372119D01*
X137042537Y-109412440D01*
X137136082Y-109450930D01*
X137197402Y-109472051D01*
X137296846Y-109507202D01*
X137367215Y-109538543D01*
X137420436Y-109572794D01*
X137468436Y-109616680D01*
X137484817Y-109634046D01*
X137583807Y-109766193D01*
X137642476Y-109905750D01*
X137662721Y-110055508D01*
X137654812Y-110162795D01*
X137623350Y-110243688D01*
X137561681Y-110309849D01*
X137490335Y-110357558D01*
X137398053Y-110416601D01*
X137320254Y-110479968D01*
X137247926Y-110556846D01*
X137172057Y-110656420D01*
X137114795Y-110740348D01*
X136988193Y-110911514D01*
X136857470Y-111050801D01*
X136725406Y-111156361D01*
X136594780Y-111226349D01*
X136468372Y-111258918D01*
X136348962Y-111252221D01*
X136345453Y-111251378D01*
X136238228Y-111206988D01*
X136129141Y-111129702D01*
X136027949Y-111027332D01*
X135971827Y-110952248D01*
X135898296Y-110849771D01*
X135826519Y-110772438D01*
X135744038Y-110709752D01*
X135638392Y-110651217D01*
X135583327Y-110624980D01*
X135501134Y-110584195D01*
X135428461Y-110543171D01*
X135378489Y-110509467D01*
X135371558Y-110503514D01*
X135297640Y-110413324D01*
X135239282Y-110302255D01*
X135207057Y-110190593D01*
X135206525Y-110186865D01*
X135202484Y-110138415D01*
X135206794Y-110092238D01*
X135222287Y-110037927D01*
X135251797Y-109965077D01*
X135289621Y-109881662D01*
X135332297Y-109786071D01*
X135370042Y-109695215D01*
X135397783Y-109621637D01*
X135408160Y-109588591D01*
X135467747Y-109441401D01*
X135563450Y-109312650D01*
X135692280Y-109204559D01*
X135851249Y-109119349D01*
X136037370Y-109059240D01*
X136149056Y-109037860D01*
X136252519Y-109019224D01*
X136352920Y-108995742D01*
X136434357Y-108971334D01*
X136460702Y-108961038D01*
X136573561Y-108916564D01*
X136661344Y-108895897D01*
X136732978Y-108897632D01*
G37*
%TD*%
D25*
%TO.C,J1*%
X129159999Y-58440000D03*
D26*
X131700000Y-58440000D03*
X134240001Y-58439999D03*
X136780006Y-58440004D03*
X139319999Y-58440000D03*
X141859999Y-58440000D03*
X144400005Y-58439999D03*
%TD*%
D27*
%TO.C,Q1*%
X166815793Y-49858126D03*
X165725998Y-48301738D03*
X168294200Y-47663199D03*
%TD*%
D28*
%TO.C,U2*%
X142059995Y-114289997D03*
X142059996Y-113020001D03*
X142060001Y-111749997D03*
X142060000Y-110480000D03*
X149235001Y-110479999D03*
X149235000Y-111749995D03*
X149234995Y-113019999D03*
X149234996Y-114289996D03*
%TD*%
D29*
%TO.C,Y1*%
X145873750Y-90720241D03*
X145873753Y-92920242D03*
X144173752Y-92920241D03*
X144173749Y-90720240D03*
%TD*%
D30*
%TO.C,R_TMR1*%
X152556087Y-70375018D03*
X152556089Y-68725016D03*
%TD*%
D31*
%TO.C,R_PG_PULL1*%
X154054997Y-77750001D03*
X155705003Y-77749999D03*
%TD*%
D32*
%TO.C,J_BATT1*%
X165560000Y-53930000D03*
X164412847Y-52291691D03*
D33*
X158272894Y-53722107D03*
X162115862Y-59210422D03*
%TD*%
D34*
%TO.C,D1*%
X127320003Y-115550000D03*
X127319999Y-117449996D03*
X125320000Y-116500000D03*
%TD*%
D35*
%TO.C,C_RTC_VDD1*%
X123660000Y-112760000D03*
X123660004Y-114310000D03*
%TD*%
D36*
%TO.C,U10*%
X127780000Y-113920000D03*
X126880000Y-113920000D03*
X125980000Y-113920000D03*
X125080000Y-113920000D03*
X125080000Y-112720000D03*
X125980000Y-112720000D03*
X126880000Y-112720000D03*
X127780000Y-112720000D03*
%TD*%
D37*
%TO.C,C_TPS_OUT_HF1*%
X155510006Y-58530010D03*
X157060000Y-58530000D03*
%TD*%
D38*
%TO.C,C_CAP1203_VDD1*%
X104880000Y-51180000D03*
X105769036Y-49910308D03*
%TD*%
D39*
%TO.C,BT1*%
X131770000Y-105570000D03*
X131770012Y-89448002D03*
%TD*%
D40*
%TO.C,C_BQ_OUT1*%
X151749999Y-77190007D03*
X151750001Y-79089993D03*
%TD*%
D41*
%TO.C,U9*%
X123055035Y-106780002D03*
X121155036Y-106780000D03*
X122105035Y-104780001D03*
%TD*%
D42*
%TO.C,TP_3V3*%
X187000000Y-68360000D03*
%TD*%
D43*
%TO.C,IC1*%
X154019994Y-60704995D03*
X153519997Y-60704997D03*
X153019997Y-60704998D03*
X152519997Y-60705000D03*
X152019994Y-60705000D03*
X152020000Y-58390005D03*
X152519997Y-58390003D03*
X153019997Y-58390002D03*
X153519997Y-58390000D03*
X154020000Y-58390000D03*
D44*
X153019997Y-59547500D03*
%TD*%
D30*
%TO.C,R_PULL_SCL1*%
X124489999Y-110805001D03*
X124490001Y-109154999D03*
%TD*%
D45*
%TO.C,C_IOVDD1*%
X148106008Y-93169997D03*
X148105996Y-91619997D03*
%TD*%
D46*
%TO.C,J2*%
X138570000Y-122860000D03*
X132790000Y-122860000D03*
D47*
X138880000Y-121785000D03*
X138080000Y-121785000D03*
D48*
X136930000Y-121785000D03*
X135930000Y-121785000D03*
X135430000Y-121785000D03*
X134430000Y-121785000D03*
D47*
X133280000Y-121785000D03*
X132480000Y-121785000D03*
X132480000Y-121785000D03*
X133280000Y-121785000D03*
D48*
X133930000Y-121785000D03*
X134930000Y-121785000D03*
X136430000Y-121785000D03*
X137430000Y-121785000D03*
D47*
X138080000Y-121785000D03*
X138880000Y-121785000D03*
D49*
X140000000Y-126540000D03*
D50*
X140000000Y-122360000D03*
D49*
X131360000Y-126540000D03*
D50*
X131360000Y-122360000D03*
%TD*%
D51*
%TO.C,R_USB_DP1*%
X147445001Y-108500000D03*
X145794999Y-108500000D03*
%TD*%
D52*
%TO.C,R_BAT_BOTTOM1*%
X171845801Y-52656798D03*
X170494199Y-53603202D03*
%TD*%
D53*
%TO.C,L_TPS1*%
X153959994Y-66360002D03*
X153960000Y-62660000D03*
%TD*%
D54*
%TO.C,U1*%
X143802505Y-102629977D03*
X143802496Y-102229979D03*
X143802500Y-101829994D03*
X143802505Y-101429994D03*
X143802512Y-101029996D03*
X143802499Y-100629990D03*
X143802503Y-100229993D03*
X143802504Y-99829986D03*
X143802501Y-99429992D03*
X143802499Y-99030005D03*
X143802505Y-98629989D03*
X143802502Y-98229988D03*
X143802504Y-97829978D03*
X143802499Y-97429997D03*
D55*
X144640016Y-96592496D03*
X145040014Y-96592487D03*
X145439999Y-96592491D03*
X145839999Y-96592496D03*
X146239997Y-96592503D03*
X146640003Y-96592490D03*
X147040000Y-96592494D03*
X147440007Y-96592495D03*
X147840001Y-96592492D03*
X148239988Y-96592490D03*
X148640004Y-96592496D03*
X149040005Y-96592493D03*
X149440015Y-96592495D03*
X149839996Y-96592490D03*
D54*
X150677497Y-97430007D03*
X150677506Y-97830005D03*
X150677502Y-98229990D03*
X150677497Y-98629990D03*
X150677490Y-99029988D03*
X150677503Y-99429994D03*
X150677499Y-99829991D03*
X150677498Y-100229998D03*
X150677501Y-100629992D03*
X150677503Y-101029979D03*
X150677497Y-101429995D03*
X150677500Y-101829996D03*
X150677498Y-102230006D03*
X150677503Y-102629987D03*
D55*
X149839986Y-103467488D03*
X149439988Y-103467497D03*
X149040003Y-103467493D03*
X148640003Y-103467488D03*
X148240005Y-103467481D03*
X147839999Y-103467494D03*
X147440002Y-103467490D03*
X147039995Y-103467489D03*
X146640001Y-103467492D03*
X146240014Y-103467494D03*
X145839998Y-103467488D03*
X145439997Y-103467491D03*
X145039987Y-103467489D03*
X144640006Y-103467494D03*
D56*
X147240001Y-100029992D03*
%TD*%
D57*
%TO.C,TH1*%
X155989999Y-68781516D03*
X155990001Y-70288514D03*
%TD*%
D58*
%TO.C,R_BAT_TOP1*%
X168622599Y-50849599D03*
X169974199Y-49903201D03*
%TD*%
D35*
%TO.C,C_XOUT1*%
X142359993Y-91644995D03*
X142360007Y-93194991D03*
%TD*%
D59*
%TO.C,C_BQ_IN1*%
X150580001Y-70279998D03*
X150579999Y-68380002D03*
%TD*%
D60*
%TO.C,C_ACCEL_BULK1*%
X180430001Y-54160000D03*
X178974521Y-52938716D03*
%TD*%
D61*
%TO.C,C_IOVDD4*%
X142234986Y-102247488D03*
X140684986Y-102247488D03*
%TD*%
D30*
%TO.C,R_CC1*%
X137630000Y-119120000D03*
X137630002Y-117470002D03*
%TD*%
D37*
%TO.C,C_VREGIN1*%
X150634996Y-105140005D03*
X152184998Y-105139995D03*
%TD*%
D30*
%TO.C,R_RTC_INT1*%
X122599999Y-110795001D03*
X122600001Y-109144999D03*
%TD*%
D45*
%TO.C,C_VINA1*%
X148760006Y-59945000D03*
X148759994Y-58395000D03*
%TD*%
D37*
%TO.C,C_XIN1*%
X143998997Y-88850003D03*
X145548999Y-88849993D03*
%TD*%
D62*
%TO.C,R_LIGHT1*%
X190290300Y-65308013D03*
X189229700Y-66571987D03*
%TD*%
D51*
%TO.C,R_G1*%
X132995000Y-111110000D03*
X131345000Y-111110000D03*
%TD*%
D30*
%TO.C,R_VBACKUP1*%
X129150000Y-117250000D03*
X129150002Y-115599998D03*
%TD*%
D63*
%TO.C,TP_RUN1*%
X150350000Y-83200000D03*
%TD*%
D51*
%TO.C,R_USB_DM1*%
X147430002Y-106780000D03*
X145780000Y-106780000D03*
%TD*%
D64*
%TO.C,LED1*%
X134849993Y-109320001D03*
X134849998Y-110820006D03*
X137850002Y-109319994D03*
X137850007Y-110819999D03*
%TD*%
D45*
%TO.C,C_HALL1*%
X123040006Y-102885000D03*
X123039994Y-101335000D03*
%TD*%
D65*
%TO.C,C_MCP9808*%
X104846396Y-47572611D03*
X103576704Y-46683577D03*
%TD*%
D66*
%TO.C,C_LIGHT1*%
X187943686Y-65387376D03*
X188940000Y-64200000D03*
%TD*%
D67*
%TO.C,C_TPS_OUT1*%
X155560007Y-60439999D03*
X157459993Y-60440001D03*
%TD*%
D59*
%TO.C,C_TPS_OUT2*%
X154350002Y-56869996D03*
X154350000Y-54970000D03*
%TD*%
D35*
%TO.C,C_USBVDD1*%
X143610000Y-105660000D03*
X143610004Y-107210000D03*
%TD*%
D45*
%TO.C,C_DVDD1*%
X149770006Y-93169990D03*
X149770000Y-91620000D03*
%TD*%
D63*
%TO.C,TP_REG_EN1*%
X129020000Y-52220000D03*
%TD*%
D68*
%TO.C,U8*%
X108547279Y-56120058D03*
X107506946Y-55391607D03*
X106466626Y-54663164D03*
X105426300Y-53934721D03*
X108529347Y-49503106D03*
X109569680Y-50231557D03*
X110610000Y-50960000D03*
X111650326Y-51688443D03*
%TD*%
D30*
%TO.C,R_PULL_SDA1*%
X126279999Y-110805001D03*
X126280001Y-109154999D03*
%TD*%
%TO.C,R_CC2*%
X133300000Y-119080000D03*
X133300002Y-117429998D03*
%TD*%
D69*
%TO.C,U6*%
X183551531Y-53538622D03*
X183934554Y-53860015D03*
X184317575Y-54181409D03*
X184700597Y-54502801D03*
X185083621Y-54824196D03*
D70*
X184811528Y-55770751D03*
X184490134Y-56153772D03*
X184168742Y-56536794D03*
D69*
X183283815Y-56969118D03*
X182900792Y-56647725D03*
X182517771Y-56326331D03*
X182134749Y-56004939D03*
X181751725Y-55683544D03*
D70*
X182023818Y-54736989D03*
X182345212Y-54353968D03*
X182666604Y-53970946D03*
%TD*%
D71*
%TO.C,R_XOUT1*%
X148106000Y-88399995D03*
X148106002Y-90049995D03*
%TD*%
D72*
%TO.C,SW1*%
X134279999Y-52050000D03*
X137280001Y-52050004D03*
X138779996Y-52050003D03*
D73*
X132880001Y-51150005D03*
X140180000Y-51150000D03*
X140180000Y-48950000D03*
X132879999Y-48950006D03*
%TD*%
D74*
%TO.C,R_TOUCH_INT1*%
X111120000Y-58470000D03*
X109768398Y-57523596D03*
%TD*%
D75*
%TO.C,TP_I2C_SCL1*%
X98140000Y-53670000D03*
%TD*%
D76*
%TO.C,SW_BOOTSEL1*%
X143991544Y-123948095D03*
X146630001Y-120180000D03*
X142680905Y-123030379D03*
X145319357Y-119262273D03*
D77*
X145903838Y-122479320D03*
%TD*%
D51*
%TO.C,R_EN_PD1*%
X150300000Y-56770000D03*
X148649998Y-56770000D03*
%TD*%
D35*
%TO.C,C_IOVDD6*%
X150659997Y-106785000D03*
X150660001Y-108335000D03*
%TD*%
D78*
%TO.C,U5*%
X100971550Y-52818094D03*
X100439105Y-52445273D03*
X99906654Y-52072452D03*
X99374206Y-51699620D03*
X102012656Y-47931526D03*
X102545101Y-48304347D03*
X103077552Y-48677168D03*
X103610000Y-49050000D03*
%TD*%
D30*
%TO.C,R_ISET1*%
X154282168Y-70375018D03*
X154282170Y-68725016D03*
%TD*%
%TO.C,R_CHG_PULL1*%
X155130002Y-80985001D03*
X155129998Y-79334999D03*
%TD*%
D35*
%TO.C,C_IOVDD5*%
X141980000Y-105660000D03*
X141980004Y-107210000D03*
%TD*%
D71*
%TO.C,R_SHIELD1*%
X129260000Y-121370000D03*
X129260002Y-123020000D03*
%TD*%
D79*
%TO.C,C_VBAT_ADC1*%
X170869039Y-51308673D03*
X169599361Y-52197725D03*
%TD*%
D80*
%TO.C,U3*%
X155330009Y-72849993D03*
X155330007Y-73349999D03*
X155330007Y-73849999D03*
X155330014Y-74349998D03*
D81*
X154580013Y-75100001D03*
X154080007Y-75099999D03*
X153580007Y-75099999D03*
X153080008Y-75100006D03*
D80*
X152330005Y-74350005D03*
X152330007Y-73849999D03*
X152330007Y-73349999D03*
X152330000Y-72850000D03*
D81*
X153080001Y-72099997D03*
X153580007Y-72099999D03*
X154080007Y-72099999D03*
X154580006Y-72099992D03*
D25*
X153830007Y-73599999D03*
%TD*%
D82*
%TO.C,SW_RST1*%
X151390000Y-85120000D03*
X151389998Y-89719999D03*
X152989999Y-85119999D03*
X152990001Y-89720000D03*
D83*
X150665999Y-87419999D03*
%TD*%
D40*
%TO.C,C_TPS_IN1*%
X150370000Y-61630000D03*
X150370004Y-63529996D03*
%TD*%
D84*
%TO.C,C_ACCEL_VDD1*%
X184830001Y-58150000D03*
X186017373Y-59146316D03*
%TD*%
D75*
%TO.C,TP_I2C_SDA1*%
X113300000Y-60730000D03*
%TD*%
D45*
%TO.C,C_TPS_IN_HF1*%
X150410012Y-59940000D03*
X150410000Y-58390000D03*
%TD*%
D61*
%TO.C,C_IOVDD3*%
X141875000Y-98890000D03*
X140325000Y-98890000D03*
%TD*%
%TO.C,C_FLASH1*%
X149554999Y-116829996D03*
X148005001Y-116830008D03*
%TD*%
D85*
%TO.C,TP_GND1*%
X97370000Y-50050000D03*
%TD*%
D35*
%TO.C,C_DVDD2*%
X140339999Y-105660000D03*
X140340003Y-107210000D03*
%TD*%
D51*
%TO.C,R_B1*%
X134755000Y-112860000D03*
X133105000Y-112860000D03*
%TD*%
D71*
%TO.C,R_ILIM1*%
X150830000Y-72104997D03*
X150830000Y-73755003D03*
%TD*%
D40*
%TO.C,C_BAT1*%
X157279999Y-72260007D03*
X157280001Y-74159993D03*
%TD*%
D51*
%TO.C,R_CS_PULL1*%
X146325002Y-116830000D03*
X144675002Y-116830000D03*
%TD*%
D35*
%TO.C,C_IOVDD2*%
X152479984Y-99622488D03*
X152479988Y-101172488D03*
%TD*%
D86*
%TO.C,U7*%
X186605348Y-64071347D03*
X185748907Y-63352704D03*
D87*
X188462876Y-60987973D03*
%TD*%
D35*
%TO.C,C_ADCAVDD1*%
X152289997Y-106785000D03*
X152290001Y-108335000D03*
%TD*%
D88*
%TO.C,D2*%
X135990000Y-118950000D03*
X135490007Y-118950007D03*
X134990010Y-118950010D03*
X134990014Y-117500008D03*
X135490007Y-117500001D03*
X135990004Y-117499998D03*
%TD*%
D71*
%TO.C,R_BOOT1*%
X142970000Y-116755000D03*
X142970002Y-118405000D03*
%TD*%
D35*
%TO.C,C_VREGOUT1*%
X149029998Y-106785000D03*
X149030002Y-108335000D03*
%TD*%
D84*
%TO.C,C_ACCEL_IO1*%
X185900001Y-56870000D03*
X187087373Y-57866316D03*
%TD*%
D51*
%TO.C,R_R1*%
X132995000Y-109340000D03*
X131345000Y-109340000D03*
%TD*%
%LPD*%
M02*
