%TF.GenerationSoftware,KiCad,Pcbnew,10.0.6*%
%TF.CreationDate,2026-09-14T15:06:10+02:00*%
%TF.ProjectId,clotty,636c6f74-7479-42e6-9b69-6361645f7063,rev?*%
%TF.SameCoordinates,Original*%
%TF.FileFunction,Profile,NP*%
%FSLAX46Y46*%
G04 Gerber Fmt 4.6, Leading zero omitted, Abs format (unit mm)*
G04 Created by KiCad (PCBNEW 10.0.6) date 2026-09-14 15:06:10*
%MOMM*%
%LPD*%
G01*
G04 APERTURE LIST*
%TA.AperFunction,Profile*%
%ADD10C,0.100000*%
%TD*%
%TA.AperFunction,Profile*%
%ADD11C,0.000000*%
%TD*%
G04 APERTURE END LIST*
D10*
X79944300Y-65198500D02*
X79961400Y-65854100D01*
X79954500Y-64535300D02*
X79944300Y-65198500D01*
X79961400Y-65854100D02*
X80004800Y-66502000D01*
X79983500Y-64197200D02*
X79954500Y-64535300D01*
X80004800Y-66502000D02*
X80073700Y-67142500D01*
X80039600Y-63798100D02*
X79983500Y-64197200D01*
X80073700Y-67142500D02*
X80167000Y-67775700D01*
X80167000Y-67775700D02*
X80284100Y-68401700D01*
X80206400Y-62899500D02*
X80039600Y-63798100D01*
X80284100Y-68401700D02*
X80423900Y-69020700D01*
X80401700Y-62005600D02*
X80206400Y-62899500D01*
X80423900Y-69020700D02*
X80585600Y-69632800D01*
X80572000Y-61282300D02*
X80401700Y-62005600D01*
X80585600Y-69632800D02*
X80768200Y-70238000D01*
X80768200Y-70238000D02*
X80971000Y-70836500D01*
X80779500Y-60520700D02*
X80572000Y-61282300D01*
X80971000Y-70836500D02*
X81193000Y-71428400D01*
X80994000Y-59891000D02*
X80779500Y-60520700D01*
X81193000Y-71428400D02*
X81433300Y-72014000D01*
X81216700Y-59352600D02*
X80994000Y-59891000D01*
X81433300Y-72014000D02*
X81691100Y-72593300D01*
X81448500Y-58865500D02*
X81216700Y-59352600D01*
X81691100Y-72593300D02*
X81965400Y-73166400D01*
X81944700Y-57884000D02*
X81448500Y-58865500D01*
X81965400Y-73166400D02*
X82255500Y-73733500D01*
X82211400Y-57309100D02*
X81944700Y-57884000D01*
X82255500Y-73733500D02*
X82560300Y-74294700D01*
X82492000Y-56624400D02*
X82211400Y-57309100D01*
X82560300Y-74294700D02*
X83175200Y-75371600D01*
X82647100Y-56279600D02*
X82492000Y-56624400D01*
X82855500Y-55898700D02*
X82647100Y-56279600D01*
X83101300Y-55495100D02*
X82855500Y-55898700D01*
X83175200Y-75371600D02*
X83665100Y-76162500D01*
X83369000Y-55081700D02*
X83101300Y-55495100D01*
X83665100Y-76162500D02*
X84053600Y-76730500D01*
X83906900Y-54278100D02*
X83369000Y-55081700D01*
X84053600Y-76730500D02*
X84364500Y-77138600D01*
X84343600Y-53593200D02*
X83906900Y-54278100D01*
X84364500Y-77138600D02*
X84847500Y-77728000D01*
X84510300Y-53326000D02*
X84343600Y-53593200D01*
X84709300Y-53039000D02*
X84510300Y-53326000D01*
X84847500Y-77728000D02*
X85067000Y-78035200D01*
X85067000Y-78035200D02*
X85303500Y-78435000D01*
X85188900Y-52418900D02*
X84709300Y-53039000D01*
X85303500Y-78435000D02*
X85448400Y-78736000D01*
X85448400Y-78736000D02*
X85570500Y-79049200D01*
X85570500Y-79049200D02*
X85777700Y-79695500D01*
X85751500Y-51760600D02*
X85188900Y-52418900D01*
X85777700Y-79695500D02*
X85987900Y-80339800D01*
X85987900Y-80339800D02*
X86113500Y-80650700D01*
X86113500Y-80650700D02*
X86263400Y-80948500D01*
X86263400Y-80948500D02*
X86605600Y-81531700D01*
X86366400Y-51091800D02*
X85751500Y-51760600D01*
X86605600Y-81531700D02*
X86788700Y-81818300D01*
X86788700Y-81818300D02*
X86982700Y-82095200D01*
X86982700Y-82095200D02*
X87189600Y-82358200D01*
X87002700Y-50440000D02*
X86366400Y-51091800D01*
X87189600Y-82358200D02*
X87411600Y-82602900D01*
X87411600Y-82602900D02*
X87650900Y-82824600D01*
X87629700Y-49832500D02*
X87002700Y-50440000D01*
X87650900Y-82824600D02*
X87909400Y-83019000D01*
X87909400Y-83019000D02*
X88097200Y-83119400D01*
X88097200Y-83119400D02*
X88297500Y-83187000D01*
X88216400Y-49297100D02*
X87629700Y-49832500D01*
X88297500Y-83187000D02*
X88506500Y-83231700D01*
X88506500Y-83231700D02*
X88720600Y-83263600D01*
X88720600Y-83263600D02*
X89149500Y-83328900D01*
X88732200Y-48861400D02*
X88216400Y-49297100D01*
X89149500Y-83328900D02*
X89356900Y-83382200D01*
X89356900Y-83382200D02*
X89554900Y-83462500D01*
X89388600Y-48322100D02*
X88732200Y-48861400D01*
X89554900Y-83462500D02*
X89996300Y-83859000D01*
X89996300Y-83859000D02*
X90441800Y-84224000D01*
X90129700Y-47746400D02*
X89388600Y-48322100D01*
X90441800Y-84224000D02*
X90892100Y-84558700D01*
X90741100Y-62495400D02*
X90771600Y-62011400D01*
X90746700Y-62980800D02*
X90741100Y-62495400D01*
X90771600Y-62011400D02*
X90839000Y-61530100D01*
X90787900Y-63466300D02*
X90746700Y-62980800D01*
X90839000Y-61530100D02*
X90943800Y-61052900D01*
X90864300Y-63950600D02*
X90787900Y-63466300D01*
X90892100Y-84558700D02*
X91348000Y-84864400D01*
X90934800Y-47160400D02*
X90129700Y-47746400D01*
X90943800Y-61052900D02*
X91086600Y-60581300D01*
X90975100Y-64432200D02*
X90864300Y-63950600D01*
X91086600Y-60581300D02*
X91268200Y-60116300D01*
X91119600Y-64909800D02*
X90975100Y-64432200D01*
X91268200Y-60116300D02*
X91489000Y-59659600D01*
X91297400Y-65382100D02*
X91119600Y-64909800D01*
X91348000Y-84864400D02*
X91810000Y-85142300D01*
X91489000Y-59659600D02*
X91749500Y-59212300D01*
X91507800Y-65847700D02*
X91297400Y-65382100D01*
X91749500Y-59212300D02*
X91919800Y-59060900D01*
X91750200Y-66305200D02*
X91507800Y-65847700D01*
X91783700Y-46589800D02*
X90934800Y-47160400D01*
X91810000Y-85142300D02*
X92279000Y-85393500D01*
X91919800Y-59060900D02*
X92279300Y-58798900D01*
X92024000Y-66753500D02*
X91750200Y-66305200D01*
X92231800Y-66962200D02*
X92024000Y-66753500D01*
X92279000Y-85393500D02*
X92755700Y-85619400D01*
X92279300Y-58798900D02*
X92788800Y-58458000D01*
X92455900Y-67150000D02*
X92231800Y-66962200D01*
X92655600Y-46060700D02*
X91783700Y-46589800D01*
X92692700Y-67321100D02*
X92455900Y-67150000D01*
X92755700Y-85619400D02*
X93240700Y-85821200D01*
X92788800Y-58458000D02*
X93408700Y-58070700D01*
X92938700Y-67480000D02*
X92692700Y-67321100D01*
X93093700Y-45819800D02*
X92655600Y-46060700D01*
X93240700Y-85821200D02*
X93734800Y-86000200D01*
X93408700Y-58070700D02*
X94099800Y-57668900D01*
X93444000Y-67779300D02*
X92938700Y-67480000D01*
X93530000Y-45598900D02*
X93093700Y-45819800D01*
X93734800Y-86000200D02*
X94238900Y-86157400D01*
X93944000Y-68083900D02*
X93444000Y-67779300D01*
X93961800Y-45401400D02*
X93530000Y-45598900D01*
X94099800Y-57668900D02*
X94822900Y-57284800D01*
X94238900Y-86157400D02*
X94753400Y-86294300D01*
X94277500Y-68298800D02*
X93944000Y-68083900D01*
X94386400Y-45230500D02*
X93961800Y-45401400D01*
X94616500Y-68493800D02*
X94277500Y-68298800D01*
X94753400Y-86294300D02*
X95279200Y-86412000D01*
X94801500Y-45089300D02*
X94386400Y-45230500D01*
X94822900Y-57284800D02*
X95538400Y-56950600D01*
X94962000Y-68666800D02*
X94616500Y-68493800D01*
X95204400Y-44981000D02*
X94801500Y-45089300D01*
X95279200Y-86412000D02*
X95817100Y-86511700D01*
X95315200Y-68815500D02*
X94962000Y-68666800D01*
X95538400Y-56950600D02*
X95881000Y-56812200D01*
X95677000Y-68937300D02*
X95315200Y-68815500D01*
X95817100Y-86511700D02*
X96367700Y-86594600D01*
X95820900Y-44776600D02*
X95204400Y-44981000D01*
X95881000Y-56812200D02*
X96207000Y-56698300D01*
X96048300Y-69030100D02*
X95677000Y-68937300D01*
X96207000Y-56698300D02*
X96960800Y-56474600D01*
X96367700Y-86594600D02*
X97509800Y-86715500D01*
X96430300Y-69091400D02*
X96048300Y-69030100D01*
X96567100Y-44575800D02*
X95820900Y-44776600D01*
X96824000Y-69119100D02*
X96430300Y-69091400D01*
X96960800Y-56474600D02*
X97331900Y-56392200D01*
X97237400Y-69130200D02*
X96824000Y-69119100D01*
X97331900Y-56392200D02*
X97723000Y-56336300D01*
X97407000Y-44383100D02*
X96567100Y-44575800D01*
X97509800Y-86715500D02*
X98369000Y-86760700D01*
X97651500Y-69108100D02*
X97237400Y-69130200D01*
X97723000Y-56336300D02*
X98151600Y-56311700D01*
X98063400Y-69054500D02*
X97651500Y-69108100D01*
X98151600Y-56311700D02*
X98635800Y-56323600D01*
X98305000Y-44202700D02*
X97407000Y-44383100D01*
X98369000Y-86760700D02*
X99224900Y-86746400D01*
X98469900Y-68971200D02*
X98063400Y-69054500D01*
X98635800Y-56323600D02*
X99193100Y-56376800D01*
X99075300Y-68752100D02*
X98469900Y-68971200D01*
X99193100Y-56376800D02*
X99841400Y-56476400D01*
X99224900Y-86746400D02*
X100074000Y-86669600D01*
X99225100Y-44038400D02*
X98305000Y-44202700D01*
X99675000Y-68536500D02*
X99075300Y-68752100D01*
X99841400Y-56476400D02*
X100669500Y-56690000D01*
X99979100Y-68450600D02*
X99675000Y-68536500D01*
X100074000Y-86669600D02*
X100494800Y-86606700D01*
X100131800Y-43894800D02*
X99225100Y-44038400D01*
X100289300Y-68390400D02*
X99979100Y-68450600D01*
X100494800Y-86606700D02*
X100912600Y-86527000D01*
X100608300Y-68364000D02*
X100289300Y-68390400D01*
X100669500Y-56690000D02*
X102133000Y-57121000D01*
X100912600Y-86527000D02*
X101327000Y-86430100D01*
X100938500Y-68379700D02*
X100608300Y-68364000D01*
X100989100Y-43776000D02*
X100131800Y-43894800D01*
X101165300Y-68369600D02*
X100938500Y-68379700D01*
X101327000Y-86430100D02*
X101737500Y-86315600D01*
X101384300Y-68377600D02*
X101165300Y-68369600D01*
X101595900Y-68402400D02*
X101384300Y-68377600D01*
X101737500Y-86315600D02*
X102143500Y-86183000D01*
X101761300Y-43685900D02*
X100989100Y-43776000D01*
X101801000Y-68443400D02*
X101595900Y-68402400D01*
X102133000Y-57121000D02*
X103719300Y-57636400D01*
X102143500Y-86183000D02*
X102544800Y-86032100D01*
X102193300Y-68570200D02*
X101801000Y-68443400D01*
X102544800Y-86032100D02*
X102940900Y-85862400D01*
X102566200Y-68750400D02*
X102193300Y-68570200D01*
X102623400Y-43613400D02*
X101761300Y-43685900D01*
X102924100Y-68976600D02*
X102566200Y-68750400D01*
X102940900Y-85862400D02*
X103331200Y-85673500D01*
X103271900Y-69241700D02*
X102924100Y-68976600D01*
X103331200Y-85673500D02*
X103715400Y-85465100D01*
X103394000Y-43587200D02*
X102623400Y-43613400D01*
X103614200Y-69538200D02*
X103271900Y-69241700D01*
X103715400Y-85465100D02*
X104093100Y-85236600D01*
X103719300Y-57636400D02*
X104398300Y-57884200D01*
X103927100Y-43600400D02*
X103393800Y-43588000D01*
X103955800Y-69858700D02*
X103614200Y-69538200D01*
X104093100Y-85236600D02*
X104660700Y-84822000D01*
X104398300Y-57884200D02*
X104915900Y-58103100D01*
X104434100Y-43642000D02*
X103927100Y-43600400D01*
X104460600Y-70358400D02*
X103955800Y-69858700D01*
X104660700Y-84822000D02*
X104947700Y-84584700D01*
X104915900Y-58103100D02*
X105239900Y-58279100D01*
X104919400Y-70866100D02*
X104460600Y-70358400D01*
X104925400Y-43714000D02*
X104434100Y-43642000D01*
X104947700Y-84584700D02*
X105234000Y-84326200D01*
X105234000Y-84326200D02*
X105517200Y-84046100D01*
X105239900Y-58279100D02*
X105679400Y-58546900D01*
X105334300Y-71377200D02*
X104919400Y-70866100D01*
X105411600Y-43817500D02*
X104925400Y-43714000D01*
X105517200Y-84046100D02*
X105795100Y-83743500D01*
X105679400Y-58546900D02*
X106758500Y-59258800D01*
X105707300Y-71887000D02*
X105334300Y-71377200D01*
X105795100Y-83743500D02*
X106065600Y-83417700D01*
X105903800Y-43954000D02*
X105411600Y-43817500D01*
X106040400Y-72390900D02*
X105707300Y-71887000D01*
X106065600Y-83417700D02*
X106326300Y-83067900D01*
X106326300Y-83067900D02*
X106575100Y-82693500D01*
X106335800Y-72884200D02*
X106040400Y-72390900D01*
X106412200Y-44124700D02*
X105903800Y-43954000D01*
X106575100Y-82693500D02*
X106809700Y-82293900D01*
X106595400Y-73362500D02*
X106335800Y-72884200D01*
X106758500Y-59258800D02*
X107859200Y-60039800D01*
X106809700Y-82293900D02*
X107028000Y-81868100D01*
X106821100Y-73820800D02*
X106595400Y-73362500D01*
X106948000Y-44331000D02*
X106412200Y-44124700D01*
X107015300Y-74254700D02*
X106821100Y-73820800D01*
X107028000Y-81868100D02*
X107227700Y-81415500D01*
X107179800Y-74659400D02*
X107015300Y-74254700D01*
X107227700Y-81415500D02*
X107406600Y-80935200D01*
X107406600Y-80935200D02*
X107562500Y-80426800D01*
X107428100Y-75363000D02*
X107179800Y-74659400D01*
X107521600Y-44574100D02*
X106948000Y-44331000D01*
X107562500Y-80426800D02*
X107693100Y-79889400D01*
X107582400Y-75894400D02*
X107428100Y-75363000D01*
X107659000Y-76216700D02*
X107582400Y-75894400D01*
X107693100Y-79889400D02*
X107796200Y-79322300D01*
X107792000Y-76984500D02*
X107659000Y-76216700D01*
X107796200Y-79322300D02*
X107843800Y-78936700D01*
X107837000Y-77373800D02*
X107792000Y-76984500D01*
X107843800Y-78936700D02*
X107870300Y-78547700D01*
X107859200Y-60039800D02*
X108325700Y-60393900D01*
X107865800Y-77765000D02*
X107837000Y-77373800D01*
X107870300Y-78547700D02*
X107877300Y-78156800D01*
X107877300Y-78156800D02*
X107865800Y-77765000D01*
X107938800Y-44768100D02*
X107521600Y-44574100D01*
X108325700Y-60393900D02*
X108687400Y-60690600D01*
X108372500Y-44988800D02*
X107938800Y-44768100D01*
X108687400Y-60690600D02*
X109130200Y-61099400D01*
X109130200Y-61099400D02*
X109607200Y-61578500D01*
X109270500Y-45493300D02*
X108372500Y-44988800D01*
X109607200Y-61578500D02*
X110102800Y-62109500D01*
X110102800Y-62109500D02*
X110601800Y-62674300D01*
X110178100Y-46052100D02*
X109270500Y-45493300D01*
X110601800Y-62674300D02*
X111088700Y-63254500D01*
X111058400Y-46629700D02*
X110178100Y-46052100D01*
X111088700Y-63254500D02*
X111548100Y-63831800D01*
X111548100Y-63831800D02*
X111964400Y-64388000D01*
X111873600Y-47190600D02*
X111058400Y-46629700D01*
X111964400Y-64388000D02*
X112322300Y-64904800D01*
X112322300Y-64904800D02*
X112653800Y-65443200D01*
X112586600Y-47699400D02*
X111873600Y-47190600D01*
X112653800Y-65443200D02*
X112962000Y-65998300D01*
X112962000Y-65998300D02*
X113556300Y-67123200D01*
X113556100Y-48418700D02*
X112586600Y-47699400D01*
X113556300Y-67123200D02*
X113807900Y-67536300D01*
X113625100Y-76851000D02*
X113625300Y-77695500D01*
X113625300Y-77695500D02*
X113650700Y-78476500D01*
X113647600Y-76006000D02*
X113625100Y-76851000D01*
X113650700Y-78476500D02*
X113693900Y-79267100D01*
X113691400Y-75161200D02*
X113647600Y-76006000D01*
X113693900Y-79267100D02*
X113759600Y-80070800D01*
X113754900Y-74317400D02*
X113691400Y-75161200D01*
X113759600Y-80070800D02*
X113852300Y-80891600D01*
X113807900Y-67536300D02*
X114073600Y-67944400D01*
X113836500Y-73475300D02*
X113754900Y-74317400D01*
X113852300Y-80891600D02*
X113976600Y-81733400D01*
X113919000Y-48711300D02*
X113556100Y-48418700D01*
X113934500Y-72635900D02*
X113836500Y-73475300D01*
X113976600Y-81733400D02*
X114137200Y-82600000D01*
X114073600Y-67944400D02*
X114196100Y-68152700D01*
X114137200Y-82600000D02*
X114338600Y-83495300D01*
X114174000Y-70967600D02*
X113934500Y-72635900D01*
X114196100Y-68152700D02*
X114303600Y-68367000D01*
X114271300Y-49021200D02*
X113919000Y-48711300D01*
X114275500Y-70431200D02*
X114174000Y-70967600D01*
X114303600Y-68367000D02*
X114389600Y-68589800D01*
X114338600Y-83495300D02*
X114585300Y-84423200D01*
X114389600Y-68589800D02*
X114447900Y-68823300D01*
X114394600Y-69893600D02*
X114275500Y-70431200D01*
X114442100Y-69625000D02*
X114394600Y-69893600D01*
X114447900Y-68823300D02*
X114476100Y-69089700D01*
X114471800Y-69357000D02*
X114442100Y-69625000D01*
X114476100Y-69089700D02*
X114471800Y-69357000D01*
X114585300Y-84423200D02*
X114793900Y-85101000D01*
X114793900Y-85101000D02*
X115026100Y-85770200D01*
X114963600Y-49660000D02*
X114271300Y-49021200D01*
X115026100Y-85770200D02*
X115277800Y-86431600D01*
X115277800Y-86431600D02*
X115545200Y-87085200D01*
X115313500Y-49972500D02*
X114963600Y-49660000D01*
X115545200Y-87085200D02*
X115917100Y-87885300D01*
X115672300Y-50269700D02*
X115313500Y-49972500D01*
X115917100Y-87885300D02*
X116451800Y-88938200D01*
X116045100Y-50543100D02*
X115672300Y-50269700D01*
X116436600Y-50784800D02*
X116045100Y-50543100D01*
X116451800Y-88938200D02*
X117062100Y-90082100D01*
X116861100Y-51004000D02*
X116436600Y-50784800D01*
X117062100Y-90082100D02*
X117660300Y-91155000D01*
X117302400Y-51188800D02*
X116861100Y-51004000D01*
X117527600Y-51262300D02*
X117302400Y-51188800D01*
X117660300Y-91155000D02*
X118135900Y-91918700D01*
X117755900Y-51319700D02*
X117527600Y-51262300D01*
X117986600Y-51358600D02*
X117755900Y-51319700D01*
X118135900Y-91918700D02*
X118592700Y-92695200D01*
X118218900Y-51376600D02*
X117986600Y-51358600D01*
X118430000Y-51370000D02*
X118218900Y-51376600D01*
X118592700Y-92695200D02*
X119033000Y-93482700D01*
X118639100Y-51340800D02*
X118430000Y-51370000D01*
X119033000Y-93482700D02*
X119458600Y-94279800D01*
X119052400Y-51232000D02*
X118639100Y-51340800D01*
X119420100Y-106822100D02*
X119420100Y-107155100D01*
X119420100Y-107155100D02*
X119441500Y-107501000D01*
X119437700Y-106498800D02*
X119420100Y-106822100D01*
X119441500Y-107501000D02*
X119489700Y-107874000D01*
X119458600Y-94279800D02*
X119637700Y-94645600D01*
X119489700Y-107874000D02*
X119562900Y-108243700D01*
X119511000Y-105868400D02*
X119437700Y-106498800D01*
X119562900Y-108243700D02*
X119670500Y-108646900D01*
X119610300Y-105239100D02*
X119511000Y-105868400D01*
X119637700Y-94645600D02*
X119769000Y-94972500D01*
X119670500Y-108646900D02*
X119821100Y-109177500D01*
X119705000Y-102053100D02*
X119722700Y-102621200D01*
X119705900Y-104585500D02*
X119610300Y-105239100D01*
X119711600Y-101429500D02*
X119705000Y-102053100D01*
X119722700Y-102621200D02*
X119767700Y-103105100D01*
X119739600Y-100779300D02*
X119711600Y-101429500D01*
X119767700Y-103105100D02*
X119777700Y-103504700D01*
X119768300Y-103882600D02*
X119705900Y-104585500D01*
X119769000Y-94972500D02*
X119869200Y-95309900D01*
X119777700Y-103504700D02*
X119768300Y-103882600D01*
X119785800Y-100131100D02*
X119739600Y-100779300D01*
X119821100Y-109177500D02*
X119950100Y-109510800D01*
X119847200Y-99513700D02*
X119785800Y-100131100D01*
X119864900Y-50932900D02*
X119052400Y-51232000D01*
X119869200Y-95309900D02*
X119954900Y-95707400D01*
X119920900Y-98955900D02*
X119847200Y-99513700D01*
X119950100Y-109510800D02*
X120083100Y-109842700D01*
X119954900Y-95707400D02*
X120031900Y-96143300D01*
X120003800Y-98486400D02*
X119920900Y-98955900D01*
X120031900Y-96143300D02*
X120097600Y-96618000D01*
X120052300Y-98251800D02*
X120003800Y-98486400D01*
X120080300Y-98013300D02*
X120052300Y-98251800D01*
X120083100Y-109842700D02*
X120225800Y-110239700D01*
X120097600Y-96618000D02*
X120133200Y-97093900D01*
X120119900Y-97533300D02*
X120080300Y-98013300D01*
X120133200Y-97093900D02*
X120133800Y-97320500D01*
X120133800Y-97320500D02*
X120119900Y-97533300D01*
X120225800Y-110239700D02*
X120353300Y-110641400D01*
X120248300Y-50784600D02*
X119864900Y-50932900D01*
X120353300Y-110641400D02*
X120465900Y-111076300D01*
X120465900Y-111076300D02*
X120564800Y-111514500D01*
X120564800Y-111514500D02*
X120752700Y-112393500D01*
X120625500Y-50617900D02*
X120248300Y-50784600D01*
X120752700Y-112393500D02*
X120882700Y-113036200D01*
X120882700Y-113036200D02*
X121002900Y-113681500D01*
X121002900Y-113681500D02*
X121139400Y-114322400D01*
X121139400Y-114322400D02*
X121221800Y-114639000D01*
X121221800Y-114639000D02*
X121317900Y-114951900D01*
X121317900Y-114951900D02*
X121440300Y-115259300D01*
X121370100Y-50255500D02*
X120625500Y-50617900D01*
X121440300Y-115259300D02*
X121594300Y-115591800D01*
X121594300Y-115591800D02*
X121782200Y-115967300D01*
X121782200Y-115967300D02*
X122225000Y-116994700D01*
X122116400Y-49899000D02*
X121370100Y-50255500D01*
X122225000Y-116994700D02*
X122658900Y-118028000D01*
X122495800Y-49739700D02*
X122116400Y-49899000D01*
X122658900Y-118028000D02*
X123096300Y-119061200D01*
X122882200Y-49601900D02*
X122495800Y-49739700D01*
X123096300Y-119061200D02*
X123550000Y-120088300D01*
X123550000Y-120088300D02*
X123897400Y-120768400D01*
X123588300Y-49391200D02*
X122882200Y-49601900D01*
X123897400Y-120768400D02*
X124272300Y-121432300D01*
X123904700Y-61992400D02*
X123904700Y-87208400D01*
X123904700Y-87208400D02*
X149120700Y-87208400D01*
X124272300Y-121432300D02*
X124673900Y-122077700D01*
X124300600Y-49205700D02*
X123588300Y-49391200D01*
X124673900Y-122077700D02*
X125101600Y-122702400D01*
X125018000Y-49042000D02*
X124300600Y-49205700D01*
X125101600Y-122702400D02*
X125884500Y-123666000D01*
X125739300Y-48896200D02*
X125018000Y-49042000D01*
X125884500Y-123666000D02*
X126236700Y-124295900D01*
X126236700Y-124295900D02*
X126519400Y-124916800D01*
X126519400Y-124916800D02*
X126812900Y-125416100D01*
X126812900Y-125416100D02*
X126920700Y-125632600D01*
X126920700Y-125632600D02*
X127051100Y-125890500D01*
X127051100Y-125890500D02*
X127412200Y-126514500D01*
X127189500Y-48643600D02*
X125739300Y-48896200D01*
X127412200Y-126514500D02*
X127929500Y-127256500D01*
X127929500Y-127256500D02*
X128633300Y-128103500D01*
X128633300Y-128103500D02*
X129288900Y-128839500D01*
X128642600Y-48418800D02*
X127189500Y-48643600D01*
X129288900Y-128839500D02*
X130201500Y-129211500D01*
X129697700Y-48279700D02*
X128642600Y-48418800D01*
X130201500Y-129211500D02*
X130430500Y-129275500D01*
X130430500Y-129275500D02*
X130657300Y-129310500D01*
X130657300Y-129310500D02*
X130883500Y-129322500D01*
X130883500Y-129322500D02*
X131110700Y-129319500D01*
X130951900Y-48145600D02*
X129697700Y-48279700D01*
X131110700Y-129319500D02*
X131574800Y-129296500D01*
X131574800Y-129296500D02*
X131815000Y-129291500D01*
X131815000Y-129291500D02*
X132062700Y-129299500D01*
X132062700Y-129299500D02*
X133512800Y-129311500D01*
X133512800Y-129311500D02*
X134140900Y-129317500D01*
X133638700Y-47909000D02*
X130951900Y-48145600D01*
X134140900Y-129317500D02*
X134460800Y-129307500D01*
X134460800Y-129307500D02*
X134801400Y-129290500D01*
X134801400Y-129290500D02*
X135491700Y-129271500D01*
X135491700Y-129271500D02*
X136878100Y-129284500D01*
X135865300Y-47742300D02*
X133638700Y-47909000D01*
X136793700Y-47679400D02*
X135865300Y-47742300D01*
X136878100Y-129284500D02*
X137567000Y-129295500D01*
X137567000Y-129295500D02*
X138262100Y-129295500D01*
X137722100Y-47742300D02*
X136793700Y-47679400D01*
X138262100Y-129295500D02*
X139379600Y-129334500D01*
X139379600Y-129334500D02*
X139867400Y-129324500D01*
X139867400Y-129324500D02*
X140452300Y-129374500D01*
X139948900Y-47909000D02*
X137722100Y-47742300D01*
X140452300Y-129374500D02*
X141740100Y-129376500D01*
X141740100Y-129376500D02*
X142154300Y-129311500D01*
X142154300Y-129311500D02*
X142564000Y-129201500D01*
X142564000Y-129201500D02*
X142955200Y-129044500D01*
X142635900Y-48145600D02*
X139948900Y-47909000D01*
X142955200Y-129044500D02*
X143139700Y-128948500D01*
X143139700Y-128948500D02*
X143314300Y-128839500D01*
X143314300Y-128839500D02*
X143591000Y-128628500D01*
X143591000Y-128628500D02*
X143855800Y-128401500D01*
X143855800Y-128401500D02*
X144109800Y-128161500D01*
X143890200Y-48279700D02*
X142635900Y-48145600D01*
X144109800Y-128161500D02*
X144353800Y-127909500D01*
X144353800Y-127909500D02*
X144815700Y-127380500D01*
X144815700Y-127380500D02*
X145248900Y-126829500D01*
X144945300Y-48418800D02*
X143890200Y-48279700D01*
X145248900Y-126829500D02*
X145747700Y-126050500D01*
X145747700Y-126050500D02*
X146102900Y-125605500D01*
X146102900Y-125605500D02*
X146355300Y-125125100D01*
X146355300Y-125125100D02*
X146752200Y-124674600D01*
X146398200Y-48643600D02*
X144945300Y-48418800D01*
X146752200Y-124674600D02*
X147137900Y-124202400D01*
X147137900Y-124202400D02*
X147920800Y-123238800D01*
X147848300Y-48896200D02*
X146398200Y-48643600D01*
X147920800Y-123238800D02*
X148348500Y-122614100D01*
X148348500Y-122614100D02*
X148750100Y-121968700D01*
X148569500Y-49042000D02*
X147848300Y-48896200D01*
X148750100Y-121968700D02*
X149125000Y-121304800D01*
X149120700Y-61992400D02*
X123904700Y-61992400D01*
X149120700Y-87208400D02*
X149120700Y-61992400D01*
X149125000Y-121304800D02*
X149472500Y-120624700D01*
X149286800Y-49205700D02*
X148569500Y-49042000D01*
X149472500Y-120624700D02*
X149926100Y-119597600D01*
X149926100Y-119597600D02*
X150363500Y-118564400D01*
X149999100Y-49391200D02*
X149286800Y-49205700D01*
X150363500Y-118564400D02*
X150797300Y-117531100D01*
X150705300Y-49601900D02*
X149999100Y-49391200D01*
X150797300Y-117531100D02*
X151240000Y-116503700D01*
X151091700Y-49739700D02*
X150705300Y-49601900D01*
X151240000Y-116503700D02*
X151422100Y-116126200D01*
X151422100Y-116126200D02*
X151704200Y-115488300D01*
X151471100Y-49899000D02*
X151091700Y-49739700D01*
X151704200Y-115488300D02*
X151931400Y-114873800D01*
X151931400Y-114873800D02*
X152145100Y-114242200D01*
X152145100Y-114242200D02*
X152329700Y-113625600D01*
X152217600Y-50255500D02*
X151471100Y-49899000D01*
X152329700Y-113625600D02*
X152469700Y-113056100D01*
X152469700Y-113056100D02*
X152735500Y-111910200D01*
X152735500Y-111910200D02*
X152857900Y-111381900D01*
X152857900Y-111381900D02*
X152936500Y-110973200D01*
X152936500Y-110973200D02*
X152987200Y-110490900D01*
X152962300Y-50617900D02*
X152217600Y-50255500D01*
X152987200Y-110490900D02*
X153043000Y-110132800D01*
X153043000Y-110132800D02*
X153103200Y-109866500D01*
X153103200Y-109866500D02*
X153167600Y-109659700D01*
X153167600Y-109659700D02*
X153307300Y-109295100D01*
X153244800Y-104041100D02*
X153254800Y-103641500D01*
X153254200Y-104419000D02*
X153244800Y-104041100D01*
X153254800Y-103641500D02*
X153291500Y-103257300D01*
X153291500Y-103257300D02*
X153371400Y-102694600D01*
X153307300Y-109295100D02*
X153381900Y-109072600D01*
X153316500Y-105121900D02*
X153254200Y-104419000D01*
X153339600Y-50784600D02*
X152962300Y-50617900D01*
X153371400Y-102694600D02*
X153491800Y-101995200D01*
X153381900Y-109072600D02*
X153459100Y-108780100D01*
X153412000Y-105775500D02*
X153316500Y-105121900D01*
X153459100Y-108780100D02*
X153534200Y-108399200D01*
X153491800Y-101995200D02*
X153650200Y-101200100D01*
X153511200Y-106404800D02*
X153412000Y-105775500D01*
X153534200Y-108399200D02*
X153580600Y-108037400D01*
X153580600Y-108037400D02*
X153601900Y-107691500D01*
X153584400Y-107035200D02*
X153511200Y-106404800D01*
X153601900Y-107691500D02*
X153602000Y-107358500D01*
X153602000Y-107358500D02*
X153584400Y-107035200D01*
X153650200Y-101200100D02*
X153844100Y-100350800D01*
X153723000Y-50932900D02*
X153339600Y-50784600D01*
X153844100Y-100350800D02*
X153869500Y-99729000D01*
X153869500Y-99729000D02*
X153908600Y-99206100D01*
X153908600Y-99206100D02*
X153991300Y-98310000D01*
X153916400Y-96087000D02*
X153917100Y-95630600D01*
X153917100Y-95630600D02*
X153948900Y-95173800D01*
X153948900Y-95173800D02*
X154017900Y-94722000D01*
X153988200Y-96788600D02*
X153916400Y-96087000D01*
X153991300Y-98310000D02*
X154016500Y-97863400D01*
X154016500Y-97863400D02*
X154018500Y-97368500D01*
X154017900Y-94722000D02*
X154130400Y-94280800D01*
X154018500Y-97368500D02*
X153988200Y-96788600D01*
X154130400Y-94280800D02*
X154234900Y-94035200D01*
X154234900Y-94035200D02*
X154376900Y-93774700D01*
X154376900Y-93774700D02*
X154555900Y-93483700D01*
X154535300Y-51232000D02*
X153723000Y-50932900D01*
X154555900Y-93483700D02*
X154996000Y-92696200D01*
X154948300Y-51340800D02*
X154535300Y-51232000D01*
X154996000Y-92696200D02*
X155452900Y-91919700D01*
X155157300Y-51370000D02*
X154948300Y-51340800D01*
X155368300Y-51376600D02*
X155157300Y-51370000D01*
X155452900Y-91919700D02*
X155928400Y-91156100D01*
X155600700Y-51358600D02*
X155368300Y-51376600D01*
X155831400Y-51319700D02*
X155600700Y-51358600D01*
X155928400Y-91156100D02*
X156526700Y-90083100D01*
X156059800Y-51262300D02*
X155831400Y-51319700D01*
X156285600Y-51189000D02*
X156059800Y-51262300D01*
X156526700Y-90083100D02*
X157137100Y-88939300D01*
X156727000Y-51004200D02*
X156285600Y-51189000D01*
X157137100Y-88939300D02*
X157672000Y-87886300D01*
X157151500Y-50785000D02*
X156727000Y-51004200D01*
X157543000Y-50543300D02*
X157151500Y-50785000D01*
X157672000Y-87886300D02*
X158043900Y-87086300D01*
X157915600Y-50269900D02*
X157543000Y-50543300D01*
X158043900Y-87086300D02*
X158311400Y-86432600D01*
X158274400Y-49972700D02*
X157915600Y-50269900D01*
X158311400Y-86432600D02*
X158563200Y-85771300D01*
X158563200Y-85771300D02*
X158795300Y-85102000D01*
X158624200Y-49660200D02*
X158274400Y-49972700D01*
X158795300Y-85102000D02*
X159004000Y-84424200D01*
X159004000Y-84424200D02*
X159250700Y-83496400D01*
X159112500Y-69090700D02*
X159140800Y-68824300D01*
X159116900Y-69358000D02*
X159112500Y-69090700D01*
X159140800Y-68824300D02*
X159199100Y-68590800D01*
X159146700Y-69626100D02*
X159116900Y-69358000D01*
X159194400Y-69894600D02*
X159146700Y-69626100D01*
X159199100Y-68590800D02*
X159285200Y-68368000D01*
X159250700Y-83496400D02*
X159452100Y-82601000D01*
X159285200Y-68368000D02*
X159392500Y-68153700D01*
X159313600Y-70432200D02*
X159194400Y-69894600D01*
X159316400Y-49021400D02*
X158624200Y-49660200D01*
X159392500Y-68153700D02*
X159515100Y-67945400D01*
X159415300Y-70968700D02*
X159313600Y-70432200D01*
X159452100Y-82601000D02*
X159612600Y-81734400D01*
X159515100Y-67945400D02*
X159780700Y-67537300D01*
X159612600Y-81734400D02*
X159736900Y-80892700D01*
X159654800Y-72636900D02*
X159415300Y-70968700D01*
X159668600Y-48711500D02*
X159316400Y-49021400D01*
X159736900Y-80892700D02*
X159829700Y-80071800D01*
X159752800Y-73476300D02*
X159654800Y-72636900D01*
X159780700Y-67537300D02*
X160032400Y-67124200D01*
X159829700Y-80071800D02*
X159895400Y-79268100D01*
X159834300Y-74318400D02*
X159752800Y-73476300D01*
X159895400Y-79268100D02*
X159938600Y-78477600D01*
X159897800Y-75162200D02*
X159834300Y-74318400D01*
X159938600Y-78477600D02*
X159963900Y-77696500D01*
X159941500Y-76007000D02*
X159897800Y-75162200D01*
X159963900Y-77696500D02*
X159964100Y-76852000D01*
X159964100Y-76852000D02*
X159941500Y-76007000D01*
X160031400Y-48418900D02*
X159668600Y-48711500D01*
X160032400Y-67124200D02*
X160627000Y-65999300D01*
X160627000Y-65999300D02*
X160935300Y-65444300D01*
X160935300Y-65444300D02*
X161267000Y-64905900D01*
X161001100Y-47699600D02*
X160031400Y-48418900D01*
X161267000Y-64905900D02*
X161624800Y-64389100D01*
X161624800Y-64389100D02*
X162041100Y-63832800D01*
X161714000Y-47190800D02*
X161001100Y-47699600D01*
X162041100Y-63832800D02*
X162500300Y-63255500D01*
X162500300Y-63255500D02*
X162987100Y-62675300D01*
X162529200Y-46629900D02*
X161714000Y-47190800D01*
X162987100Y-62675300D02*
X163486000Y-62110600D01*
X163409400Y-46052300D02*
X162529200Y-46629900D01*
X163486000Y-62110600D02*
X163981700Y-61579600D01*
X163981700Y-61579600D02*
X164458500Y-61100500D01*
X164317200Y-45493500D02*
X163409400Y-46052300D01*
X164458500Y-61100500D02*
X164901200Y-60691600D01*
X164901200Y-60691600D02*
X165263000Y-60394900D01*
X165215200Y-44989000D02*
X164317200Y-45493500D01*
X165263000Y-60394900D02*
X165729600Y-60040800D01*
X165648800Y-44768300D02*
X165215200Y-44989000D01*
X165711800Y-78157800D02*
X165718700Y-78548700D01*
X165718700Y-78548700D02*
X165745400Y-78937800D01*
X165723400Y-77766000D02*
X165711800Y-78157800D01*
X165729600Y-60040800D02*
X166830200Y-59259800D01*
X165745400Y-78937800D02*
X165792800Y-79323300D01*
X165752200Y-77374800D02*
X165723400Y-77766000D01*
X165792800Y-79323300D02*
X165895900Y-79890400D01*
X165797100Y-76985500D02*
X165752200Y-77374800D01*
X165895900Y-79890400D02*
X166026600Y-80427800D01*
X165930100Y-76217700D02*
X165797100Y-76985500D01*
X166006700Y-75895400D02*
X165930100Y-76217700D01*
X166026600Y-80427800D02*
X166182400Y-80936200D01*
X166066000Y-44574300D02*
X165648800Y-44768300D01*
X166160900Y-75364000D02*
X166006700Y-75895400D01*
X166182400Y-80936200D02*
X166361300Y-81416500D01*
X166361300Y-81416500D02*
X166561000Y-81869100D01*
X166409100Y-74660400D02*
X166160900Y-75364000D01*
X166561000Y-81869100D02*
X166779300Y-82294900D01*
X166573500Y-74255700D02*
X166409100Y-74660400D01*
X166767600Y-73821800D02*
X166573500Y-74255700D01*
X166779300Y-82294900D02*
X167014000Y-82694600D01*
X166821900Y-44258400D02*
X166066000Y-44574300D01*
X166830200Y-59259800D02*
X167909200Y-58548000D01*
X166993500Y-73363500D02*
X166767600Y-73821800D01*
X167014000Y-82694600D02*
X167262800Y-83069000D01*
X167253000Y-72885300D02*
X166993500Y-73363500D01*
X167262800Y-83069000D02*
X167523600Y-83418700D01*
X167516800Y-44007200D02*
X166821900Y-44258400D01*
X167523600Y-83418700D02*
X167793900Y-83744500D01*
X167548300Y-72391900D02*
X167253000Y-72885300D01*
X167793900Y-83744500D02*
X168071800Y-84047100D01*
X167881400Y-71888000D02*
X167548300Y-72391900D01*
X167909200Y-58548000D02*
X168348900Y-58280100D01*
X168071800Y-84047100D02*
X168355100Y-84327300D01*
X168175900Y-43817700D02*
X167516800Y-44007200D01*
X168254400Y-71378200D02*
X167881400Y-71888000D01*
X168348900Y-58280100D02*
X168672800Y-58104200D01*
X168355100Y-84327300D02*
X168641300Y-84585700D01*
X168641300Y-84585700D02*
X168928400Y-84823000D01*
X168669200Y-70867100D02*
X168254400Y-71378200D01*
X168672800Y-58104200D02*
X169190400Y-57885300D01*
X168824900Y-43686700D02*
X168175900Y-43817700D01*
X168928400Y-84823000D02*
X169495800Y-85237700D01*
X169128000Y-70359400D02*
X168669200Y-70867100D01*
X169190400Y-57885300D02*
X169869000Y-57637400D01*
X169488900Y-43611100D02*
X168824900Y-43686700D01*
X169495800Y-85237700D02*
X169873000Y-85466100D01*
X169633000Y-69859700D02*
X169128000Y-70359400D01*
X169869000Y-57637400D02*
X171455000Y-57122100D01*
X169873000Y-85466100D02*
X170257000Y-85674500D01*
X169974000Y-69539200D02*
X169633000Y-69859700D01*
X170194000Y-43588100D02*
X169488900Y-43611100D01*
X170257000Y-85674500D02*
X170649000Y-85863500D01*
X170316000Y-69242700D02*
X169974000Y-69539200D01*
X170649000Y-85863500D02*
X171045000Y-86033200D01*
X170664000Y-68977700D02*
X170316000Y-69242700D01*
X170964000Y-43614400D02*
X170194000Y-43588100D01*
X171022000Y-68751400D02*
X170664000Y-68977700D01*
X171045000Y-86033200D02*
X171446000Y-86184100D01*
X171396000Y-68571200D02*
X171022000Y-68751400D01*
X171446000Y-86184100D02*
X171851000Y-86316700D01*
X171455000Y-57122100D02*
X172919000Y-56691000D01*
X171788000Y-68444400D02*
X171396000Y-68571200D01*
X171826000Y-43686900D02*
X170964000Y-43614400D01*
X171851000Y-86316700D02*
X172262000Y-86431100D01*
X171993000Y-68403400D02*
X171788000Y-68444400D01*
X172204000Y-68378600D02*
X171993000Y-68403400D01*
X172262000Y-86431100D02*
X172677000Y-86528100D01*
X172423000Y-68370600D02*
X172204000Y-68378600D01*
X172598000Y-43777000D02*
X171826000Y-43686900D01*
X172650000Y-68380700D02*
X172423000Y-68370600D01*
X172677000Y-86528100D02*
X173094000Y-86607700D01*
X172919000Y-56691000D02*
X173747000Y-56477400D01*
X172981000Y-68365000D02*
X172650000Y-68380700D01*
X173094000Y-86607700D02*
X173515000Y-86670700D01*
X173299000Y-68391400D02*
X172981000Y-68365000D01*
X173456000Y-43895800D02*
X172598000Y-43777000D01*
X173515000Y-86670700D02*
X174364000Y-86747500D01*
X173610000Y-68451700D02*
X173299000Y-68391400D01*
X173747000Y-56477400D02*
X174395000Y-56377800D01*
X173914000Y-68537500D02*
X173610000Y-68451700D01*
X174363000Y-44039500D02*
X173456000Y-43895800D01*
X174364000Y-86747500D02*
X175220000Y-86761800D01*
X174395000Y-56377800D02*
X174953000Y-56324600D01*
X174514000Y-68753100D02*
X173914000Y-68537500D01*
X174953000Y-56324600D02*
X175437000Y-56312700D01*
X175119000Y-68972200D02*
X174514000Y-68753100D01*
X175220000Y-86761800D02*
X176080000Y-86716500D01*
X175283000Y-44203700D02*
X174363000Y-44039500D01*
X175437000Y-56312700D02*
X175866000Y-56337300D01*
X175526000Y-69055500D02*
X175119000Y-68972200D01*
X175866000Y-56337300D02*
X176257000Y-56393200D01*
X175937000Y-69109200D02*
X175526000Y-69055500D01*
X176080000Y-86716500D02*
X177222000Y-86595700D01*
X176181000Y-44384100D02*
X175283000Y-44203700D01*
X176257000Y-56393200D02*
X176629000Y-56475600D01*
X176351000Y-69131300D02*
X175937000Y-69109200D01*
X176629000Y-56475600D02*
X177382000Y-56699300D01*
X176765000Y-69120100D02*
X176351000Y-69131300D01*
X177021000Y-44576900D02*
X176181000Y-44384100D01*
X177158000Y-69092500D02*
X176765000Y-69120100D01*
X177222000Y-86595700D02*
X177772000Y-86512700D01*
X177382000Y-56699300D02*
X177708000Y-56813200D01*
X177540000Y-69031100D02*
X177158000Y-69092500D01*
X177708000Y-56813200D02*
X178051000Y-56951600D01*
X177767000Y-44777600D02*
X177021000Y-44576900D01*
X177772000Y-86512700D02*
X178310000Y-86413000D01*
X177912000Y-68938300D02*
X177540000Y-69031100D01*
X178051000Y-56951600D02*
X178767000Y-57285900D01*
X178274000Y-68816500D02*
X177912000Y-68938300D01*
X178310000Y-86413000D02*
X178835000Y-86295300D01*
X178383000Y-44982100D02*
X177767000Y-44777600D01*
X178626000Y-68667800D02*
X178274000Y-68816500D01*
X178767000Y-57285900D02*
X179489000Y-57670000D01*
X178786000Y-45090300D02*
X178383000Y-44982100D01*
X178835000Y-86295300D02*
X179350000Y-86158500D01*
X178972000Y-68494900D02*
X178626000Y-68667800D01*
X179201000Y-45231500D02*
X178786000Y-45090300D01*
X179312000Y-68299700D02*
X178972000Y-68494900D01*
X179350000Y-86158500D02*
X179854000Y-86001200D01*
X179489000Y-57670000D02*
X180180000Y-58071700D01*
X179626000Y-45402400D02*
X179201000Y-45231500D01*
X179645000Y-68085000D02*
X179312000Y-68299700D01*
X179854000Y-86001200D02*
X180348000Y-85822200D01*
X180058000Y-45600000D02*
X179626000Y-45402400D01*
X180145000Y-67780300D02*
X179645000Y-68085000D01*
X180180000Y-58071700D02*
X180800000Y-58459100D01*
X180348000Y-85822200D02*
X180833000Y-85620400D01*
X180494000Y-45820800D02*
X180058000Y-45600000D01*
X180651000Y-67481100D02*
X180145000Y-67780300D01*
X180800000Y-58459100D02*
X181310000Y-58799900D01*
X180833000Y-85620400D02*
X181310000Y-85394500D01*
X180897000Y-67322100D02*
X180651000Y-67481100D01*
X180932000Y-46061800D02*
X180494000Y-45820800D01*
X181133000Y-67151100D02*
X180897000Y-67322100D01*
X181310000Y-58799900D02*
X181669000Y-59062000D01*
X181310000Y-85394500D02*
X181779000Y-85143300D01*
X181358000Y-66963300D02*
X181133000Y-67151100D01*
X181565000Y-66754500D02*
X181358000Y-66963300D01*
X181669000Y-59062000D02*
X181839000Y-59213300D01*
X181779000Y-85143300D02*
X182241000Y-84865400D01*
X181804000Y-46590900D02*
X180932000Y-46061800D01*
X181839000Y-59213300D02*
X182100000Y-59660600D01*
X181839000Y-66306300D02*
X181565000Y-66754500D01*
X182081000Y-65848700D02*
X181839000Y-66306300D01*
X182100000Y-59660600D02*
X182320000Y-60117400D01*
X182241000Y-84865400D02*
X182697000Y-84559800D01*
X182292000Y-65383100D02*
X182081000Y-65848700D01*
X182320000Y-60117400D02*
X182502000Y-60582300D01*
X182469000Y-64910800D02*
X182292000Y-65383100D01*
X182502000Y-60582300D02*
X182645000Y-61053900D01*
X182614000Y-64433200D02*
X182469000Y-64910800D01*
X182645000Y-61053900D02*
X182750000Y-61531200D01*
X182653000Y-47161400D02*
X181804000Y-46590900D01*
X182697000Y-84559800D02*
X183147000Y-84225100D01*
X182724000Y-63951600D02*
X182614000Y-64433200D01*
X182750000Y-61531200D02*
X182817000Y-62012400D01*
X182801000Y-63467400D02*
X182724000Y-63951600D01*
X182817000Y-62012400D02*
X182848000Y-62496500D01*
X182842000Y-62981900D02*
X182801000Y-63467400D01*
X182848000Y-62496500D02*
X182842000Y-62981900D01*
X183147000Y-84225100D02*
X183593000Y-83860100D01*
X183458000Y-47747400D02*
X182653000Y-47161400D01*
X183593000Y-83860100D02*
X184034000Y-83463600D01*
X184034000Y-83463600D02*
X184232000Y-83383200D01*
X184200000Y-48323100D02*
X183458000Y-47747400D01*
X184232000Y-83383200D02*
X184439000Y-83329900D01*
X184439000Y-83329900D02*
X184868000Y-83264600D01*
X184855000Y-48862400D02*
X184200000Y-48323100D01*
X184868000Y-83264600D02*
X185083000Y-83232800D01*
X185083000Y-83232800D02*
X185292000Y-83188000D01*
X185292000Y-83188000D02*
X185492000Y-83120400D01*
X185371000Y-49298200D02*
X184855000Y-48862400D01*
X185492000Y-83120400D02*
X185680000Y-83020000D01*
X185680000Y-83020000D02*
X185939000Y-82825600D01*
X185939000Y-82825600D02*
X186178000Y-82604000D01*
X185958000Y-49833500D02*
X185371000Y-49298200D01*
X186178000Y-82604000D02*
X186399000Y-82359200D01*
X186399000Y-82359200D02*
X186606000Y-82096200D01*
X186585000Y-50441000D02*
X185958000Y-49833500D01*
X186606000Y-82096200D02*
X186800000Y-81819300D01*
X186800000Y-81819300D02*
X186984000Y-81532800D01*
X186984000Y-81532800D02*
X187326000Y-80949600D01*
X187222000Y-51092800D02*
X186585000Y-50441000D01*
X187326000Y-80949600D02*
X187476000Y-80651800D01*
X187476000Y-80651800D02*
X187601000Y-80340900D01*
X187601000Y-80340900D02*
X187811000Y-79696500D01*
X187811000Y-79696500D02*
X188019000Y-79050300D01*
X187837000Y-51761700D02*
X187222000Y-51092800D01*
X188019000Y-79050300D02*
X188140000Y-78737000D01*
X188140000Y-78737000D02*
X188285000Y-78436000D01*
X188285000Y-78436000D02*
X188522000Y-78036200D01*
X188399000Y-52419900D02*
X187837000Y-51761700D01*
X188522000Y-78036200D02*
X188741000Y-77729000D01*
X188741000Y-77729000D02*
X189225000Y-77139700D01*
X188879000Y-53040000D02*
X188399000Y-52419900D01*
X189078000Y-53327100D02*
X188879000Y-53040000D01*
X189225000Y-77139700D02*
X189535000Y-76731500D01*
X189244000Y-53594200D02*
X189078000Y-53327100D01*
X189535000Y-76731500D02*
X189924000Y-76163500D01*
X189682000Y-54279200D02*
X189244000Y-53594200D01*
X189924000Y-76163500D02*
X190414000Y-75372600D01*
X190220000Y-55082700D02*
X189682000Y-54279200D01*
X190414000Y-75372600D02*
X191028000Y-74295800D01*
X190487000Y-55496100D02*
X190220000Y-55082700D01*
X190732000Y-55899800D02*
X190487000Y-55496100D01*
X190941000Y-56280700D02*
X190732000Y-55899800D01*
X191028000Y-74295800D02*
X191333000Y-73734600D01*
X191096000Y-56625400D02*
X190941000Y-56280700D01*
X191333000Y-73734600D02*
X191623000Y-73167500D01*
X191376000Y-57310100D02*
X191096000Y-56625400D01*
X191623000Y-73167500D02*
X191897000Y-72594300D01*
X191643000Y-57885100D02*
X191376000Y-57310100D01*
X191897000Y-72594300D02*
X192155000Y-72015000D01*
X192140000Y-58866600D02*
X191643000Y-57885100D01*
X192155000Y-72015000D02*
X192396000Y-71429500D01*
X192372000Y-59353600D02*
X192140000Y-58866600D01*
X192396000Y-71429500D02*
X192618000Y-70837600D01*
X192594000Y-59891900D02*
X192372000Y-59353600D01*
X192618000Y-70837600D02*
X192820000Y-70239000D01*
X192809000Y-60521700D02*
X192594000Y-59891900D01*
X192820000Y-70239000D02*
X193003000Y-69633800D01*
X193003000Y-69633800D02*
X193165000Y-69021800D01*
X193017000Y-61283300D02*
X192809000Y-60521700D01*
X193165000Y-69021800D02*
X193305000Y-68402800D01*
X193186000Y-62006500D02*
X193017000Y-61283300D01*
X193305000Y-68402800D02*
X193421000Y-67776800D01*
X193381000Y-62900500D02*
X193186000Y-62006500D01*
X193421000Y-67776800D02*
X193514000Y-67143600D01*
X193514000Y-67143600D02*
X193584000Y-66503000D01*
X193548000Y-63799200D02*
X193381000Y-62900500D01*
X193584000Y-66503000D02*
X193627000Y-65855100D01*
X193605000Y-64198300D02*
X193548000Y-63799200D01*
X193627000Y-65855100D02*
X193644000Y-65199600D01*
X193633000Y-64536300D02*
X193605000Y-64198300D01*
X193644000Y-65199600D02*
X193633000Y-64536300D01*
D11*
%TA.AperFunction,Profile*%
%TO.C,BT1*%
G36*
X131835270Y-93174281D02*
G01*
X131961341Y-93208058D01*
X132074387Y-93273324D01*
X132166677Y-93365618D01*
X132231943Y-93478662D01*
X132265725Y-93604737D01*
X132265724Y-93735257D01*
X132231943Y-93861342D01*
X132166677Y-93974381D01*
X132074387Y-94066681D01*
X131961346Y-94131947D01*
X131835269Y-94165723D01*
X131704743Y-94165723D01*
X131578663Y-94131934D01*
X131465625Y-94066677D01*
X131373331Y-93974388D01*
X131308067Y-93861343D01*
X131274287Y-93735264D01*
X131274286Y-93604740D01*
X131308066Y-93478659D01*
X131373334Y-93365616D01*
X131465625Y-93273324D01*
X131578664Y-93208064D01*
X131704741Y-93174275D01*
X131835270Y-93174281D01*
G37*
%TD.AperFunction*%
%TA.AperFunction,Profile*%
G36*
X131958692Y-100547994D02*
G01*
X132076406Y-100596754D01*
X132182360Y-100667547D01*
X132272467Y-100757648D01*
X132343258Y-100863599D01*
X132392010Y-100981313D01*
X132416872Y-101106293D01*
X132416873Y-101233721D01*
X132392014Y-101358682D01*
X132343260Y-101476413D01*
X132272459Y-101582354D01*
X132182364Y-101672454D01*
X132076416Y-101743250D01*
X131958685Y-101792005D01*
X131833717Y-101816872D01*
X131706295Y-101816871D01*
X131581327Y-101792015D01*
X131463598Y-101743248D01*
X131357650Y-101672464D01*
X131267549Y-101582357D01*
X131196764Y-101476411D01*
X131147991Y-101358686D01*
X131123137Y-101233706D01*
X131123144Y-101106285D01*
X131147999Y-100981310D01*
X131196759Y-100863599D01*
X131267546Y-100757648D01*
X131357653Y-100667543D01*
X131463593Y-100596747D01*
X131581321Y-100547990D01*
X131706292Y-100523129D01*
X131833716Y-100523126D01*
X131958692Y-100547994D01*
G37*
%TD.AperFunction*%
%TA.AperFunction,Profile*%
%TO.C,SW1*%
G36*
X135202207Y-49634257D02*
G01*
X135303943Y-49692996D01*
X135387007Y-49776064D01*
X135445745Y-49877792D01*
X135476148Y-49991262D01*
X135476151Y-50108741D01*
X135445746Y-50222214D01*
X135387007Y-50323951D01*
X135303943Y-50407010D01*
X135202210Y-50465749D01*
X135088739Y-50496152D01*
X134971263Y-50496156D01*
X134857794Y-50465747D01*
X134756059Y-50407013D01*
X134672988Y-50323947D01*
X134614253Y-50222213D01*
X134583853Y-50108739D01*
X134583849Y-49991265D01*
X134614253Y-49877797D01*
X134672992Y-49776064D01*
X134756060Y-49692992D01*
X134857793Y-49634259D01*
X134971263Y-49603857D01*
X135088736Y-49603856D01*
X135202207Y-49634257D01*
G37*
%TD.AperFunction*%
%TA.AperFunction,Profile*%
G36*
X138202210Y-49634257D02*
G01*
X138303942Y-49692996D01*
X138387011Y-49776058D01*
X138445747Y-49877791D01*
X138476147Y-49991266D01*
X138476153Y-50108741D01*
X138445746Y-50222210D01*
X138387011Y-50323942D01*
X138303946Y-50407011D01*
X138202209Y-50465751D01*
X138088741Y-50496149D01*
X137971264Y-50496153D01*
X137857791Y-50465751D01*
X137756061Y-50407011D01*
X137672989Y-50323943D01*
X137614254Y-50222206D01*
X137583854Y-50108741D01*
X137583847Y-49991267D01*
X137614256Y-49877792D01*
X137672989Y-49776057D01*
X137756060Y-49692996D01*
X137857794Y-49634257D01*
X137971260Y-49603856D01*
X138088742Y-49603850D01*
X138202210Y-49634257D01*
G37*
%TD.AperFunction*%
%TD*%
M02*
